<?xml version="1.0" encoding="UTF-8"?><svg xmlns:svg="http://www.w3.org/2000/svg" xmlns="http://www.w3.org/2000/svg" xmlns:xlink="http://www.w3.org/1999/xlink" version="1.0" width="681" height="46" viewBox="0 0 681 46" ><text x="60" y="8" font-family="Courier New, monospace" font-size="11" dominant-baseline="middle" text-anchor="middle" >f</text><text x="100" y="8" font-family="Courier New, monospace" font-size="11" dominant-baseline="middle" text-anchor="middle" >e</text><text x="140" y="8" font-family="Courier New, monospace" font-size="11" dominant-baseline="middle" text-anchor="middle" >d</text><text x="180" y="8" font-family="Courier New, monospace" font-size="11" dominant-baseline="middle" text-anchor="middle" >c</text><text x="220" y="8" font-family="Courier New, monospace" font-size="11" dominant-baseline="middle" text-anchor="middle" >b</text><text x="260" y="8" font-family="Courier New, monospace" font-size="11" dominant-baseline="middle" text-anchor="middle" >a</text><text x="300" y="8" font-family="Courier New, monospace" font-size="11" dominant-baseline="middle" text-anchor="middle" >9</text><text x="340" y="8" font-family="Courier New, monospace" font-size="11" dominant-baseline="middle" text-anchor="middle" >8</text><text x="380" y="8" font-family="Courier New, monospace" font-size="11" dominant-baseline="middle" text-anchor="middle" >7</text><text x="420" y="8" font-family="Courier New, monospace" font-size="11" dominant-baseline="middle" text-anchor="middle" >6</text><text x="460" y="8" font-family="Courier New, monospace" font-size="11" dominant-baseline="middle" text-anchor="middle" >5</text><text x="500" y="8" font-family="Courier New, monospace" font-size="11" dominant-baseline="middle" text-anchor="middle" >4</text><text x="540" y="8" font-family="Courier New, monospace" font-size="11" dominant-baseline="middle" text-anchor="middle" >3</text><text x="580" y="8" font-family="Courier New, monospace" font-size="11" dominant-baseline="middle" text-anchor="middle" >2</text><text x="620" y="8" font-family="Courier New, monospace" font-size="11" dominant-baseline="middle" text-anchor="middle" >1</text><text x="660" y="8" font-family="Courier New, monospace" font-size="11" dominant-baseline="middle" text-anchor="middle" >0</text><rect x="40" y="15" height="30" width="200" fill="#ffb0a0" /><line x1="40" y1="15" x2="240" y2="15" stroke="#000000" stroke-width="1" /><line x1="40" y1="45" x2="240" y2="45" stroke="#000000" stroke-width="1" /><line x1="240" y1="15" x2="240" y2="45" stroke="#000000" stroke-width="1" /><line x1="40" y1="15" x2="40" y2="45" stroke="#000000" stroke-width="1" /><text font-size="18" font-family="Palatino, Georgia, Times New Roman, serif" x="140" y="31" text-anchor="middle" dominant-baseline="middle" >Red</text><rect x="240" y="15" height="30" width="240" fill="#a0ffa0" /><line x1="240" y1="15" x2="480" y2="15" stroke="#000000" stroke-width="1" /><line x1="240" y1="45" x2="480" y2="45" stroke="#000000" stroke-width="1" /><line x1="480" y1="15" x2="480" y2="45" stroke="#000000" stroke-width="1" /><line x1="240" y1="15" x2="240" y2="45" stroke="#000000" stroke-width="1" /><text font-size="18" font-family="Palatino, Georgia, Times New Roman, serif" x="360" y="31" text-anchor="middle" dominant-baseline="middle" >Green</text><rect x="480" y="15" height="30" width="200" fill="#a0fafa" /><line x1="480" y1="15" x2="680" y2="15" stroke="#000000" stroke-width="1" /><line x1="480" y1="45" x2="680" y2="45" stroke="#000000" stroke-width="1" /><line x1="680" y1="15" x2="680" y2="45" stroke="#000000" stroke-width="1" /><line x1="480" y1="15" x2="480" y2="45" stroke="#000000" stroke-width="1" /><text font-size="18" font-family="Palatino, Georgia, Times New Roman, serif" x="580" y="31" text-anchor="middle" dominant-baseline="middle" >Blue</text></svg>