<?xml version="1.0" encoding="UTF-8" standalone="no"?><svg xmlns="http://www.w3.org/2000/svg" xmlns:xlink="http://www.w3.org/1999/xlink" contentStyleType="text/css" height="1558px" preserveAspectRatio="none" style="width:1004px;height:1558px;background:#FFFFFF;" version="1.1" viewBox="0 0 1004 1558" width="1004px" zoomAndPan="magnify"><defs/><g><!--cluster lbutils--><g id="cluster_lbutils"><path d="M8.5,6 L56.5,6 A3.75,3.75 0 0 1 59,8.5 L66,28.2969 L982.5,28.2969 A2.5,2.5 0 0 1 985,30.7969 L985,1548.5 A2.5,2.5 0 0 1 982.5,1551 L8.5,1551 A2.5,2.5 0 0 1 6,1548.5 L6,8.5 A2.5,2.5 0 0 1 8.5,6 " fill="none" style="stroke:#000000;stroke-width:1.5;"/><line style="stroke:#000000;stroke-width:1.5;" x1="6" x2="66" y1="28.2969" y2="28.2969"/><text fill="#000000" font-family="sans-serif" font-size="14" font-weight="bold" lengthAdjust="spacing" textLength="47" x="10" y="20.9951">lbutils</text></g><!--cluster lbutils.drivers--><g id="cluster_lbutils.drivers"><path d="M248.5,132.5 L305.5,132.5 A3.75,3.75 0 0 1 308,135 L315,154.7969 L556.5,154.7969 A2.5,2.5 0 0 1 559,157.2969 L559,262 A2.5,2.5 0 0 1 556.5,264.5 L248.5,264.5 A2.5,2.5 0 0 1 246,262 L246,135 A2.5,2.5 0 0 1 248.5,132.5 " fill="none" style="stroke:#000000;stroke-width:1.5;"/><line style="stroke:#000000;stroke-width:1.5;" x1="246" x2="315" y1="154.7969" y2="154.7969"/><text fill="#000000" font-family="sans-serif" font-size="14" font-weight="bold" lengthAdjust="spacing" textLength="56" x="250" y="147.4951">drivers</text></g><!--cluster lbutils.graphics--><g id="cluster_lbutils.graphics"><path d="M32.5,353 L101.5,353 A3.75,3.75 0 0 1 104,355.5 L111,375.2969 L958.5,375.2969 A2.5,2.5 0 0 1 961,377.7969 L961,1524.5 A2.5,2.5 0 0 1 958.5,1527 L32.5,1527 A2.5,2.5 0 0 1 30,1524.5 L30,355.5 A2.5,2.5 0 0 1 32.5,353 " fill="none" style="stroke:#000000;stroke-width:1.5;"/><line style="stroke:#000000;stroke-width:1.5;" x1="30" x2="111" y1="375.2969" y2="375.2969"/><text fill="#000000" font-family="sans-serif" font-size="14" font-weight="bold" lengthAdjust="spacing" textLength="68" x="34" y="367.9951">graphics</text></g><!--cluster lbutils.graphics.helpers--><g id="cluster_lbutils.graphics.helpers"><path d="M606.5,879.5 L667.5,879.5 A3.75,3.75 0 0 1 670,882 L677,901.7969 L921.5,901.7969 A2.5,2.5 0 0 1 924,904.2969 L924,1263.5 A2.5,2.5 0 0 1 921.5,1266 L606.5,1266 A2.5,2.5 0 0 1 604,1263.5 L604,882 A2.5,2.5 0 0 1 606.5,879.5 " fill="none" style="stroke:#000000;stroke-width:1.5;"/><line style="stroke:#000000;stroke-width:1.5;" x1="604" x2="677" y1="901.7969" y2="901.7969"/><text fill="#000000" font-family="sans-serif" font-size="14" font-weight="bold" lengthAdjust="spacing" textLength="60" x="608" y="894.4951">helpers</text></g><!--cluster lbutils.graphics.fonts--><g id="cluster_lbutils.graphics.fonts"><path d="M56.5,526.5 L98.5,526.5 A3.75,3.75 0 0 1 101,529 L108,548.7969 L577.5,548.7969 A2.5,2.5 0 0 1 580,551.2969 L580,1057.5 A2.5,2.5 0 0 1 577.5,1060 L56.5,1060 A2.5,2.5 0 0 1 54,1057.5 L54,529 A2.5,2.5 0 0 1 56.5,526.5 " fill="none" style="stroke:#000000;stroke-width:1.5;"/><line style="stroke:#000000;stroke-width:1.5;" x1="54" x2="108" y1="548.7969" y2="548.7969"/><text fill="#000000" font-family="sans-serif" font-size="14" font-weight="bold" lengthAdjust="spacing" textLength="41" x="58" y="541.4951">fonts</text></g><!--cluster lbutils.graphics.colours--><g id="cluster_lbutils.graphics.colours"><path d="M652.5,1290 L712.5,1290 A3.75,3.75 0 0 1 715,1292.5 L722,1312.2969 L901.5,1312.2969 A2.5,2.5 0 0 1 904,1314.7969 L904,1500.5 A2.5,2.5 0 0 1 901.5,1503 L652.5,1503 A2.5,2.5 0 0 1 650,1500.5 L650,1292.5 A2.5,2.5 0 0 1 652.5,1290 " fill="none" style="stroke:#000000;stroke-width:1.5;"/><line style="stroke:#000000;stroke-width:1.5;" x1="650" x2="722" y1="1312.2969" y2="1312.2969"/><text fill="#000000" font-family="sans-serif" font-size="14" font-weight="bold" lengthAdjust="spacing" textLength="59" x="654" y="1304.9951">colours</text></g><!--cluster lbutils.graphics.canvas--><g id="cluster_lbutils.graphics.canvas"><path d="M675.5,396 L731.5,396 A3.75,3.75 0 0 1 734,398.5 L741,418.2969 L856.5,418.2969 A2.5,2.5 0 0 1 859,420.7969 L859,851.5 A2.5,2.5 0 0 1 856.5,854 L675.5,854 A2.5,2.5 0 0 1 673,851.5 L673,398.5 A2.5,2.5 0 0 1 675.5,396 " fill="none" style="stroke:#000000;stroke-width:1.5;"/><line style="stroke:#000000;stroke-width:1.5;" x1="673" x2="741" y1="418.2969" y2="418.2969"/><text fill="#000000" font-family="sans-serif" font-size="14" font-weight="bold" lengthAdjust="spacing" textLength="55" x="677" y="410.9951">canvas</text></g><!--cluster lbutils.pmods--><g id="cluster_lbutils.pmods"><path d="M606.5,49 L660.5,49 A3.75,3.75 0 0 1 663,51.5 L670,71.2969 L874.5,71.2969 A2.5,2.5 0 0 1 877,73.7969 L877,326.5 A2.5,2.5 0 0 1 874.5,329 L606.5,329 A2.5,2.5 0 0 1 604,326.5 L604,51.5 A2.5,2.5 0 0 1 606.5,49 " fill="none" style="stroke:#000000;stroke-width:1.5;"/><line style="stroke:#000000;stroke-width:1.5;" x1="604" x2="670" y1="71.2969" y2="71.2969"/><text fill="#000000" font-family="sans-serif" font-size="14" font-weight="bold" lengthAdjust="spacing" textLength="53" x="608" y="63.9951">pmods</text></g><!--cluster lbutils.pmods.spi--><g id="cluster_lbutils.pmods.spi"><path d="M681.5,92 L705.5,92 A3.75,3.75 0 0 1 708,94.5 L715,114.2969 L850.5,114.2969 A2.5,2.5 0 0 1 853,116.7969 L853,302.5 A2.5,2.5 0 0 1 850.5,305 L681.5,305 A2.5,2.5 0 0 1 679,302.5 L679,94.5 A2.5,2.5 0 0 1 681.5,92 " fill="none" style="stroke:#000000;stroke-width:1.5;"/><line style="stroke:#000000;stroke-width:1.5;" x1="679" x2="715" y1="114.2969" y2="114.2969"/><text fill="#000000" font-family="sans-serif" font-size="14" font-weight="bold" lengthAdjust="spacing" textLength="23" x="683" y="106.9951">spi</text></g><!--class lbutils.drivers.SegDisplay--><g id="elem_lbutils.drivers.SegDisplay"><rect codeLine="3" fill="#F1F1F1" height="80.5938" id="lbutils.drivers.SegDisplay" rx="2.5" ry="2.5" style="stroke:#181818;stroke-width:0.5;" width="112" x="431" y="167.5"/><ellipse cx="447.8" cy="183.5" fill="#ADD1B2" rx="11" ry="11" style="stroke:#181818;stroke-width:1.0;"/><path d="M450.7688,189.1406 Q450.1906,189.4375 449.55,189.5781 Q448.9094,189.7344 448.2063,189.7344 Q445.7063,189.7344 444.3781,188.0938 Q443.0656,186.4375 443.0656,183.3125 Q443.0656,180.1875 444.3781,178.5313 Q445.7063,176.875 448.2063,176.875 Q448.9094,176.875 449.55,177.0313 Q450.2063,177.1875 450.7688,177.4844 L450.7688,180.2031 Q450.1438,179.625 449.55,179.3594 Q448.9563,179.0781 448.3313,179.0781 Q446.9875,179.0781 446.3,180.1563 Q445.6125,181.2188 445.6125,183.3125 Q445.6125,185.4063 446.3,186.4844 Q446.9875,187.5469 448.3313,187.5469 Q448.9563,187.5469 449.55,187.2813 Q450.1438,187 450.7688,186.4219 L450.7688,189.1406 Z " fill="#000000"/><text fill="#000000" font-family="sans-serif" font-size="14" lengthAdjust="spacing" textLength="76" x="462.2" y="188.3467">SegDisplay</text><line style="stroke:#181818;stroke-width:0.5;" x1="432" x2="542" y1="199.5" y2="199.5"/><rect fill="none" height="6" style="stroke:#C82930;stroke-width:1.0;" width="6" x="439" y="210.1484"/><text fill="#000000" font-family="sans-serif" font-size="14" lengthAdjust="spacing" textLength="86" x="451" y="216.4951">list _char_list</text><line style="stroke:#181818;stroke-width:0.5;" x1="432" x2="542" y1="223.7969" y2="223.7969"/><ellipse cx="442" cy="237.4453" fill="#84BE84" rx="3" ry="3" style="stroke:#038048;stroke-width:1.0;"/><text fill="#000000" font-family="sans-serif" font-size="14" lengthAdjust="spacing" textLength="57" x="451" y="240.792">display()</text></g><!--class lbutils.drivers.SegHexDisplay--><g id="elem_lbutils.drivers.SegHexDisplay"><rect codeLine="7" fill="#F1F1F1" height="80.5938" id="lbutils.drivers.SegHexDisplay" rx="2.5" ry="2.5" style="stroke:#181818;stroke-width:0.5;" width="134" x="262" y="167.5"/><ellipse cx="277" cy="183.5" fill="#ADD1B2" rx="11" ry="11" style="stroke:#181818;stroke-width:1.0;"/><path d="M279.9688,189.1406 Q279.3906,189.4375 278.75,189.5781 Q278.1094,189.7344 277.4063,189.7344 Q274.9063,189.7344 273.5781,188.0938 Q272.2656,186.4375 272.2656,183.3125 Q272.2656,180.1875 273.5781,178.5313 Q274.9063,176.875 277.4063,176.875 Q278.1094,176.875 278.75,177.0313 Q279.4063,177.1875 279.9688,177.4844 L279.9688,180.2031 Q279.3438,179.625 278.75,179.3594 Q278.1563,179.0781 277.5313,179.0781 Q276.1875,179.0781 275.5,180.1563 Q274.8125,181.2188 274.8125,183.3125 Q274.8125,185.4063 275.5,186.4844 Q276.1875,187.5469 277.5313,187.5469 Q278.1563,187.5469 278.75,187.2813 Q279.3438,187 279.9688,186.4219 L279.9688,189.1406 Z " fill="#000000"/><text fill="#000000" font-family="sans-serif" font-size="14" lengthAdjust="spacing" textLength="102" x="291" y="188.3467">SegHexDisplay</text><line style="stroke:#181818;stroke-width:0.5;" x1="263" x2="395" y1="199.5" y2="199.5"/><rect fill="none" height="6" style="stroke:#C82930;stroke-width:1.0;" width="6" x="270" y="210.1484"/><text fill="#000000" font-family="sans-serif" font-size="14" lengthAdjust="spacing" textLength="86" x="282" y="216.4951">list _char_list</text><line style="stroke:#181818;stroke-width:0.5;" x1="263" x2="395" y1="223.7969" y2="223.7969"/><ellipse cx="273" cy="237.4453" fill="#84BE84" rx="3" ry="3" style="stroke:#038048;stroke-width:1.0;"/><text fill="#000000" font-family="sans-serif" font-size="14" lengthAdjust="spacing" textLength="57" x="282" y="240.792">display()</text></g><!--class lbutils.graphics.helpers.Pen--><g id="elem_lbutils.graphics.helpers.Pen"><rect codeLine="14" fill="#F1F1F1" height="96.8906" id="lbutils.graphics.helpers.Pen" rx="2.5" ry="2.5" style="stroke:#181818;stroke-width:0.5;" width="143" x="764.5" y="922.5"/><ellipse cx="818.25" cy="938.5" fill="#ADD1B2" rx="11" ry="11" style="stroke:#181818;stroke-width:1.0;"/><path d="M821.2188,944.1406 Q820.6406,944.4375 820,944.5781 Q819.3594,944.7344 818.6563,944.7344 Q816.1563,944.7344 814.8281,943.0938 Q813.5156,941.4375 813.5156,938.3125 Q813.5156,935.1875 814.8281,933.5313 Q816.1563,931.875 818.6563,931.875 Q819.3594,931.875 820,932.0313 Q820.6563,932.1875 821.2188,932.4844 L821.2188,935.2031 Q820.5938,934.625 820,934.3594 Q819.4063,934.0781 818.7813,934.0781 Q817.4375,934.0781 816.75,935.1563 Q816.0625,936.2188 816.0625,938.3125 Q816.0625,940.4063 816.75,941.4844 Q817.4375,942.5469 818.7813,942.5469 Q819.4063,942.5469 820,942.2813 Q820.5938,942 821.2188,941.4219 L821.2188,944.1406 Z " fill="#000000"/><text fill="#000000" font-family="sans-serif" font-size="14" lengthAdjust="spacing" textLength="27" x="838.75" y="943.3467">Pen</text><line style="stroke:#181818;stroke-width:0.5;" x1="765.5" x2="906.5" y1="954.5" y2="954.5"/><ellipse cx="775.5" cy="968.1484" fill="none" rx="3" ry="3" style="stroke:#038048;stroke-width:1.0;"/><text fill="#000000" font-family="sans-serif" font-size="14" lengthAdjust="spacing" textLength="117" x="784.5" y="971.4951">Colour bg_colour</text><ellipse cx="775.5" cy="984.4453" fill="none" rx="3" ry="3" style="stroke:#038048;stroke-width:1.0;"/><text fill="#000000" font-family="sans-serif" font-size="14" lengthAdjust="spacing" textLength="117" x="784.5" y="987.792">Colour gb_colour</text><ellipse cx="775.5" cy="1000.7422" fill="none" rx="3" ry="3" style="stroke:#038048;stroke-width:1.0;"/><text fill="#000000" font-family="sans-serif" font-size="14" lengthAdjust="spacing" textLength="88" x="784.5" y="1004.0889">int thickness</text><line style="stroke:#181818;stroke-width:0.5;" x1="765.5" x2="906.5" y1="1011.3906" y2="1011.3906"/></g><!--class lbutils.graphics.helpers.Pixel--><g id="elem_lbutils.graphics.helpers.Pixel"><rect codeLine="19" fill="#F1F1F1" height="145.7813" id="lbutils.graphics.helpers.Pixel" rx="2.5" ry="2.5" style="stroke:#181818;stroke-width:0.5;" width="116" x="686" y="1104"/><ellipse cx="724.85" cy="1120" fill="#ADD1B2" rx="11" ry="11" style="stroke:#181818;stroke-width:1.0;"/><path d="M727.8188,1125.6406 Q727.2406,1125.9375 726.6,1126.0781 Q725.9594,1126.2344 725.2563,1126.2344 Q722.7563,1126.2344 721.4281,1124.5938 Q720.1156,1122.9375 720.1156,1119.8125 Q720.1156,1116.6875 721.4281,1115.0313 Q722.7563,1113.375 725.2563,1113.375 Q725.9594,1113.375 726.6,1113.5313 Q727.2563,1113.6875 727.8188,1113.9844 L727.8188,1116.7031 Q727.1938,1116.125 726.6,1115.8594 Q726.0063,1115.5781 725.3813,1115.5781 Q724.0375,1115.5781 723.35,1116.6563 Q722.6625,1117.7188 722.6625,1119.8125 Q722.6625,1121.9063 723.35,1122.9844 Q724.0375,1124.0469 725.3813,1124.0469 Q726.0063,1124.0469 726.6,1123.7813 Q727.1938,1123.5 727.8188,1122.9219 L727.8188,1125.6406 Z " fill="#000000"/><text fill="#000000" font-family="sans-serif" font-size="14" lengthAdjust="spacing" textLength="31" x="744.15" y="1124.8467">Pixel</text><line style="stroke:#181818;stroke-width:0.5;" x1="687" x2="801" y1="1136" y2="1136"/><ellipse cx="697" cy="1149.6484" fill="none" rx="3" ry="3" style="stroke:#038048;stroke-width:1.0;"/><text fill="#000000" font-family="sans-serif" font-size="14" lengthAdjust="spacing" textLength="28" x="706" y="1152.9951">int x</text><ellipse cx="697" cy="1165.9453" fill="none" rx="3" ry="3" style="stroke:#038048;stroke-width:1.0;"/><text fill="#000000" font-family="sans-serif" font-size="14" lengthAdjust="spacing" textLength="28" x="706" y="1169.292">int y</text><ellipse cx="697" cy="1182.2422" fill="none" rx="3" ry="3" style="stroke:#038048;stroke-width:1.0;"/><text fill="#000000" font-family="sans-serif" font-size="14" lengthAdjust="spacing" textLength="60" x="706" y="1185.5889">tuple x_y</text><line style="stroke:#181818;stroke-width:0.5;" x1="687" x2="801" y1="1192.8906" y2="1192.8906"/><ellipse cx="697" cy="1206.5391" fill="#84BE84" rx="3" ry="3" style="stroke:#038048;stroke-width:1.0;"/><text fill="#000000" font-family="sans-serif" font-size="14" lengthAdjust="spacing" textLength="69" x="706" y="1209.8857">move_to()</text><ellipse cx="697" cy="1222.8359" fill="#84BE84" rx="3" ry="3" style="stroke:#038048;stroke-width:1.0;"/><text fill="#000000" font-family="sans-serif" font-size="14" lengthAdjust="spacing" textLength="49" x="706" y="1226.1826">offset()</text><ellipse cx="697" cy="1239.1328" fill="#84BE84" rx="3" ry="3" style="stroke:#038048;stroke-width:1.0;"/><text fill="#000000" font-family="sans-serif" font-size="14" lengthAdjust="spacing" textLength="90" x="706" y="1242.4795">offset_polar()</text></g><!--class lbutils.graphics.helpers.BoundPixel--><g id="elem_lbutils.graphics.helpers.BoundPixel"><rect codeLine="27" fill="#F1F1F1" height="113.1875" id="lbutils.graphics.helpers.BoundPixel" rx="2.5" ry="2.5" style="stroke:#181818;stroke-width:0.5;" width="109" x="620.5" y="914.5"/><ellipse cx="635.5" cy="930.5" fill="#ADD1B2" rx="11" ry="11" style="stroke:#181818;stroke-width:1.0;"/><path d="M638.4688,936.1406 Q637.8906,936.4375 637.25,936.5781 Q636.6094,936.7344 635.9063,936.7344 Q633.4063,936.7344 632.0781,935.0938 Q630.7656,933.4375 630.7656,930.3125 Q630.7656,927.1875 632.0781,925.5313 Q633.4063,923.875 635.9063,923.875 Q636.6094,923.875 637.25,924.0313 Q637.9063,924.1875 638.4688,924.4844 L638.4688,927.2031 Q637.8438,926.625 637.25,926.3594 Q636.6563,926.0781 636.0313,926.0781 Q634.6875,926.0781 634,927.1563 Q633.3125,928.2188 633.3125,930.3125 Q633.3125,932.4063 634,933.4844 Q634.6875,934.5469 636.0313,934.5469 Q636.6563,934.5469 637.25,934.2813 Q637.8438,934 638.4688,933.4219 L638.4688,936.1406 Z " fill="#000000"/><text fill="#000000" font-family="sans-serif" font-size="14" lengthAdjust="spacing" textLength="77" x="649.5" y="935.3467">BoundPixel</text><line style="stroke:#181818;stroke-width:0.5;" x1="621.5" x2="728.5" y1="946.5" y2="946.5"/><ellipse cx="631.5" cy="960.1484" fill="none" rx="3" ry="3" style="stroke:#038048;stroke-width:1.0;"/><text fill="#000000" font-family="sans-serif" font-size="14" lengthAdjust="spacing" textLength="60" x="640.5" y="963.4951">int min_x</text><ellipse cx="631.5" cy="976.4453" fill="none" rx="3" ry="3" style="stroke:#038048;stroke-width:1.0;"/><text fill="#000000" font-family="sans-serif" font-size="14" lengthAdjust="spacing" textLength="60" x="640.5" y="979.792">int min_y</text><ellipse cx="631.5" cy="992.7422" fill="none" rx="3" ry="3" style="stroke:#038048;stroke-width:1.0;"/><text fill="#000000" font-family="sans-serif" font-size="14" lengthAdjust="spacing" textLength="63" x="640.5" y="996.0889">int max_x</text><ellipse cx="631.5" cy="1009.0391" fill="none" rx="3" ry="3" style="stroke:#038048;stroke-width:1.0;"/><text fill="#000000" font-family="sans-serif" font-size="14" lengthAdjust="spacing" textLength="63" x="640.5" y="1012.3857">int max_y</text><line style="stroke:#181818;stroke-width:0.5;" x1="621.5" x2="728.5" y1="1019.6875" y2="1019.6875"/></g><!--class lbutils.graphics.fonts.BaseFont--><g id="elem_lbutils.graphics.fonts.BaseFont"><rect codeLine="35" fill="#F1F1F1" height="145.7813" id="lbutils.graphics.fonts.BaseFont" rx="2.5" ry="2.5" style="stroke:#181818;stroke-width:0.5;" width="139" x="335.5" y="898"/><ellipse cx="369.4" cy="914" fill="#A9DCDF" rx="11" ry="11" style="stroke:#181818;stroke-width:1.0;"/><path d="M369.5094,909.3438 L368.3531,914.4219 L370.6813,914.4219 L369.5094,909.3438 Z M368.025,907.1094 L371.0094,907.1094 L374.3688,919.5 L371.9156,919.5 L371.15,916.4375 L367.8688,916.4375 L367.1188,919.5 L364.6813,919.5 L368.025,907.1094 Z " fill="#000000"/><text fill="#000000" font-family="sans-serif" font-size="14" font-style="italic" lengthAdjust="spacing" textLength="65" x="387.6" y="918.8467">BaseFont</text><line style="stroke:#181818;stroke-width:0.5;" x1="336.5" x2="473.5" y1="930" y2="930"/><rect fill="none" height="6" style="stroke:#C82930;stroke-width:1.0;" width="6" x="343.5" y="940.6484"/><text fill="#000000" font-family="sans-serif" font-size="14" lengthAdjust="spacing" textLength="47" x="355.5" y="946.9951">bitmap</text><rect fill="none" height="6" style="stroke:#C82930;stroke-width:1.0;" width="6" x="343.5" y="956.9453"/><text fill="#000000" font-family="sans-serif" font-size="14" lengthAdjust="spacing" textLength="37" x="355.5" y="963.292">index</text><rect fill="none" height="6" style="stroke:#C82930;stroke-width:1.0;" width="6" x="343.5" y="973.2422"/><text fill="#000000" font-family="sans-serif" font-size="14" lengthAdjust="spacing" textLength="37" x="355.5" y="979.5889">glyph</text><line style="stroke:#181818;stroke-width:0.5;" x1="336.5" x2="473.5" y1="986.8906" y2="986.8906"/><ellipse cx="346.5" cy="1000.5391" fill="#84BE84" rx="3" ry="3" style="stroke:#038048;stroke-width:1.0;"/><text fill="#000000" font-family="sans-serif" font-size="14" font-style="italic" lengthAdjust="spacing" textLength="78" x="355.5" y="1003.8857">int get_bit()</text><ellipse cx="346.5" cy="1016.8359" fill="#84BE84" rx="3" ry="3" style="stroke:#038048;stroke-width:1.0;"/><text fill="#000000" font-family="sans-serif" font-size="14" font-style="italic" lengthAdjust="spacing" textLength="92" x="355.5" y="1020.1826">int get_next()</text><ellipse cx="346.5" cy="1033.1328" fill="#84BE84" rx="3" ry="3" style="stroke:#038048;stroke-width:1.0;"/><text fill="#000000" font-family="sans-serif" font-size="14" font-style="italic" lengthAdjust="spacing" textLength="113" x="355.5" y="1036.4795">int set_position()</text></g><!--class lbutils.graphics.fonts.Font06--><g id="elem_lbutils.graphics.fonts.Font06"><rect codeLine="43" fill="#F1F1F1" height="145.7813" id="lbutils.graphics.fonts.Font06" rx="2.5" ry="2.5" style="stroke:#181818;stroke-width:0.5;" width="141" x="422.5" y="561.5"/><ellipse cx="464.5" cy="577.5" fill="#ADD1B2" rx="11" ry="11" style="stroke:#181818;stroke-width:1.0;"/><path d="M467.4688,583.1406 Q466.8906,583.4375 466.25,583.5781 Q465.6094,583.7344 464.9063,583.7344 Q462.4063,583.7344 461.0781,582.0938 Q459.7656,580.4375 459.7656,577.3125 Q459.7656,574.1875 461.0781,572.5313 Q462.4063,570.875 464.9063,570.875 Q465.6094,570.875 466.25,571.0313 Q466.9063,571.1875 467.4688,571.4844 L467.4688,574.2031 Q466.8438,573.625 466.25,573.3594 Q465.6563,573.0781 465.0313,573.0781 Q463.6875,573.0781 463,574.1563 Q462.3125,575.2188 462.3125,577.3125 Q462.3125,579.4063 463,580.4844 Q463.6875,581.5469 465.0313,581.5469 Q465.6563,581.5469 466.25,581.2813 Q466.8438,581 467.4688,580.4219 L467.4688,583.1406 Z " fill="#000000"/><text fill="#000000" font-family="sans-serif" font-size="14" lengthAdjust="spacing" textLength="49" x="484.5" y="582.3467">Font06</text><line style="stroke:#181818;stroke-width:0.5;" x1="423.5" x2="562.5" y1="593.5" y2="593.5"/><rect fill="none" height="6" style="stroke:#C82930;stroke-width:1.0;" width="6" x="430.5" y="604.1484"/><text fill="#000000" font-family="sans-serif" font-size="14" lengthAdjust="spacing" textLength="47" x="442.5" y="610.4951">bitmap</text><rect fill="none" height="6" style="stroke:#C82930;stroke-width:1.0;" width="6" x="430.5" y="620.4453"/><text fill="#000000" font-family="sans-serif" font-size="14" lengthAdjust="spacing" textLength="37" x="442.5" y="626.792">index</text><rect fill="none" height="6" style="stroke:#C82930;stroke-width:1.0;" width="6" x="430.5" y="636.7422"/><text fill="#000000" font-family="sans-serif" font-size="14" lengthAdjust="spacing" textLength="37" x="442.5" y="643.0889">glyph</text><line style="stroke:#181818;stroke-width:0.5;" x1="423.5" x2="562.5" y1="650.3906" y2="650.3906"/><ellipse cx="433.5" cy="664.0391" fill="#84BE84" rx="3" ry="3" style="stroke:#038048;stroke-width:1.0;"/><text fill="#000000" font-family="sans-serif" font-size="14" lengthAdjust="spacing" textLength="78" x="442.5" y="667.3857">int get_bit()</text><ellipse cx="433.5" cy="680.3359" fill="#84BE84" rx="3" ry="3" style="stroke:#038048;stroke-width:1.0;"/><text fill="#000000" font-family="sans-serif" font-size="14" lengthAdjust="spacing" textLength="91" x="442.5" y="683.6826">int get_next()</text><ellipse cx="433.5" cy="696.6328" fill="#84BE84" rx="3" ry="3" style="stroke:#038048;stroke-width:1.0;"/><text fill="#000000" font-family="sans-serif" font-size="14" lengthAdjust="spacing" textLength="115" x="442.5" y="699.9795">int set_position()</text></g><!--class lbutils.graphics.fonts.Font08--><g id="elem_lbutils.graphics.fonts.Font08"><rect codeLine="51" fill="#F1F1F1" height="145.7813" id="lbutils.graphics.fonts.Font08" rx="2.5" ry="2.5" style="stroke:#181818;stroke-width:0.5;" width="141" x="246.5" y="561.5"/><ellipse cx="288.5" cy="577.5" fill="#ADD1B2" rx="11" ry="11" style="stroke:#181818;stroke-width:1.0;"/><path d="M291.4688,583.1406 Q290.8906,583.4375 290.25,583.5781 Q289.6094,583.7344 288.9063,583.7344 Q286.4063,583.7344 285.0781,582.0938 Q283.7656,580.4375 283.7656,577.3125 Q283.7656,574.1875 285.0781,572.5313 Q286.4063,570.875 288.9063,570.875 Q289.6094,570.875 290.25,571.0313 Q290.9063,571.1875 291.4688,571.4844 L291.4688,574.2031 Q290.8438,573.625 290.25,573.3594 Q289.6563,573.0781 289.0313,573.0781 Q287.6875,573.0781 287,574.1563 Q286.3125,575.2188 286.3125,577.3125 Q286.3125,579.4063 287,580.4844 Q287.6875,581.5469 289.0313,581.5469 Q289.6563,581.5469 290.25,581.2813 Q290.8438,581 291.4688,580.4219 L291.4688,583.1406 Z " fill="#000000"/><text fill="#000000" font-family="sans-serif" font-size="14" lengthAdjust="spacing" textLength="49" x="308.5" y="582.3467">Font08</text><line style="stroke:#181818;stroke-width:0.5;" x1="247.5" x2="386.5" y1="593.5" y2="593.5"/><rect fill="none" height="6" style="stroke:#C82930;stroke-width:1.0;" width="6" x="254.5" y="604.1484"/><text fill="#000000" font-family="sans-serif" font-size="14" lengthAdjust="spacing" textLength="47" x="266.5" y="610.4951">bitmap</text><rect fill="none" height="6" style="stroke:#C82930;stroke-width:1.0;" width="6" x="254.5" y="620.4453"/><text fill="#000000" font-family="sans-serif" font-size="14" lengthAdjust="spacing" textLength="37" x="266.5" y="626.792">index</text><rect fill="none" height="6" style="stroke:#C82930;stroke-width:1.0;" width="6" x="254.5" y="636.7422"/><text fill="#000000" font-family="sans-serif" font-size="14" lengthAdjust="spacing" textLength="37" x="266.5" y="643.0889">glyph</text><line style="stroke:#181818;stroke-width:0.5;" x1="247.5" x2="386.5" y1="650.3906" y2="650.3906"/><ellipse cx="257.5" cy="664.0391" fill="#84BE84" rx="3" ry="3" style="stroke:#038048;stroke-width:1.0;"/><text fill="#000000" font-family="sans-serif" font-size="14" lengthAdjust="spacing" textLength="78" x="266.5" y="667.3857">int get_bit()</text><ellipse cx="257.5" cy="680.3359" fill="#84BE84" rx="3" ry="3" style="stroke:#038048;stroke-width:1.0;"/><text fill="#000000" font-family="sans-serif" font-size="14" lengthAdjust="spacing" textLength="91" x="266.5" y="683.6826">int get_next()</text><ellipse cx="257.5" cy="696.6328" fill="#84BE84" rx="3" ry="3" style="stroke:#038048;stroke-width:1.0;"/><text fill="#000000" font-family="sans-serif" font-size="14" lengthAdjust="spacing" textLength="115" x="266.5" y="699.9795">int set_position()</text></g><!--class lbutils.graphics.fonts.Org01--><g id="elem_lbutils.graphics.fonts.Org01"><rect codeLine="59" fill="#F1F1F1" height="145.7813" id="lbutils.graphics.fonts.Org01" rx="2.5" ry="2.5" style="stroke:#181818;stroke-width:0.5;" width="141" x="70.5" y="561.5"/><ellipse cx="115.25" cy="577.5" fill="#ADD1B2" rx="11" ry="11" style="stroke:#181818;stroke-width:1.0;"/><path d="M118.2188,583.1406 Q117.6406,583.4375 117,583.5781 Q116.3594,583.7344 115.6563,583.7344 Q113.1563,583.7344 111.8281,582.0938 Q110.5156,580.4375 110.5156,577.3125 Q110.5156,574.1875 111.8281,572.5313 Q113.1563,570.875 115.6563,570.875 Q116.3594,570.875 117,571.0313 Q117.6563,571.1875 118.2188,571.4844 L118.2188,574.2031 Q117.5938,573.625 117,573.3594 Q116.4063,573.0781 115.7813,573.0781 Q114.4375,573.0781 113.75,574.1563 Q113.0625,575.2188 113.0625,577.3125 Q113.0625,579.4063 113.75,580.4844 Q114.4375,581.5469 115.7813,581.5469 Q116.4063,581.5469 117,581.2813 Q117.5938,581 118.2188,580.4219 L118.2188,583.1406 Z " fill="#000000"/><text fill="#000000" font-family="sans-serif" font-size="14" lengthAdjust="spacing" textLength="43" x="135.75" y="582.3467">Org01</text><line style="stroke:#181818;stroke-width:0.5;" x1="71.5" x2="210.5" y1="593.5" y2="593.5"/><rect fill="none" height="6" style="stroke:#C82930;stroke-width:1.0;" width="6" x="78.5" y="604.1484"/><text fill="#000000" font-family="sans-serif" font-size="14" lengthAdjust="spacing" textLength="47" x="90.5" y="610.4951">bitmap</text><rect fill="none" height="6" style="stroke:#C82930;stroke-width:1.0;" width="6" x="78.5" y="620.4453"/><text fill="#000000" font-family="sans-serif" font-size="14" lengthAdjust="spacing" textLength="37" x="90.5" y="626.792">index</text><rect fill="none" height="6" style="stroke:#C82930;stroke-width:1.0;" width="6" x="78.5" y="636.7422"/><text fill="#000000" font-family="sans-serif" font-size="14" lengthAdjust="spacing" textLength="37" x="90.5" y="643.0889">glyph</text><line style="stroke:#181818;stroke-width:0.5;" x1="71.5" x2="210.5" y1="650.3906" y2="650.3906"/><ellipse cx="81.5" cy="664.0391" fill="#84BE84" rx="3" ry="3" style="stroke:#038048;stroke-width:1.0;"/><text fill="#000000" font-family="sans-serif" font-size="14" lengthAdjust="spacing" textLength="78" x="90.5" y="667.3857">int get_bit()</text><ellipse cx="81.5" cy="680.3359" fill="#84BE84" rx="3" ry="3" style="stroke:#038048;stroke-width:1.0;"/><text fill="#000000" font-family="sans-serif" font-size="14" lengthAdjust="spacing" textLength="91" x="90.5" y="683.6826">int get_next()</text><ellipse cx="81.5" cy="696.6328" fill="#84BE84" rx="3" ry="3" style="stroke:#038048;stroke-width:1.0;"/><text fill="#000000" font-family="sans-serif" font-size="14" lengthAdjust="spacing" textLength="115" x="90.5" y="699.9795">int set_position()</text></g><!--class lbutils.graphics.colours.Colour--><g id="elem_lbutils.graphics.colours.Colour"><rect codeLine="70" fill="#F1F1F1" height="162.0781" id="lbutils.graphics.colours.Colour" rx="2.5" ry="2.5" style="stroke:#181818;stroke-width:0.5;" width="222" x="666" y="1325"/><ellipse cx="750.25" cy="1341" fill="#ADD1B2" rx="11" ry="11" style="stroke:#181818;stroke-width:1.0;"/><path d="M753.2188,1346.6406 Q752.6406,1346.9375 752,1347.0781 Q751.3594,1347.2344 750.6563,1347.2344 Q748.1563,1347.2344 746.8281,1345.5938 Q745.5156,1343.9375 745.5156,1340.8125 Q745.5156,1337.6875 746.8281,1336.0313 Q748.1563,1334.375 750.6563,1334.375 Q751.3594,1334.375 752,1334.5313 Q752.6563,1334.6875 753.2188,1334.9844 L753.2188,1337.7031 Q752.5938,1337.125 752,1336.8594 Q751.4063,1336.5781 750.7813,1336.5781 Q749.4375,1336.5781 748.75,1337.6563 Q748.0625,1338.7188 748.0625,1340.8125 Q748.0625,1342.9063 748.75,1343.9844 Q749.4375,1345.0469 750.7813,1345.0469 Q751.4063,1345.0469 752,1344.7813 Q752.5938,1344.5 753.2188,1343.9219 L753.2188,1346.6406 Z " fill="#000000"/><text fill="#000000" font-family="sans-serif" font-size="14" lengthAdjust="spacing" textLength="45" x="770.75" y="1345.8467">Colour</text><line style="stroke:#181818;stroke-width:0.5;" x1="667" x2="887" y1="1357" y2="1357"/><ellipse cx="677" cy="1370.6484" fill="none" rx="3" ry="3" style="stroke:#038048;stroke-width:1.0;"/><text fill="#000000" font-family="sans-serif" font-size="14" lengthAdjust="spacing" textLength="44" x="686" y="1373.9951">int red</text><ellipse cx="677" cy="1386.9453" fill="none" rx="3" ry="3" style="stroke:#038048;stroke-width:1.0;"/><text fill="#000000" font-family="sans-serif" font-size="14" lengthAdjust="spacing" textLength="62" x="686" y="1390.292">int green</text><ellipse cx="677" cy="1403.2422" fill="none" rx="3" ry="3" style="stroke:#038048;stroke-width:1.0;"/><text fill="#000000" font-family="sans-serif" font-size="14" lengthAdjust="spacing" textLength="51" x="686" y="1406.5889">int blue</text><ellipse cx="677" cy="1419.5391" fill="none" rx="3" ry="3" style="stroke:#038048;stroke-width:1.0;"/><text fill="#000000" font-family="sans-serif" font-size="14" lengthAdjust="spacing" textLength="94" x="686" y="1422.8857">int as_rgb565</text><ellipse cx="677" cy="1435.8359" fill="none" rx="3" ry="3" style="stroke:#038048;stroke-width:1.0;"/><text fill="#000000" font-family="sans-serif" font-size="14" lengthAdjust="spacing" textLength="94" x="686" y="1439.1826">int as_rgb888</text><ellipse cx="677" cy="1452.1328" fill="none" rx="3" ry="3" style="stroke:#038048;stroke-width:1.0;"/><text fill="#000000" font-family="sans-serif" font-size="14" lengthAdjust="spacing" textLength="196" x="686" y="1455.4795">DEVICE_BIT_ORDER bitorder</text><line style="stroke:#181818;stroke-width:0.5;" x1="667" x2="887" y1="1462.7813" y2="1462.7813"/><ellipse cx="677" cy="1476.4297" fill="#84BE84" rx="3" ry="3" style="stroke:#038048;stroke-width:1.0;"/><text fill="#000000" font-family="sans-serif" font-size="14" lengthAdjust="spacing" text-decoration="underline" textLength="98" x="686" y="1479.7764">from_rgb565()</text></g><!--class lbutils.graphics.canvas.Canvas--><g id="elem_lbutils.graphics.canvas.Canvas"><rect codeLine="81" fill="#F1F1F1" height="406.5313" id="lbutils.graphics.canvas.Canvas" rx="2.5" ry="2.5" style="stroke:#181818;stroke-width:0.5;" width="153" x="689.5" y="431"/><ellipse cx="736.75" cy="447" fill="#A9DCDF" rx="11" ry="11" style="stroke:#181818;stroke-width:1.0;"/><path d="M736.8594,442.3438 L735.7031,447.4219 L738.0313,447.4219 L736.8594,442.3438 Z M735.375,440.1094 L738.3594,440.1094 L741.7188,452.5 L739.2656,452.5 L738.5,449.4375 L735.2188,449.4375 L734.4688,452.5 L732.0313,452.5 L735.375,440.1094 Z " fill="#000000"/><text fill="#000000" font-family="sans-serif" font-size="14" font-style="italic" lengthAdjust="spacing" textLength="50" x="757.25" y="451.8467">Canvas</text><line style="stroke:#181818;stroke-width:0.5;" x1="690.5" x2="841.5" y1="463" y2="463"/><ellipse cx="700.5" cy="476.6484" fill="none" rx="3" ry="3" style="stroke:#038048;stroke-width:1.0;"/><text fill="#000000" font-family="sans-serif" font-size="14" lengthAdjust="spacing" textLength="117" x="709.5" y="479.9951">Colour bg_colour</text><ellipse cx="700.5" cy="492.9453" fill="none" rx="3" ry="3" style="stroke:#038048;stroke-width:1.0;"/><text fill="#000000" font-family="sans-serif" font-size="14" lengthAdjust="spacing" textLength="125" x="709.5" y="496.292">BoundPixel cursor</text><ellipse cx="700.5" cy="509.2422" fill="none" rx="3" ry="3" style="stroke:#038048;stroke-width:1.0;"/><text fill="#000000" font-family="sans-serif" font-size="14" lengthAdjust="spacing" textLength="112" x="709.5" y="512.5889">Colour fg_colour</text><ellipse cx="700.5" cy="525.5391" fill="none" rx="3" ry="3" style="stroke:#038048;stroke-width:1.0;"/><text fill="#000000" font-family="sans-serif" font-size="14" lengthAdjust="spacing" textLength="119" x="709.5" y="528.8857">BoundPixel origin</text><ellipse cx="700.5" cy="541.8359" fill="none" rx="3" ry="3" style="stroke:#038048;stroke-width:1.0;"/><text fill="#000000" font-family="sans-serif" font-size="14" lengthAdjust="spacing" textLength="58" x="709.5" y="545.1826">Pen pen</text><ellipse cx="700.5" cy="558.1328" fill="none" rx="3" ry="3" style="stroke:#038048;stroke-width:1.0;"/><text fill="#000000" font-family="sans-serif" font-size="14" lengthAdjust="spacing" textLength="65" x="709.5" y="561.4795">int height</text><ellipse cx="700.5" cy="574.4297" fill="none" rx="3" ry="3" style="stroke:#038048;stroke-width:1.0;"/><text fill="#000000" font-family="sans-serif" font-size="14" lengthAdjust="spacing" textLength="58" x="709.5" y="577.7764">int width</text><ellipse cx="700.5" cy="590.7266" fill="none" rx="3" ry="3" style="stroke:#038048;stroke-width:1.0;"/><text fill="#000000" font-family="sans-serif" font-size="14" lengthAdjust="spacing" textLength="28" x="709.5" y="594.0732">int x</text><ellipse cx="700.5" cy="607.0234" fill="none" rx="3" ry="3" style="stroke:#038048;stroke-width:1.0;"/><text fill="#000000" font-family="sans-serif" font-size="14" lengthAdjust="spacing" textLength="28" x="709.5" y="610.3701">int y</text><ellipse cx="700.5" cy="623.3203" fill="none" rx="3" ry="3" style="stroke:#038048;stroke-width:1.0;"/><text fill="#000000" font-family="sans-serif" font-size="14" lengthAdjust="spacing" textLength="42" x="709.5" y="626.667">int x_y</text><line style="stroke:#181818;stroke-width:0.5;" x1="690.5" x2="841.5" y1="633.9688" y2="633.9688"/><ellipse cx="700.5" cy="647.6172" fill="#84BE84" rx="3" ry="3" style="stroke:#038048;stroke-width:1.0;"/><text fill="#000000" font-family="sans-serif" font-size="14" font-style="italic" lengthAdjust="spacing" textLength="74" x="709.5" y="650.9639">draw_line()</text><ellipse cx="700.5" cy="663.9141" fill="#84BE84" rx="3" ry="3" style="stroke:#038048;stroke-width:1.0;"/><text fill="#000000" font-family="sans-serif" font-size="14" font-style="italic" lengthAdjust="spacing" textLength="115" x="709.5" y="667.2607">draw_rectangle()</text><ellipse cx="700.5" cy="680.2109" fill="#84BE84" rx="3" ry="3" style="stroke:#038048;stroke-width:1.0;"/><text fill="#000000" font-family="sans-serif" font-size="14" lengthAdjust="spacing" textLength="64" x="709.5" y="683.5576">draw_to()</text><ellipse cx="700.5" cy="696.5078" fill="#84BE84" rx="3" ry="3" style="stroke:#038048;stroke-width:1.0;"/><text fill="#000000" font-family="sans-serif" font-size="14" lengthAdjust="spacing" textLength="78" x="709.5" y="699.8545">fill_screen()</text><ellipse cx="700.5" cy="712.8047" fill="#84BE84" rx="3" ry="3" style="stroke:#038048;stroke-width:1.0;"/><text fill="#000000" font-family="sans-serif" font-size="14" lengthAdjust="spacing" textLength="62" x="709.5" y="716.1514">moveto()</text><ellipse cx="700.5" cy="729.1016" fill="#84BE84" rx="3" ry="3" style="stroke:#038048;stroke-width:1.0;"/><text fill="#000000" font-family="sans-serif" font-size="14" lengthAdjust="spacing" textLength="114" x="709.5" y="732.4482">move_origin_to()</text><ellipse cx="700.5" cy="745.3984" fill="#84BE84" rx="3" ry="3" style="stroke:#038048;stroke-width:1.0;"/><text fill="#000000" font-family="sans-serif" font-size="14" font-style="italic" lengthAdjust="spacing" textLength="80" x="709.5" y="748.7451">read_pixel()</text><ellipse cx="700.5" cy="761.6953" fill="#84BE84" rx="3" ry="3" style="stroke:#038048;stroke-width:1.0;"/><text fill="#000000" font-family="sans-serif" font-size="14" lengthAdjust="spacing" textLength="127" x="709.5" y="765.042">select_bg_colour()</text><ellipse cx="700.5" cy="777.9922" fill="#84BE84" rx="3" ry="3" style="stroke:#038048;stroke-width:1.0;"/><text fill="#000000" font-family="sans-serif" font-size="14" lengthAdjust="spacing" textLength="122" x="709.5" y="781.3389">select_fg_colour()</text><ellipse cx="700.5" cy="794.2891" fill="#84BE84" rx="3" ry="3" style="stroke:#038048;stroke-width:1.0;"/><text fill="#000000" font-family="sans-serif" font-size="14" lengthAdjust="spacing" textLength="80" x="709.5" y="797.6357">write_char()</text><ellipse cx="700.5" cy="810.5859" fill="#84BE84" rx="3" ry="3" style="stroke:#038048;stroke-width:1.0;"/><text fill="#000000" font-family="sans-serif" font-size="14" font-style="italic" lengthAdjust="spacing" textLength="82" x="709.5" y="813.9326">write_pixel()</text><ellipse cx="700.5" cy="826.8828" fill="#84BE84" rx="3" ry="3" style="stroke:#038048;stroke-width:1.0;"/><text fill="#000000" font-family="sans-serif" font-size="14" lengthAdjust="spacing" textLength="76" x="709.5" y="830.2295">write_text()</text></g><path d="M115.5,181.5 L168.5,181.5 A3.75,3.75 0 0 1 171,184 L178,203.7969 L182.5,203.7969 A2.5,2.5 0 0 1 185,206.2969 L185,231.5938 A2.5,2.5 0 0 1 182.5,234.0938 L115.5,234.0938 A2.5,2.5 0 0 1 113,231.5938 L113,184 A2.5,2.5 0 0 1 115.5,181.5 " fill="#F1F1F1" style="stroke:#181818;stroke-width:0.5;"/><line style="stroke:#181818;stroke-width:0.5;" x1="113" x2="178" y1="203.7969" y2="203.7969"/><text fill="#000000" font-family="sans-serif" font-size="14" lengthAdjust="spacing" textLength="52" x="117" y="196.4951">helpers</text><path d="M622.5,181.5 L643.5,181.5 A3.75,3.75 0 0 1 646,184 L653,203.7969 L657.5,203.7969 A2.5,2.5 0 0 1 660,206.2969 L660,231.5938 A2.5,2.5 0 0 1 657.5,234.0938 L622.5,234.0938 A2.5,2.5 0 0 1 620,231.5938 L620,184 A2.5,2.5 0 0 1 622.5,181.5 " fill="#F1F1F1" style="stroke:#181818;stroke-width:0.5;"/><line style="stroke:#181818;stroke-width:0.5;" x1="620" x2="653" y1="203.7969" y2="203.7969"/><text fill="#000000" font-family="sans-serif" font-size="14" lengthAdjust="spacing" textLength="20" x="624" y="196.4951">i2c</text><!--class lbutils.pmods.spi.OLEDrgb--><g id="elem_lbutils.pmods.spi.OLEDrgb"><rect codeLine="113" fill="#F1F1F1" height="162.0781" id="lbutils.pmods.spi.OLEDrgb" rx="2.5" ry="2.5" style="stroke:#181818;stroke-width:0.5;" width="141" x="695.5" y="127"/><ellipse cx="732.1" cy="143" fill="#ADD1B2" rx="11" ry="11" style="stroke:#181818;stroke-width:1.0;"/><path d="M735.0688,148.6406 Q734.4906,148.9375 733.85,149.0781 Q733.2094,149.2344 732.5063,149.2344 Q730.0063,149.2344 728.6781,147.5938 Q727.3656,145.9375 727.3656,142.8125 Q727.3656,139.6875 728.6781,138.0313 Q730.0063,136.375 732.5063,136.375 Q733.2094,136.375 733.85,136.5313 Q734.5063,136.6875 735.0688,136.9844 L735.0688,139.7031 Q734.4438,139.125 733.85,138.8594 Q733.2563,138.5781 732.6313,138.5781 Q731.2875,138.5781 730.6,139.6563 Q729.9125,140.7188 729.9125,142.8125 Q729.9125,144.9063 730.6,145.9844 Q731.2875,147.0469 732.6313,147.0469 Q733.2563,147.0469 733.85,146.7813 Q734.4438,146.5 735.0688,145.9219 L735.0688,148.6406 Z " fill="#000000"/><text fill="#000000" font-family="sans-serif" font-size="14" lengthAdjust="spacing" textLength="61" x="750.9" y="147.8467">OLEDrgb</text><line style="stroke:#181818;stroke-width:0.5;" x1="696.5" x2="835.5" y1="159" y2="159"/><line style="stroke:#181818;stroke-width:0.5;" x1="696.5" x2="835.5" y1="167" y2="167"/><rect fill="#F24D5C" height="6" style="stroke:#C82930;stroke-width:1.0;" width="6" x="703.5" y="177.6484"/><text fill="#000000" font-family="sans-serif" font-size="14" lengthAdjust="spacing" textLength="41" x="715.5" y="183.9951">read()</text><rect fill="#F24D5C" height="6" style="stroke:#C82930;stroke-width:1.0;" width="6" x="703.5" y="193.9453"/><text fill="#000000" font-family="sans-serif" font-size="14" lengthAdjust="spacing" textLength="43" x="715.5" y="200.292">write()</text><ellipse cx="706.5" cy="213.2422" fill="#84BE84" rx="3" ry="3" style="stroke:#038048;stroke-width:1.0;"/><text fill="#000000" font-family="sans-serif" font-size="14" lengthAdjust="spacing" textLength="74" x="715.5" y="216.5889">draw_line()</text><ellipse cx="706.5" cy="229.5391" fill="#84BE84" rx="3" ry="3" style="stroke:#038048;stroke-width:1.0;"/><text fill="#000000" font-family="sans-serif" font-size="14" lengthAdjust="spacing" textLength="115" x="715.5" y="232.8857">draw_rectangle()</text><ellipse cx="706.5" cy="245.8359" fill="#84BE84" rx="3" ry="3" style="stroke:#038048;stroke-width:1.0;"/><text fill="#000000" font-family="sans-serif" font-size="14" lengthAdjust="spacing" textLength="79" x="715.5" y="249.1826">read_pixel()</text><ellipse cx="706.5" cy="262.1328" fill="#84BE84" rx="3" ry="3" style="stroke:#038048;stroke-width:1.0;"/><text fill="#000000" font-family="sans-serif" font-size="14" lengthAdjust="spacing" textLength="46" x="715.5" y="265.4795">reset()</text><ellipse cx="706.5" cy="278.4297" fill="#84BE84" rx="3" ry="3" style="stroke:#038048;stroke-width:1.0;"/><text fill="#000000" font-family="sans-serif" font-size="14" lengthAdjust="spacing" textLength="81" x="715.5" y="281.7764">write_pixel()</text></g><!--reverse link lbutils.graphics.fonts.Font06 to lbutils.graphics.fonts.BaseFont--><g id="link_lbutils.graphics.fonts.Font06_lbutils.graphics.fonts.BaseFont"><path codeLine="126" d="M468.6,728.23 C454.53,781.74 437.08,848.04 424.03,897.67 " fill="none" id="lbutils.graphics.fonts.Font06-backto-lbutils.graphics.fonts.BaseFont" style="stroke:#181818;stroke-width:1.0;"/><polygon fill="none" points="461.77,726.69,473.63,709.13,475.31,730.26,461.77,726.69" style="stroke:#181818;stroke-width:1.0;"/></g><!--reverse link lbutils.graphics.fonts.Font08 to lbutils.graphics.fonts.BaseFont--><g id="link_lbutils.graphics.fonts.Font08_lbutils.graphics.fonts.BaseFont"><path codeLine="127" d="M341.4,728.23 C355.47,781.74 372.92,848.04 385.97,897.67 " fill="none" id="lbutils.graphics.fonts.Font08-backto-lbutils.graphics.fonts.BaseFont" style="stroke:#181818;stroke-width:1.0;"/><polygon fill="none" points="334.69,730.26,336.37,709.13,348.23,726.69,334.69,730.26" style="stroke:#181818;stroke-width:1.0;"/></g><!--reverse link lbutils.graphics.fonts.Org01 to lbutils.graphics.fonts.BaseFont--><g id="link_lbutils.graphics.fonts.Org01_lbutils.graphics.fonts.BaseFont"><path codeLine="128" d="M162.26,728.43 C175.84,772.48 197.04,823.71 229,862 C257.37,895.99 299.33,922.32 335.16,940.47 " fill="none" id="lbutils.graphics.fonts.Org01-backto-lbutils.graphics.fonts.BaseFont" style="stroke:#181818;stroke-width:1.0;"/><polygon fill="none" points="155.55,730.41,156.71,709.25,169,726.52,155.55,730.41" style="stroke:#181818;stroke-width:1.0;"/></g><!--reverse link lbutils.graphics.helpers.Pixel to lbutils.graphics.colours.Colour--><g id="link_lbutils.graphics.helpers.Pixel_lbutils.graphics.colours.Colour"><path codeLine="130" d="M755.47,1256.88 C758.65,1278.78 762.11,1302.59 765.31,1324.58 " fill="none" id="lbutils.graphics.helpers.Pixel-backto-lbutils.graphics.colours.Colour" style="stroke:#181818;stroke-width:1.0;"/><polygon fill="#181818" points="754.75,1251.95,752.1052,1261.4371,755.4791,1256.8966,760.0197,1260.2705,754.75,1251.95" style="stroke:#181818;stroke-width:1.0;"/></g><!--reverse link lbutils.graphics.helpers.BoundPixel to lbutils.graphics.helpers.Pixel--><g id="link_lbutils.graphics.helpers.BoundPixel_lbutils.graphics.helpers.Pixel"><path codeLine="131" d="M700.74,1048.09 C706.91,1066.34 713.48,1085.78 719.59,1103.84 " fill="none" id="lbutils.graphics.helpers.BoundPixel-backto-lbutils.graphics.helpers.Pixel" style="stroke:#181818;stroke-width:1.0;"/><polygon fill="none" points="694.12,1050.37,694.34,1029.18,707.38,1045.88,694.12,1050.37" style="stroke:#181818;stroke-width:1.0;"/></g><!--reverse link lbutils.graphics.canvas.Canvas to lbutils.graphics.colours.Colour--><g id="link_lbutils.graphics.canvas.Canvas_lbutils.graphics.colours.Colour"><path codeLine="133" d="M846.73,728.35 C877.23,769.36 908.33,819.92 924,871.5 C976.01,1042.66 997.18,1110.76 924,1274 C915.54,1292.87 902.87,1310.14 888.45,1325.51 " fill="none" id="lbutils.graphics.canvas.Canvas-backto-lbutils.graphics.colours.Colour" style="stroke:#181818;stroke-width:1.0;"/><polygon fill="#181818" points="843.73,724.35,845.93,733.95,846.73,728.35,852.33,729.15,843.73,724.35" style="stroke:#181818;stroke-width:1.0;"/></g><!--reverse link lbutils.graphics.canvas.Canvas to lbutils.graphics.helpers.BoundPixel--><g id="link_lbutils.graphics.canvas.Canvas_lbutils.graphics.helpers.BoundPixel"><path codeLine="134" d="M709.16,844.42 C702.24,869.88 695.69,893.95 690.21,914.09 " fill="none" id="lbutils.graphics.canvas.Canvas-backto-lbutils.graphics.helpers.BoundPixel" style="stroke:#181818;stroke-width:1.0;"/><polygon fill="#181818" points="710.44,839.74,704.211,847.3688,709.1232,844.5635,711.9286,849.4757,710.44,839.74" style="stroke:#181818;stroke-width:1.0;"/></g><!--reverse link lbutils.graphics.canvas.Canvas to lbutils.graphics.helpers.Pen--><g id="link_lbutils.graphics.canvas.Canvas_lbutils.graphics.helpers.Pen"><path codeLine="135" d="M809.73,844.48 C815.8,873.45 821.48,900.64 826.01,922.25 " fill="none" id="lbutils.graphics.canvas.Canvas-backto-lbutils.graphics.helpers.Pen" style="stroke:#181818;stroke-width:1.0;"/><polygon fill="#181818" points="808.74,839.76,806.6799,849.391,809.7701,844.6527,814.5083,847.7429,808.74,839.76" style="stroke:#181818;stroke-width:1.0;"/></g><!--reverse link lbutils.graphics.canvas.Canvas to lbutils.graphics.fonts.BaseFont--><g id="link_lbutils.graphics.canvas.Canvas_lbutils.graphics.fonts.BaseFont"><path codeLine="136" d="M685.38,748.37 C654.86,786.89 618.2,828.62 580,862 C548.14,889.84 508.28,915.04 474.65,934.09 " fill="none" id="lbutils.graphics.canvas.Canvas-backto-lbutils.graphics.fonts.BaseFont" style="stroke:#181818;stroke-width:1.0;"/><polygon fill="#181818" points="688.13,744.88,679.4148,749.4674,685.0327,748.8051,685.695,754.4231,688.13,744.88" style="stroke:#181818;stroke-width:1.0;"/></g><!--reverse link lbutils.pmods.spi.OLEDrgb to lbutils.graphics.canvas.Canvas--><g id="link_lbutils.pmods.spi.OLEDrgb_lbutils.graphics.canvas.Canvas"><path codeLine="138" d="M766,310.79 C766,347.01 766,389.19 766,430.88 " fill="none" id="lbutils.pmods.spi.OLEDrgb-backto-lbutils.graphics.canvas.Canvas" style="stroke:#181818;stroke-width:1.0;"/><polygon fill="none" points="759,310.86,766,290.86,773,310.86,759,310.86" style="stroke:#181818;stroke-width:1.0;"/></g><!--SRC=[rLOxRzim4DxpApIsC2Aa1H9uo1JRHGCKI90MNGbAEab4QL8WQLk6w_zUIfHIYG_PSDeXceJxZlSalpk6ro0hd494auqYL4Q7gqX_x5MU2R85qSkRBwLOokWx54iYAuht0wZvhYDAf8fGMcA1cjyHEeioS-h3nv7yw9h_2lN_yN2qKYm4hagIkhcNG2jVxi_0h91c2qxvHaH9WTBspuiMYHSbJ4LA1_2BWPIJLNacDL3RTNEyTaNxiKXjAWfHZIpnccy1AMxLQiRpN8BoIr75AHOd-lV0DomBXhic3DL-yTuZnhLN6zlPc23izkQSgM4FSIALmAdg8yKIlcWLvv8bHArnPGa9ow2sP0NTL-L8TkXz74seXQwQDcVLpAV5e3wbPbeWYIASdUX2azVDtR_CR2ATgHmk2dp-_k9-4iNDf_SGTf0C3K6vdDTHcESn2yWyWGa0veeJkW5NYYKIHN9xTnk2vlFv65gkVZukLkZXyGTwUbckNfeQSv71c5aFKc55KlrkSi7NdOz1AVnyaMAsnHE4iR3nCmR0W0vJNLtkdm_voSDSa89OTMscKUKhTWcaA9Khtv5CbPVCa5RBujmXEsK2x_H0PZ31OAsEW5HXLb1RqQ3kECe9fKYcpPsoeMQ0kGVQiMQAvPeRXYC0PwXgQckRa41rbEYreG4y3-4xGHIqEyg4UwFazMyWvJxkuudxEzvQRBHQysnuUVyYv7Cwa1yz6h8YrhNlME_RQgaVbuKPJciAR2LWW3O_3wBtjy0r6g2X2sHKWatjONUtCKYu7Vx2QnxjzkQuNoBZTjs8kybx__lwEWgez8l7f8dvcqoqu-Wy2ww9xXx5XddkVJQwOH4R_WgR632OFvYHBqyiXfFZZdelYkKC4swuRpAZYVcYyw7Ej4ytreymxX-SlvWZ5rT_0000]--></g></svg>