<?xml version="1.0" encoding="windows-1252" standalone="no"?>
<svg xmlns="http://www.w3.org/2000/svg" xmlns:xlink="http://www.w3.org/1999/xlink" contentStyleType="text/css" height="435px" preserveAspectRatio="none" style="width:459px;height:435px;background:#FFFFFF;" version="1.1" viewBox="0 0 459 435" width="459px" zoomAndPan="magnify"><defs/><g><!--cluster lbutils--><g id="cluster_lbutils"><path d="M8.5,6 L61.5,6 A3.75,3.75 0 0 1 64,8.5 L71,28.2969 L449.5,28.2969 A2.5,2.5 0 0 1 452,30.7969 L452,425.5 A2.5,2.5 0 0 1 449.5,428 L8.5,428 A2.5,2.5 0 0 1 6,425.5 L6,8.5 A2.5,2.5 0 0 1 8.5,6 " fill="none" style="stroke:#000000;stroke-width:1.5;"/><line style="stroke:#000000;stroke-width:1.5;" x1="6" x2="71" y1="28.2969" y2="28.2969"/><text fill="#000000" font-family="sans-serif" font-size="14" font-weight="bold" lengthAdjust="spacing" textLength="52" x="10" y="20.9951">lbutils</text></g><!--cluster drivers--><g id="cluster_drivers"><path d="M32.5,49 L89.5,49 A3.75,3.75 0 0 1 92,51.5 L99,71.2969 L425.5,71.2969 A2.5,2.5 0 0 1 428,73.7969 L428,401.5 A2.5,2.5 0 0 1 425.5,404 L32.5,404 A2.5,2.5 0 0 1 30,401.5 L30,51.5 A2.5,2.5 0 0 1 32.5,49 " fill="none" style="stroke:#000000;stroke-width:1.5;"/><line style="stroke:#000000;stroke-width:1.5;" x1="30" x2="99" y1="71.2969" y2="71.2969"/><text fill="#000000" font-family="sans-serif" font-size="14" font-weight="bold" lengthAdjust="spacing" textLength="56" x="34" y="63.9951">drivers</text></g><!--cluster seven_segment--><g id="cluster_seven_segment"><rect fill="none" height="132" rx="2.5" ry="2.5" style="stroke:#181818;stroke-width:1.0;" width="152" x="252" y="92"/><text fill="#000000" font-family="sans-serif" font-size="14" font-weight="bold" lengthAdjust="spacing" textLength="123" x="266.5" y="106.9951">seven_segment</text></g><!--cluster seven_segment_hex--><g id="cluster_seven_segment_hex"><rect fill="none" height="132" rx="2.5" ry="2.5" style="stroke:#181818;stroke-width:1.0;" width="174" x="54" y="92"/><text fill="#000000" font-family="sans-serif" font-size="14" font-weight="bold" lengthAdjust="spacing" textLength="158" x="62" y="106.9951">seven_segment_hex</text></g><!--cluster common--><g id="cluster_common"><rect fill="none" height="132" rx="2.5" ry="2.5" style="stroke:#181818;stroke-width:1.0;" width="168" x="147" y="248"/><text fill="#000000" font-family="sans-serif" font-size="14" font-weight="bold" lengthAdjust="spacing" textLength="69" x="196.5" y="262.9951">common</text></g><!--class SegDisplay--><g id="elem_SegDisplay"><rect codeLine="4" fill="#F1F1F1" height="80.5938" id="SegDisplay" rx="2.5" ry="2.5" style="stroke:#181818;stroke-width:0.5;" width="119" x="268.5" y="127"/><ellipse cx="287.1" cy="143" fill="#ADD1B2" rx="11" ry="11" style="stroke:#181818;stroke-width:1.0;"/><path d="M289.4438,138.6719 C288.5063,138.2344 287.9125,138.0938 287.0375,138.0938 C284.4125,138.0938 282.4125,140.1719 282.4125,142.8906 L282.4125,144.0156 C282.4125,146.5938 284.5219,148.4844 287.4125,148.4844 C288.6313,148.4844 289.7875,148.1875 290.5375,147.6406 C291.1156,147.2344 291.4438,146.7813 291.4438,146.3906 C291.4438,145.9375 291.0531,145.5469 290.5844,145.5469 C290.3656,145.5469 290.1625,145.625 289.975,145.8125 C289.5219,146.2969 289.5219,146.2969 289.3344,146.3906 C288.9125,146.6563 288.225,146.7813 287.4594,146.7813 C285.4125,146.7813 284.1156,145.6875 284.1156,143.9844 L284.1156,142.8906 C284.1156,141.1094 285.3656,139.7969 287.1,139.7969 C287.6781,139.7969 288.2875,139.9531 288.7563,140.2031 C289.2406,140.4844 289.4125,140.7031 289.5063,141.1094 C289.5688,141.5156 289.6,141.6406 289.7406,141.7656 C289.8813,141.9063 290.1156,142.0156 290.3344,142.0156 C290.6,142.0156 290.8656,141.875 291.0375,141.6563 C291.1469,141.5 291.1781,141.3125 291.1781,140.8906 L291.1781,139.4688 C291.1781,139.0313 291.1625,138.9063 291.0688,138.75 C290.9125,138.4844 290.6313,138.3438 290.3344,138.3438 C290.0375,138.3438 289.8344,138.4375 289.6156,138.75 L289.4438,138.6719 Z " fill="#000000"/><text fill="#000000" font-family="sans-serif" font-size="14" lengthAdjust="spacing" textLength="79" x="301.9" y="147.8467">SegDisplay</text><line style="stroke:#181818;stroke-width:0.5;" x1="269.5" x2="386.5" y1="159" y2="159"/><rect fill="none" height="6" style="stroke:#C82930;stroke-width:1.0;" width="6" x="276.5" y="169.6484"/><text fill="#000000" font-family="sans-serif" font-size="14" lengthAdjust="spacing" textLength="93" x="288.5" y="175.9951">list _char_list</text><line style="stroke:#181818;stroke-width:0.5;" x1="269.5" x2="386.5" y1="183.2969" y2="183.2969"/><ellipse cx="279.5" cy="196.9453" fill="#84BE84" rx="3" ry="3" style="stroke:#038048;stroke-width:1.0;"/><text fill="#000000" font-family="sans-serif" font-size="14" lengthAdjust="spacing" textLength="60" x="288.5" y="200.292">display()</text></g><!--class SegHexDisplay--><g id="elem_SegHexDisplay"><rect codeLine="10" fill="#F1F1F1" height="80.5938" id="SegHexDisplay" rx="2.5" ry="2.5" style="stroke:#181818;stroke-width:0.5;" width="138" x="74" y="127"/><ellipse cx="89" cy="143" fill="#ADD1B2" rx="11" ry="11" style="stroke:#181818;stroke-width:1.0;"/><path d="M91.3438,138.6719 C90.4063,138.2344 89.8125,138.0938 88.9375,138.0938 C86.3125,138.0938 84.3125,140.1719 84.3125,142.8906 L84.3125,144.0156 C84.3125,146.5938 86.4219,148.4844 89.3125,148.4844 C90.5313,148.4844 91.6875,148.1875 92.4375,147.6406 C93.0156,147.2344 93.3438,146.7813 93.3438,146.3906 C93.3438,145.9375 92.9531,145.5469 92.4844,145.5469 C92.2656,145.5469 92.0625,145.625 91.875,145.8125 C91.4219,146.2969 91.4219,146.2969 91.2344,146.3906 C90.8125,146.6563 90.125,146.7813 89.3594,146.7813 C87.3125,146.7813 86.0156,145.6875 86.0156,143.9844 L86.0156,142.8906 C86.0156,141.1094 87.2656,139.7969 89,139.7969 C89.5781,139.7969 90.1875,139.9531 90.6563,140.2031 C91.1406,140.4844 91.3125,140.7031 91.4063,141.1094 C91.4688,141.5156 91.5,141.6406 91.6406,141.7656 C91.7813,141.9063 92.0156,142.0156 92.2344,142.0156 C92.5,142.0156 92.7656,141.875 92.9375,141.6563 C93.0469,141.5 93.0781,141.3125 93.0781,140.8906 L93.0781,139.4688 C93.0781,139.0313 93.0625,138.9063 92.9688,138.75 C92.8125,138.4844 92.5313,138.3438 92.2344,138.3438 C91.9375,138.3438 91.7344,138.4375 91.5156,138.75 L91.3438,138.6719 Z " fill="#000000"/><text fill="#000000" font-family="sans-serif" font-size="14" lengthAdjust="spacing" textLength="106" x="103" y="147.8467">SegHexDisplay</text><line style="stroke:#181818;stroke-width:0.5;" x1="75" x2="211" y1="159" y2="159"/><rect fill="none" height="6" style="stroke:#C82930;stroke-width:1.0;" width="6" x="82" y="169.6484"/><text fill="#000000" font-family="sans-serif" font-size="14" lengthAdjust="spacing" textLength="93" x="94" y="175.9951">list _char_list</text><line style="stroke:#181818;stroke-width:0.5;" x1="75" x2="211" y1="183.2969" y2="183.2969"/><ellipse cx="85" cy="196.9453" fill="#84BE84" rx="3" ry="3" style="stroke:#038048;stroke-width:1.0;"/><text fill="#000000" font-family="sans-serif" font-size="14" lengthAdjust="spacing" textLength="60" x="94" y="200.292">display()</text></g><!--class PIN_ON_SENSE--><g id="elem_PIN_ON_SENSE"><rect codeLine="16" fill="#F1F1F1" height="80.5938" id="PIN_ON_SENSE" rx="2.5" ry="2.5" style="stroke:#181818;stroke-width:0.5;" width="136" x="163" y="283"/><ellipse cx="178" cy="299" fill="#EB937F" rx="11" ry="11" style="stroke:#181818;stroke-width:1.0;"/><path d="M176.7969,299.875 L178.25,299.875 L178.25,299.9844 C178.25,300.3906 178.2813,300.5469 178.3594,300.7031 C178.5156,300.9531 178.7969,301.1094 179.0938,301.1094 C179.3438,301.1094 179.6094,300.9688 179.7656,300.75 C179.8906,300.5938 179.9219,300.4375 179.9219,299.9844 L179.9219,298.0625 C179.9219,297.9063 179.9219,297.8594 179.9063,297.7031 C179.8438,297.2344 179.5313,296.9219 179.0781,296.9219 C178.8281,296.9219 178.5625,297.0625 178.3906,297.2813 C178.2813,297.4531 178.25,297.6094 178.25,298.0625 L178.25,298.1875 L176.7969,298.1875 L176.7969,295.7813 L180.7813,295.7813 L180.7813,296.6406 C180.7813,297.0469 180.8125,297.2188 180.8906,297.375 C181.0625,297.625 181.3438,297.7813 181.625,297.7813 C181.8906,297.7813 182.1563,297.6406 182.3281,297.4219 C182.4375,297.25 182.4688,297.1094 182.4688,296.6406 L182.4688,294.0938 L174.8438,294.0938 C174.4063,294.0938 174.2813,294.1094 174.125,294.2031 C173.875,294.3594 173.7188,294.6563 173.7188,294.9375 C173.7188,295.2188 173.8594,295.4688 174.0781,295.6406 C174.2344,295.75 174.4219,295.7813 174.8438,295.7813 L175.0938,295.7813 L175.0938,302.2969 L174.8438,302.2969 C174.4375,302.2969 174.2813,302.3125 174.125,302.4219 C173.875,302.5938 173.7188,302.8594 173.7188,303.1563 C173.7188,303.4219 173.8594,303.6719 174.0781,303.8281 C174.2188,303.9531 174.4531,304 174.8438,304 L182.8438,304 L182.8438,301.4219 C182.8438,300.9844 182.8125,300.8438 182.7344,300.6875 C182.5625,300.4375 182.2813,300.2813 182,300.2813 C181.7344,300.2813 181.4688,300.3906 181.2969,300.6406 C181.1875,300.7969 181.1563,300.9375 181.1563,301.4219 L181.1563,302.2969 L176.7969,302.2969 L176.7969,299.875 Z " fill="#000000"/><text fill="#000000" font-family="sans-serif" font-size="14" lengthAdjust="spacing" textLength="104" x="192" y="303.8467">PIN_ON_SENSE</text><line style="stroke:#181818;stroke-width:0.5;" x1="164" x2="298" y1="315" y2="315"/><ellipse cx="174" cy="328.6484" fill="none" rx="3" ry="3" style="stroke:#038048;stroke-width:1.0;"/><text fill="#000000" font-family="sans-serif" font-size="14" lengthAdjust="spacing" textLength="35" x="183" y="331.9951">HIGH</text><ellipse cx="174" cy="344.9453" fill="none" rx="3" ry="3" style="stroke:#038048;stroke-width:1.0;"/><text fill="#000000" font-family="sans-serif" font-size="14" lengthAdjust="spacing" textLength="33" x="183" y="348.292">LOW</text><line style="stroke:#181818;stroke-width:0.5;" x1="164" x2="298" y1="355.5938" y2="355.5938"/></g><!--reverse link SegDisplay to PIN_ON_SENSE--><g id="link_SegDisplay_PIN_ON_SENSE"><path codeLine="24" d="M300.263,212.536 C286.28,234.735 269.459,261.441 255.895,282.976 " fill="none" id="SegDisplay-backto-PIN_ON_SENSE" style="stroke:#181818;stroke-width:1.0;"/><polygon fill="#181818" points="303.02,208.159,294.8397,213.6438,300.3559,212.3901,301.6095,217.9063,303.02,208.159" style="stroke:#181818;stroke-width:1.0;"/></g><!--reverse link SegHexDisplay to PIN_ON_SENSE--><g id="link_SegHexDisplay_PIN_ON_SENSE"><path codeLine="25" d="M168.163,212.536 C180.849,234.735 196.109,261.441 208.415,282.976 " fill="none" id="SegHexDisplay-backto-PIN_ON_SENSE" style="stroke:#181818;stroke-width:1.0;"/><polygon fill="#181818" points="165.662,208.159,166.6543,217.9577,168.1427,212.5002,173.6002,213.9886,165.662,208.159" style="stroke:#181818;stroke-width:1.0;"/></g><!--SRC=[nPB12e9048Rl-nHpBCHz0kcKf10QUUYuREjWmkugheOHldk95febtlfFmyo_mxSpexb2atE18CzLcKe3Tm9FwNS-Bj8h5g_yk6RmYfePJ1Jg4XpdYABaEf6usGpyhOJana24oJOrkUItZt8h6sHgIc3YmWlMXXE71N7tUhMUr1eoZNw0iWlMos0zhF_3ApAbCZqBYRfISF035WOiSeF8_O9eWUVll2_fVNWYSpGDQGZfBuBs5q17GwI3NJgs3P_cxWTq23ZViDqA7SzyOTy7]--></g></svg>