<?xml version="1.0" encoding="us-ascii" standalone="no"?><svg xmlns="http://www.w3.org/2000/svg" xmlns:xlink="http://www.w3.org/1999/xlink" contentStyleType="text/css" height="1414px" preserveAspectRatio="none" style="width:1146px;height:1414px;background:#FFFFFF;" version="1.1" viewBox="0 0 1146 1414" width="1146px" zoomAndPan="magnify"><defs/><g><!--cluster lbutils--><g id="cluster_lbutils"><path d="M8.5,6 L56.5,6 A3.75,3.75 0 0 1 59,8.5 L66,28.2969 L1136.5,28.2969 A2.5,2.5 0 0 1 1139,30.7969 L1139,1404.5 A2.5,2.5 0 0 1 1136.5,1407 L8.5,1407 A2.5,2.5 0 0 1 6,1404.5 L6,8.5 A2.5,2.5 0 0 1 8.5,6 " fill="none" style="stroke:#000000;stroke-width:1.5;"/><line style="stroke:#000000;stroke-width:1.5;" x1="6" x2="66" y1="28.2969" y2="28.2969"/><text fill="#000000" font-family="sans-serif" font-size="14" font-weight="bold" lengthAdjust="spacing" textLength="47" x="10" y="20.9951">lbutils</text></g><!--cluster graphics--><g id="cluster_graphics"><path d="M32.5,353 L101.5,353 A3.75,3.75 0 0 1 104,355.5 L111,375.2969 L1112.5,375.2969 A2.5,2.5 0 0 1 1115,377.7969 L1115,1380.5 A2.5,2.5 0 0 1 1112.5,1383 L32.5,1383 A2.5,2.5 0 0 1 30,1380.5 L30,355.5 A2.5,2.5 0 0 1 32.5,353 " fill="none" style="stroke:#000000;stroke-width:1.5;"/><line style="stroke:#000000;stroke-width:1.5;" x1="30" x2="111" y1="375.2969" y2="375.2969"/><text fill="#000000" font-family="sans-serif" font-size="14" font-weight="bold" lengthAdjust="spacing" textLength="68" x="34" y="367.9951">graphics</text></g><!--cluster fonts--><g id="cluster_fonts"><path d="M475.5,495 L517.5,495 A3.75,3.75 0 0 1 520,497.5 L527,517.2969 L1088.5,517.2969 A2.5,2.5 0 0 1 1091,519.7969 L1091,1119.5 A2.5,2.5 0 0 1 1088.5,1122 L475.5,1122 A2.5,2.5 0 0 1 473,1119.5 L473,497.5 A2.5,2.5 0 0 1 475.5,495 " fill="none" style="stroke:#000000;stroke-width:1.5;"/><line style="stroke:#000000;stroke-width:1.5;" x1="473" x2="527" y1="517.2969" y2="517.2969"/><text fill="#000000" font-family="sans-serif" font-size="14" font-weight="bold" lengthAdjust="spacing" textLength="41" x="477" y="509.9951">fonts</text></g><!--cluster base_font--><g id="cluster_base_font"><rect fill="none" height="197" rx="2.5" ry="2.5" style="stroke:#181818;stroke-width:1.0;" width="172" x="597" y="901"/><text fill="#000000" font-family="sans-serif" font-size="14" font-weight="bold" lengthAdjust="spacing" textLength="77" x="644.5" y="915.9951">base_font</text></g><!--cluster font06--><g id="cluster_font06"><rect fill="none" height="197" rx="2.5" ry="2.5" style="stroke:#181818;stroke-width:1.0;" width="174" x="893" y="538"/><text fill="#000000" font-family="sans-serif" font-size="14" font-weight="bold" lengthAdjust="spacing" textLength="52" x="954" y="552.9951">font06</text></g><!--cluster font08--><g id="cluster_font08"><rect fill="none" height="197" rx="2.5" ry="2.5" style="stroke:#181818;stroke-width:1.0;" width="174" x="695" y="538"/><text fill="#000000" font-family="sans-serif" font-size="14" font-weight="bold" lengthAdjust="spacing" textLength="52" x="756" y="552.9951">font08</text></g><!--cluster org_01--><g id="cluster_org_01"><rect fill="none" height="197" rx="2.5" ry="2.5" style="stroke:#181818;stroke-width:1.0;" width="174" x="497" y="538"/><text fill="#000000" font-family="sans-serif" font-size="14" font-weight="bold" lengthAdjust="spacing" textLength="54" x="557" y="552.9951">org_01</text></g><!--cluster helpers--><g id="cluster_helpers"><rect fill="none" height="433.5" rx="2.5" ry="2.5" style="stroke:#181818;stroke-width:1.0;" width="345" x="54" y="917.5"/><text fill="#000000" font-family="sans-serif" font-size="14" font-weight="bold" lengthAdjust="spacing" textLength="60" x="196.5" y="932.4951">helpers</text></g><!--cluster colours--><g id="cluster_colours"><rect fill="none" height="213" rx="2.5" ry="2.5" style="stroke:#181818;stroke-width:1.0;" width="302" x="423" y="1146"/><text fill="#000000" font-family="sans-serif" font-size="14" font-weight="bold" lengthAdjust="spacing" textLength="59" x="544.5" y="1160.9951">colours</text></g><!--cluster canvas--><g id="cluster_canvas"><rect fill="none" height="481" rx="2.5" ry="2.5" style="stroke:#181818;stroke-width:1.0;" width="208" x="218" y="396"/><text fill="#000000" font-family="sans-serif" font-size="14" font-weight="bold" lengthAdjust="spacing" textLength="55" x="294.5" y="410.9951">canvas</text></g><!--cluster pmods--><g id="cluster_pmods"><path d="M162.5,49 L216.5,49 A3.75,3.75 0 0 1 219,51.5 L226,71.2969 L586.5,71.2969 A2.5,2.5 0 0 1 589,73.7969 L589,326.5 A2.5,2.5 0 0 1 586.5,329 L162.5,329 A2.5,2.5 0 0 1 160,326.5 L160,51.5 A2.5,2.5 0 0 1 162.5,49 " fill="none" style="stroke:#000000;stroke-width:1.5;"/><line style="stroke:#000000;stroke-width:1.5;" x1="160" x2="226" y1="71.2969" y2="71.2969"/><text fill="#000000" font-family="sans-serif" font-size="14" font-weight="bold" lengthAdjust="spacing" textLength="53" x="164" y="63.9951">pmods</text></g><!--cluster gpio--><g id="cluster_gpio"><path d="M435.5,108.5 L470.5,108.5 A3.75,3.75 0 0 1 473,111 L480,130.7969 L562.5,130.7969 A2.5,2.5 0 0 1 565,133.2969 L565,286 A2.5,2.5 0 0 1 562.5,288.5 L435.5,288.5 A2.5,2.5 0 0 1 433,286 L433,111 A2.5,2.5 0 0 1 435.5,108.5 " fill="none" style="stroke:#000000;stroke-width:1.5;"/><line style="stroke:#000000;stroke-width:1.5;" x1="433" x2="480" y1="130.7969" y2="130.7969"/><text fill="#000000" font-family="sans-serif" font-size="14" font-weight="bold" lengthAdjust="spacing" textLength="34" x="437" y="123.4951">gpio</text></g><!--cluster spi--><g id="cluster_spi"><path d="M237.5,92 L261.5,92 A3.75,3.75 0 0 1 264,94.5 L271,114.2969 L406.5,114.2969 A2.5,2.5 0 0 1 409,116.7969 L409,302.5 A2.5,2.5 0 0 1 406.5,305 L237.5,305 A2.5,2.5 0 0 1 235,302.5 L235,94.5 A2.5,2.5 0 0 1 237.5,92 " fill="none" style="stroke:#000000;stroke-width:1.5;"/><line style="stroke:#000000;stroke-width:1.5;" x1="235" x2="271" y1="114.2969" y2="114.2969"/><text fill="#000000" font-family="sans-serif" font-size="14" font-weight="bold" lengthAdjust="spacing" textLength="23" x="239" y="106.9951">spi</text></g><!--class BaseFont--><g id="elem_BaseFont"><rect codeLine="5" fill="#F1F1F1" height="145.7813" id="BaseFont" rx="2.5" ry="2.5" style="stroke:#181818;stroke-width:0.5;" width="139" x="613.5" y="936"/><ellipse cx="647.4" cy="952" fill="#A9DCDF" rx="11" ry="11" style="stroke:#181818;stroke-width:1.0;"/><path d="M647.5094,947.3438 L646.3531,952.4219 L648.6813,952.4219 L647.5094,947.3438 Z M646.025,945.1094 L649.0094,945.1094 L652.3688,957.5 L649.9156,957.5 L649.15,954.4375 L645.8688,954.4375 L645.1188,957.5 L642.6813,957.5 L646.025,945.1094 Z " fill="#000000"/><text fill="#000000" font-family="sans-serif" font-size="14" font-style="italic" lengthAdjust="spacing" textLength="65" x="665.6" y="956.8467">BaseFont</text><line style="stroke:#181818;stroke-width:0.5;" x1="614.5" x2="751.5" y1="968" y2="968"/><rect fill="none" height="6" style="stroke:#C82930;stroke-width:1.0;" width="6" x="621.5" y="978.6484"/><text fill="#000000" font-family="sans-serif" font-size="14" lengthAdjust="spacing" textLength="47" x="633.5" y="984.9951">bitmap</text><rect fill="none" height="6" style="stroke:#C82930;stroke-width:1.0;" width="6" x="621.5" y="994.9453"/><text fill="#000000" font-family="sans-serif" font-size="14" lengthAdjust="spacing" textLength="37" x="633.5" y="1001.292">index</text><rect fill="none" height="6" style="stroke:#C82930;stroke-width:1.0;" width="6" x="621.5" y="1011.2422"/><text fill="#000000" font-family="sans-serif" font-size="14" lengthAdjust="spacing" textLength="37" x="633.5" y="1017.5889">glyph</text><line style="stroke:#181818;stroke-width:0.5;" x1="614.5" x2="751.5" y1="1024.8906" y2="1024.8906"/><ellipse cx="624.5" cy="1038.5391" fill="#84BE84" rx="3" ry="3" style="stroke:#038048;stroke-width:1.0;"/><text fill="#000000" font-family="sans-serif" font-size="14" font-style="italic" lengthAdjust="spacing" textLength="78" x="633.5" y="1041.8857">int get_bit()</text><ellipse cx="624.5" cy="1054.8359" fill="#84BE84" rx="3" ry="3" style="stroke:#038048;stroke-width:1.0;"/><text fill="#000000" font-family="sans-serif" font-size="14" font-style="italic" lengthAdjust="spacing" textLength="92" x="633.5" y="1058.1826">int get_next()</text><ellipse cx="624.5" cy="1071.1328" fill="#84BE84" rx="3" ry="3" style="stroke:#038048;stroke-width:1.0;"/><text fill="#000000" font-family="sans-serif" font-size="14" font-style="italic" lengthAdjust="spacing" textLength="113" x="633.5" y="1074.4795">int set_position()</text></g><!--class Font06--><g id="elem_Font06"><rect codeLine="15" fill="#F1F1F1" height="145.7813" id="Font06" rx="2.5" ry="2.5" style="stroke:#181818;stroke-width:0.5;" width="141" x="909.5" y="573"/><ellipse cx="951.5" cy="589" fill="#ADD1B2" rx="11" ry="11" style="stroke:#181818;stroke-width:1.0;"/><path d="M954.4688,594.6406 Q953.8906,594.9375 953.25,595.0781 Q952.6094,595.2344 951.9063,595.2344 Q949.4063,595.2344 948.0781,593.5938 Q946.7656,591.9375 946.7656,588.8125 Q946.7656,585.6875 948.0781,584.0313 Q949.4063,582.375 951.9063,582.375 Q952.6094,582.375 953.25,582.5313 Q953.9063,582.6875 954.4688,582.9844 L954.4688,585.7031 Q953.8438,585.125 953.25,584.8594 Q952.6563,584.5781 952.0313,584.5781 Q950.6875,584.5781 950,585.6563 Q949.3125,586.7188 949.3125,588.8125 Q949.3125,590.9063 950,591.9844 Q950.6875,593.0469 952.0313,593.0469 Q952.6563,593.0469 953.25,592.7813 Q953.8438,592.5 954.4688,591.9219 L954.4688,594.6406 Z " fill="#000000"/><text fill="#000000" font-family="sans-serif" font-size="14" lengthAdjust="spacing" textLength="49" x="971.5" y="593.8467">Font06</text><line style="stroke:#181818;stroke-width:0.5;" x1="910.5" x2="1049.5" y1="605" y2="605"/><rect fill="none" height="6" style="stroke:#C82930;stroke-width:1.0;" width="6" x="917.5" y="615.6484"/><text fill="#000000" font-family="sans-serif" font-size="14" lengthAdjust="spacing" textLength="47" x="929.5" y="621.9951">bitmap</text><rect fill="none" height="6" style="stroke:#C82930;stroke-width:1.0;" width="6" x="917.5" y="631.9453"/><text fill="#000000" font-family="sans-serif" font-size="14" lengthAdjust="spacing" textLength="37" x="929.5" y="638.292">index</text><rect fill="none" height="6" style="stroke:#C82930;stroke-width:1.0;" width="6" x="917.5" y="648.2422"/><text fill="#000000" font-family="sans-serif" font-size="14" lengthAdjust="spacing" textLength="37" x="929.5" y="654.5889">glyph</text><line style="stroke:#181818;stroke-width:0.5;" x1="910.5" x2="1049.5" y1="661.8906" y2="661.8906"/><ellipse cx="920.5" cy="675.5391" fill="#84BE84" rx="3" ry="3" style="stroke:#038048;stroke-width:1.0;"/><text fill="#000000" font-family="sans-serif" font-size="14" lengthAdjust="spacing" textLength="78" x="929.5" y="678.8857">int get_bit()</text><ellipse cx="920.5" cy="691.8359" fill="#84BE84" rx="3" ry="3" style="stroke:#038048;stroke-width:1.0;"/><text fill="#000000" font-family="sans-serif" font-size="14" lengthAdjust="spacing" textLength="91" x="929.5" y="695.1826">int get_next()</text><ellipse cx="920.5" cy="708.1328" fill="#84BE84" rx="3" ry="3" style="stroke:#038048;stroke-width:1.0;"/><text fill="#000000" font-family="sans-serif" font-size="14" lengthAdjust="spacing" textLength="115" x="929.5" y="711.4795">int set_position()</text></g><!--class Font08--><g id="elem_Font08"><rect codeLine="25" fill="#F1F1F1" height="145.7813" id="Font08" rx="2.5" ry="2.5" style="stroke:#181818;stroke-width:0.5;" width="141" x="711.5" y="573"/><ellipse cx="753.5" cy="589" fill="#ADD1B2" rx="11" ry="11" style="stroke:#181818;stroke-width:1.0;"/><path d="M756.4688,594.6406 Q755.8906,594.9375 755.25,595.0781 Q754.6094,595.2344 753.9063,595.2344 Q751.4063,595.2344 750.0781,593.5938 Q748.7656,591.9375 748.7656,588.8125 Q748.7656,585.6875 750.0781,584.0313 Q751.4063,582.375 753.9063,582.375 Q754.6094,582.375 755.25,582.5313 Q755.9063,582.6875 756.4688,582.9844 L756.4688,585.7031 Q755.8438,585.125 755.25,584.8594 Q754.6563,584.5781 754.0313,584.5781 Q752.6875,584.5781 752,585.6563 Q751.3125,586.7188 751.3125,588.8125 Q751.3125,590.9063 752,591.9844 Q752.6875,593.0469 754.0313,593.0469 Q754.6563,593.0469 755.25,592.7813 Q755.8438,592.5 756.4688,591.9219 L756.4688,594.6406 Z " fill="#000000"/><text fill="#000000" font-family="sans-serif" font-size="14" lengthAdjust="spacing" textLength="49" x="773.5" y="593.8467">Font08</text><line style="stroke:#181818;stroke-width:0.5;" x1="712.5" x2="851.5" y1="605" y2="605"/><rect fill="none" height="6" style="stroke:#C82930;stroke-width:1.0;" width="6" x="719.5" y="615.6484"/><text fill="#000000" font-family="sans-serif" font-size="14" lengthAdjust="spacing" textLength="47" x="731.5" y="621.9951">bitmap</text><rect fill="none" height="6" style="stroke:#C82930;stroke-width:1.0;" width="6" x="719.5" y="631.9453"/><text fill="#000000" font-family="sans-serif" font-size="14" lengthAdjust="spacing" textLength="37" x="731.5" y="638.292">index</text><rect fill="none" height="6" style="stroke:#C82930;stroke-width:1.0;" width="6" x="719.5" y="648.2422"/><text fill="#000000" font-family="sans-serif" font-size="14" lengthAdjust="spacing" textLength="37" x="731.5" y="654.5889">glyph</text><line style="stroke:#181818;stroke-width:0.5;" x1="712.5" x2="851.5" y1="661.8906" y2="661.8906"/><ellipse cx="722.5" cy="675.5391" fill="#84BE84" rx="3" ry="3" style="stroke:#038048;stroke-width:1.0;"/><text fill="#000000" font-family="sans-serif" font-size="14" lengthAdjust="spacing" textLength="78" x="731.5" y="678.8857">int get_bit()</text><ellipse cx="722.5" cy="691.8359" fill="#84BE84" rx="3" ry="3" style="stroke:#038048;stroke-width:1.0;"/><text fill="#000000" font-family="sans-serif" font-size="14" lengthAdjust="spacing" textLength="91" x="731.5" y="695.1826">int get_next()</text><ellipse cx="722.5" cy="708.1328" fill="#84BE84" rx="3" ry="3" style="stroke:#038048;stroke-width:1.0;"/><text fill="#000000" font-family="sans-serif" font-size="14" lengthAdjust="spacing" textLength="115" x="731.5" y="711.4795">int set_position()</text></g><!--class Org01--><g id="elem_Org01"><rect codeLine="35" fill="#F1F1F1" height="145.7813" id="Org01" rx="2.5" ry="2.5" style="stroke:#181818;stroke-width:0.5;" width="141" x="513.5" y="573"/><ellipse cx="558.25" cy="589" fill="#ADD1B2" rx="11" ry="11" style="stroke:#181818;stroke-width:1.0;"/><path d="M561.2188,594.6406 Q560.6406,594.9375 560,595.0781 Q559.3594,595.2344 558.6563,595.2344 Q556.1563,595.2344 554.8281,593.5938 Q553.5156,591.9375 553.5156,588.8125 Q553.5156,585.6875 554.8281,584.0313 Q556.1563,582.375 558.6563,582.375 Q559.3594,582.375 560,582.5313 Q560.6563,582.6875 561.2188,582.9844 L561.2188,585.7031 Q560.5938,585.125 560,584.8594 Q559.4063,584.5781 558.7813,584.5781 Q557.4375,584.5781 556.75,585.6563 Q556.0625,586.7188 556.0625,588.8125 Q556.0625,590.9063 556.75,591.9844 Q557.4375,593.0469 558.7813,593.0469 Q559.4063,593.0469 560,592.7813 Q560.5938,592.5 561.2188,591.9219 L561.2188,594.6406 Z " fill="#000000"/><text fill="#000000" font-family="sans-serif" font-size="14" lengthAdjust="spacing" textLength="43" x="578.75" y="593.8467">Org01</text><line style="stroke:#181818;stroke-width:0.5;" x1="514.5" x2="653.5" y1="605" y2="605"/><rect fill="none" height="6" style="stroke:#C82930;stroke-width:1.0;" width="6" x="521.5" y="615.6484"/><text fill="#000000" font-family="sans-serif" font-size="14" lengthAdjust="spacing" textLength="47" x="533.5" y="621.9951">bitmap</text><rect fill="none" height="6" style="stroke:#C82930;stroke-width:1.0;" width="6" x="521.5" y="631.9453"/><text fill="#000000" font-family="sans-serif" font-size="14" lengthAdjust="spacing" textLength="37" x="533.5" y="638.292">index</text><rect fill="none" height="6" style="stroke:#C82930;stroke-width:1.0;" width="6" x="521.5" y="648.2422"/><text fill="#000000" font-family="sans-serif" font-size="14" lengthAdjust="spacing" textLength="37" x="533.5" y="654.5889">glyph</text><line style="stroke:#181818;stroke-width:0.5;" x1="514.5" x2="653.5" y1="661.8906" y2="661.8906"/><ellipse cx="524.5" cy="675.5391" fill="#84BE84" rx="3" ry="3" style="stroke:#038048;stroke-width:1.0;"/><text fill="#000000" font-family="sans-serif" font-size="14" lengthAdjust="spacing" textLength="78" x="533.5" y="678.8857">int get_bit()</text><ellipse cx="524.5" cy="691.8359" fill="#84BE84" rx="3" ry="3" style="stroke:#038048;stroke-width:1.0;"/><text fill="#000000" font-family="sans-serif" font-size="14" lengthAdjust="spacing" textLength="91" x="533.5" y="695.1826">int get_next()</text><ellipse cx="524.5" cy="708.1328" fill="#84BE84" rx="3" ry="3" style="stroke:#038048;stroke-width:1.0;"/><text fill="#000000" font-family="sans-serif" font-size="14" lengthAdjust="spacing" textLength="115" x="533.5" y="711.4795">int set_position()</text></g><!--class Pen--><g id="elem_Pen"><rect codeLine="46" fill="#F1F1F1" height="96.8906" id="Pen" rx="2.5" ry="2.5" style="stroke:#181818;stroke-width:0.5;" width="152" x="223" y="961"/><ellipse cx="281.25" cy="977" fill="#ADD1B2" rx="11" ry="11" style="stroke:#181818;stroke-width:1.0;"/><path d="M284.2188,982.6406 Q283.6406,982.9375 283,983.0781 Q282.3594,983.2344 281.6563,983.2344 Q279.1563,983.2344 277.8281,981.5938 Q276.5156,979.9375 276.5156,976.8125 Q276.5156,973.6875 277.8281,972.0313 Q279.1563,970.375 281.6563,970.375 Q282.3594,970.375 283,970.5313 Q283.6563,970.6875 284.2188,970.9844 L284.2188,973.7031 Q283.5938,973.125 283,972.8594 Q282.4063,972.5781 281.7813,972.5781 Q280.4375,972.5781 279.75,973.6563 Q279.0625,974.7188 279.0625,976.8125 Q279.0625,978.9063 279.75,979.9844 Q280.4375,981.0469 281.7813,981.0469 Q282.4063,981.0469 283,980.7813 Q283.5938,980.5 284.2188,979.9219 L284.2188,982.6406 Z " fill="#000000"/><text fill="#000000" font-family="sans-serif" font-size="14" lengthAdjust="spacing" textLength="27" x="301.75" y="981.8467">Pen</text><line style="stroke:#181818;stroke-width:0.5;" x1="224" x2="374" y1="993" y2="993"/><ellipse cx="234" cy="1006.6484" fill="none" rx="3" ry="3" style="stroke:#038048;stroke-width:1.0;"/><text fill="#000000" font-family="sans-serif" font-size="14" lengthAdjust="spacing" textLength="126" x="243" y="1009.9951">bg_colour : Colour</text><ellipse cx="234" cy="1022.9453" fill="none" rx="3" ry="3" style="stroke:#038048;stroke-width:1.0;"/><text fill="#000000" font-family="sans-serif" font-size="14" lengthAdjust="spacing" textLength="121" x="243" y="1026.292">fg_colour : Colour</text><ellipse cx="234" cy="1039.2422" fill="none" rx="3" ry="3" style="stroke:#038048;stroke-width:1.0;"/><text fill="#000000" font-family="sans-serif" font-size="14" lengthAdjust="spacing" textLength="97" x="243" y="1042.5889">thickness : int</text><line style="stroke:#181818;stroke-width:0.5;" x1="224" x2="374" y1="1049.8906" y2="1049.8906"/></g><!--class Pixel--><g id="elem_Pixel"><rect codeLine="51" fill="#F1F1F1" height="145.7813" id="Pixel" rx="2.5" ry="2.5" style="stroke:#181818;stroke-width:0.5;" width="116" x="70" y="1189"/><ellipse cx="108.85" cy="1205" fill="#ADD1B2" rx="11" ry="11" style="stroke:#181818;stroke-width:1.0;"/><path d="M111.8188,1210.6406 Q111.2406,1210.9375 110.6,1211.0781 Q109.9594,1211.2344 109.2563,1211.2344 Q106.7563,1211.2344 105.4281,1209.5938 Q104.1156,1207.9375 104.1156,1204.8125 Q104.1156,1201.6875 105.4281,1200.0313 Q106.7563,1198.375 109.2563,1198.375 Q109.9594,1198.375 110.6,1198.5313 Q111.2563,1198.6875 111.8188,1198.9844 L111.8188,1201.7031 Q111.1938,1201.125 110.6,1200.8594 Q110.0063,1200.5781 109.3813,1200.5781 Q108.0375,1200.5781 107.35,1201.6563 Q106.6625,1202.7188 106.6625,1204.8125 Q106.6625,1206.9063 107.35,1207.9844 Q108.0375,1209.0469 109.3813,1209.0469 Q110.0063,1209.0469 110.6,1208.7813 Q111.1938,1208.5 111.8188,1207.9219 L111.8188,1210.6406 Z " fill="#000000"/><text fill="#000000" font-family="sans-serif" font-size="14" lengthAdjust="spacing" textLength="31" x="128.15" y="1209.8467">Pixel</text><line style="stroke:#181818;stroke-width:0.5;" x1="71" x2="185" y1="1221" y2="1221"/><ellipse cx="81" cy="1234.6484" fill="none" rx="3" ry="3" style="stroke:#038048;stroke-width:1.0;"/><text fill="#000000" font-family="sans-serif" font-size="14" lengthAdjust="spacing" textLength="37" x="90" y="1237.9951">x : int</text><ellipse cx="81" cy="1250.9453" fill="none" rx="3" ry="3" style="stroke:#038048;stroke-width:1.0;"/><text fill="#000000" font-family="sans-serif" font-size="14" lengthAdjust="spacing" textLength="37" x="90" y="1254.292">y : int</text><ellipse cx="81" cy="1267.2422" fill="none" rx="3" ry="3" style="stroke:#038048;stroke-width:1.0;"/><text fill="#000000" font-family="sans-serif" font-size="14" lengthAdjust="spacing" textLength="69" x="90" y="1270.5889">x_y : tuple</text><line style="stroke:#181818;stroke-width:0.5;" x1="71" x2="185" y1="1277.8906" y2="1277.8906"/><ellipse cx="81" cy="1291.5391" fill="#84BE84" rx="3" ry="3" style="stroke:#038048;stroke-width:1.0;"/><text fill="#000000" font-family="sans-serif" font-size="14" lengthAdjust="spacing" textLength="69" x="90" y="1294.8857">move_to()</text><ellipse cx="81" cy="1307.8359" fill="#84BE84" rx="3" ry="3" style="stroke:#038048;stroke-width:1.0;"/><text fill="#000000" font-family="sans-serif" font-size="14" lengthAdjust="spacing" textLength="49" x="90" y="1311.1826">offset()</text><ellipse cx="81" cy="1324.1328" fill="#84BE84" rx="3" ry="3" style="stroke:#038048;stroke-width:1.0;"/><text fill="#000000" font-family="sans-serif" font-size="14" lengthAdjust="spacing" textLength="90" x="90" y="1327.4795">offset_polar()</text></g><!--class BoundPixel--><g id="elem_BoundPixel"><rect codeLine="59" fill="#F1F1F1" height="113.1875" id="BoundPixel" rx="2.5" ry="2.5" style="stroke:#181818;stroke-width:0.5;" width="109" x="70.5" y="952.5"/><ellipse cx="85.5" cy="968.5" fill="#ADD1B2" rx="11" ry="11" style="stroke:#181818;stroke-width:1.0;"/><path d="M88.4688,974.1406 Q87.8906,974.4375 87.25,974.5781 Q86.6094,974.7344 85.9063,974.7344 Q83.4063,974.7344 82.0781,973.0938 Q80.7656,971.4375 80.7656,968.3125 Q80.7656,965.1875 82.0781,963.5313 Q83.4063,961.875 85.9063,961.875 Q86.6094,961.875 87.25,962.0313 Q87.9063,962.1875 88.4688,962.4844 L88.4688,965.2031 Q87.8438,964.625 87.25,964.3594 Q86.6563,964.0781 86.0313,964.0781 Q84.6875,964.0781 84,965.1563 Q83.3125,966.2188 83.3125,968.3125 Q83.3125,970.4063 84,971.4844 Q84.6875,972.5469 86.0313,972.5469 Q86.6563,972.5469 87.25,972.2813 Q87.8438,972 88.4688,971.4219 L88.4688,974.1406 Z " fill="#000000"/><text fill="#000000" font-family="sans-serif" font-size="14" lengthAdjust="spacing" textLength="77" x="99.5" y="973.3467">BoundPixel</text><line style="stroke:#181818;stroke-width:0.5;" x1="71.5" x2="178.5" y1="984.5" y2="984.5"/><ellipse cx="81.5" cy="998.1484" fill="none" rx="3" ry="3" style="stroke:#038048;stroke-width:1.0;"/><text fill="#000000" font-family="sans-serif" font-size="14" lengthAdjust="spacing" textLength="69" x="90.5" y="1001.4951">min_x : int</text><ellipse cx="81.5" cy="1014.4453" fill="none" rx="3" ry="3" style="stroke:#038048;stroke-width:1.0;"/><text fill="#000000" font-family="sans-serif" font-size="14" lengthAdjust="spacing" textLength="69" x="90.5" y="1017.792">min_y : int</text><ellipse cx="81.5" cy="1030.7422" fill="none" rx="3" ry="3" style="stroke:#038048;stroke-width:1.0;"/><text fill="#000000" font-family="sans-serif" font-size="14" lengthAdjust="spacing" textLength="72" x="90.5" y="1034.0889">max_x : int</text><ellipse cx="81.5" cy="1047.0391" fill="none" rx="3" ry="3" style="stroke:#038048;stroke-width:1.0;"/><text fill="#000000" font-family="sans-serif" font-size="14" lengthAdjust="spacing" textLength="72" x="90.5" y="1050.3857">max_y : int</text><line style="stroke:#181818;stroke-width:0.5;" x1="71.5" x2="178.5" y1="1057.6875" y2="1057.6875"/></g><!--class Colour--><g id="elem_Colour"><rect codeLine="67" fill="#F1F1F1" height="162.0781" id="Colour" rx="2.5" ry="2.5" style="stroke:#181818;stroke-width:0.5;" width="269" x="439.5" y="1181"/><ellipse cx="547.25" cy="1197" fill="#ADD1B2" rx="11" ry="11" style="stroke:#181818;stroke-width:1.0;"/><path d="M550.2188,1202.6406 Q549.6406,1202.9375 549,1203.0781 Q548.3594,1203.2344 547.6563,1203.2344 Q545.1563,1203.2344 543.8281,1201.5938 Q542.5156,1199.9375 542.5156,1196.8125 Q542.5156,1193.6875 543.8281,1192.0313 Q545.1563,1190.375 547.6563,1190.375 Q548.3594,1190.375 549,1190.5313 Q549.6563,1190.6875 550.2188,1190.9844 L550.2188,1193.7031 Q549.5938,1193.125 549,1192.8594 Q548.4063,1192.5781 547.7813,1192.5781 Q546.4375,1192.5781 545.75,1193.6563 Q545.0625,1194.7188 545.0625,1196.8125 Q545.0625,1198.9063 545.75,1199.9844 Q546.4375,1201.0469 547.7813,1201.0469 Q548.4063,1201.0469 549,1200.7813 Q549.5938,1200.5 550.2188,1199.9219 L550.2188,1202.6406 Z " fill="#000000"/><text fill="#000000" font-family="sans-serif" font-size="14" lengthAdjust="spacing" textLength="45" x="567.75" y="1201.8467">Colour</text><line style="stroke:#181818;stroke-width:0.5;" x1="440.5" x2="707.5" y1="1213" y2="1213"/><ellipse cx="450.5" cy="1226.6484" fill="none" rx="3" ry="3" style="stroke:#038048;stroke-width:1.0;"/><text fill="#000000" font-family="sans-serif" font-size="14" lengthAdjust="spacing" textLength="53" x="459.5" y="1229.9951">red : int</text><ellipse cx="450.5" cy="1242.9453" fill="none" rx="3" ry="3" style="stroke:#038048;stroke-width:1.0;"/><text fill="#000000" font-family="sans-serif" font-size="14" lengthAdjust="spacing" textLength="71" x="459.5" y="1246.292">green : int</text><ellipse cx="450.5" cy="1259.2422" fill="none" rx="3" ry="3" style="stroke:#038048;stroke-width:1.0;"/><text fill="#000000" font-family="sans-serif" font-size="14" lengthAdjust="spacing" textLength="60" x="459.5" y="1262.5889">blue : int</text><ellipse cx="450.5" cy="1275.5391" fill="none" rx="3" ry="3" style="stroke:#038048;stroke-width:1.0;"/><text fill="#000000" font-family="sans-serif" font-size="14" lengthAdjust="spacing" textLength="103" x="459.5" y="1278.8857">as_rgb565 : int</text><ellipse cx="450.5" cy="1291.8359" fill="none" rx="3" ry="3" style="stroke:#038048;stroke-width:1.0;"/><text fill="#000000" font-family="sans-serif" font-size="14" lengthAdjust="spacing" textLength="103" x="459.5" y="1295.1826">as_rgb888 : int</text><ellipse cx="450.5" cy="1308.1328" fill="none" rx="3" ry="3" style="stroke:#038048;stroke-width:1.0;"/><text fill="#000000" font-family="sans-serif" font-size="14" lengthAdjust="spacing" textLength="243" x="459.5" y="1311.4795">DEVICE_WORD_ORDER word_order</text><line style="stroke:#181818;stroke-width:0.5;" x1="440.5" x2="707.5" y1="1318.7813" y2="1318.7813"/><ellipse cx="450.5" cy="1332.4297" fill="#84BE84" rx="3" ry="3" style="stroke:#038048;stroke-width:1.0;"/><text fill="#000000" font-family="sans-serif" font-size="14" lengthAdjust="spacing" text-decoration="underline" textLength="98" x="459.5" y="1335.7764">from_rgb565()</text></g><!--class Canvas--><g id="elem_Canvas"><rect codeLine="78" fill="#F1F1F1" height="422.8281" id="Canvas" rx="2.5" ry="2.5" style="stroke:#181818;stroke-width:0.5;" width="160" x="242" y="435"/><ellipse cx="292.75" cy="451" fill="#A9DCDF" rx="11" ry="11" style="stroke:#181818;stroke-width:1.0;"/><path d="M292.8594,446.3438 L291.7031,451.4219 L294.0313,451.4219 L292.8594,446.3438 Z M291.375,444.1094 L294.3594,444.1094 L297.7188,456.5 L295.2656,456.5 L294.5,453.4375 L291.2188,453.4375 L290.4688,456.5 L288.0313,456.5 L291.375,444.1094 Z " fill="#000000"/><text fill="#000000" font-family="sans-serif" font-size="14" font-style="italic" lengthAdjust="spacing" textLength="50" x="313.25" y="455.8467">Canvas</text><line style="stroke:#181818;stroke-width:0.5;" x1="243" x2="401" y1="467" y2="467"/><ellipse cx="253" cy="480.6484" fill="none" rx="3" ry="3" style="stroke:#038048;stroke-width:1.0;"/><text fill="#000000" font-family="sans-serif" font-size="14" lengthAdjust="spacing" textLength="126" x="262" y="483.9951">bg_colour : Colour</text><ellipse cx="253" cy="496.9453" fill="none" rx="3" ry="3" style="stroke:#038048;stroke-width:1.0;"/><text fill="#000000" font-family="sans-serif" font-size="14" lengthAdjust="spacing" textLength="134" x="262" y="500.292">cursor : BoundPixel</text><ellipse cx="253" cy="513.2422" fill="none" rx="3" ry="3" style="stroke:#038048;stroke-width:1.0;"/><text fill="#000000" font-family="sans-serif" font-size="14" lengthAdjust="spacing" textLength="121" x="262" y="516.5889">fg_colour : Colour</text><ellipse cx="253" cy="529.5391" fill="none" rx="3" ry="3" style="stroke:#038048;stroke-width:1.0;"/><text fill="#000000" font-family="sans-serif" font-size="14" lengthAdjust="spacing" textLength="128" x="262" y="532.8857">origin : BoundPixel</text><ellipse cx="253" cy="545.8359" fill="none" rx="3" ry="3" style="stroke:#038048;stroke-width:1.0;"/><text fill="#000000" font-family="sans-serif" font-size="14" lengthAdjust="spacing" textLength="67" x="262" y="549.1826">pen : Pen</text><ellipse cx="253" cy="562.1328" fill="none" rx="3" ry="3" style="stroke:#038048;stroke-width:1.0;"/><text fill="#000000" font-family="sans-serif" font-size="14" lengthAdjust="spacing" textLength="74" x="262" y="565.4795">height : int</text><ellipse cx="253" cy="578.4297" fill="none" rx="3" ry="3" style="stroke:#038048;stroke-width:1.0;"/><text fill="#000000" font-family="sans-serif" font-size="14" lengthAdjust="spacing" textLength="67" x="262" y="581.7764">width : int</text><ellipse cx="253" cy="594.7266" fill="none" rx="3" ry="3" style="stroke:#038048;stroke-width:1.0;"/><text fill="#000000" font-family="sans-serif" font-size="14" lengthAdjust="spacing" textLength="37" x="262" y="598.0732">x : int</text><ellipse cx="253" cy="611.0234" fill="none" rx="3" ry="3" style="stroke:#038048;stroke-width:1.0;"/><text fill="#000000" font-family="sans-serif" font-size="14" lengthAdjust="spacing" textLength="37" x="262" y="614.3701">y : int</text><ellipse cx="253" cy="627.3203" fill="none" rx="3" ry="3" style="stroke:#038048;stroke-width:1.0;"/><text fill="#000000" font-family="sans-serif" font-size="14" lengthAdjust="spacing" textLength="51" x="262" y="630.667">x_y : int</text><ellipse cx="253" cy="643.6172" fill="none" rx="3" ry="3" style="stroke:#038048;stroke-width:1.0;"/><text fill="#000000" font-family="sans-serif" font-size="14" lengthAdjust="spacing" textLength="106" x="262" y="646.9639">font : BaseFont</text><line style="stroke:#181818;stroke-width:0.5;" x1="243" x2="401" y1="654.2656" y2="654.2656"/><ellipse cx="253" cy="667.9141" fill="#84BE84" rx="3" ry="3" style="stroke:#038048;stroke-width:1.0;"/><text fill="#000000" font-family="sans-serif" font-size="14" font-style="italic" lengthAdjust="spacing" textLength="74" x="262" y="671.2607">draw_line()</text><ellipse cx="253" cy="684.2109" fill="#84BE84" rx="3" ry="3" style="stroke:#038048;stroke-width:1.0;"/><text fill="#000000" font-family="sans-serif" font-size="14" font-style="italic" lengthAdjust="spacing" textLength="115" x="262" y="687.5576">draw_rectangle()</text><ellipse cx="253" cy="700.5078" fill="#84BE84" rx="3" ry="3" style="stroke:#038048;stroke-width:1.0;"/><text fill="#000000" font-family="sans-serif" font-size="14" lengthAdjust="spacing" textLength="64" x="262" y="703.8545">draw_to()</text><ellipse cx="253" cy="716.8047" fill="#84BE84" rx="3" ry="3" style="stroke:#038048;stroke-width:1.0;"/><text fill="#000000" font-family="sans-serif" font-size="14" lengthAdjust="spacing" textLength="78" x="262" y="720.1514">fill_screen()</text><ellipse cx="253" cy="733.1016" fill="#84BE84" rx="3" ry="3" style="stroke:#038048;stroke-width:1.0;"/><text fill="#000000" font-family="sans-serif" font-size="14" lengthAdjust="spacing" textLength="62" x="262" y="736.4482">moveto()</text><ellipse cx="253" cy="749.3984" fill="#84BE84" rx="3" ry="3" style="stroke:#038048;stroke-width:1.0;"/><text fill="#000000" font-family="sans-serif" font-size="14" lengthAdjust="spacing" textLength="114" x="262" y="752.7451">move_origin_to()</text><ellipse cx="253" cy="765.6953" fill="#84BE84" rx="3" ry="3" style="stroke:#038048;stroke-width:1.0;"/><text fill="#000000" font-family="sans-serif" font-size="14" font-style="italic" lengthAdjust="spacing" textLength="80" x="262" y="769.042">read_pixel()</text><ellipse cx="253" cy="781.9922" fill="#84BE84" rx="3" ry="3" style="stroke:#038048;stroke-width:1.0;"/><text fill="#000000" font-family="sans-serif" font-size="14" lengthAdjust="spacing" textLength="127" x="262" y="785.3389">select_bg_colour()</text><ellipse cx="253" cy="798.2891" fill="#84BE84" rx="3" ry="3" style="stroke:#038048;stroke-width:1.0;"/><text fill="#000000" font-family="sans-serif" font-size="14" lengthAdjust="spacing" textLength="122" x="262" y="801.6357">select_fg_colour()</text><ellipse cx="253" cy="814.5859" fill="#84BE84" rx="3" ry="3" style="stroke:#038048;stroke-width:1.0;"/><text fill="#000000" font-family="sans-serif" font-size="14" lengthAdjust="spacing" textLength="80" x="262" y="817.9326">write_char()</text><ellipse cx="253" cy="830.8828" fill="#84BE84" rx="3" ry="3" style="stroke:#038048;stroke-width:1.0;"/><text fill="#000000" font-family="sans-serif" font-size="14" font-style="italic" lengthAdjust="spacing" textLength="82" x="262" y="834.2295">write_pixel()</text><ellipse cx="253" cy="847.1797" fill="#84BE84" rx="3" ry="3" style="stroke:#038048;stroke-width:1.0;"/><text fill="#000000" font-family="sans-serif" font-size="14" lengthAdjust="spacing" textLength="76" x="262" y="850.5264">write_text()</text></g><path d="M59.5,181.5 L112.5,181.5 A3.75,3.75 0 0 1 115,184 L122,203.7969 L126.5,203.7969 A2.5,2.5 0 0 1 129,206.2969 L129,231.5938 A2.5,2.5 0 0 1 126.5,234.0938 L59.5,234.0938 A2.5,2.5 0 0 1 57,231.5938 L57,184 A2.5,2.5 0 0 1 59.5,181.5 " fill="#F1F1F1" style="stroke:#181818;stroke-width:0.5;"/><line style="stroke:#181818;stroke-width:0.5;" x1="57" x2="122" y1="203.7969" y2="203.7969"/><text fill="#000000" font-family="sans-serif" font-size="14" lengthAdjust="spacing" textLength="52" x="61" y="196.4951">helpers</text><!--class LED--><g id="elem_LED"><rect codeLine="109" fill="#F1F1F1" height="129.4844" id="LED" rx="2.5" ry="2.5" style="stroke:#181818;stroke-width:0.5;" width="100" x="449" y="143.5"/><ellipse cx="482.45" cy="159.5" fill="#ADD1B2" rx="11" ry="11" style="stroke:#181818;stroke-width:1.0;"/><path d="M485.4188,165.1406 Q484.8406,165.4375 484.2,165.5781 Q483.5594,165.7344 482.8563,165.7344 Q480.3563,165.7344 479.0281,164.0938 Q477.7156,162.4375 477.7156,159.3125 Q477.7156,156.1875 479.0281,154.5313 Q480.3563,152.875 482.8563,152.875 Q483.5594,152.875 484.2,153.0313 Q484.8563,153.1875 485.4188,153.4844 L485.4188,156.2031 Q484.7938,155.625 484.2,155.3594 Q483.6063,155.0781 482.9813,155.0781 Q481.6375,155.0781 480.95,156.1563 Q480.2625,157.2188 480.2625,159.3125 Q480.2625,161.4063 480.95,162.4844 Q481.6375,163.5469 482.9813,163.5469 Q483.6063,163.5469 484.2,163.2813 Q484.7938,163 485.4188,162.4219 L485.4188,165.1406 Z " fill="#000000"/><text fill="#000000" font-family="sans-serif" font-size="14" lengthAdjust="spacing" textLength="27" x="500.55" y="164.3467">LED</text><line style="stroke:#181818;stroke-width:0.5;" x1="450" x2="548" y1="175.5" y2="175.5"/><ellipse cx="460" cy="189.1484" fill="none" rx="3" ry="3" style="stroke:#038048;stroke-width:1.0;"/><text fill="#000000" font-family="sans-serif" font-size="14" lengthAdjust="spacing" textLength="73" x="469" y="192.4951">led0 : bool</text><ellipse cx="460" cy="205.4453" fill="none" rx="3" ry="3" style="stroke:#038048;stroke-width:1.0;"/><text fill="#000000" font-family="sans-serif" font-size="14" lengthAdjust="spacing" textLength="73" x="469" y="208.792">led1 : bool</text><ellipse cx="460" cy="221.7422" fill="none" rx="3" ry="3" style="stroke:#038048;stroke-width:1.0;"/><text fill="#000000" font-family="sans-serif" font-size="14" lengthAdjust="spacing" textLength="73" x="469" y="225.0889">led2 : bool</text><ellipse cx="460" cy="238.0391" fill="none" rx="3" ry="3" style="stroke:#038048;stroke-width:1.0;"/><text fill="#000000" font-family="sans-serif" font-size="14" lengthAdjust="spacing" textLength="73" x="469" y="241.3857">led3 : bool</text><line style="stroke:#181818;stroke-width:0.5;" x1="450" x2="548" y1="248.6875" y2="248.6875"/><ellipse cx="460" cy="262.3359" fill="#84BE84" rx="3" ry="3" style="stroke:#038048;stroke-width:1.0;"/><text fill="#000000" font-family="sans-serif" font-size="14" lengthAdjust="spacing" textLength="74" x="469" y="265.6826">set_state()</text></g><path d="M178.5,181.5 L199.5,181.5 A3.75,3.75 0 0 1 202,184 L209,203.7969 L213.5,203.7969 A2.5,2.5 0 0 1 216,206.2969 L216,231.5938 A2.5,2.5 0 0 1 213.5,234.0938 L178.5,234.0938 A2.5,2.5 0 0 1 176,231.5938 L176,184 A2.5,2.5 0 0 1 178.5,181.5 " fill="#F1F1F1" style="stroke:#181818;stroke-width:0.5;"/><line style="stroke:#181818;stroke-width:0.5;" x1="176" x2="209" y1="203.7969" y2="203.7969"/><text fill="#000000" font-family="sans-serif" font-size="14" lengthAdjust="spacing" textLength="20" x="180" y="196.4951">i2c</text><!--class OLEDrgb--><g id="elem_OLEDrgb"><rect codeLine="120" fill="#F1F1F1" height="162.0781" id="OLEDrgb" rx="2.5" ry="2.5" style="stroke:#181818;stroke-width:0.5;" width="141" x="251.5" y="127"/><ellipse cx="288.1" cy="143" fill="#ADD1B2" rx="11" ry="11" style="stroke:#181818;stroke-width:1.0;"/><path d="M291.0688,148.6406 Q290.4906,148.9375 289.85,149.0781 Q289.2094,149.2344 288.5063,149.2344 Q286.0063,149.2344 284.6781,147.5938 Q283.3656,145.9375 283.3656,142.8125 Q283.3656,139.6875 284.6781,138.0313 Q286.0063,136.375 288.5063,136.375 Q289.2094,136.375 289.85,136.5313 Q290.5063,136.6875 291.0688,136.9844 L291.0688,139.7031 Q290.4438,139.125 289.85,138.8594 Q289.2563,138.5781 288.6313,138.5781 Q287.2875,138.5781 286.6,139.6563 Q285.9125,140.7188 285.9125,142.8125 Q285.9125,144.9063 286.6,145.9844 Q287.2875,147.0469 288.6313,147.0469 Q289.2563,147.0469 289.85,146.7813 Q290.4438,146.5 291.0688,145.9219 L291.0688,148.6406 Z " fill="#000000"/><text fill="#000000" font-family="sans-serif" font-size="14" lengthAdjust="spacing" textLength="61" x="306.9" y="147.8467">OLEDrgb</text><line style="stroke:#181818;stroke-width:0.5;" x1="252.5" x2="391.5" y1="159" y2="159"/><line style="stroke:#181818;stroke-width:0.5;" x1="252.5" x2="391.5" y1="167" y2="167"/><rect fill="#F24D5C" height="6" style="stroke:#C82930;stroke-width:1.0;" width="6" x="259.5" y="177.6484"/><text fill="#000000" font-family="sans-serif" font-size="14" lengthAdjust="spacing" textLength="41" x="271.5" y="183.9951">read()</text><rect fill="#F24D5C" height="6" style="stroke:#C82930;stroke-width:1.0;" width="6" x="259.5" y="193.9453"/><text fill="#000000" font-family="sans-serif" font-size="14" lengthAdjust="spacing" textLength="43" x="271.5" y="200.292">write()</text><ellipse cx="262.5" cy="213.2422" fill="#84BE84" rx="3" ry="3" style="stroke:#038048;stroke-width:1.0;"/><text fill="#000000" font-family="sans-serif" font-size="14" lengthAdjust="spacing" textLength="74" x="271.5" y="216.5889">draw_line()</text><ellipse cx="262.5" cy="229.5391" fill="#84BE84" rx="3" ry="3" style="stroke:#038048;stroke-width:1.0;"/><text fill="#000000" font-family="sans-serif" font-size="14" lengthAdjust="spacing" textLength="115" x="271.5" y="232.8857">draw_rectangle()</text><ellipse cx="262.5" cy="245.8359" fill="#84BE84" rx="3" ry="3" style="stroke:#038048;stroke-width:1.0;"/><text fill="#000000" font-family="sans-serif" font-size="14" lengthAdjust="spacing" textLength="79" x="271.5" y="249.1826">read_pixel()</text><ellipse cx="262.5" cy="262.1328" fill="#84BE84" rx="3" ry="3" style="stroke:#038048;stroke-width:1.0;"/><text fill="#000000" font-family="sans-serif" font-size="14" lengthAdjust="spacing" textLength="46" x="271.5" y="265.4795">reset()</text><ellipse cx="262.5" cy="278.4297" fill="#84BE84" rx="3" ry="3" style="stroke:#038048;stroke-width:1.0;"/><text fill="#000000" font-family="sans-serif" font-size="14" lengthAdjust="spacing" textLength="81" x="271.5" y="281.7764">write_pixel()</text></g><!--reverse link Font06 to BaseFont--><g id="link_Font06_BaseFont"><path codeLine="133" d="M951.02,738.27 C932.79,785.68 905.7,842.43 869,885 C836.9,922.24 790.87,952.8 752.64,974.15 " fill="none" id="Font06-backto-BaseFont" style="stroke:#181818;stroke-width:1.0;"/><polygon fill="none" points="944.54,735.59,958.05,719.27,957.67,740.45,944.54,735.59" style="stroke:#181818;stroke-width:1.0;"/></g><!--reverse link Font08 to BaseFont--><g id="link_Font08_BaseFont"><path codeLine="134" d="M756.83,738.78 C740.05,799.97 718.3,879.28 702.76,935.94 " fill="none" id="Font08-backto-BaseFont" style="stroke:#181818;stroke-width:1.0;"/><polygon fill="none" points="750.16,736.62,762.2,719.19,763.67,740.33,750.16,736.62" style="stroke:#181818;stroke-width:1.0;"/></g><!--reverse link Org01 to BaseFont--><g id="link_Org01_BaseFont"><path codeLine="135" d="M609.17,738.78 C625.95,799.97 647.7,879.28 663.24,935.94 " fill="none" id="Org01-backto-BaseFont" style="stroke:#181818;stroke-width:1.0;"/><polygon fill="none" points="602.33,740.33,603.8,719.19,615.84,736.62,602.33,740.33" style="stroke:#181818;stroke-width:1.0;"/></g><!--reverse link Pen to Colour--><g id="link_Pen_Colour"><path codeLine="137" d="M381.07,1005.22 C430.21,1009.78 379.38,1083.38 410,1130 C422.1,1148.43 437.65,1165.46 454.33,1180.73 " fill="none" id="Pen-backto-Colour" style="stroke:#181818;stroke-width:1.0;"/><polygon fill="#181818" points="376,1005,384.8205,1009.3817,380.9954,1005.2141,385.163,1001.389,376,1005" style="stroke:#181818;stroke-width:1.0;"/></g><!--reverse link Pen to Colour--><g id="link_Pen_Colour"><path codeLine="138" d="M381,1021.24 C423.65,1025.69 382.37,1089.58 410,1130 C422.54,1148.35 438.42,1165.4 455.33,1180.71 " fill="none" id="Pen-backto-Colour-1" style="stroke:#181818;stroke-width:1.0;"/><polygon fill="#181818" points="376,1021,384.7947,1025.4331,380.9941,1021.2433,385.184,1017.4426,376,1021" style="stroke:#181818;stroke-width:1.0;"/></g><!--reverse link BoundPixel to Pixel--><g id="link_BoundPixel_Pixel"><path codeLine="140" d="M125.91,1085.77 C126.3,1118.44 126.75,1156.48 127.14,1188.75 " fill="none" id="BoundPixel-backto-Pixel" style="stroke:#181818;stroke-width:1.0;"/><polygon fill="none" points="118.91,1085.79,125.67,1065.71,132.9,1085.62,118.91,1085.79" style="stroke:#181818;stroke-width:1.0;"/></g><!--reverse link Canvas to Colour--><g id="link_Canvas_Colour"><path codeLine="142" d="M408.38,479.25 C543.97,492.1 388.8,999.21 447,1130 C455.11,1148.23 466.92,1165.42 480.12,1180.98 " fill="none" id="Canvas-backto-Colour" style="stroke:#181818;stroke-width:1.0;"/><polygon fill="#181818" points="403,479,411.7953,483.4319,407.9941,479.2426,412.1835,475.4413,403,479" style="stroke:#181818;stroke-width:1.0;"/></g><!--reverse link Canvas to Colour--><g id="link_Canvas_Colour"><path codeLine="143" d="M406.35,514.86 C430.25,560.44 520.58,997.46 557.81,1180.74 " fill="none" id="Canvas-backto-Colour-1" style="stroke:#181818;stroke-width:1.0;"/><polygon fill="#181818" points="403,511,405.8757,520.4197,406.2763,514.777,411.9189,515.1776,403,511" style="stroke:#181818;stroke-width:1.0;"/></g><!--reverse link Canvas to BoundPixel--><g id="link_Canvas_BoundPixel"><path codeLine="144" d="M235.89,495.08 C55.85,501 91.7,820.4 114.19,952.12 " fill="none" id="Canvas-backto-BoundPixel" style="stroke:#181818;stroke-width:1.0;"/><polygon fill="#181818" points="241,495,231.9328,491.1549,236.0007,495.0857,232.0699,499.1537,241,495" style="stroke:#181818;stroke-width:1.0;"/></g><!--reverse link Canvas to BoundPixel--><g id="link_Canvas_BoundPixel"><path codeLine="145" d="M235.98,527.09 C68.24,532.82 95.69,826.98 115.07,952.35 " fill="none" id="Canvas-backto-BoundPixel-1" style="stroke:#181818;stroke-width:1.0;"/><polygon fill="#181818" points="241,527,231.9326,523.1553,236.0007,527.0859,232.0701,531.1541,241,527" style="stroke:#181818;stroke-width:1.0;"/></g><!--reverse link Canvas to Pen--><g id="link_Canvas_Pen"><path codeLine="146" d="M235.79,544.1 C79.05,550.25 209.9,837.06 271.38,956.57 " fill="none" id="Canvas-backto-Pen" style="stroke:#181818;stroke-width:1.0;"/><polygon fill="#181818" points="241,544,231.9328,540.1549,236.0007,544.0857,232.0699,548.1537,241,544" style="stroke:#181818;stroke-width:1.0;"/></g><!--reverse link Canvas to BaseFont--><g id="link_Canvas_BaseFont"><path codeLine="147" d="M408.29,641.11 C516.28,645.78 425.32,795.84 497,885 C528.05,923.62 574.55,954.37 613.29,975.47 " fill="none" id="Canvas-backto-BaseFont" style="stroke:#181818;stroke-width:1.0;"/><polygon fill="#181818" points="403,641,411.9062,645.2046,407.9987,641.1143,412.0891,637.2067,403,641" style="stroke:#181818;stroke-width:1.0;"/></g><!--reverse link OLEDrgb to Canvas--><g id="link_OLEDrgb_Canvas"><path codeLine="149" d="M322,309.31 C322,345.7 322,388.34 322,430.78 " fill="none" id="OLEDrgb-backto-Canvas" style="stroke:#181818;stroke-width:1.0;"/><polygon fill="none" points="315,309.22,322,289.22,329,309.22,315,309.22" style="stroke:#181818;stroke-width:1.0;"/></g><!--SRC=[vLXTQzim57tFhz3ZHeX9ErfC27recy9WqD67xL78jko8APQHbSObot-VPDcf8ryvoHRsKaCWqRawkZww7r9oig9bGMAAUBHMZ9TeEqBwoVVZcIJ5aiKjS0Yc8bTTv12DI4cnCK7p-GkD5SapJk_k77lpaAXKaiGAnPoK9RhN4v_ClBwbUIOeOcf52W_8yeHM7YpZRyKInBQj3piqPdhfZ2gib_dq-MJhd5QdcfVQl10bKqpam9JToF_hKFpfxL5jhQHFrlW_2dg2YgT8Ts6zmdFq2Z-oN49cU7frebpFCfjUVIorTawXN59UK5bw1RD2VQUv8-8OHHcE1HThYMReeVxY6AJ739IkqBzoglbdMb3byRZnW5MKztoeW9bZz0QELjYCgtN1wI6o4gyKA-68E1PfgZM6HxNod4W7Srs-5-iyWVrUiHp3lXi4zdz5AjySKe5ph4FkZjizERRZTiDwZakQW2vaakeGWP28hoa8a1BBBBgvlHb0mp24qCV5ZwyF2_pp-UKHwy_Y1Ms4JB3-qCCOsvQAA1Rh_fLAiMhMwsoRHo6IlnA_G4xRVx3MPwT7h3T16FGzJivD825Pnl8XYgBU5Ps-plYIicofGEKtB55BE8FEphR-U7smcktFIYFVUIEHP8CvowcJP3qRsUwHcwarsa_hb76EozZ4gmkPGj2VK9S7gtIVhkkEf2J1XTa4bwAaN7k9zo7XmLCVlf5CKHmlUoMdkxmr0jUtaEftbDsHJ6YxmnP4YvL8u1DsLZ3XP8HDbc-BHw0RZn6doLI7HIG4Xz6hGVHw4FtYHqqjDpM23hRG7V2Ax3hkl0baKHOCrE1PYw0h4Q3319aO0boPe7eB0MICV9dIGNqvqjPqJzosSByDDfN26t5mREr6e-Q-5hJtiw2-YmNsKX0qn_tvxya4UIptjxDWNqA6E4FB6Lw8qvukW_hSU2vbdxF9ha2NvzdilL_C8TgcQmTD7nZcIi_YyfDrJZ3mo-vNhLjFdyXsqi2so7z-HuSjlIXRquxdGw_PQRF7w9hMV2awqyS7kKoBFofO_QV6tmLjNUi3NTA2jdp14N6mvEWF]--></g></svg>