<?xml version="1.0" encoding="us-ascii" standalone="no"?><svg xmlns="http://www.w3.org/2000/svg" xmlns:xlink="http://www.w3.org/1999/xlink" contentStyleType="text/css" height="1110px" preserveAspectRatio="none" style="width:1146px;height:1110px;background:#FFFFFF;" version="1.1" viewBox="0 0 1146 1110" width="1146px" zoomAndPan="magnify"><defs/><g><!--cluster lbutils--><g id="cluster_lbutils"><path d="M8.5,6 L56.5,6 A3.75,3.75 0 0 1 59,8.5 L66,28.2969 L1136.5,28.2969 A2.5,2.5 0 0 1 1139,30.7969 L1139,1100.5 A2.5,2.5 0 0 1 1136.5,1103 L8.5,1103 A2.5,2.5 0 0 1 6,1100.5 L6,8.5 A2.5,2.5 0 0 1 8.5,6 " fill="none" style="stroke:#000000;stroke-width:1.5;"/><line style="stroke:#000000;stroke-width:1.5;" x1="6" x2="66" y1="28.2969" y2="28.2969"/><text fill="#000000" font-family="sans-serif" font-size="14" font-weight="bold" lengthAdjust="spacing" textLength="47" x="10" y="20.9951">lbutils</text></g><!--cluster graphics--><g id="cluster_graphics"><path d="M32.5,49 L101.5,49 A3.75,3.75 0 0 1 104,51.5 L111,71.2969 L1112.5,71.2969 A2.5,2.5 0 0 1 1115,73.7969 L1115,1076.5 A2.5,2.5 0 0 1 1112.5,1079 L32.5,1079 A2.5,2.5 0 0 1 30,1076.5 L30,51.5 A2.5,2.5 0 0 1 32.5,49 " fill="none" style="stroke:#000000;stroke-width:1.5;"/><line style="stroke:#000000;stroke-width:1.5;" x1="30" x2="111" y1="71.2969" y2="71.2969"/><text fill="#000000" font-family="sans-serif" font-size="14" font-weight="bold" lengthAdjust="spacing" textLength="68" x="34" y="63.9951">graphics</text></g><!--cluster fonts--><g id="cluster_fonts"><path d="M475.5,191 L517.5,191 A3.75,3.75 0 0 1 520,193.5 L527,213.2969 L1088.5,213.2969 A2.5,2.5 0 0 1 1091,215.7969 L1091,815.5 A2.5,2.5 0 0 1 1088.5,818 L475.5,818 A2.5,2.5 0 0 1 473,815.5 L473,193.5 A2.5,2.5 0 0 1 475.5,191 " fill="none" style="stroke:#000000;stroke-width:1.5;"/><line style="stroke:#000000;stroke-width:1.5;" x1="473" x2="527" y1="213.2969" y2="213.2969"/><text fill="#000000" font-family="sans-serif" font-size="14" font-weight="bold" lengthAdjust="spacing" textLength="41" x="477" y="205.9951">fonts</text></g><!--cluster base_font--><g id="cluster_base_font"><rect fill="none" height="197" rx="2.5" ry="2.5" style="stroke:#181818;stroke-width:1.0;" width="172" x="597" y="597"/><text fill="#000000" font-family="sans-serif" font-size="14" font-weight="bold" lengthAdjust="spacing" textLength="77" x="644.5" y="611.9951">base_font</text></g><!--cluster font06--><g id="cluster_font06"><rect fill="none" height="197" rx="2.5" ry="2.5" style="stroke:#181818;stroke-width:1.0;" width="174" x="893" y="234"/><text fill="#000000" font-family="sans-serif" font-size="14" font-weight="bold" lengthAdjust="spacing" textLength="52" x="954" y="248.9951">font06</text></g><!--cluster font08--><g id="cluster_font08"><rect fill="none" height="197" rx="2.5" ry="2.5" style="stroke:#181818;stroke-width:1.0;" width="174" x="695" y="234"/><text fill="#000000" font-family="sans-serif" font-size="14" font-weight="bold" lengthAdjust="spacing" textLength="52" x="756" y="248.9951">font08</text></g><!--cluster org_01--><g id="cluster_org_01"><rect fill="none" height="197" rx="2.5" ry="2.5" style="stroke:#181818;stroke-width:1.0;" width="174" x="497" y="234"/><text fill="#000000" font-family="sans-serif" font-size="14" font-weight="bold" lengthAdjust="spacing" textLength="54" x="557" y="248.9951">org_01</text></g><!--cluster helpers--><g id="cluster_helpers"><rect fill="none" height="433.5" rx="2.5" ry="2.5" style="stroke:#181818;stroke-width:1.0;" width="345" x="54" y="613.5"/><text fill="#000000" font-family="sans-serif" font-size="14" font-weight="bold" lengthAdjust="spacing" textLength="60" x="196.5" y="628.4951">helpers</text></g><!--cluster colours--><g id="cluster_colours"><rect fill="none" height="213" rx="2.5" ry="2.5" style="stroke:#181818;stroke-width:1.0;" width="302" x="423" y="842"/><text fill="#000000" font-family="sans-serif" font-size="14" font-weight="bold" lengthAdjust="spacing" textLength="59" x="544.5" y="856.9951">colours</text></g><!--cluster canvas--><g id="cluster_canvas"><rect fill="none" height="481" rx="2.5" ry="2.5" style="stroke:#181818;stroke-width:1.0;" width="208" x="218" y="92"/><text fill="#000000" font-family="sans-serif" font-size="14" font-weight="bold" lengthAdjust="spacing" textLength="55" x="294.5" y="106.9951">canvas</text></g><!--class BaseFont--><g id="elem_BaseFont"><rect codeLine="5" fill="#F1F1F1" height="145.7813" id="BaseFont" rx="2.5" ry="2.5" style="stroke:#181818;stroke-width:0.5;" width="139" x="613.5" y="632"/><ellipse cx="647.4" cy="648" fill="#A9DCDF" rx="11" ry="11" style="stroke:#181818;stroke-width:1.0;"/><path d="M647.5094,643.3438 L646.3531,648.4219 L648.6813,648.4219 L647.5094,643.3438 Z M646.025,641.1094 L649.0094,641.1094 L652.3688,653.5 L649.9156,653.5 L649.15,650.4375 L645.8688,650.4375 L645.1188,653.5 L642.6813,653.5 L646.025,641.1094 Z " fill="#000000"/><text fill="#000000" font-family="sans-serif" font-size="14" font-style="italic" lengthAdjust="spacing" textLength="65" x="665.6" y="652.8467">BaseFont</text><line style="stroke:#181818;stroke-width:0.5;" x1="614.5" x2="751.5" y1="664" y2="664"/><rect fill="none" height="6" style="stroke:#C82930;stroke-width:1.0;" width="6" x="621.5" y="674.6484"/><text fill="#000000" font-family="sans-serif" font-size="14" lengthAdjust="spacing" textLength="47" x="633.5" y="680.9951">bitmap</text><rect fill="none" height="6" style="stroke:#C82930;stroke-width:1.0;" width="6" x="621.5" y="690.9453"/><text fill="#000000" font-family="sans-serif" font-size="14" lengthAdjust="spacing" textLength="37" x="633.5" y="697.292">index</text><rect fill="none" height="6" style="stroke:#C82930;stroke-width:1.0;" width="6" x="621.5" y="707.2422"/><text fill="#000000" font-family="sans-serif" font-size="14" lengthAdjust="spacing" textLength="37" x="633.5" y="713.5889">glyph</text><line style="stroke:#181818;stroke-width:0.5;" x1="614.5" x2="751.5" y1="720.8906" y2="720.8906"/><ellipse cx="624.5" cy="734.5391" fill="#84BE84" rx="3" ry="3" style="stroke:#038048;stroke-width:1.0;"/><text fill="#000000" font-family="sans-serif" font-size="14" font-style="italic" lengthAdjust="spacing" textLength="78" x="633.5" y="737.8857">int get_bit()</text><ellipse cx="624.5" cy="750.8359" fill="#84BE84" rx="3" ry="3" style="stroke:#038048;stroke-width:1.0;"/><text fill="#000000" font-family="sans-serif" font-size="14" font-style="italic" lengthAdjust="spacing" textLength="92" x="633.5" y="754.1826">int get_next()</text><ellipse cx="624.5" cy="767.1328" fill="#84BE84" rx="3" ry="3" style="stroke:#038048;stroke-width:1.0;"/><text fill="#000000" font-family="sans-serif" font-size="14" font-style="italic" lengthAdjust="spacing" textLength="113" x="633.5" y="770.4795">int set_position()</text></g><!--class Font06--><g id="elem_Font06"><rect codeLine="15" fill="#F1F1F1" height="145.7813" id="Font06" rx="2.5" ry="2.5" style="stroke:#181818;stroke-width:0.5;" width="141" x="909.5" y="269"/><ellipse cx="951.5" cy="285" fill="#ADD1B2" rx="11" ry="11" style="stroke:#181818;stroke-width:1.0;"/><path d="M954.4688,290.6406 Q953.8906,290.9375 953.25,291.0781 Q952.6094,291.2344 951.9063,291.2344 Q949.4063,291.2344 948.0781,289.5938 Q946.7656,287.9375 946.7656,284.8125 Q946.7656,281.6875 948.0781,280.0313 Q949.4063,278.375 951.9063,278.375 Q952.6094,278.375 953.25,278.5313 Q953.9063,278.6875 954.4688,278.9844 L954.4688,281.7031 Q953.8438,281.125 953.25,280.8594 Q952.6563,280.5781 952.0313,280.5781 Q950.6875,280.5781 950,281.6563 Q949.3125,282.7188 949.3125,284.8125 Q949.3125,286.9063 950,287.9844 Q950.6875,289.0469 952.0313,289.0469 Q952.6563,289.0469 953.25,288.7813 Q953.8438,288.5 954.4688,287.9219 L954.4688,290.6406 Z " fill="#000000"/><text fill="#000000" font-family="sans-serif" font-size="14" lengthAdjust="spacing" textLength="49" x="971.5" y="289.8467">Font06</text><line style="stroke:#181818;stroke-width:0.5;" x1="910.5" x2="1049.5" y1="301" y2="301"/><rect fill="none" height="6" style="stroke:#C82930;stroke-width:1.0;" width="6" x="917.5" y="311.6484"/><text fill="#000000" font-family="sans-serif" font-size="14" lengthAdjust="spacing" textLength="47" x="929.5" y="317.9951">bitmap</text><rect fill="none" height="6" style="stroke:#C82930;stroke-width:1.0;" width="6" x="917.5" y="327.9453"/><text fill="#000000" font-family="sans-serif" font-size="14" lengthAdjust="spacing" textLength="37" x="929.5" y="334.292">index</text><rect fill="none" height="6" style="stroke:#C82930;stroke-width:1.0;" width="6" x="917.5" y="344.2422"/><text fill="#000000" font-family="sans-serif" font-size="14" lengthAdjust="spacing" textLength="37" x="929.5" y="350.5889">glyph</text><line style="stroke:#181818;stroke-width:0.5;" x1="910.5" x2="1049.5" y1="357.8906" y2="357.8906"/><ellipse cx="920.5" cy="371.5391" fill="#84BE84" rx="3" ry="3" style="stroke:#038048;stroke-width:1.0;"/><text fill="#000000" font-family="sans-serif" font-size="14" lengthAdjust="spacing" textLength="78" x="929.5" y="374.8857">int get_bit()</text><ellipse cx="920.5" cy="387.8359" fill="#84BE84" rx="3" ry="3" style="stroke:#038048;stroke-width:1.0;"/><text fill="#000000" font-family="sans-serif" font-size="14" lengthAdjust="spacing" textLength="91" x="929.5" y="391.1826">int get_next()</text><ellipse cx="920.5" cy="404.1328" fill="#84BE84" rx="3" ry="3" style="stroke:#038048;stroke-width:1.0;"/><text fill="#000000" font-family="sans-serif" font-size="14" lengthAdjust="spacing" textLength="115" x="929.5" y="407.4795">int set_position()</text></g><!--class Font08--><g id="elem_Font08"><rect codeLine="25" fill="#F1F1F1" height="145.7813" id="Font08" rx="2.5" ry="2.5" style="stroke:#181818;stroke-width:0.5;" width="141" x="711.5" y="269"/><ellipse cx="753.5" cy="285" fill="#ADD1B2" rx="11" ry="11" style="stroke:#181818;stroke-width:1.0;"/><path d="M756.4688,290.6406 Q755.8906,290.9375 755.25,291.0781 Q754.6094,291.2344 753.9063,291.2344 Q751.4063,291.2344 750.0781,289.5938 Q748.7656,287.9375 748.7656,284.8125 Q748.7656,281.6875 750.0781,280.0313 Q751.4063,278.375 753.9063,278.375 Q754.6094,278.375 755.25,278.5313 Q755.9063,278.6875 756.4688,278.9844 L756.4688,281.7031 Q755.8438,281.125 755.25,280.8594 Q754.6563,280.5781 754.0313,280.5781 Q752.6875,280.5781 752,281.6563 Q751.3125,282.7188 751.3125,284.8125 Q751.3125,286.9063 752,287.9844 Q752.6875,289.0469 754.0313,289.0469 Q754.6563,289.0469 755.25,288.7813 Q755.8438,288.5 756.4688,287.9219 L756.4688,290.6406 Z " fill="#000000"/><text fill="#000000" font-family="sans-serif" font-size="14" lengthAdjust="spacing" textLength="49" x="773.5" y="289.8467">Font08</text><line style="stroke:#181818;stroke-width:0.5;" x1="712.5" x2="851.5" y1="301" y2="301"/><rect fill="none" height="6" style="stroke:#C82930;stroke-width:1.0;" width="6" x="719.5" y="311.6484"/><text fill="#000000" font-family="sans-serif" font-size="14" lengthAdjust="spacing" textLength="47" x="731.5" y="317.9951">bitmap</text><rect fill="none" height="6" style="stroke:#C82930;stroke-width:1.0;" width="6" x="719.5" y="327.9453"/><text fill="#000000" font-family="sans-serif" font-size="14" lengthAdjust="spacing" textLength="37" x="731.5" y="334.292">index</text><rect fill="none" height="6" style="stroke:#C82930;stroke-width:1.0;" width="6" x="719.5" y="344.2422"/><text fill="#000000" font-family="sans-serif" font-size="14" lengthAdjust="spacing" textLength="37" x="731.5" y="350.5889">glyph</text><line style="stroke:#181818;stroke-width:0.5;" x1="712.5" x2="851.5" y1="357.8906" y2="357.8906"/><ellipse cx="722.5" cy="371.5391" fill="#84BE84" rx="3" ry="3" style="stroke:#038048;stroke-width:1.0;"/><text fill="#000000" font-family="sans-serif" font-size="14" lengthAdjust="spacing" textLength="78" x="731.5" y="374.8857">int get_bit()</text><ellipse cx="722.5" cy="387.8359" fill="#84BE84" rx="3" ry="3" style="stroke:#038048;stroke-width:1.0;"/><text fill="#000000" font-family="sans-serif" font-size="14" lengthAdjust="spacing" textLength="91" x="731.5" y="391.1826">int get_next()</text><ellipse cx="722.5" cy="404.1328" fill="#84BE84" rx="3" ry="3" style="stroke:#038048;stroke-width:1.0;"/><text fill="#000000" font-family="sans-serif" font-size="14" lengthAdjust="spacing" textLength="115" x="731.5" y="407.4795">int set_position()</text></g><!--class Org01--><g id="elem_Org01"><rect codeLine="35" fill="#F1F1F1" height="145.7813" id="Org01" rx="2.5" ry="2.5" style="stroke:#181818;stroke-width:0.5;" width="141" x="513.5" y="269"/><ellipse cx="558.25" cy="285" fill="#ADD1B2" rx="11" ry="11" style="stroke:#181818;stroke-width:1.0;"/><path d="M561.2188,290.6406 Q560.6406,290.9375 560,291.0781 Q559.3594,291.2344 558.6563,291.2344 Q556.1563,291.2344 554.8281,289.5938 Q553.5156,287.9375 553.5156,284.8125 Q553.5156,281.6875 554.8281,280.0313 Q556.1563,278.375 558.6563,278.375 Q559.3594,278.375 560,278.5313 Q560.6563,278.6875 561.2188,278.9844 L561.2188,281.7031 Q560.5938,281.125 560,280.8594 Q559.4063,280.5781 558.7813,280.5781 Q557.4375,280.5781 556.75,281.6563 Q556.0625,282.7188 556.0625,284.8125 Q556.0625,286.9063 556.75,287.9844 Q557.4375,289.0469 558.7813,289.0469 Q559.4063,289.0469 560,288.7813 Q560.5938,288.5 561.2188,287.9219 L561.2188,290.6406 Z " fill="#000000"/><text fill="#000000" font-family="sans-serif" font-size="14" lengthAdjust="spacing" textLength="43" x="578.75" y="289.8467">Org01</text><line style="stroke:#181818;stroke-width:0.5;" x1="514.5" x2="653.5" y1="301" y2="301"/><rect fill="none" height="6" style="stroke:#C82930;stroke-width:1.0;" width="6" x="521.5" y="311.6484"/><text fill="#000000" font-family="sans-serif" font-size="14" lengthAdjust="spacing" textLength="47" x="533.5" y="317.9951">bitmap</text><rect fill="none" height="6" style="stroke:#C82930;stroke-width:1.0;" width="6" x="521.5" y="327.9453"/><text fill="#000000" font-family="sans-serif" font-size="14" lengthAdjust="spacing" textLength="37" x="533.5" y="334.292">index</text><rect fill="none" height="6" style="stroke:#C82930;stroke-width:1.0;" width="6" x="521.5" y="344.2422"/><text fill="#000000" font-family="sans-serif" font-size="14" lengthAdjust="spacing" textLength="37" x="533.5" y="350.5889">glyph</text><line style="stroke:#181818;stroke-width:0.5;" x1="514.5" x2="653.5" y1="357.8906" y2="357.8906"/><ellipse cx="524.5" cy="371.5391" fill="#84BE84" rx="3" ry="3" style="stroke:#038048;stroke-width:1.0;"/><text fill="#000000" font-family="sans-serif" font-size="14" lengthAdjust="spacing" textLength="78" x="533.5" y="374.8857">int get_bit()</text><ellipse cx="524.5" cy="387.8359" fill="#84BE84" rx="3" ry="3" style="stroke:#038048;stroke-width:1.0;"/><text fill="#000000" font-family="sans-serif" font-size="14" lengthAdjust="spacing" textLength="91" x="533.5" y="391.1826">int get_next()</text><ellipse cx="524.5" cy="404.1328" fill="#84BE84" rx="3" ry="3" style="stroke:#038048;stroke-width:1.0;"/><text fill="#000000" font-family="sans-serif" font-size="14" lengthAdjust="spacing" textLength="115" x="533.5" y="407.4795">int set_position()</text></g><!--class Pen--><g id="elem_Pen"><rect codeLine="46" fill="#F1F1F1" height="96.8906" id="Pen" rx="2.5" ry="2.5" style="stroke:#181818;stroke-width:0.5;" width="152" x="223" y="657"/><ellipse cx="281.25" cy="673" fill="#ADD1B2" rx="11" ry="11" style="stroke:#181818;stroke-width:1.0;"/><path d="M284.2188,678.6406 Q283.6406,678.9375 283,679.0781 Q282.3594,679.2344 281.6563,679.2344 Q279.1563,679.2344 277.8281,677.5938 Q276.5156,675.9375 276.5156,672.8125 Q276.5156,669.6875 277.8281,668.0313 Q279.1563,666.375 281.6563,666.375 Q282.3594,666.375 283,666.5313 Q283.6563,666.6875 284.2188,666.9844 L284.2188,669.7031 Q283.5938,669.125 283,668.8594 Q282.4063,668.5781 281.7813,668.5781 Q280.4375,668.5781 279.75,669.6563 Q279.0625,670.7188 279.0625,672.8125 Q279.0625,674.9063 279.75,675.9844 Q280.4375,677.0469 281.7813,677.0469 Q282.4063,677.0469 283,676.7813 Q283.5938,676.5 284.2188,675.9219 L284.2188,678.6406 Z " fill="#000000"/><text fill="#000000" font-family="sans-serif" font-size="14" lengthAdjust="spacing" textLength="27" x="301.75" y="677.8467">Pen</text><line style="stroke:#181818;stroke-width:0.5;" x1="224" x2="374" y1="689" y2="689"/><ellipse cx="234" cy="702.6484" fill="none" rx="3" ry="3" style="stroke:#038048;stroke-width:1.0;"/><text fill="#000000" font-family="sans-serif" font-size="14" lengthAdjust="spacing" textLength="126" x="243" y="705.9951">bg_colour : Colour</text><ellipse cx="234" cy="718.9453" fill="none" rx="3" ry="3" style="stroke:#038048;stroke-width:1.0;"/><text fill="#000000" font-family="sans-serif" font-size="14" lengthAdjust="spacing" textLength="121" x="243" y="722.292">fg_colour : Colour</text><ellipse cx="234" cy="735.2422" fill="none" rx="3" ry="3" style="stroke:#038048;stroke-width:1.0;"/><text fill="#000000" font-family="sans-serif" font-size="14" lengthAdjust="spacing" textLength="97" x="243" y="738.5889">thickness : int</text><line style="stroke:#181818;stroke-width:0.5;" x1="224" x2="374" y1="745.8906" y2="745.8906"/></g><!--class Pixel--><g id="elem_Pixel"><rect codeLine="51" fill="#F1F1F1" height="145.7813" id="Pixel" rx="2.5" ry="2.5" style="stroke:#181818;stroke-width:0.5;" width="116" x="70" y="885"/><ellipse cx="108.85" cy="901" fill="#ADD1B2" rx="11" ry="11" style="stroke:#181818;stroke-width:1.0;"/><path d="M111.8188,906.6406 Q111.2406,906.9375 110.6,907.0781 Q109.9594,907.2344 109.2563,907.2344 Q106.7563,907.2344 105.4281,905.5938 Q104.1156,903.9375 104.1156,900.8125 Q104.1156,897.6875 105.4281,896.0313 Q106.7563,894.375 109.2563,894.375 Q109.9594,894.375 110.6,894.5313 Q111.2563,894.6875 111.8188,894.9844 L111.8188,897.7031 Q111.1938,897.125 110.6,896.8594 Q110.0063,896.5781 109.3813,896.5781 Q108.0375,896.5781 107.35,897.6563 Q106.6625,898.7188 106.6625,900.8125 Q106.6625,902.9063 107.35,903.9844 Q108.0375,905.0469 109.3813,905.0469 Q110.0063,905.0469 110.6,904.7813 Q111.1938,904.5 111.8188,903.9219 L111.8188,906.6406 Z " fill="#000000"/><text fill="#000000" font-family="sans-serif" font-size="14" lengthAdjust="spacing" textLength="31" x="128.15" y="905.8467">Pixel</text><line style="stroke:#181818;stroke-width:0.5;" x1="71" x2="185" y1="917" y2="917"/><ellipse cx="81" cy="930.6484" fill="none" rx="3" ry="3" style="stroke:#038048;stroke-width:1.0;"/><text fill="#000000" font-family="sans-serif" font-size="14" lengthAdjust="spacing" textLength="37" x="90" y="933.9951">x : int</text><ellipse cx="81" cy="946.9453" fill="none" rx="3" ry="3" style="stroke:#038048;stroke-width:1.0;"/><text fill="#000000" font-family="sans-serif" font-size="14" lengthAdjust="spacing" textLength="37" x="90" y="950.292">y : int</text><ellipse cx="81" cy="963.2422" fill="none" rx="3" ry="3" style="stroke:#038048;stroke-width:1.0;"/><text fill="#000000" font-family="sans-serif" font-size="14" lengthAdjust="spacing" textLength="69" x="90" y="966.5889">x_y : tuple</text><line style="stroke:#181818;stroke-width:0.5;" x1="71" x2="185" y1="973.8906" y2="973.8906"/><ellipse cx="81" cy="987.5391" fill="#84BE84" rx="3" ry="3" style="stroke:#038048;stroke-width:1.0;"/><text fill="#000000" font-family="sans-serif" font-size="14" lengthAdjust="spacing" textLength="69" x="90" y="990.8857">move_to()</text><ellipse cx="81" cy="1003.8359" fill="#84BE84" rx="3" ry="3" style="stroke:#038048;stroke-width:1.0;"/><text fill="#000000" font-family="sans-serif" font-size="14" lengthAdjust="spacing" textLength="49" x="90" y="1007.1826">offset()</text><ellipse cx="81" cy="1020.1328" fill="#84BE84" rx="3" ry="3" style="stroke:#038048;stroke-width:1.0;"/><text fill="#000000" font-family="sans-serif" font-size="14" lengthAdjust="spacing" textLength="90" x="90" y="1023.4795">offset_polar()</text></g><!--class BoundPixel--><g id="elem_BoundPixel"><rect codeLine="59" fill="#F1F1F1" height="113.1875" id="BoundPixel" rx="2.5" ry="2.5" style="stroke:#181818;stroke-width:0.5;" width="109" x="70.5" y="648.5"/><ellipse cx="85.5" cy="664.5" fill="#ADD1B2" rx="11" ry="11" style="stroke:#181818;stroke-width:1.0;"/><path d="M88.4688,670.1406 Q87.8906,670.4375 87.25,670.5781 Q86.6094,670.7344 85.9063,670.7344 Q83.4063,670.7344 82.0781,669.0938 Q80.7656,667.4375 80.7656,664.3125 Q80.7656,661.1875 82.0781,659.5313 Q83.4063,657.875 85.9063,657.875 Q86.6094,657.875 87.25,658.0313 Q87.9063,658.1875 88.4688,658.4844 L88.4688,661.2031 Q87.8438,660.625 87.25,660.3594 Q86.6563,660.0781 86.0313,660.0781 Q84.6875,660.0781 84,661.1563 Q83.3125,662.2188 83.3125,664.3125 Q83.3125,666.4063 84,667.4844 Q84.6875,668.5469 86.0313,668.5469 Q86.6563,668.5469 87.25,668.2813 Q87.8438,668 88.4688,667.4219 L88.4688,670.1406 Z " fill="#000000"/><text fill="#000000" font-family="sans-serif" font-size="14" lengthAdjust="spacing" textLength="77" x="99.5" y="669.3467">BoundPixel</text><line style="stroke:#181818;stroke-width:0.5;" x1="71.5" x2="178.5" y1="680.5" y2="680.5"/><ellipse cx="81.5" cy="694.1484" fill="none" rx="3" ry="3" style="stroke:#038048;stroke-width:1.0;"/><text fill="#000000" font-family="sans-serif" font-size="14" lengthAdjust="spacing" textLength="69" x="90.5" y="697.4951">min_x : int</text><ellipse cx="81.5" cy="710.4453" fill="none" rx="3" ry="3" style="stroke:#038048;stroke-width:1.0;"/><text fill="#000000" font-family="sans-serif" font-size="14" lengthAdjust="spacing" textLength="69" x="90.5" y="713.792">min_y : int</text><ellipse cx="81.5" cy="726.7422" fill="none" rx="3" ry="3" style="stroke:#038048;stroke-width:1.0;"/><text fill="#000000" font-family="sans-serif" font-size="14" lengthAdjust="spacing" textLength="72" x="90.5" y="730.0889">max_x : int</text><ellipse cx="81.5" cy="743.0391" fill="none" rx="3" ry="3" style="stroke:#038048;stroke-width:1.0;"/><text fill="#000000" font-family="sans-serif" font-size="14" lengthAdjust="spacing" textLength="72" x="90.5" y="746.3857">max_y : int</text><line style="stroke:#181818;stroke-width:0.5;" x1="71.5" x2="178.5" y1="753.6875" y2="753.6875"/></g><!--class Colour--><g id="elem_Colour"><rect codeLine="67" fill="#F1F1F1" height="162.0781" id="Colour" rx="2.5" ry="2.5" style="stroke:#181818;stroke-width:0.5;" width="269" x="439.5" y="877"/><ellipse cx="547.25" cy="893" fill="#ADD1B2" rx="11" ry="11" style="stroke:#181818;stroke-width:1.0;"/><path d="M550.2188,898.6406 Q549.6406,898.9375 549,899.0781 Q548.3594,899.2344 547.6563,899.2344 Q545.1563,899.2344 543.8281,897.5938 Q542.5156,895.9375 542.5156,892.8125 Q542.5156,889.6875 543.8281,888.0313 Q545.1563,886.375 547.6563,886.375 Q548.3594,886.375 549,886.5313 Q549.6563,886.6875 550.2188,886.9844 L550.2188,889.7031 Q549.5938,889.125 549,888.8594 Q548.4063,888.5781 547.7813,888.5781 Q546.4375,888.5781 545.75,889.6563 Q545.0625,890.7188 545.0625,892.8125 Q545.0625,894.9063 545.75,895.9844 Q546.4375,897.0469 547.7813,897.0469 Q548.4063,897.0469 549,896.7813 Q549.5938,896.5 550.2188,895.9219 L550.2188,898.6406 Z " fill="#000000"/><text fill="#000000" font-family="sans-serif" font-size="14" lengthAdjust="spacing" textLength="45" x="567.75" y="897.8467">Colour</text><line style="stroke:#181818;stroke-width:0.5;" x1="440.5" x2="707.5" y1="909" y2="909"/><ellipse cx="450.5" cy="922.6484" fill="none" rx="3" ry="3" style="stroke:#038048;stroke-width:1.0;"/><text fill="#000000" font-family="sans-serif" font-size="14" lengthAdjust="spacing" textLength="53" x="459.5" y="925.9951">red : int</text><ellipse cx="450.5" cy="938.9453" fill="none" rx="3" ry="3" style="stroke:#038048;stroke-width:1.0;"/><text fill="#000000" font-family="sans-serif" font-size="14" lengthAdjust="spacing" textLength="71" x="459.5" y="942.292">green : int</text><ellipse cx="450.5" cy="955.2422" fill="none" rx="3" ry="3" style="stroke:#038048;stroke-width:1.0;"/><text fill="#000000" font-family="sans-serif" font-size="14" lengthAdjust="spacing" textLength="60" x="459.5" y="958.5889">blue : int</text><ellipse cx="450.5" cy="971.5391" fill="none" rx="3" ry="3" style="stroke:#038048;stroke-width:1.0;"/><text fill="#000000" font-family="sans-serif" font-size="14" lengthAdjust="spacing" textLength="103" x="459.5" y="974.8857">as_rgb565 : int</text><ellipse cx="450.5" cy="987.8359" fill="none" rx="3" ry="3" style="stroke:#038048;stroke-width:1.0;"/><text fill="#000000" font-family="sans-serif" font-size="14" lengthAdjust="spacing" textLength="103" x="459.5" y="991.1826">as_rgb888 : int</text><ellipse cx="450.5" cy="1004.1328" fill="none" rx="3" ry="3" style="stroke:#038048;stroke-width:1.0;"/><text fill="#000000" font-family="sans-serif" font-size="14" lengthAdjust="spacing" textLength="243" x="459.5" y="1007.4795">DEVICE_WORD_ORDER word_order</text><line style="stroke:#181818;stroke-width:0.5;" x1="440.5" x2="707.5" y1="1014.7813" y2="1014.7813"/><ellipse cx="450.5" cy="1028.4297" fill="#84BE84" rx="3" ry="3" style="stroke:#038048;stroke-width:1.0;"/><text fill="#000000" font-family="sans-serif" font-size="14" lengthAdjust="spacing" text-decoration="underline" textLength="98" x="459.5" y="1031.7764">from_rgb565()</text></g><!--class Canvas--><g id="elem_Canvas"><rect codeLine="78" fill="#F1F1F1" height="422.8281" id="Canvas" rx="2.5" ry="2.5" style="stroke:#181818;stroke-width:0.5;" width="160" x="242" y="131"/><ellipse cx="292.75" cy="147" fill="#A9DCDF" rx="11" ry="11" style="stroke:#181818;stroke-width:1.0;"/><path d="M292.8594,142.3438 L291.7031,147.4219 L294.0313,147.4219 L292.8594,142.3438 Z M291.375,140.1094 L294.3594,140.1094 L297.7188,152.5 L295.2656,152.5 L294.5,149.4375 L291.2188,149.4375 L290.4688,152.5 L288.0313,152.5 L291.375,140.1094 Z " fill="#000000"/><text fill="#000000" font-family="sans-serif" font-size="14" font-style="italic" lengthAdjust="spacing" textLength="50" x="313.25" y="151.8467">Canvas</text><line style="stroke:#181818;stroke-width:0.5;" x1="243" x2="401" y1="163" y2="163"/><ellipse cx="253" cy="176.6484" fill="none" rx="3" ry="3" style="stroke:#038048;stroke-width:1.0;"/><text fill="#000000" font-family="sans-serif" font-size="14" lengthAdjust="spacing" textLength="126" x="262" y="179.9951">bg_colour : Colour</text><ellipse cx="253" cy="192.9453" fill="none" rx="3" ry="3" style="stroke:#038048;stroke-width:1.0;"/><text fill="#000000" font-family="sans-serif" font-size="14" lengthAdjust="spacing" textLength="134" x="262" y="196.292">cursor : BoundPixel</text><ellipse cx="253" cy="209.2422" fill="none" rx="3" ry="3" style="stroke:#038048;stroke-width:1.0;"/><text fill="#000000" font-family="sans-serif" font-size="14" lengthAdjust="spacing" textLength="121" x="262" y="212.5889">fg_colour : Colour</text><ellipse cx="253" cy="225.5391" fill="none" rx="3" ry="3" style="stroke:#038048;stroke-width:1.0;"/><text fill="#000000" font-family="sans-serif" font-size="14" lengthAdjust="spacing" textLength="128" x="262" y="228.8857">origin : BoundPixel</text><ellipse cx="253" cy="241.8359" fill="none" rx="3" ry="3" style="stroke:#038048;stroke-width:1.0;"/><text fill="#000000" font-family="sans-serif" font-size="14" lengthAdjust="spacing" textLength="67" x="262" y="245.1826">pen : Pen</text><ellipse cx="253" cy="258.1328" fill="none" rx="3" ry="3" style="stroke:#038048;stroke-width:1.0;"/><text fill="#000000" font-family="sans-serif" font-size="14" lengthAdjust="spacing" textLength="74" x="262" y="261.4795">height : int</text><ellipse cx="253" cy="274.4297" fill="none" rx="3" ry="3" style="stroke:#038048;stroke-width:1.0;"/><text fill="#000000" font-family="sans-serif" font-size="14" lengthAdjust="spacing" textLength="67" x="262" y="277.7764">width : int</text><ellipse cx="253" cy="290.7266" fill="none" rx="3" ry="3" style="stroke:#038048;stroke-width:1.0;"/><text fill="#000000" font-family="sans-serif" font-size="14" lengthAdjust="spacing" textLength="37" x="262" y="294.0732">x : int</text><ellipse cx="253" cy="307.0234" fill="none" rx="3" ry="3" style="stroke:#038048;stroke-width:1.0;"/><text fill="#000000" font-family="sans-serif" font-size="14" lengthAdjust="spacing" textLength="37" x="262" y="310.3701">y : int</text><ellipse cx="253" cy="323.3203" fill="none" rx="3" ry="3" style="stroke:#038048;stroke-width:1.0;"/><text fill="#000000" font-family="sans-serif" font-size="14" lengthAdjust="spacing" textLength="51" x="262" y="326.667">x_y : int</text><ellipse cx="253" cy="339.6172" fill="none" rx="3" ry="3" style="stroke:#038048;stroke-width:1.0;"/><text fill="#000000" font-family="sans-serif" font-size="14" lengthAdjust="spacing" textLength="106" x="262" y="342.9639">font : BaseFont</text><line style="stroke:#181818;stroke-width:0.5;" x1="243" x2="401" y1="350.2656" y2="350.2656"/><ellipse cx="253" cy="363.9141" fill="#84BE84" rx="3" ry="3" style="stroke:#038048;stroke-width:1.0;"/><text fill="#000000" font-family="sans-serif" font-size="14" font-style="italic" lengthAdjust="spacing" textLength="74" x="262" y="367.2607">draw_line()</text><ellipse cx="253" cy="380.2109" fill="#84BE84" rx="3" ry="3" style="stroke:#038048;stroke-width:1.0;"/><text fill="#000000" font-family="sans-serif" font-size="14" font-style="italic" lengthAdjust="spacing" textLength="115" x="262" y="383.5576">draw_rectangle()</text><ellipse cx="253" cy="396.5078" fill="#84BE84" rx="3" ry="3" style="stroke:#038048;stroke-width:1.0;"/><text fill="#000000" font-family="sans-serif" font-size="14" lengthAdjust="spacing" textLength="64" x="262" y="399.8545">draw_to()</text><ellipse cx="253" cy="412.8047" fill="#84BE84" rx="3" ry="3" style="stroke:#038048;stroke-width:1.0;"/><text fill="#000000" font-family="sans-serif" font-size="14" lengthAdjust="spacing" textLength="78" x="262" y="416.1514">fill_screen()</text><ellipse cx="253" cy="429.1016" fill="#84BE84" rx="3" ry="3" style="stroke:#038048;stroke-width:1.0;"/><text fill="#000000" font-family="sans-serif" font-size="14" lengthAdjust="spacing" textLength="62" x="262" y="432.4482">moveto()</text><ellipse cx="253" cy="445.3984" fill="#84BE84" rx="3" ry="3" style="stroke:#038048;stroke-width:1.0;"/><text fill="#000000" font-family="sans-serif" font-size="14" lengthAdjust="spacing" textLength="114" x="262" y="448.7451">move_origin_to()</text><ellipse cx="253" cy="461.6953" fill="#84BE84" rx="3" ry="3" style="stroke:#038048;stroke-width:1.0;"/><text fill="#000000" font-family="sans-serif" font-size="14" font-style="italic" lengthAdjust="spacing" textLength="80" x="262" y="465.042">read_pixel()</text><ellipse cx="253" cy="477.9922" fill="#84BE84" rx="3" ry="3" style="stroke:#038048;stroke-width:1.0;"/><text fill="#000000" font-family="sans-serif" font-size="14" lengthAdjust="spacing" textLength="127" x="262" y="481.3389">select_bg_colour()</text><ellipse cx="253" cy="494.2891" fill="#84BE84" rx="3" ry="3" style="stroke:#038048;stroke-width:1.0;"/><text fill="#000000" font-family="sans-serif" font-size="14" lengthAdjust="spacing" textLength="122" x="262" y="497.6357">select_fg_colour()</text><ellipse cx="253" cy="510.5859" fill="#84BE84" rx="3" ry="3" style="stroke:#038048;stroke-width:1.0;"/><text fill="#000000" font-family="sans-serif" font-size="14" lengthAdjust="spacing" textLength="80" x="262" y="513.9326">write_char()</text><ellipse cx="253" cy="526.8828" fill="#84BE84" rx="3" ry="3" style="stroke:#038048;stroke-width:1.0;"/><text fill="#000000" font-family="sans-serif" font-size="14" font-style="italic" lengthAdjust="spacing" textLength="82" x="262" y="530.2295">write_pixel()</text><ellipse cx="253" cy="543.1797" fill="#84BE84" rx="3" ry="3" style="stroke:#038048;stroke-width:1.0;"/><text fill="#000000" font-family="sans-serif" font-size="14" lengthAdjust="spacing" textLength="76" x="262" y="546.5264">write_text()</text></g><!--reverse link Font06 to BaseFont--><g id="link_Font06_BaseFont"><path codeLine="107" d="M951.02,434.27 C932.79,481.68 905.7,538.43 869,581 C836.9,618.24 790.87,648.8 752.64,670.15 " fill="none" id="Font06-backto-BaseFont" style="stroke:#181818;stroke-width:1.0;"/><polygon fill="none" points="944.54,431.59,958.05,415.27,957.67,436.45,944.54,431.59" style="stroke:#181818;stroke-width:1.0;"/></g><!--reverse link Font08 to BaseFont--><g id="link_Font08_BaseFont"><path codeLine="108" d="M756.83,434.78 C740.05,495.97 718.3,575.28 702.76,631.94 " fill="none" id="Font08-backto-BaseFont" style="stroke:#181818;stroke-width:1.0;"/><polygon fill="none" points="750.16,432.62,762.2,415.19,763.67,436.33,750.16,432.62" style="stroke:#181818;stroke-width:1.0;"/></g><!--reverse link Org01 to BaseFont--><g id="link_Org01_BaseFont"><path codeLine="109" d="M609.17,434.78 C625.95,495.97 647.7,575.28 663.24,631.94 " fill="none" id="Org01-backto-BaseFont" style="stroke:#181818;stroke-width:1.0;"/><polygon fill="none" points="602.33,436.33,603.8,415.19,615.84,432.62,602.33,436.33" style="stroke:#181818;stroke-width:1.0;"/></g><!--reverse link Pen to Colour--><g id="link_Pen_Colour"><path codeLine="111" d="M381.07,701.22 C430.21,705.78 379.38,779.38 410,826 C422.1,844.43 437.65,861.46 454.33,876.73 " fill="none" id="Pen-backto-Colour" style="stroke:#181818;stroke-width:1.0;"/><polygon fill="#181818" points="376,701,384.8205,705.3817,380.9954,701.2141,385.163,697.389,376,701" style="stroke:#181818;stroke-width:1.0;"/></g><!--reverse link Pen to Colour--><g id="link_Pen_Colour"><path codeLine="112" d="M381,717.24 C423.65,721.69 382.37,785.58 410,826 C422.54,844.35 438.42,861.4 455.33,876.71 " fill="none" id="Pen-backto-Colour-1" style="stroke:#181818;stroke-width:1.0;"/><polygon fill="#181818" points="376,717,384.7947,721.4331,380.9941,717.2433,385.184,713.4426,376,717" style="stroke:#181818;stroke-width:1.0;"/></g><!--reverse link BoundPixel to Pixel--><g id="link_BoundPixel_Pixel"><path codeLine="114" d="M125.91,781.77 C126.3,814.44 126.75,852.48 127.14,884.75 " fill="none" id="BoundPixel-backto-Pixel" style="stroke:#181818;stroke-width:1.0;"/><polygon fill="none" points="118.91,781.79,125.67,761.71,132.9,781.62,118.91,781.79" style="stroke:#181818;stroke-width:1.0;"/></g><!--reverse link Canvas to Colour--><g id="link_Canvas_Colour"><path codeLine="116" d="M408.38,175.25 C543.97,188.1 388.8,695.21 447,826 C455.11,844.23 466.92,861.42 480.12,876.98 " fill="none" id="Canvas-backto-Colour" style="stroke:#181818;stroke-width:1.0;"/><polygon fill="#181818" points="403,175,411.7953,179.4319,407.9941,175.2426,412.1835,171.4413,403,175" style="stroke:#181818;stroke-width:1.0;"/></g><!--reverse link Canvas to Colour--><g id="link_Canvas_Colour"><path codeLine="117" d="M406.35,210.86 C430.25,256.44 520.58,693.46 557.81,876.74 " fill="none" id="Canvas-backto-Colour-1" style="stroke:#181818;stroke-width:1.0;"/><polygon fill="#181818" points="403,207,405.8757,216.4197,406.2763,210.777,411.9189,211.1776,403,207" style="stroke:#181818;stroke-width:1.0;"/></g><!--reverse link Canvas to BoundPixel--><g id="link_Canvas_BoundPixel"><path codeLine="118" d="M235.89,191.08 C55.85,197 91.7,516.4 114.19,648.12 " fill="none" id="Canvas-backto-BoundPixel" style="stroke:#181818;stroke-width:1.0;"/><polygon fill="#181818" points="241,191,231.9328,187.1549,236.0007,191.0857,232.0699,195.1537,241,191" style="stroke:#181818;stroke-width:1.0;"/></g><!--reverse link Canvas to BoundPixel--><g id="link_Canvas_BoundPixel"><path codeLine="119" d="M235.98,223.09 C68.24,228.82 95.69,522.98 115.07,648.35 " fill="none" id="Canvas-backto-BoundPixel-1" style="stroke:#181818;stroke-width:1.0;"/><polygon fill="#181818" points="241,223,231.9326,219.1553,236.0007,223.0859,232.0701,227.1541,241,223" style="stroke:#181818;stroke-width:1.0;"/></g><!--reverse link Canvas to Pen--><g id="link_Canvas_Pen"><path codeLine="120" d="M235.79,240.1 C79.05,246.25 209.9,533.06 271.38,652.57 " fill="none" id="Canvas-backto-Pen" style="stroke:#181818;stroke-width:1.0;"/><polygon fill="#181818" points="241,240,231.9328,236.1549,236.0007,240.0857,232.0699,244.1537,241,240" style="stroke:#181818;stroke-width:1.0;"/></g><!--reverse link Canvas to BaseFont--><g id="link_Canvas_BaseFont"><path codeLine="121" d="M408.29,337.11 C516.28,341.78 425.32,491.84 497,581 C528.05,619.62 574.55,650.37 613.29,671.47 " fill="none" id="Canvas-backto-BaseFont" style="stroke:#181818;stroke-width:1.0;"/><polygon fill="#181818" points="403,337,411.9062,341.2046,407.9987,337.1143,412.0891,333.2067,403,337" style="stroke:#181818;stroke-width:1.0;"/></g><!--SRC=[vLTDR-8m4BtpAtpS5IAYXrOHGZsKKcbFNN7OFLfEuYJM6ZkoJKd5yj_NYGC5VmIYehqq4XBupJnFtdZ60qDhB2kKOa2JZI9KWjq8w8STrmk1gfAa1-0Sp3bJfyWvcY29OMC2vlCLJXLY1SMFZvPzyw14Ae5I1LAAf0HFsl6byNCjcsS24gBMg0g0X6Mu3c05VQzABxOxnB07OwAtBh22Ufjltw-sPhY-rbngyufBeWXd7fVzAFphNFpfmqLjZQGlnlW_2dg5YjT8TsEzuY5wnLzPBYuAEBsxKgvNKKpllfPQUwjHbfXMMCYWO4QedvXP8ev1Ki2KKxuHO0OMxHVB8Bzae7I7_iEmvfzfGLKWuYu2KcFgn51xFCVWtRjQmsPTRIgApv4rVyDGSKl4CSzphR5_LIjFaR0mE-Gdlc6PF-urOT0VUuFuur-ZEkI3Qg-F2SZEkCd9fOoRX3c12vnvGoW4raV4XoHqWxq0ab0KoVt3VGyQnx4FVLx- -h5Omj-lgsUeFyiLs7AHGVt1vsTi9nLI9DNtLoxukjll96q1XH1xGs61h6j_OQm7bqUgay0RzEES32qWBaX1M1z5rMP5bw-rNc9IbCgh_9PaglHNqE1gSzVRmMfsd9L6eNaZ4sWBAM7OAZB7HXnoP5TgYxfbdHDAeKoRysf3JIDm7ThsO9HswKx34HXbi6gIO5D8J7MKy7Wa0dWUmhU2A0pJqcavfziR8-_-1bBkZR9tAc4_6dKpTNIOeQDsNexCu1Pr8zdyxsG20fR72JewfhcFCpQSyOqupGGGjNVxK4gNixiV8rr2izb7JSzzj5rdZRfQxUVA1t65oKvk6V_B7dTjsuDBPBfTPDhOfz_HOijlojQrp7dVQvwqmajqNVky5LtJQtkvcZPyKR3sZ-UWG_iF]--></g></svg>