<?xml version="1.0" encoding="UTF-8" standalone="no"?><svg xmlns="http://www.w3.org/2000/svg" xmlns:xlink="http://www.w3.org/1999/xlink" contentStyleType="text/css" height="360px" preserveAspectRatio="none" style="width:334px;height:360px;background:#FFFFFF;" version="1.1" viewBox="0 0 334 360" width="334px" zoomAndPan="magnify"><defs/><g><!--cluster lbutils--><g id="cluster_lbutils"><path d="M8.5,6 L56.5,6 A3.75,3.75 0 0 1 59,8.5 L66,28.2969 L324.5,28.2969 A2.5,2.5 0 0 1 327,30.7969 L327,350.5 A2.5,2.5 0 0 1 324.5,353 L8.5,353 A2.5,2.5 0 0 1 6,350.5 L6,8.5 A2.5,2.5 0 0 1 8.5,6 " fill="none" style="stroke:#000000;stroke-width:1.5;"/><line style="stroke:#000000;stroke-width:1.5;" x1="6" x2="66" y1="28.2969" y2="28.2969"/><text fill="#000000" font-family="sans-serif" font-size="14" font-weight="bold" lengthAdjust="spacing" textLength="47" x="10" y="20.9951">lbutils</text></g><!--cluster lbutils.pmods--><g id="cluster_lbutils.pmods"><path d="M32.5,49 L86.5,49 A3.75,3.75 0 0 1 89,51.5 L96,71.2969 L300.5,71.2969 A2.5,2.5 0 0 1 303,73.7969 L303,326.5 A2.5,2.5 0 0 1 300.5,329 L32.5,329 A2.5,2.5 0 0 1 30,326.5 L30,51.5 A2.5,2.5 0 0 1 32.5,49 " fill="none" style="stroke:#000000;stroke-width:1.5;"/><line style="stroke:#000000;stroke-width:1.5;" x1="30" x2="96" y1="71.2969" y2="71.2969"/><text fill="#000000" font-family="sans-serif" font-size="14" font-weight="bold" lengthAdjust="spacing" textLength="53" x="34" y="63.9951">pmods</text></g><!--cluster lbutils.pmods.spi--><g id="cluster_lbutils.pmods.spi"><path d="M107.5,92 L131.5,92 A3.75,3.75 0 0 1 134,94.5 L141,114.2969 L276.5,114.2969 A2.5,2.5 0 0 1 279,116.7969 L279,302.5 A2.5,2.5 0 0 1 276.5,305 L107.5,305 A2.5,2.5 0 0 1 105,302.5 L105,94.5 A2.5,2.5 0 0 1 107.5,92 " fill="none" style="stroke:#000000;stroke-width:1.5;"/><line style="stroke:#000000;stroke-width:1.5;" x1="105" x2="141" y1="114.2969" y2="114.2969"/><text fill="#000000" font-family="sans-serif" font-size="14" font-weight="bold" lengthAdjust="spacing" textLength="23" x="109" y="106.9951">spi</text></g><path d="M48.5,181.5 L69.5,181.5 A3.75,3.75 0 0 1 72,184 L79,203.7969 L83.5,203.7969 A2.5,2.5 0 0 1 86,206.2969 L86,231.5938 A2.5,2.5 0 0 1 83.5,234.0938 L48.5,234.0938 A2.5,2.5 0 0 1 46,231.5938 L46,184 A2.5,2.5 0 0 1 48.5,181.5 " fill="#F1F1F1" style="stroke:#181818;stroke-width:0.5;"/><line style="stroke:#181818;stroke-width:0.5;" x1="46" x2="79" y1="203.7969" y2="203.7969"/><text fill="#000000" font-family="sans-serif" font-size="14" lengthAdjust="spacing" textLength="20" x="50" y="196.4951">i2c</text><!--class lbutils.pmods.spi.OLEDrgb--><g id="elem_lbutils.pmods.spi.OLEDrgb"><rect codeLine="6" fill="#F1F1F1" height="162.0781" id="lbutils.pmods.spi.OLEDrgb" rx="2.5" ry="2.5" style="stroke:#181818;stroke-width:0.5;" width="141" x="121.5" y="127"/><ellipse cx="158.1" cy="143" fill="#ADD1B2" rx="11" ry="11" style="stroke:#181818;stroke-width:1.0;"/><path d="M161.0688,148.6406 Q160.4906,148.9375 159.85,149.0781 Q159.2094,149.2344 158.5063,149.2344 Q156.0063,149.2344 154.6781,147.5938 Q153.3656,145.9375 153.3656,142.8125 Q153.3656,139.6875 154.6781,138.0313 Q156.0063,136.375 158.5063,136.375 Q159.2094,136.375 159.85,136.5313 Q160.5063,136.6875 161.0688,136.9844 L161.0688,139.7031 Q160.4438,139.125 159.85,138.8594 Q159.2563,138.5781 158.6313,138.5781 Q157.2875,138.5781 156.6,139.6563 Q155.9125,140.7188 155.9125,142.8125 Q155.9125,144.9063 156.6,145.9844 Q157.2875,147.0469 158.6313,147.0469 Q159.2563,147.0469 159.85,146.7813 Q160.4438,146.5 161.0688,145.9219 L161.0688,148.6406 Z " fill="#000000"/><text fill="#000000" font-family="sans-serif" font-size="14" lengthAdjust="spacing" textLength="61" x="176.9" y="147.8467">OLEDrgb</text><line style="stroke:#181818;stroke-width:0.5;" x1="122.5" x2="261.5" y1="159" y2="159"/><line style="stroke:#181818;stroke-width:0.5;" x1="122.5" x2="261.5" y1="167" y2="167"/><rect fill="#F24D5C" height="6" style="stroke:#C82930;stroke-width:1.0;" width="6" x="129.5" y="177.6484"/><text fill="#000000" font-family="sans-serif" font-size="14" lengthAdjust="spacing" textLength="41" x="141.5" y="183.9951">read()</text><rect fill="#F24D5C" height="6" style="stroke:#C82930;stroke-width:1.0;" width="6" x="129.5" y="193.9453"/><text fill="#000000" font-family="sans-serif" font-size="14" lengthAdjust="spacing" textLength="43" x="141.5" y="200.292">write()</text><ellipse cx="132.5" cy="213.2422" fill="#84BE84" rx="3" ry="3" style="stroke:#038048;stroke-width:1.0;"/><text fill="#000000" font-family="sans-serif" font-size="14" lengthAdjust="spacing" textLength="74" x="141.5" y="216.5889">draw_line()</text><ellipse cx="132.5" cy="229.5391" fill="#84BE84" rx="3" ry="3" style="stroke:#038048;stroke-width:1.0;"/><text fill="#000000" font-family="sans-serif" font-size="14" lengthAdjust="spacing" textLength="115" x="141.5" y="232.8857">draw_rectangle()</text><ellipse cx="132.5" cy="245.8359" fill="#84BE84" rx="3" ry="3" style="stroke:#038048;stroke-width:1.0;"/><text fill="#000000" font-family="sans-serif" font-size="14" lengthAdjust="spacing" textLength="79" x="141.5" y="249.1826">read_pixel()</text><ellipse cx="132.5" cy="262.1328" fill="#84BE84" rx="3" ry="3" style="stroke:#038048;stroke-width:1.0;"/><text fill="#000000" font-family="sans-serif" font-size="14" lengthAdjust="spacing" textLength="46" x="141.5" y="265.4795">reset()</text><ellipse cx="132.5" cy="278.4297" fill="#84BE84" rx="3" ry="3" style="stroke:#038048;stroke-width:1.0;"/><text fill="#000000" font-family="sans-serif" font-size="14" lengthAdjust="spacing" textLength="81" x="141.5" y="281.7764">write_pixel()</text></g><!--SRC=[VP112W8n34NtFKMMYhZn3BeJFCAGQSCGoDJIL4QGtbqhAEEGyIt_-o4X4KVIX9v0-bjXKNWuU16_UHgluPF-6ZxuMLwDXYQUDHfUK1KkvzCn3_t2DVQG2SDcQuWfSo73x21ad3hX-CTcyWNZ87QbxUmItqbMj58npVkcrScwU4vrrJq1]--></g></svg>