<?xml version="1.0" encoding="UTF-8" standalone="no"?><svg xmlns="http://www.w3.org/2000/svg" xmlns:xlink="http://www.w3.org/1999/xlink" contentStyleType="text/css" height="1254px" preserveAspectRatio="none" style="width:1004px;height:1254px;background:#FFFFFF;" version="1.1" viewBox="0 0 1004 1254" width="1004px" zoomAndPan="magnify"><defs/><g><!--cluster lbutils--><g id="cluster_lbutils"><path d="M8.5,6 L56.5,6 A3.75,3.75 0 0 1 59,8.5 L66,28.2969 L982.5,28.2969 A2.5,2.5 0 0 1 985,30.7969 L985,1244.5 A2.5,2.5 0 0 1 982.5,1247 L8.5,1247 A2.5,2.5 0 0 1 6,1244.5 L6,8.5 A2.5,2.5 0 0 1 8.5,6 " fill="none" style="stroke:#000000;stroke-width:1.5;"/><line style="stroke:#000000;stroke-width:1.5;" x1="6" x2="66" y1="28.2969" y2="28.2969"/><text fill="#000000" font-family="sans-serif" font-size="14" font-weight="bold" lengthAdjust="spacing" textLength="47" x="10" y="20.9951">lbutils</text></g><!--cluster lbutils.graphics--><g id="cluster_lbutils.graphics"><path d="M32.5,49 L101.5,49 A3.75,3.75 0 0 1 104,51.5 L111,71.2969 L958.5,71.2969 A2.5,2.5 0 0 1 961,73.7969 L961,1220.5 A2.5,2.5 0 0 1 958.5,1223 L32.5,1223 A2.5,2.5 0 0 1 30,1220.5 L30,51.5 A2.5,2.5 0 0 1 32.5,49 " fill="none" style="stroke:#000000;stroke-width:1.5;"/><line style="stroke:#000000;stroke-width:1.5;" x1="30" x2="111" y1="71.2969" y2="71.2969"/><text fill="#000000" font-family="sans-serif" font-size="14" font-weight="bold" lengthAdjust="spacing" textLength="68" x="34" y="63.9951">graphics</text></g><!--cluster lbutils.graphics.helpers--><g id="cluster_lbutils.graphics.helpers"><path d="M606.5,575.5 L667.5,575.5 A3.75,3.75 0 0 1 670,578 L677,597.7969 L921.5,597.7969 A2.5,2.5 0 0 1 924,600.2969 L924,959.5 A2.5,2.5 0 0 1 921.5,962 L606.5,962 A2.5,2.5 0 0 1 604,959.5 L604,578 A2.5,2.5 0 0 1 606.5,575.5 " fill="none" style="stroke:#000000;stroke-width:1.5;"/><line style="stroke:#000000;stroke-width:1.5;" x1="604" x2="677" y1="597.7969" y2="597.7969"/><text fill="#000000" font-family="sans-serif" font-size="14" font-weight="bold" lengthAdjust="spacing" textLength="60" x="608" y="590.4951">helpers</text></g><!--cluster lbutils.graphics.fonts--><g id="cluster_lbutils.graphics.fonts"><path d="M56.5,222.5 L98.5,222.5 A3.75,3.75 0 0 1 101,225 L108,244.7969 L577.5,244.7969 A2.5,2.5 0 0 1 580,247.2969 L580,753.5 A2.5,2.5 0 0 1 577.5,756 L56.5,756 A2.5,2.5 0 0 1 54,753.5 L54,225 A2.5,2.5 0 0 1 56.5,222.5 " fill="none" style="stroke:#000000;stroke-width:1.5;"/><line style="stroke:#000000;stroke-width:1.5;" x1="54" x2="108" y1="244.7969" y2="244.7969"/><text fill="#000000" font-family="sans-serif" font-size="14" font-weight="bold" lengthAdjust="spacing" textLength="41" x="58" y="237.4951">fonts</text></g><!--cluster lbutils.graphics.colours--><g id="cluster_lbutils.graphics.colours"><path d="M652.5,986 L712.5,986 A3.75,3.75 0 0 1 715,988.5 L722,1008.2969 L901.5,1008.2969 A2.5,2.5 0 0 1 904,1010.7969 L904,1196.5 A2.5,2.5 0 0 1 901.5,1199 L652.5,1199 A2.5,2.5 0 0 1 650,1196.5 L650,988.5 A2.5,2.5 0 0 1 652.5,986 " fill="none" style="stroke:#000000;stroke-width:1.5;"/><line style="stroke:#000000;stroke-width:1.5;" x1="650" x2="722" y1="1008.2969" y2="1008.2969"/><text fill="#000000" font-family="sans-serif" font-size="14" font-weight="bold" lengthAdjust="spacing" textLength="59" x="654" y="1000.9951">colours</text></g><!--cluster lbutils.graphics.canvas--><g id="cluster_lbutils.graphics.canvas"><path d="M675.5,92 L731.5,92 A3.75,3.75 0 0 1 734,94.5 L741,114.2969 L856.5,114.2969 A2.5,2.5 0 0 1 859,116.7969 L859,547.5 A2.5,2.5 0 0 1 856.5,550 L675.5,550 A2.5,2.5 0 0 1 673,547.5 L673,94.5 A2.5,2.5 0 0 1 675.5,92 " fill="none" style="stroke:#000000;stroke-width:1.5;"/><line style="stroke:#000000;stroke-width:1.5;" x1="673" x2="741" y1="114.2969" y2="114.2969"/><text fill="#000000" font-family="sans-serif" font-size="14" font-weight="bold" lengthAdjust="spacing" textLength="55" x="677" y="106.9951">canvas</text></g><!--class lbutils.graphics.helpers.Pen--><g id="elem_lbutils.graphics.helpers.Pen"><rect codeLine="4" fill="#F1F1F1" height="96.8906" id="lbutils.graphics.helpers.Pen" rx="2.5" ry="2.5" style="stroke:#181818;stroke-width:0.5;" width="143" x="764.5" y="618.5"/><ellipse cx="818.25" cy="634.5" fill="#ADD1B2" rx="11" ry="11" style="stroke:#181818;stroke-width:1.0;"/><path d="M821.2188,640.1406 Q820.6406,640.4375 820,640.5781 Q819.3594,640.7344 818.6563,640.7344 Q816.1563,640.7344 814.8281,639.0938 Q813.5156,637.4375 813.5156,634.3125 Q813.5156,631.1875 814.8281,629.5313 Q816.1563,627.875 818.6563,627.875 Q819.3594,627.875 820,628.0313 Q820.6563,628.1875 821.2188,628.4844 L821.2188,631.2031 Q820.5938,630.625 820,630.3594 Q819.4063,630.0781 818.7813,630.0781 Q817.4375,630.0781 816.75,631.1563 Q816.0625,632.2188 816.0625,634.3125 Q816.0625,636.4063 816.75,637.4844 Q817.4375,638.5469 818.7813,638.5469 Q819.4063,638.5469 820,638.2813 Q820.5938,638 821.2188,637.4219 L821.2188,640.1406 Z " fill="#000000"/><text fill="#000000" font-family="sans-serif" font-size="14" lengthAdjust="spacing" textLength="27" x="838.75" y="639.3467">Pen</text><line style="stroke:#181818;stroke-width:0.5;" x1="765.5" x2="906.5" y1="650.5" y2="650.5"/><ellipse cx="775.5" cy="664.1484" fill="none" rx="3" ry="3" style="stroke:#038048;stroke-width:1.0;"/><text fill="#000000" font-family="sans-serif" font-size="14" lengthAdjust="spacing" textLength="117" x="784.5" y="667.4951">Colour bg_colour</text><ellipse cx="775.5" cy="680.4453" fill="none" rx="3" ry="3" style="stroke:#038048;stroke-width:1.0;"/><text fill="#000000" font-family="sans-serif" font-size="14" lengthAdjust="spacing" textLength="117" x="784.5" y="683.792">Colour gb_colour</text><ellipse cx="775.5" cy="696.7422" fill="none" rx="3" ry="3" style="stroke:#038048;stroke-width:1.0;"/><text fill="#000000" font-family="sans-serif" font-size="14" lengthAdjust="spacing" textLength="88" x="784.5" y="700.0889">int thickness</text><line style="stroke:#181818;stroke-width:0.5;" x1="765.5" x2="906.5" y1="707.3906" y2="707.3906"/></g><!--class lbutils.graphics.helpers.Pixel--><g id="elem_lbutils.graphics.helpers.Pixel"><rect codeLine="9" fill="#F1F1F1" height="145.7813" id="lbutils.graphics.helpers.Pixel" rx="2.5" ry="2.5" style="stroke:#181818;stroke-width:0.5;" width="116" x="686" y="800"/><ellipse cx="724.85" cy="816" fill="#ADD1B2" rx="11" ry="11" style="stroke:#181818;stroke-width:1.0;"/><path d="M727.8188,821.6406 Q727.2406,821.9375 726.6,822.0781 Q725.9594,822.2344 725.2563,822.2344 Q722.7563,822.2344 721.4281,820.5938 Q720.1156,818.9375 720.1156,815.8125 Q720.1156,812.6875 721.4281,811.0313 Q722.7563,809.375 725.2563,809.375 Q725.9594,809.375 726.6,809.5313 Q727.2563,809.6875 727.8188,809.9844 L727.8188,812.7031 Q727.1938,812.125 726.6,811.8594 Q726.0063,811.5781 725.3813,811.5781 Q724.0375,811.5781 723.35,812.6563 Q722.6625,813.7188 722.6625,815.8125 Q722.6625,817.9063 723.35,818.9844 Q724.0375,820.0469 725.3813,820.0469 Q726.0063,820.0469 726.6,819.7813 Q727.1938,819.5 727.8188,818.9219 L727.8188,821.6406 Z " fill="#000000"/><text fill="#000000" font-family="sans-serif" font-size="14" lengthAdjust="spacing" textLength="31" x="744.15" y="820.8467">Pixel</text><line style="stroke:#181818;stroke-width:0.5;" x1="687" x2="801" y1="832" y2="832"/><ellipse cx="697" cy="845.6484" fill="none" rx="3" ry="3" style="stroke:#038048;stroke-width:1.0;"/><text fill="#000000" font-family="sans-serif" font-size="14" lengthAdjust="spacing" textLength="28" x="706" y="848.9951">int x</text><ellipse cx="697" cy="861.9453" fill="none" rx="3" ry="3" style="stroke:#038048;stroke-width:1.0;"/><text fill="#000000" font-family="sans-serif" font-size="14" lengthAdjust="spacing" textLength="28" x="706" y="865.292">int y</text><ellipse cx="697" cy="878.2422" fill="none" rx="3" ry="3" style="stroke:#038048;stroke-width:1.0;"/><text fill="#000000" font-family="sans-serif" font-size="14" lengthAdjust="spacing" textLength="60" x="706" y="881.5889">tuple x_y</text><line style="stroke:#181818;stroke-width:0.5;" x1="687" x2="801" y1="888.8906" y2="888.8906"/><ellipse cx="697" cy="902.5391" fill="#84BE84" rx="3" ry="3" style="stroke:#038048;stroke-width:1.0;"/><text fill="#000000" font-family="sans-serif" font-size="14" lengthAdjust="spacing" textLength="69" x="706" y="905.8857">move_to()</text><ellipse cx="697" cy="918.8359" fill="#84BE84" rx="3" ry="3" style="stroke:#038048;stroke-width:1.0;"/><text fill="#000000" font-family="sans-serif" font-size="14" lengthAdjust="spacing" textLength="49" x="706" y="922.1826">offset()</text><ellipse cx="697" cy="935.1328" fill="#84BE84" rx="3" ry="3" style="stroke:#038048;stroke-width:1.0;"/><text fill="#000000" font-family="sans-serif" font-size="14" lengthAdjust="spacing" textLength="90" x="706" y="938.4795">offset_polar()</text></g><!--class lbutils.graphics.helpers.BoundPixel--><g id="elem_lbutils.graphics.helpers.BoundPixel"><rect codeLine="17" fill="#F1F1F1" height="113.1875" id="lbutils.graphics.helpers.BoundPixel" rx="2.5" ry="2.5" style="stroke:#181818;stroke-width:0.5;" width="109" x="620.5" y="610.5"/><ellipse cx="635.5" cy="626.5" fill="#ADD1B2" rx="11" ry="11" style="stroke:#181818;stroke-width:1.0;"/><path d="M638.4688,632.1406 Q637.8906,632.4375 637.25,632.5781 Q636.6094,632.7344 635.9063,632.7344 Q633.4063,632.7344 632.0781,631.0938 Q630.7656,629.4375 630.7656,626.3125 Q630.7656,623.1875 632.0781,621.5313 Q633.4063,619.875 635.9063,619.875 Q636.6094,619.875 637.25,620.0313 Q637.9063,620.1875 638.4688,620.4844 L638.4688,623.2031 Q637.8438,622.625 637.25,622.3594 Q636.6563,622.0781 636.0313,622.0781 Q634.6875,622.0781 634,623.1563 Q633.3125,624.2188 633.3125,626.3125 Q633.3125,628.4063 634,629.4844 Q634.6875,630.5469 636.0313,630.5469 Q636.6563,630.5469 637.25,630.2813 Q637.8438,630 638.4688,629.4219 L638.4688,632.1406 Z " fill="#000000"/><text fill="#000000" font-family="sans-serif" font-size="14" lengthAdjust="spacing" textLength="77" x="649.5" y="631.3467">BoundPixel</text><line style="stroke:#181818;stroke-width:0.5;" x1="621.5" x2="728.5" y1="642.5" y2="642.5"/><ellipse cx="631.5" cy="656.1484" fill="none" rx="3" ry="3" style="stroke:#038048;stroke-width:1.0;"/><text fill="#000000" font-family="sans-serif" font-size="14" lengthAdjust="spacing" textLength="60" x="640.5" y="659.4951">int min_x</text><ellipse cx="631.5" cy="672.4453" fill="none" rx="3" ry="3" style="stroke:#038048;stroke-width:1.0;"/><text fill="#000000" font-family="sans-serif" font-size="14" lengthAdjust="spacing" textLength="60" x="640.5" y="675.792">int min_y</text><ellipse cx="631.5" cy="688.7422" fill="none" rx="3" ry="3" style="stroke:#038048;stroke-width:1.0;"/><text fill="#000000" font-family="sans-serif" font-size="14" lengthAdjust="spacing" textLength="63" x="640.5" y="692.0889">int max_x</text><ellipse cx="631.5" cy="705.0391" fill="none" rx="3" ry="3" style="stroke:#038048;stroke-width:1.0;"/><text fill="#000000" font-family="sans-serif" font-size="14" lengthAdjust="spacing" textLength="63" x="640.5" y="708.3857">int max_y</text><line style="stroke:#181818;stroke-width:0.5;" x1="621.5" x2="728.5" y1="715.6875" y2="715.6875"/></g><!--class lbutils.graphics.fonts.BaseFont--><g id="elem_lbutils.graphics.fonts.BaseFont"><rect codeLine="25" fill="#F1F1F1" height="145.7813" id="lbutils.graphics.fonts.BaseFont" rx="2.5" ry="2.5" style="stroke:#181818;stroke-width:0.5;" width="139" x="335.5" y="594"/><ellipse cx="369.4" cy="610" fill="#A9DCDF" rx="11" ry="11" style="stroke:#181818;stroke-width:1.0;"/><path d="M369.5094,605.3438 L368.3531,610.4219 L370.6813,610.4219 L369.5094,605.3438 Z M368.025,603.1094 L371.0094,603.1094 L374.3688,615.5 L371.9156,615.5 L371.15,612.4375 L367.8688,612.4375 L367.1188,615.5 L364.6813,615.5 L368.025,603.1094 Z " fill="#000000"/><text fill="#000000" font-family="sans-serif" font-size="14" font-style="italic" lengthAdjust="spacing" textLength="65" x="387.6" y="614.8467">BaseFont</text><line style="stroke:#181818;stroke-width:0.5;" x1="336.5" x2="473.5" y1="626" y2="626"/><rect fill="none" height="6" style="stroke:#C82930;stroke-width:1.0;" width="6" x="343.5" y="636.6484"/><text fill="#000000" font-family="sans-serif" font-size="14" lengthAdjust="spacing" textLength="47" x="355.5" y="642.9951">bitmap</text><rect fill="none" height="6" style="stroke:#C82930;stroke-width:1.0;" width="6" x="343.5" y="652.9453"/><text fill="#000000" font-family="sans-serif" font-size="14" lengthAdjust="spacing" textLength="37" x="355.5" y="659.292">index</text><rect fill="none" height="6" style="stroke:#C82930;stroke-width:1.0;" width="6" x="343.5" y="669.2422"/><text fill="#000000" font-family="sans-serif" font-size="14" lengthAdjust="spacing" textLength="37" x="355.5" y="675.5889">glyph</text><line style="stroke:#181818;stroke-width:0.5;" x1="336.5" x2="473.5" y1="682.8906" y2="682.8906"/><ellipse cx="346.5" cy="696.5391" fill="#84BE84" rx="3" ry="3" style="stroke:#038048;stroke-width:1.0;"/><text fill="#000000" font-family="sans-serif" font-size="14" font-style="italic" lengthAdjust="spacing" textLength="78" x="355.5" y="699.8857">int get_bit()</text><ellipse cx="346.5" cy="712.8359" fill="#84BE84" rx="3" ry="3" style="stroke:#038048;stroke-width:1.0;"/><text fill="#000000" font-family="sans-serif" font-size="14" font-style="italic" lengthAdjust="spacing" textLength="92" x="355.5" y="716.1826">int get_next()</text><ellipse cx="346.5" cy="729.1328" fill="#84BE84" rx="3" ry="3" style="stroke:#038048;stroke-width:1.0;"/><text fill="#000000" font-family="sans-serif" font-size="14" font-style="italic" lengthAdjust="spacing" textLength="113" x="355.5" y="732.4795">int set_position()</text></g><!--class lbutils.graphics.fonts.Font06--><g id="elem_lbutils.graphics.fonts.Font06"><rect codeLine="33" fill="#F1F1F1" height="145.7813" id="lbutils.graphics.fonts.Font06" rx="2.5" ry="2.5" style="stroke:#181818;stroke-width:0.5;" width="141" x="422.5" y="257.5"/><ellipse cx="464.5" cy="273.5" fill="#ADD1B2" rx="11" ry="11" style="stroke:#181818;stroke-width:1.0;"/><path d="M467.4688,279.1406 Q466.8906,279.4375 466.25,279.5781 Q465.6094,279.7344 464.9063,279.7344 Q462.4063,279.7344 461.0781,278.0938 Q459.7656,276.4375 459.7656,273.3125 Q459.7656,270.1875 461.0781,268.5313 Q462.4063,266.875 464.9063,266.875 Q465.6094,266.875 466.25,267.0313 Q466.9063,267.1875 467.4688,267.4844 L467.4688,270.2031 Q466.8438,269.625 466.25,269.3594 Q465.6563,269.0781 465.0313,269.0781 Q463.6875,269.0781 463,270.1563 Q462.3125,271.2188 462.3125,273.3125 Q462.3125,275.4063 463,276.4844 Q463.6875,277.5469 465.0313,277.5469 Q465.6563,277.5469 466.25,277.2813 Q466.8438,277 467.4688,276.4219 L467.4688,279.1406 Z " fill="#000000"/><text fill="#000000" font-family="sans-serif" font-size="14" lengthAdjust="spacing" textLength="49" x="484.5" y="278.3467">Font06</text><line style="stroke:#181818;stroke-width:0.5;" x1="423.5" x2="562.5" y1="289.5" y2="289.5"/><rect fill="none" height="6" style="stroke:#C82930;stroke-width:1.0;" width="6" x="430.5" y="300.1484"/><text fill="#000000" font-family="sans-serif" font-size="14" lengthAdjust="spacing" textLength="47" x="442.5" y="306.4951">bitmap</text><rect fill="none" height="6" style="stroke:#C82930;stroke-width:1.0;" width="6" x="430.5" y="316.4453"/><text fill="#000000" font-family="sans-serif" font-size="14" lengthAdjust="spacing" textLength="37" x="442.5" y="322.792">index</text><rect fill="none" height="6" style="stroke:#C82930;stroke-width:1.0;" width="6" x="430.5" y="332.7422"/><text fill="#000000" font-family="sans-serif" font-size="14" lengthAdjust="spacing" textLength="37" x="442.5" y="339.0889">glyph</text><line style="stroke:#181818;stroke-width:0.5;" x1="423.5" x2="562.5" y1="346.3906" y2="346.3906"/><ellipse cx="433.5" cy="360.0391" fill="#84BE84" rx="3" ry="3" style="stroke:#038048;stroke-width:1.0;"/><text fill="#000000" font-family="sans-serif" font-size="14" lengthAdjust="spacing" textLength="78" x="442.5" y="363.3857">int get_bit()</text><ellipse cx="433.5" cy="376.3359" fill="#84BE84" rx="3" ry="3" style="stroke:#038048;stroke-width:1.0;"/><text fill="#000000" font-family="sans-serif" font-size="14" lengthAdjust="spacing" textLength="91" x="442.5" y="379.6826">int get_next()</text><ellipse cx="433.5" cy="392.6328" fill="#84BE84" rx="3" ry="3" style="stroke:#038048;stroke-width:1.0;"/><text fill="#000000" font-family="sans-serif" font-size="14" lengthAdjust="spacing" textLength="115" x="442.5" y="395.9795">int set_position()</text></g><!--class lbutils.graphics.fonts.Font08--><g id="elem_lbutils.graphics.fonts.Font08"><rect codeLine="41" fill="#F1F1F1" height="145.7813" id="lbutils.graphics.fonts.Font08" rx="2.5" ry="2.5" style="stroke:#181818;stroke-width:0.5;" width="141" x="246.5" y="257.5"/><ellipse cx="288.5" cy="273.5" fill="#ADD1B2" rx="11" ry="11" style="stroke:#181818;stroke-width:1.0;"/><path d="M291.4688,279.1406 Q290.8906,279.4375 290.25,279.5781 Q289.6094,279.7344 288.9063,279.7344 Q286.4063,279.7344 285.0781,278.0938 Q283.7656,276.4375 283.7656,273.3125 Q283.7656,270.1875 285.0781,268.5313 Q286.4063,266.875 288.9063,266.875 Q289.6094,266.875 290.25,267.0313 Q290.9063,267.1875 291.4688,267.4844 L291.4688,270.2031 Q290.8438,269.625 290.25,269.3594 Q289.6563,269.0781 289.0313,269.0781 Q287.6875,269.0781 287,270.1563 Q286.3125,271.2188 286.3125,273.3125 Q286.3125,275.4063 287,276.4844 Q287.6875,277.5469 289.0313,277.5469 Q289.6563,277.5469 290.25,277.2813 Q290.8438,277 291.4688,276.4219 L291.4688,279.1406 Z " fill="#000000"/><text fill="#000000" font-family="sans-serif" font-size="14" lengthAdjust="spacing" textLength="49" x="308.5" y="278.3467">Font08</text><line style="stroke:#181818;stroke-width:0.5;" x1="247.5" x2="386.5" y1="289.5" y2="289.5"/><rect fill="none" height="6" style="stroke:#C82930;stroke-width:1.0;" width="6" x="254.5" y="300.1484"/><text fill="#000000" font-family="sans-serif" font-size="14" lengthAdjust="spacing" textLength="47" x="266.5" y="306.4951">bitmap</text><rect fill="none" height="6" style="stroke:#C82930;stroke-width:1.0;" width="6" x="254.5" y="316.4453"/><text fill="#000000" font-family="sans-serif" font-size="14" lengthAdjust="spacing" textLength="37" x="266.5" y="322.792">index</text><rect fill="none" height="6" style="stroke:#C82930;stroke-width:1.0;" width="6" x="254.5" y="332.7422"/><text fill="#000000" font-family="sans-serif" font-size="14" lengthAdjust="spacing" textLength="37" x="266.5" y="339.0889">glyph</text><line style="stroke:#181818;stroke-width:0.5;" x1="247.5" x2="386.5" y1="346.3906" y2="346.3906"/><ellipse cx="257.5" cy="360.0391" fill="#84BE84" rx="3" ry="3" style="stroke:#038048;stroke-width:1.0;"/><text fill="#000000" font-family="sans-serif" font-size="14" lengthAdjust="spacing" textLength="78" x="266.5" y="363.3857">int get_bit()</text><ellipse cx="257.5" cy="376.3359" fill="#84BE84" rx="3" ry="3" style="stroke:#038048;stroke-width:1.0;"/><text fill="#000000" font-family="sans-serif" font-size="14" lengthAdjust="spacing" textLength="91" x="266.5" y="379.6826">int get_next()</text><ellipse cx="257.5" cy="392.6328" fill="#84BE84" rx="3" ry="3" style="stroke:#038048;stroke-width:1.0;"/><text fill="#000000" font-family="sans-serif" font-size="14" lengthAdjust="spacing" textLength="115" x="266.5" y="395.9795">int set_position()</text></g><!--class lbutils.graphics.fonts.Org01--><g id="elem_lbutils.graphics.fonts.Org01"><rect codeLine="49" fill="#F1F1F1" height="145.7813" id="lbutils.graphics.fonts.Org01" rx="2.5" ry="2.5" style="stroke:#181818;stroke-width:0.5;" width="141" x="70.5" y="257.5"/><ellipse cx="115.25" cy="273.5" fill="#ADD1B2" rx="11" ry="11" style="stroke:#181818;stroke-width:1.0;"/><path d="M118.2188,279.1406 Q117.6406,279.4375 117,279.5781 Q116.3594,279.7344 115.6563,279.7344 Q113.1563,279.7344 111.8281,278.0938 Q110.5156,276.4375 110.5156,273.3125 Q110.5156,270.1875 111.8281,268.5313 Q113.1563,266.875 115.6563,266.875 Q116.3594,266.875 117,267.0313 Q117.6563,267.1875 118.2188,267.4844 L118.2188,270.2031 Q117.5938,269.625 117,269.3594 Q116.4063,269.0781 115.7813,269.0781 Q114.4375,269.0781 113.75,270.1563 Q113.0625,271.2188 113.0625,273.3125 Q113.0625,275.4063 113.75,276.4844 Q114.4375,277.5469 115.7813,277.5469 Q116.4063,277.5469 117,277.2813 Q117.5938,277 118.2188,276.4219 L118.2188,279.1406 Z " fill="#000000"/><text fill="#000000" font-family="sans-serif" font-size="14" lengthAdjust="spacing" textLength="43" x="135.75" y="278.3467">Org01</text><line style="stroke:#181818;stroke-width:0.5;" x1="71.5" x2="210.5" y1="289.5" y2="289.5"/><rect fill="none" height="6" style="stroke:#C82930;stroke-width:1.0;" width="6" x="78.5" y="300.1484"/><text fill="#000000" font-family="sans-serif" font-size="14" lengthAdjust="spacing" textLength="47" x="90.5" y="306.4951">bitmap</text><rect fill="none" height="6" style="stroke:#C82930;stroke-width:1.0;" width="6" x="78.5" y="316.4453"/><text fill="#000000" font-family="sans-serif" font-size="14" lengthAdjust="spacing" textLength="37" x="90.5" y="322.792">index</text><rect fill="none" height="6" style="stroke:#C82930;stroke-width:1.0;" width="6" x="78.5" y="332.7422"/><text fill="#000000" font-family="sans-serif" font-size="14" lengthAdjust="spacing" textLength="37" x="90.5" y="339.0889">glyph</text><line style="stroke:#181818;stroke-width:0.5;" x1="71.5" x2="210.5" y1="346.3906" y2="346.3906"/><ellipse cx="81.5" cy="360.0391" fill="#84BE84" rx="3" ry="3" style="stroke:#038048;stroke-width:1.0;"/><text fill="#000000" font-family="sans-serif" font-size="14" lengthAdjust="spacing" textLength="78" x="90.5" y="363.3857">int get_bit()</text><ellipse cx="81.5" cy="376.3359" fill="#84BE84" rx="3" ry="3" style="stroke:#038048;stroke-width:1.0;"/><text fill="#000000" font-family="sans-serif" font-size="14" lengthAdjust="spacing" textLength="91" x="90.5" y="379.6826">int get_next()</text><ellipse cx="81.5" cy="392.6328" fill="#84BE84" rx="3" ry="3" style="stroke:#038048;stroke-width:1.0;"/><text fill="#000000" font-family="sans-serif" font-size="14" lengthAdjust="spacing" textLength="115" x="90.5" y="395.9795">int set_position()</text></g><!--class lbutils.graphics.colours.Colour--><g id="elem_lbutils.graphics.colours.Colour"><rect codeLine="60" fill="#F1F1F1" height="162.0781" id="lbutils.graphics.colours.Colour" rx="2.5" ry="2.5" style="stroke:#181818;stroke-width:0.5;" width="222" x="666" y="1021"/><ellipse cx="750.25" cy="1037" fill="#ADD1B2" rx="11" ry="11" style="stroke:#181818;stroke-width:1.0;"/><path d="M753.2188,1042.6406 Q752.6406,1042.9375 752,1043.0781 Q751.3594,1043.2344 750.6563,1043.2344 Q748.1563,1043.2344 746.8281,1041.5938 Q745.5156,1039.9375 745.5156,1036.8125 Q745.5156,1033.6875 746.8281,1032.0313 Q748.1563,1030.375 750.6563,1030.375 Q751.3594,1030.375 752,1030.5313 Q752.6563,1030.6875 753.2188,1030.9844 L753.2188,1033.7031 Q752.5938,1033.125 752,1032.8594 Q751.4063,1032.5781 750.7813,1032.5781 Q749.4375,1032.5781 748.75,1033.6563 Q748.0625,1034.7188 748.0625,1036.8125 Q748.0625,1038.9063 748.75,1039.9844 Q749.4375,1041.0469 750.7813,1041.0469 Q751.4063,1041.0469 752,1040.7813 Q752.5938,1040.5 753.2188,1039.9219 L753.2188,1042.6406 Z " fill="#000000"/><text fill="#000000" font-family="sans-serif" font-size="14" lengthAdjust="spacing" textLength="45" x="770.75" y="1041.8467">Colour</text><line style="stroke:#181818;stroke-width:0.5;" x1="667" x2="887" y1="1053" y2="1053"/><ellipse cx="677" cy="1066.6484" fill="none" rx="3" ry="3" style="stroke:#038048;stroke-width:1.0;"/><text fill="#000000" font-family="sans-serif" font-size="14" lengthAdjust="spacing" textLength="44" x="686" y="1069.9951">int red</text><ellipse cx="677" cy="1082.9453" fill="none" rx="3" ry="3" style="stroke:#038048;stroke-width:1.0;"/><text fill="#000000" font-family="sans-serif" font-size="14" lengthAdjust="spacing" textLength="62" x="686" y="1086.292">int green</text><ellipse cx="677" cy="1099.2422" fill="none" rx="3" ry="3" style="stroke:#038048;stroke-width:1.0;"/><text fill="#000000" font-family="sans-serif" font-size="14" lengthAdjust="spacing" textLength="51" x="686" y="1102.5889">int blue</text><ellipse cx="677" cy="1115.5391" fill="none" rx="3" ry="3" style="stroke:#038048;stroke-width:1.0;"/><text fill="#000000" font-family="sans-serif" font-size="14" lengthAdjust="spacing" textLength="94" x="686" y="1118.8857">int as_rgb565</text><ellipse cx="677" cy="1131.8359" fill="none" rx="3" ry="3" style="stroke:#038048;stroke-width:1.0;"/><text fill="#000000" font-family="sans-serif" font-size="14" lengthAdjust="spacing" textLength="94" x="686" y="1135.1826">int as_rgb888</text><ellipse cx="677" cy="1148.1328" fill="none" rx="3" ry="3" style="stroke:#038048;stroke-width:1.0;"/><text fill="#000000" font-family="sans-serif" font-size="14" lengthAdjust="spacing" textLength="196" x="686" y="1151.4795">DEVICE_BIT_ORDER bitorder</text><line style="stroke:#181818;stroke-width:0.5;" x1="667" x2="887" y1="1158.7813" y2="1158.7813"/><ellipse cx="677" cy="1172.4297" fill="#84BE84" rx="3" ry="3" style="stroke:#038048;stroke-width:1.0;"/><text fill="#000000" font-family="sans-serif" font-size="14" lengthAdjust="spacing" text-decoration="underline" textLength="98" x="686" y="1175.7764">from_rgb565()</text></g><!--class lbutils.graphics.canvas.Canvas--><g id="elem_lbutils.graphics.canvas.Canvas"><rect codeLine="71" fill="#F1F1F1" height="406.5313" id="lbutils.graphics.canvas.Canvas" rx="2.5" ry="2.5" style="stroke:#181818;stroke-width:0.5;" width="153" x="689.5" y="127"/><ellipse cx="736.75" cy="143" fill="#A9DCDF" rx="11" ry="11" style="stroke:#181818;stroke-width:1.0;"/><path d="M736.8594,138.3438 L735.7031,143.4219 L738.0313,143.4219 L736.8594,138.3438 Z M735.375,136.1094 L738.3594,136.1094 L741.7188,148.5 L739.2656,148.5 L738.5,145.4375 L735.2188,145.4375 L734.4688,148.5 L732.0313,148.5 L735.375,136.1094 Z " fill="#000000"/><text fill="#000000" font-family="sans-serif" font-size="14" font-style="italic" lengthAdjust="spacing" textLength="50" x="757.25" y="147.8467">Canvas</text><line style="stroke:#181818;stroke-width:0.5;" x1="690.5" x2="841.5" y1="159" y2="159"/><ellipse cx="700.5" cy="172.6484" fill="none" rx="3" ry="3" style="stroke:#038048;stroke-width:1.0;"/><text fill="#000000" font-family="sans-serif" font-size="14" lengthAdjust="spacing" textLength="117" x="709.5" y="175.9951">Colour bg_colour</text><ellipse cx="700.5" cy="188.9453" fill="none" rx="3" ry="3" style="stroke:#038048;stroke-width:1.0;"/><text fill="#000000" font-family="sans-serif" font-size="14" lengthAdjust="spacing" textLength="125" x="709.5" y="192.292">BoundPixel cursor</text><ellipse cx="700.5" cy="205.2422" fill="none" rx="3" ry="3" style="stroke:#038048;stroke-width:1.0;"/><text fill="#000000" font-family="sans-serif" font-size="14" lengthAdjust="spacing" textLength="112" x="709.5" y="208.5889">Colour fg_colour</text><ellipse cx="700.5" cy="221.5391" fill="none" rx="3" ry="3" style="stroke:#038048;stroke-width:1.0;"/><text fill="#000000" font-family="sans-serif" font-size="14" lengthAdjust="spacing" textLength="119" x="709.5" y="224.8857">BoundPixel origin</text><ellipse cx="700.5" cy="237.8359" fill="none" rx="3" ry="3" style="stroke:#038048;stroke-width:1.0;"/><text fill="#000000" font-family="sans-serif" font-size="14" lengthAdjust="spacing" textLength="58" x="709.5" y="241.1826">Pen pen</text><ellipse cx="700.5" cy="254.1328" fill="none" rx="3" ry="3" style="stroke:#038048;stroke-width:1.0;"/><text fill="#000000" font-family="sans-serif" font-size="14" lengthAdjust="spacing" textLength="65" x="709.5" y="257.4795">int height</text><ellipse cx="700.5" cy="270.4297" fill="none" rx="3" ry="3" style="stroke:#038048;stroke-width:1.0;"/><text fill="#000000" font-family="sans-serif" font-size="14" lengthAdjust="spacing" textLength="58" x="709.5" y="273.7764">int width</text><ellipse cx="700.5" cy="286.7266" fill="none" rx="3" ry="3" style="stroke:#038048;stroke-width:1.0;"/><text fill="#000000" font-family="sans-serif" font-size="14" lengthAdjust="spacing" textLength="28" x="709.5" y="290.0732">int x</text><ellipse cx="700.5" cy="303.0234" fill="none" rx="3" ry="3" style="stroke:#038048;stroke-width:1.0;"/><text fill="#000000" font-family="sans-serif" font-size="14" lengthAdjust="spacing" textLength="28" x="709.5" y="306.3701">int y</text><ellipse cx="700.5" cy="319.3203" fill="none" rx="3" ry="3" style="stroke:#038048;stroke-width:1.0;"/><text fill="#000000" font-family="sans-serif" font-size="14" lengthAdjust="spacing" textLength="42" x="709.5" y="322.667">int x_y</text><line style="stroke:#181818;stroke-width:0.5;" x1="690.5" x2="841.5" y1="329.9688" y2="329.9688"/><ellipse cx="700.5" cy="343.6172" fill="#84BE84" rx="3" ry="3" style="stroke:#038048;stroke-width:1.0;"/><text fill="#000000" font-family="sans-serif" font-size="14" font-style="italic" lengthAdjust="spacing" textLength="74" x="709.5" y="346.9639">draw_line()</text><ellipse cx="700.5" cy="359.9141" fill="#84BE84" rx="3" ry="3" style="stroke:#038048;stroke-width:1.0;"/><text fill="#000000" font-family="sans-serif" font-size="14" font-style="italic" lengthAdjust="spacing" textLength="115" x="709.5" y="363.2607">draw_rectangle()</text><ellipse cx="700.5" cy="376.2109" fill="#84BE84" rx="3" ry="3" style="stroke:#038048;stroke-width:1.0;"/><text fill="#000000" font-family="sans-serif" font-size="14" lengthAdjust="spacing" textLength="64" x="709.5" y="379.5576">draw_to()</text><ellipse cx="700.5" cy="392.5078" fill="#84BE84" rx="3" ry="3" style="stroke:#038048;stroke-width:1.0;"/><text fill="#000000" font-family="sans-serif" font-size="14" lengthAdjust="spacing" textLength="78" x="709.5" y="395.8545">fill_screen()</text><ellipse cx="700.5" cy="408.8047" fill="#84BE84" rx="3" ry="3" style="stroke:#038048;stroke-width:1.0;"/><text fill="#000000" font-family="sans-serif" font-size="14" lengthAdjust="spacing" textLength="62" x="709.5" y="412.1514">moveto()</text><ellipse cx="700.5" cy="425.1016" fill="#84BE84" rx="3" ry="3" style="stroke:#038048;stroke-width:1.0;"/><text fill="#000000" font-family="sans-serif" font-size="14" lengthAdjust="spacing" textLength="114" x="709.5" y="428.4482">move_origin_to()</text><ellipse cx="700.5" cy="441.3984" fill="#84BE84" rx="3" ry="3" style="stroke:#038048;stroke-width:1.0;"/><text fill="#000000" font-family="sans-serif" font-size="14" font-style="italic" lengthAdjust="spacing" textLength="80" x="709.5" y="444.7451">read_pixel()</text><ellipse cx="700.5" cy="457.6953" fill="#84BE84" rx="3" ry="3" style="stroke:#038048;stroke-width:1.0;"/><text fill="#000000" font-family="sans-serif" font-size="14" lengthAdjust="spacing" textLength="127" x="709.5" y="461.042">select_bg_colour()</text><ellipse cx="700.5" cy="473.9922" fill="#84BE84" rx="3" ry="3" style="stroke:#038048;stroke-width:1.0;"/><text fill="#000000" font-family="sans-serif" font-size="14" lengthAdjust="spacing" textLength="122" x="709.5" y="477.3389">select_fg_colour()</text><ellipse cx="700.5" cy="490.2891" fill="#84BE84" rx="3" ry="3" style="stroke:#038048;stroke-width:1.0;"/><text fill="#000000" font-family="sans-serif" font-size="14" lengthAdjust="spacing" textLength="80" x="709.5" y="493.6357">write_char()</text><ellipse cx="700.5" cy="506.5859" fill="#84BE84" rx="3" ry="3" style="stroke:#038048;stroke-width:1.0;"/><text fill="#000000" font-family="sans-serif" font-size="14" font-style="italic" lengthAdjust="spacing" textLength="82" x="709.5" y="509.9326">write_pixel()</text><ellipse cx="700.5" cy="522.8828" fill="#84BE84" rx="3" ry="3" style="stroke:#038048;stroke-width:1.0;"/><text fill="#000000" font-family="sans-serif" font-size="14" lengthAdjust="spacing" textLength="76" x="709.5" y="526.2295">write_text()</text></g><!--reverse link lbutils.graphics.fonts.Font06 to lbutils.graphics.fonts.BaseFont--><g id="link_lbutils.graphics.fonts.Font06_lbutils.graphics.fonts.BaseFont"><path codeLine="99" d="M468.6,424.23 C454.53,477.74 437.08,544.04 424.03,593.67 " fill="none" id="lbutils.graphics.fonts.Font06-backto-lbutils.graphics.fonts.BaseFont" style="stroke:#181818;stroke-width:1.0;"/><polygon fill="none" points="461.77,422.69,473.63,405.13,475.31,426.26,461.77,422.69" style="stroke:#181818;stroke-width:1.0;"/></g><!--reverse link lbutils.graphics.fonts.Font08 to lbutils.graphics.fonts.BaseFont--><g id="link_lbutils.graphics.fonts.Font08_lbutils.graphics.fonts.BaseFont"><path codeLine="100" d="M341.4,424.23 C355.47,477.74 372.92,544.04 385.97,593.67 " fill="none" id="lbutils.graphics.fonts.Font08-backto-lbutils.graphics.fonts.BaseFont" style="stroke:#181818;stroke-width:1.0;"/><polygon fill="none" points="334.69,426.26,336.37,405.13,348.23,422.69,334.69,426.26" style="stroke:#181818;stroke-width:1.0;"/></g><!--reverse link lbutils.graphics.fonts.Org01 to lbutils.graphics.fonts.BaseFont--><g id="link_lbutils.graphics.fonts.Org01_lbutils.graphics.fonts.BaseFont"><path codeLine="101" d="M162.26,424.43 C175.84,468.48 197.04,519.71 229,558 C257.37,591.99 299.33,618.32 335.16,636.47 " fill="none" id="lbutils.graphics.fonts.Org01-backto-lbutils.graphics.fonts.BaseFont" style="stroke:#181818;stroke-width:1.0;"/><polygon fill="none" points="155.55,426.41,156.71,405.25,169,422.52,155.55,426.41" style="stroke:#181818;stroke-width:1.0;"/></g><!--reverse link lbutils.graphics.helpers.Pixel to lbutils.graphics.colours.Colour--><g id="link_lbutils.graphics.helpers.Pixel_lbutils.graphics.colours.Colour"><path codeLine="103" d="M755.47,952.88 C758.65,974.78 762.11,998.59 765.31,1020.58 " fill="none" id="lbutils.graphics.helpers.Pixel-backto-lbutils.graphics.colours.Colour" style="stroke:#181818;stroke-width:1.0;"/><polygon fill="#181818" points="754.75,947.95,752.1052,957.4371,755.4791,952.8966,760.0197,956.2705,754.75,947.95" style="stroke:#181818;stroke-width:1.0;"/></g><!--reverse link lbutils.graphics.helpers.BoundPixel to lbutils.graphics.helpers.Pixel--><g id="link_lbutils.graphics.helpers.BoundPixel_lbutils.graphics.helpers.Pixel"><path codeLine="104" d="M700.74,744.09 C706.91,762.34 713.48,781.78 719.59,799.84 " fill="none" id="lbutils.graphics.helpers.BoundPixel-backto-lbutils.graphics.helpers.Pixel" style="stroke:#181818;stroke-width:1.0;"/><polygon fill="none" points="694.12,746.37,694.34,725.18,707.38,741.88,694.12,746.37" style="stroke:#181818;stroke-width:1.0;"/></g><!--reverse link lbutils.graphics.canvas.Canvas to lbutils.graphics.colours.Colour--><g id="link_lbutils.graphics.canvas.Canvas_lbutils.graphics.colours.Colour"><path codeLine="106" d="M846.73,424.35 C877.23,465.36 908.33,515.92 924,567.5 C976.01,738.66 997.18,806.76 924,970 C915.54,988.87 902.87,1006.14 888.45,1021.51 " fill="none" id="lbutils.graphics.canvas.Canvas-backto-lbutils.graphics.colours.Colour" style="stroke:#181818;stroke-width:1.0;"/><polygon fill="#181818" points="843.73,420.35,845.93,429.95,846.73,424.35,852.33,425.15,843.73,420.35" style="stroke:#181818;stroke-width:1.0;"/></g><!--reverse link lbutils.graphics.canvas.Canvas to lbutils.graphics.helpers.BoundPixel--><g id="link_lbutils.graphics.canvas.Canvas_lbutils.graphics.helpers.BoundPixel"><path codeLine="107" d="M709.16,540.42 C702.24,565.88 695.69,589.95 690.21,610.09 " fill="none" id="lbutils.graphics.canvas.Canvas-backto-lbutils.graphics.helpers.BoundPixel" style="stroke:#181818;stroke-width:1.0;"/><polygon fill="#181818" points="710.44,535.74,704.211,543.3688,709.1232,540.5635,711.9286,545.4757,710.44,535.74" style="stroke:#181818;stroke-width:1.0;"/></g><!--reverse link lbutils.graphics.canvas.Canvas to lbutils.graphics.helpers.Pen--><g id="link_lbutils.graphics.canvas.Canvas_lbutils.graphics.helpers.Pen"><path codeLine="108" d="M809.73,540.48 C815.8,569.45 821.48,596.64 826.01,618.25 " fill="none" id="lbutils.graphics.canvas.Canvas-backto-lbutils.graphics.helpers.Pen" style="stroke:#181818;stroke-width:1.0;"/><polygon fill="#181818" points="808.74,535.76,806.6799,545.391,809.7701,540.6527,814.5083,543.7429,808.74,535.76" style="stroke:#181818;stroke-width:1.0;"/></g><!--reverse link lbutils.graphics.canvas.Canvas to lbutils.graphics.fonts.BaseFont--><g id="link_lbutils.graphics.canvas.Canvas_lbutils.graphics.fonts.BaseFont"><path codeLine="109" d="M685.38,444.37 C654.86,482.89 618.2,524.62 580,558 C548.14,585.84 508.28,611.04 474.65,630.09 " fill="none" id="lbutils.graphics.canvas.Canvas-backto-lbutils.graphics.fonts.BaseFont" style="stroke:#181818;stroke-width:1.0;"/><polygon fill="#181818" points="688.13,440.88,679.4148,445.4674,685.0327,444.8051,685.695,450.4231,688.13,440.88" style="stroke:#181818;stroke-width:1.0;"/></g><!--SRC=[rLR1RgCm4BttApXkjGfg3wquzDGqA_NKLRNQgsNCOAmQ6zcc8ShctnSmwO9jI9JkfJwXD-EPvp7pnWANe2jC8E9fRHZNqVugQfVumAd2LS68RoY0Lw2EUBS8nrf7Fq6Ci6vzNqikQnMb597-AsYbQT3AX8bCI-1DWDOJqy5Dp1hWRkfkU-D3kobawef3r207BkKx82E_NKzXcUSQJ1X5bUHOEJQNwQEiHJPBjsG2DM5u5u1n4_J6xcaiYODpYxaKPdo7EDL6OMAEJB667wsBmtCLfSoKk7909Z9e78poNLLCiFqnny5IfMtLsd1EpK9U0ffJRlOAD3DCYXEtq9thvlv_dcpXE4jdk8XuylLuloXwS_iLQ5zDJ_2lMwn0-PetI5YWcHLa0M8AGFXmoclmKQoHekdT_TsSAKcIgUbfy_jvlK6Fpx_Go-lJvhMhiLGPJ9LrhmqsZBHzaojP3Zb6fGZh1S7Y7Iy8njgrdp40Hd98skhAy7p8JswMYb7crBMRHbMes0KmMXWVtxBC59VCaDxBqTonEcKARn5d0XOKhFTHG0mMbBkErkgFevnnZZJf_YdNr0qmVqC_rcon_71ZEWfmXggkjcu83RnbYJukTCQUpzctYXb0fF16vJYzTGhcjoRZD_V1-t_RTXxUDl7nBHFtKoyU1i33dzKgcd4vph_54CcdGlIgU5u4FyJm28jj0po4OWoQ5TiscWynQgGmcKck01Sh3V6W01TnEIE4J_TJOLfzk6Y_SpD_0G00]--></g></svg>