<?xml version="1.0" encoding="UTF-8" standalone="no"?><svg xmlns="http://www.w3.org/2000/svg" xmlns:xlink="http://www.w3.org/1999/xlink" contentStyleType="text/css" height="550px" preserveAspectRatio="none" style="width:635px;height:550px;background:#FFFFFF;" version="1.1" viewBox="0 0 635 550" width="635px" zoomAndPan="magnify"><defs/><g><!--cluster lbutils--><g id="cluster_lbutils"><path d="M8.5,6 L56.5,6 A3.75,3.75 0 0 1 59,8.5 L66,28.2969 L625.5,28.2969 A2.5,2.5 0 0 1 628,30.7969 L628,540.5 A2.5,2.5 0 0 1 625.5,543 L8.5,543 A2.5,2.5 0 0 1 6,540.5 L6,8.5 A2.5,2.5 0 0 1 8.5,6 " fill="none" style="stroke:#000000;stroke-width:1.5;"/><line style="stroke:#000000;stroke-width:1.5;" x1="6" x2="66" y1="28.2969" y2="28.2969"/><text fill="#000000" font-family="sans-serif" font-size="14" font-weight="bold" lengthAdjust="spacing" textLength="47" x="10" y="20.9951">lbutils</text></g><!--cluster lbutils.graphics--><g id="cluster_lbutils.graphics"><path d="M32.5,49 L101.5,49 A3.75,3.75 0 0 1 104,51.5 L111,71.2969 L601.5,71.2969 A2.5,2.5 0 0 1 604,73.7969 L604,516.5 A2.5,2.5 0 0 1 601.5,519 L32.5,519 A2.5,2.5 0 0 1 30,516.5 L30,51.5 A2.5,2.5 0 0 1 32.5,49 " fill="none" style="stroke:#000000;stroke-width:1.5;"/><line style="stroke:#000000;stroke-width:1.5;" x1="30" x2="111" y1="71.2969" y2="71.2969"/><text fill="#000000" font-family="sans-serif" font-size="14" font-weight="bold" lengthAdjust="spacing" textLength="68" x="34" y="63.9951">graphics</text></g><!--cluster lbutils.graphics.fonts--><g id="cluster_lbutils.graphics.fonts"><path d="M56.5,92 L98.5,92 A3.75,3.75 0 0 1 101,94.5 L108,114.2969 L577.5,114.2969 A2.5,2.5 0 0 1 580,116.7969 L580,492.5 A2.5,2.5 0 0 1 577.5,495 L56.5,495 A2.5,2.5 0 0 1 54,492.5 L54,94.5 A2.5,2.5 0 0 1 56.5,92 " fill="none" style="stroke:#000000;stroke-width:1.5;"/><line style="stroke:#000000;stroke-width:1.5;" x1="54" x2="108" y1="114.2969" y2="114.2969"/><text fill="#000000" font-family="sans-serif" font-size="14" font-weight="bold" lengthAdjust="spacing" textLength="41" x="58" y="106.9951">fonts</text></g><!--class lbutils.graphics.fonts.BaseFont--><g id="elem_lbutils.graphics.fonts.BaseFont"><rect codeLine="4" fill="#F1F1F1" height="145.7813" id="lbutils.graphics.fonts.BaseFont" rx="2.5" ry="2.5" style="stroke:#181818;stroke-width:0.5;" width="139" x="247.5" y="333"/><ellipse cx="281.4" cy="349" fill="#A9DCDF" rx="11" ry="11" style="stroke:#181818;stroke-width:1.0;"/><path d="M281.5094,344.3438 L280.3531,349.4219 L282.6813,349.4219 L281.5094,344.3438 Z M280.025,342.1094 L283.0094,342.1094 L286.3688,354.5 L283.9156,354.5 L283.15,351.4375 L279.8688,351.4375 L279.1188,354.5 L276.6813,354.5 L280.025,342.1094 Z " fill="#000000"/><text fill="#000000" font-family="sans-serif" font-size="14" font-style="italic" lengthAdjust="spacing" textLength="65" x="299.6" y="353.8467">BaseFont</text><line style="stroke:#181818;stroke-width:0.5;" x1="248.5" x2="385.5" y1="365" y2="365"/><rect fill="none" height="6" style="stroke:#C82930;stroke-width:1.0;" width="6" x="255.5" y="375.6484"/><text fill="#000000" font-family="sans-serif" font-size="14" lengthAdjust="spacing" textLength="47" x="267.5" y="381.9951">bitmap</text><rect fill="none" height="6" style="stroke:#C82930;stroke-width:1.0;" width="6" x="255.5" y="391.9453"/><text fill="#000000" font-family="sans-serif" font-size="14" lengthAdjust="spacing" textLength="37" x="267.5" y="398.292">index</text><rect fill="none" height="6" style="stroke:#C82930;stroke-width:1.0;" width="6" x="255.5" y="408.2422"/><text fill="#000000" font-family="sans-serif" font-size="14" lengthAdjust="spacing" textLength="37" x="267.5" y="414.5889">glyph</text><line style="stroke:#181818;stroke-width:0.5;" x1="248.5" x2="385.5" y1="421.8906" y2="421.8906"/><ellipse cx="258.5" cy="435.5391" fill="#84BE84" rx="3" ry="3" style="stroke:#038048;stroke-width:1.0;"/><text fill="#000000" font-family="sans-serif" font-size="14" font-style="italic" lengthAdjust="spacing" textLength="78" x="267.5" y="438.8857">int get_bit()</text><ellipse cx="258.5" cy="451.8359" fill="#84BE84" rx="3" ry="3" style="stroke:#038048;stroke-width:1.0;"/><text fill="#000000" font-family="sans-serif" font-size="14" font-style="italic" lengthAdjust="spacing" textLength="92" x="267.5" y="455.1826">int get_next()</text><ellipse cx="258.5" cy="468.1328" fill="#84BE84" rx="3" ry="3" style="stroke:#038048;stroke-width:1.0;"/><text fill="#000000" font-family="sans-serif" font-size="14" font-style="italic" lengthAdjust="spacing" textLength="113" x="267.5" y="471.4795">int set_position()</text></g><!--class lbutils.graphics.fonts.Font06--><g id="elem_lbutils.graphics.fonts.Font06"><rect codeLine="12" fill="#F1F1F1" height="145.7813" id="lbutils.graphics.fonts.Font06" rx="2.5" ry="2.5" style="stroke:#181818;stroke-width:0.5;" width="141" x="422.5" y="127"/><ellipse cx="464.5" cy="143" fill="#ADD1B2" rx="11" ry="11" style="stroke:#181818;stroke-width:1.0;"/><path d="M467.4688,148.6406 Q466.8906,148.9375 466.25,149.0781 Q465.6094,149.2344 464.9063,149.2344 Q462.4063,149.2344 461.0781,147.5938 Q459.7656,145.9375 459.7656,142.8125 Q459.7656,139.6875 461.0781,138.0313 Q462.4063,136.375 464.9063,136.375 Q465.6094,136.375 466.25,136.5313 Q466.9063,136.6875 467.4688,136.9844 L467.4688,139.7031 Q466.8438,139.125 466.25,138.8594 Q465.6563,138.5781 465.0313,138.5781 Q463.6875,138.5781 463,139.6563 Q462.3125,140.7188 462.3125,142.8125 Q462.3125,144.9063 463,145.9844 Q463.6875,147.0469 465.0313,147.0469 Q465.6563,147.0469 466.25,146.7813 Q466.8438,146.5 467.4688,145.9219 L467.4688,148.6406 Z " fill="#000000"/><text fill="#000000" font-family="sans-serif" font-size="14" lengthAdjust="spacing" textLength="49" x="484.5" y="147.8467">Font06</text><line style="stroke:#181818;stroke-width:0.5;" x1="423.5" x2="562.5" y1="159" y2="159"/><rect fill="none" height="6" style="stroke:#C82930;stroke-width:1.0;" width="6" x="430.5" y="169.6484"/><text fill="#000000" font-family="sans-serif" font-size="14" lengthAdjust="spacing" textLength="47" x="442.5" y="175.9951">bitmap</text><rect fill="none" height="6" style="stroke:#C82930;stroke-width:1.0;" width="6" x="430.5" y="185.9453"/><text fill="#000000" font-family="sans-serif" font-size="14" lengthAdjust="spacing" textLength="37" x="442.5" y="192.292">index</text><rect fill="none" height="6" style="stroke:#C82930;stroke-width:1.0;" width="6" x="430.5" y="202.2422"/><text fill="#000000" font-family="sans-serif" font-size="14" lengthAdjust="spacing" textLength="37" x="442.5" y="208.5889">glyph</text><line style="stroke:#181818;stroke-width:0.5;" x1="423.5" x2="562.5" y1="215.8906" y2="215.8906"/><ellipse cx="433.5" cy="229.5391" fill="#84BE84" rx="3" ry="3" style="stroke:#038048;stroke-width:1.0;"/><text fill="#000000" font-family="sans-serif" font-size="14" lengthAdjust="spacing" textLength="78" x="442.5" y="232.8857">int get_bit()</text><ellipse cx="433.5" cy="245.8359" fill="#84BE84" rx="3" ry="3" style="stroke:#038048;stroke-width:1.0;"/><text fill="#000000" font-family="sans-serif" font-size="14" lengthAdjust="spacing" textLength="91" x="442.5" y="249.1826">int get_next()</text><ellipse cx="433.5" cy="262.1328" fill="#84BE84" rx="3" ry="3" style="stroke:#038048;stroke-width:1.0;"/><text fill="#000000" font-family="sans-serif" font-size="14" lengthAdjust="spacing" textLength="115" x="442.5" y="265.4795">int set_position()</text></g><!--class lbutils.graphics.fonts.Font08--><g id="elem_lbutils.graphics.fonts.Font08"><rect codeLine="20" fill="#F1F1F1" height="145.7813" id="lbutils.graphics.fonts.Font08" rx="2.5" ry="2.5" style="stroke:#181818;stroke-width:0.5;" width="141" x="246.5" y="127"/><ellipse cx="288.5" cy="143" fill="#ADD1B2" rx="11" ry="11" style="stroke:#181818;stroke-width:1.0;"/><path d="M291.4688,148.6406 Q290.8906,148.9375 290.25,149.0781 Q289.6094,149.2344 288.9063,149.2344 Q286.4063,149.2344 285.0781,147.5938 Q283.7656,145.9375 283.7656,142.8125 Q283.7656,139.6875 285.0781,138.0313 Q286.4063,136.375 288.9063,136.375 Q289.6094,136.375 290.25,136.5313 Q290.9063,136.6875 291.4688,136.9844 L291.4688,139.7031 Q290.8438,139.125 290.25,138.8594 Q289.6563,138.5781 289.0313,138.5781 Q287.6875,138.5781 287,139.6563 Q286.3125,140.7188 286.3125,142.8125 Q286.3125,144.9063 287,145.9844 Q287.6875,147.0469 289.0313,147.0469 Q289.6563,147.0469 290.25,146.7813 Q290.8438,146.5 291.4688,145.9219 L291.4688,148.6406 Z " fill="#000000"/><text fill="#000000" font-family="sans-serif" font-size="14" lengthAdjust="spacing" textLength="49" x="308.5" y="147.8467">Font08</text><line style="stroke:#181818;stroke-width:0.5;" x1="247.5" x2="386.5" y1="159" y2="159"/><rect fill="none" height="6" style="stroke:#C82930;stroke-width:1.0;" width="6" x="254.5" y="169.6484"/><text fill="#000000" font-family="sans-serif" font-size="14" lengthAdjust="spacing" textLength="47" x="266.5" y="175.9951">bitmap</text><rect fill="none" height="6" style="stroke:#C82930;stroke-width:1.0;" width="6" x="254.5" y="185.9453"/><text fill="#000000" font-family="sans-serif" font-size="14" lengthAdjust="spacing" textLength="37" x="266.5" y="192.292">index</text><rect fill="none" height="6" style="stroke:#C82930;stroke-width:1.0;" width="6" x="254.5" y="202.2422"/><text fill="#000000" font-family="sans-serif" font-size="14" lengthAdjust="spacing" textLength="37" x="266.5" y="208.5889">glyph</text><line style="stroke:#181818;stroke-width:0.5;" x1="247.5" x2="386.5" y1="215.8906" y2="215.8906"/><ellipse cx="257.5" cy="229.5391" fill="#84BE84" rx="3" ry="3" style="stroke:#038048;stroke-width:1.0;"/><text fill="#000000" font-family="sans-serif" font-size="14" lengthAdjust="spacing" textLength="78" x="266.5" y="232.8857">int get_bit()</text><ellipse cx="257.5" cy="245.8359" fill="#84BE84" rx="3" ry="3" style="stroke:#038048;stroke-width:1.0;"/><text fill="#000000" font-family="sans-serif" font-size="14" lengthAdjust="spacing" textLength="91" x="266.5" y="249.1826">int get_next()</text><ellipse cx="257.5" cy="262.1328" fill="#84BE84" rx="3" ry="3" style="stroke:#038048;stroke-width:1.0;"/><text fill="#000000" font-family="sans-serif" font-size="14" lengthAdjust="spacing" textLength="115" x="266.5" y="265.4795">int set_position()</text></g><!--class lbutils.graphics.fonts.Org01--><g id="elem_lbutils.graphics.fonts.Org01"><rect codeLine="28" fill="#F1F1F1" height="145.7813" id="lbutils.graphics.fonts.Org01" rx="2.5" ry="2.5" style="stroke:#181818;stroke-width:0.5;" width="141" x="70.5" y="127"/><ellipse cx="115.25" cy="143" fill="#ADD1B2" rx="11" ry="11" style="stroke:#181818;stroke-width:1.0;"/><path d="M118.2188,148.6406 Q117.6406,148.9375 117,149.0781 Q116.3594,149.2344 115.6563,149.2344 Q113.1563,149.2344 111.8281,147.5938 Q110.5156,145.9375 110.5156,142.8125 Q110.5156,139.6875 111.8281,138.0313 Q113.1563,136.375 115.6563,136.375 Q116.3594,136.375 117,136.5313 Q117.6563,136.6875 118.2188,136.9844 L118.2188,139.7031 Q117.5938,139.125 117,138.8594 Q116.4063,138.5781 115.7813,138.5781 Q114.4375,138.5781 113.75,139.6563 Q113.0625,140.7188 113.0625,142.8125 Q113.0625,144.9063 113.75,145.9844 Q114.4375,147.0469 115.7813,147.0469 Q116.4063,147.0469 117,146.7813 Q117.5938,146.5 118.2188,145.9219 L118.2188,148.6406 Z " fill="#000000"/><text fill="#000000" font-family="sans-serif" font-size="14" lengthAdjust="spacing" textLength="43" x="135.75" y="147.8467">Org01</text><line style="stroke:#181818;stroke-width:0.5;" x1="71.5" x2="210.5" y1="159" y2="159"/><rect fill="none" height="6" style="stroke:#C82930;stroke-width:1.0;" width="6" x="78.5" y="169.6484"/><text fill="#000000" font-family="sans-serif" font-size="14" lengthAdjust="spacing" textLength="47" x="90.5" y="175.9951">bitmap</text><rect fill="none" height="6" style="stroke:#C82930;stroke-width:1.0;" width="6" x="78.5" y="185.9453"/><text fill="#000000" font-family="sans-serif" font-size="14" lengthAdjust="spacing" textLength="37" x="90.5" y="192.292">index</text><rect fill="none" height="6" style="stroke:#C82930;stroke-width:1.0;" width="6" x="78.5" y="202.2422"/><text fill="#000000" font-family="sans-serif" font-size="14" lengthAdjust="spacing" textLength="37" x="90.5" y="208.5889">glyph</text><line style="stroke:#181818;stroke-width:0.5;" x1="71.5" x2="210.5" y1="215.8906" y2="215.8906"/><ellipse cx="81.5" cy="229.5391" fill="#84BE84" rx="3" ry="3" style="stroke:#038048;stroke-width:1.0;"/><text fill="#000000" font-family="sans-serif" font-size="14" lengthAdjust="spacing" textLength="78" x="90.5" y="232.8857">int get_bit()</text><ellipse cx="81.5" cy="245.8359" fill="#84BE84" rx="3" ry="3" style="stroke:#038048;stroke-width:1.0;"/><text fill="#000000" font-family="sans-serif" font-size="14" lengthAdjust="spacing" textLength="91" x="90.5" y="249.1826">int get_next()</text><ellipse cx="81.5" cy="262.1328" fill="#84BE84" rx="3" ry="3" style="stroke:#038048;stroke-width:1.0;"/><text fill="#000000" font-family="sans-serif" font-size="14" lengthAdjust="spacing" textLength="115" x="90.5" y="265.4795">int set_position()</text></g><!--reverse link lbutils.graphics.fonts.Font06 to lbutils.graphics.fonts.BaseFont--><g id="link_lbutils.graphics.fonts.Font06_lbutils.graphics.fonts.BaseFont"><path codeLine="41" d="M416.59,289.56 C404.15,303.98 391.4,318.77 379.35,332.74 " fill="none" id="lbutils.graphics.fonts.Font06-backto-lbutils.graphics.fonts.BaseFont" style="stroke:#181818;stroke-width:1.0;"/><polygon fill="none" points="411.1,285.21,429.46,274.64,421.7,294.36,411.1,285.21" style="stroke:#181818;stroke-width:1.0;"/></g><!--reverse link lbutils.graphics.fonts.Font08 to lbutils.graphics.fonts.BaseFont--><g id="link_lbutils.graphics.fonts.Font08_lbutils.graphics.fonts.BaseFont"><path codeLine="42" d="M317,294.69 C317,307.47 317,320.42 317,332.74 " fill="none" id="lbutils.graphics.fonts.Font08-backto-lbutils.graphics.fonts.BaseFont" style="stroke:#181818;stroke-width:1.0;"/><polygon fill="none" points="310,295.01,317,275.01,324,295.01,310,295.01" style="stroke:#181818;stroke-width:1.0;"/></g><!--reverse link lbutils.graphics.fonts.Org01 to lbutils.graphics.fonts.BaseFont--><g id="link_lbutils.graphics.fonts.Org01_lbutils.graphics.fonts.BaseFont"><path codeLine="43" d="M217.41,289.56 C229.85,303.98 242.6,318.77 254.65,332.74 " fill="none" id="lbutils.graphics.fonts.Org01-backto-lbutils.graphics.fonts.BaseFont" style="stroke:#181818;stroke-width:1.0;"/><polygon fill="none" points="212.3,294.36,204.54,274.64,222.9,285.21,212.3,294.36" style="stroke:#181818;stroke-width:1.0;"/></g><!--SRC=[rPEn3e8m54LtlkAD6WF1nJ0uERZw2QRKMfgKql1gWa7-tOAK24OmwiBRUdjo-oxXAf8or8GoaF7528bGUc17TJhFYKu4VRquPyeujHuIeya9DK0bGOGTGRQto1DHZm-nC2dH0r6e4oi66fTNdVIqqhrHmKfOQyxCqTejbfEKOiKKXXRJ6GeZCZL0g-xqo5Rd2ZV_J3OIPop3Luj7yzlxaFDmFOUrlNw2ohDIswp0DIbecXEqFz7svllm1d4T6hM8Vh9elknd3dS0]--></g></svg>