<?xml version="1.0" encoding="windows-1252" standalone="no"?>
<svg xmlns="http://www.w3.org/2000/svg" xmlns:xlink="http://www.w3.org/1999/xlink" contentStyleType="text/css" height="632px" preserveAspectRatio="none" style="width:751px;height:632px;background:#FFFFFF;" version="1.1" viewBox="0 0 751 632" width="751px" zoomAndPan="magnify"><defs/><g><!--cluster lbutils--><g id="cluster_lbutils"><path d="M8.5,6 L61.5,6 A3.75,3.75 0 0 1 64,8.5 L71,28.2969 L741.5,28.2969 A2.5,2.5 0 0 1 744,30.7969 L744,622.5 A2.5,2.5 0 0 1 741.5,625 L8.5,625 A2.5,2.5 0 0 1 6,622.5 L6,8.5 A2.5,2.5 0 0 1 8.5,6 " fill="none" style="stroke:#000000;stroke-width:1.5;"/><line style="stroke:#000000;stroke-width:1.5;" x1="6" x2="71" y1="28.2969" y2="28.2969"/><text fill="#000000" font-family="sans-serif" font-size="14" font-weight="bold" lengthAdjust="spacing" textLength="52" x="10" y="20.9951">lbutils</text></g><!--cluster graphics--><g id="cluster_graphics"><path d="M32.5,49 L103.5,49 A3.75,3.75 0 0 1 106,51.5 L113,71.2969 L717.5,71.2969 A2.5,2.5 0 0 1 720,73.7969 L720,598.5 A2.5,2.5 0 0 1 717.5,601 L32.5,601 A2.5,2.5 0 0 1 30,598.5 L30,51.5 A2.5,2.5 0 0 1 32.5,49 " fill="none" style="stroke:#000000;stroke-width:1.5;"/><line style="stroke:#000000;stroke-width:1.5;" x1="30" x2="113" y1="71.2969" y2="71.2969"/><text fill="#000000" font-family="sans-serif" font-size="14" font-weight="bold" lengthAdjust="spacing" textLength="70" x="34" y="63.9951">graphics</text></g><!--cluster fonts--><g id="cluster_fonts"><path d="M56.5,92 L101.5,92 A3.75,3.75 0 0 1 104,94.5 L111,114.2969 L693.5,114.2969 A2.5,2.5 0 0 1 696,116.7969 L696,574.5 A2.5,2.5 0 0 1 693.5,577 L56.5,577 A2.5,2.5 0 0 1 54,574.5 L54,94.5 A2.5,2.5 0 0 1 56.5,92 " fill="none" style="stroke:#000000;stroke-width:1.5;"/><line style="stroke:#000000;stroke-width:1.5;" x1="54" x2="111" y1="114.2969" y2="114.2969"/><text fill="#000000" font-family="sans-serif" font-size="14" font-weight="bold" lengthAdjust="spacing" textLength="44" x="58" y="106.9951">fonts</text></g><!--cluster base_font--><g id="cluster_base_font"><rect fill="none" height="197" rx="2.5" ry="2.5" style="stroke:#181818;stroke-width:1.0;" width="174" x="288" y="356"/><text fill="#000000" font-family="sans-serif" font-size="14" font-weight="bold" lengthAdjust="spacing" textLength="80" x="335" y="370.9951">base_font</text></g><!--cluster font06--><g id="cluster_font06"><rect fill="none" height="197" rx="2.5" ry="2.5" style="stroke:#181818;stroke-width:1.0;" width="182" x="490" y="135"/><text fill="#000000" font-family="sans-serif" font-size="14" font-weight="bold" lengthAdjust="spacing" textLength="55" x="553.5" y="149.9951">font06</text></g><!--cluster font08--><g id="cluster_font08"><rect fill="none" height="197" rx="2.5" ry="2.5" style="stroke:#181818;stroke-width:1.0;" width="182" x="284" y="135"/><text fill="#000000" font-family="sans-serif" font-size="14" font-weight="bold" lengthAdjust="spacing" textLength="55" x="347.5" y="149.9951">font08</text></g><!--cluster org_01--><g id="cluster_org_01"><rect fill="none" height="197" rx="2.5" ry="2.5" style="stroke:#181818;stroke-width:1.0;" width="182" x="78" y="135"/><text fill="#000000" font-family="sans-serif" font-size="14" font-weight="bold" lengthAdjust="spacing" textLength="54" x="142" y="149.9951">org_01</text></g><!--class BaseFont--><g id="elem_BaseFont"><rect codeLine="5" fill="#F1F1F1" height="145.7813" id="BaseFont" rx="2.5" ry="2.5" style="stroke:#181818;stroke-width:0.5;" width="142" x="304" y="391"/><ellipse cx="338.8" cy="407" fill="#A9DCDF" rx="11" ry="11" style="stroke:#181818;stroke-width:1.0;"/><path d="M340.8781,408.8125 L341.2688,409.7969 L340.8781,409.7969 C340.425,409.7969 340.3156,409.8125 340.1594,409.9219 C339.9094,410.0781 339.7531,410.3594 339.7531,410.6563 C339.7531,410.9219 339.8938,411.1719 340.1125,411.3281 C340.2531,411.4531 340.4563,411.5 340.8781,411.5 L343.2375,411.5 C343.5969,411.5 343.8156,411.4688 343.9563,411.375 C344.2063,411.2344 344.3625,410.9375 344.3625,410.6563 C344.3625,410.375 344.2219,410.125 344.0031,409.9688 C343.8313,409.8281 343.675,409.7969 343.2063,409.7969 L339.8156,401.5938 L336.1438,401.5938 C335.6906,401.5938 335.5656,401.6094 335.4094,401.7031 C335.1594,401.875 335.0031,402.1563 335.0031,402.4375 C335.0031,402.7188 335.1438,402.9688 335.3625,403.1406 C335.5344,403.25 335.7063,403.2813 336.1438,403.2813 L337.2219,403.2813 L334.5813,409.7969 C334.1594,409.7969 334.0031,409.8125 333.8469,409.9219 C333.5969,410.0781 333.4406,410.3594 333.4406,410.6563 C333.4406,411.2188 333.8156,411.5 334.5656,411.5 L336.8313,411.5 C337.1906,411.5 337.4094,411.4688 337.5344,411.375 C337.8,411.2344 337.9406,410.9375 337.9406,410.6563 C337.9406,410.375 337.8156,410.125 337.5969,409.9531 C337.425,409.8281 337.2844,409.7969 336.8313,409.7969 L336.4406,409.7969 L336.8313,408.8125 L340.8781,408.8125 Z M340.175,407.1094 L337.5031,407.1094 L338.8469,403.8438 L340.175,407.1094 Z " fill="#000000"/><text fill="#000000" font-family="sans-serif" font-size="14" font-style="italic" lengthAdjust="spacing" textLength="66" x="357.2" y="411.8467">BaseFont</text><line style="stroke:#181818;stroke-width:0.5;" x1="305" x2="445" y1="423" y2="423"/><rect fill="none" height="6" style="stroke:#C82930;stroke-width:1.0;" width="6" x="312" y="433.6484"/><text fill="#000000" font-family="sans-serif" font-size="14" lengthAdjust="spacing" textLength="53" x="324" y="439.9951">bitmap</text><rect fill="none" height="6" style="stroke:#C82930;stroke-width:1.0;" width="6" x="312" y="449.9453"/><text fill="#000000" font-family="sans-serif" font-size="14" lengthAdjust="spacing" textLength="39" x="324" y="456.292">index</text><rect fill="none" height="6" style="stroke:#C82930;stroke-width:1.0;" width="6" x="312" y="466.2422"/><text fill="#000000" font-family="sans-serif" font-size="14" lengthAdjust="spacing" textLength="40" x="324" y="472.5889">glyph</text><line style="stroke:#181818;stroke-width:0.5;" x1="305" x2="445" y1="479.8906" y2="479.8906"/><ellipse cx="315" cy="493.5391" fill="#84BE84" rx="3" ry="3" style="stroke:#038048;stroke-width:1.0;"/><text fill="#000000" font-family="sans-serif" font-size="14" font-style="italic" lengthAdjust="spacing" textLength="80" x="324" y="496.8857">int get_bit()</text><ellipse cx="315" cy="509.8359" fill="#84BE84" rx="3" ry="3" style="stroke:#038048;stroke-width:1.0;"/><text fill="#000000" font-family="sans-serif" font-size="14" font-style="italic" lengthAdjust="spacing" textLength="93" x="324" y="513.1826">int get_next()</text><ellipse cx="315" cy="526.1328" fill="#84BE84" rx="3" ry="3" style="stroke:#038048;stroke-width:1.0;"/><text fill="#000000" font-family="sans-serif" font-size="14" font-style="italic" lengthAdjust="spacing" textLength="116" x="324" y="529.4795">int set_position()</text></g><!--class Font06--><g id="elem_Font06"><rect codeLine="15" fill="#F1F1F1" height="145.7813" id="Font06" rx="2.5" ry="2.5" style="stroke:#181818;stroke-width:0.5;" width="149" x="506.5" y="170"/><ellipse cx="551.25" cy="186" fill="#ADD1B2" rx="11" ry="11" style="stroke:#181818;stroke-width:1.0;"/><path d="M553.5938,181.6719 C552.6563,181.2344 552.0625,181.0938 551.1875,181.0938 C548.5625,181.0938 546.5625,183.1719 546.5625,185.8906 L546.5625,187.0156 C546.5625,189.5938 548.6719,191.4844 551.5625,191.4844 C552.7813,191.4844 553.9375,191.1875 554.6875,190.6406 C555.2656,190.2344 555.5938,189.7813 555.5938,189.3906 C555.5938,188.9375 555.2031,188.5469 554.7344,188.5469 C554.5156,188.5469 554.3125,188.625 554.125,188.8125 C553.6719,189.2969 553.6719,189.2969 553.4844,189.3906 C553.0625,189.6563 552.375,189.7813 551.6094,189.7813 C549.5625,189.7813 548.2656,188.6875 548.2656,186.9844 L548.2656,185.8906 C548.2656,184.1094 549.5156,182.7969 551.25,182.7969 C551.8281,182.7969 552.4375,182.9531 552.9063,183.2031 C553.3906,183.4844 553.5625,183.7031 553.6563,184.1094 C553.7188,184.5156 553.75,184.6406 553.8906,184.7656 C554.0313,184.9063 554.2656,185.0156 554.4844,185.0156 C554.75,185.0156 555.0156,184.875 555.1875,184.6563 C555.2969,184.5 555.3281,184.3125 555.3281,183.8906 L555.3281,182.4688 C555.3281,182.0313 555.3125,181.9063 555.2188,181.75 C555.0625,181.4844 554.7813,181.3438 554.4844,181.3438 C554.1875,181.3438 553.9844,181.4375 553.7656,181.75 L553.5938,181.6719 Z " fill="#000000"/><text fill="#000000" font-family="sans-serif" font-size="14" lengthAdjust="spacing" textLength="51" x="571.75" y="190.8467">Font06</text><line style="stroke:#181818;stroke-width:0.5;" x1="507.5" x2="654.5" y1="202" y2="202"/><rect fill="none" height="6" style="stroke:#C82930;stroke-width:1.0;" width="6" x="514.5" y="212.6484"/><text fill="#000000" font-family="sans-serif" font-size="14" lengthAdjust="spacing" textLength="53" x="526.5" y="218.9951">bitmap</text><rect fill="none" height="6" style="stroke:#C82930;stroke-width:1.0;" width="6" x="514.5" y="228.9453"/><text fill="#000000" font-family="sans-serif" font-size="14" lengthAdjust="spacing" textLength="39" x="526.5" y="235.292">index</text><rect fill="none" height="6" style="stroke:#C82930;stroke-width:1.0;" width="6" x="514.5" y="245.2422"/><text fill="#000000" font-family="sans-serif" font-size="14" lengthAdjust="spacing" textLength="40" x="526.5" y="251.5889">glyph</text><line style="stroke:#181818;stroke-width:0.5;" x1="507.5" x2="654.5" y1="258.8906" y2="258.8906"/><ellipse cx="517.5" cy="272.5391" fill="#84BE84" rx="3" ry="3" style="stroke:#038048;stroke-width:1.0;"/><text fill="#000000" font-family="sans-serif" font-size="14" lengthAdjust="spacing" textLength="87" x="526.5" y="275.8857">int get_bit()</text><ellipse cx="517.5" cy="288.8359" fill="#84BE84" rx="3" ry="3" style="stroke:#038048;stroke-width:1.0;"/><text fill="#000000" font-family="sans-serif" font-size="14" lengthAdjust="spacing" textLength="99" x="526.5" y="292.1826">int get_next()</text><ellipse cx="517.5" cy="305.1328" fill="#84BE84" rx="3" ry="3" style="stroke:#038048;stroke-width:1.0;"/><text fill="#000000" font-family="sans-serif" font-size="14" lengthAdjust="spacing" textLength="123" x="526.5" y="308.4795">int set_position()</text></g><!--class Font08--><g id="elem_Font08"><rect codeLine="25" fill="#F1F1F1" height="145.7813" id="Font08" rx="2.5" ry="2.5" style="stroke:#181818;stroke-width:0.5;" width="149" x="300.5" y="170"/><ellipse cx="345.75" cy="186" fill="#ADD1B2" rx="11" ry="11" style="stroke:#181818;stroke-width:1.0;"/><path d="M348.0938,181.6719 C347.1563,181.2344 346.5625,181.0938 345.6875,181.0938 C343.0625,181.0938 341.0625,183.1719 341.0625,185.8906 L341.0625,187.0156 C341.0625,189.5938 343.1719,191.4844 346.0625,191.4844 C347.2813,191.4844 348.4375,191.1875 349.1875,190.6406 C349.7656,190.2344 350.0938,189.7813 350.0938,189.3906 C350.0938,188.9375 349.7031,188.5469 349.2344,188.5469 C349.0156,188.5469 348.8125,188.625 348.625,188.8125 C348.1719,189.2969 348.1719,189.2969 347.9844,189.3906 C347.5625,189.6563 346.875,189.7813 346.1094,189.7813 C344.0625,189.7813 342.7656,188.6875 342.7656,186.9844 L342.7656,185.8906 C342.7656,184.1094 344.0156,182.7969 345.75,182.7969 C346.3281,182.7969 346.9375,182.9531 347.4063,183.2031 C347.8906,183.4844 348.0625,183.7031 348.1563,184.1094 C348.2188,184.5156 348.25,184.6406 348.3906,184.7656 C348.5313,184.9063 348.7656,185.0156 348.9844,185.0156 C349.25,185.0156 349.5156,184.875 349.6875,184.6563 C349.7969,184.5 349.8281,184.3125 349.8281,183.8906 L349.8281,182.4688 C349.8281,182.0313 349.8125,181.9063 349.7188,181.75 C349.5625,181.4844 349.2813,181.3438 348.9844,181.3438 C348.6875,181.3438 348.4844,181.4375 348.2656,181.75 L348.0938,181.6719 Z " fill="#000000"/><text fill="#000000" font-family="sans-serif" font-size="14" lengthAdjust="spacing" textLength="50" x="366.25" y="190.8467">Font08</text><line style="stroke:#181818;stroke-width:0.5;" x1="301.5" x2="448.5" y1="202" y2="202"/><rect fill="none" height="6" style="stroke:#C82930;stroke-width:1.0;" width="6" x="308.5" y="212.6484"/><text fill="#000000" font-family="sans-serif" font-size="14" lengthAdjust="spacing" textLength="53" x="320.5" y="218.9951">bitmap</text><rect fill="none" height="6" style="stroke:#C82930;stroke-width:1.0;" width="6" x="308.5" y="228.9453"/><text fill="#000000" font-family="sans-serif" font-size="14" lengthAdjust="spacing" textLength="39" x="320.5" y="235.292">index</text><rect fill="none" height="6" style="stroke:#C82930;stroke-width:1.0;" width="6" x="308.5" y="245.2422"/><text fill="#000000" font-family="sans-serif" font-size="14" lengthAdjust="spacing" textLength="40" x="320.5" y="251.5889">glyph</text><line style="stroke:#181818;stroke-width:0.5;" x1="301.5" x2="448.5" y1="258.8906" y2="258.8906"/><ellipse cx="311.5" cy="272.5391" fill="#84BE84" rx="3" ry="3" style="stroke:#038048;stroke-width:1.0;"/><text fill="#000000" font-family="sans-serif" font-size="14" lengthAdjust="spacing" textLength="87" x="320.5" y="275.8857">int get_bit()</text><ellipse cx="311.5" cy="288.8359" fill="#84BE84" rx="3" ry="3" style="stroke:#038048;stroke-width:1.0;"/><text fill="#000000" font-family="sans-serif" font-size="14" lengthAdjust="spacing" textLength="99" x="320.5" y="292.1826">int get_next()</text><ellipse cx="311.5" cy="305.1328" fill="#84BE84" rx="3" ry="3" style="stroke:#038048;stroke-width:1.0;"/><text fill="#000000" font-family="sans-serif" font-size="14" lengthAdjust="spacing" textLength="123" x="320.5" y="308.4795">int set_position()</text></g><!--class Org01--><g id="elem_Org01"><rect codeLine="35" fill="#F1F1F1" height="145.7813" id="Org01" rx="2.5" ry="2.5" style="stroke:#181818;stroke-width:0.5;" width="149" x="94.5" y="170"/><ellipse cx="142.75" cy="186" fill="#ADD1B2" rx="11" ry="11" style="stroke:#181818;stroke-width:1.0;"/><path d="M145.0938,181.6719 C144.1563,181.2344 143.5625,181.0938 142.6875,181.0938 C140.0625,181.0938 138.0625,183.1719 138.0625,185.8906 L138.0625,187.0156 C138.0625,189.5938 140.1719,191.4844 143.0625,191.4844 C144.2813,191.4844 145.4375,191.1875 146.1875,190.6406 C146.7656,190.2344 147.0938,189.7813 147.0938,189.3906 C147.0938,188.9375 146.7031,188.5469 146.2344,188.5469 C146.0156,188.5469 145.8125,188.625 145.625,188.8125 C145.1719,189.2969 145.1719,189.2969 144.9844,189.3906 C144.5625,189.6563 143.875,189.7813 143.1094,189.7813 C141.0625,189.7813 139.7656,188.6875 139.7656,186.9844 L139.7656,185.8906 C139.7656,184.1094 141.0156,182.7969 142.75,182.7969 C143.3281,182.7969 143.9375,182.9531 144.4063,183.2031 C144.8906,183.4844 145.0625,183.7031 145.1563,184.1094 C145.2188,184.5156 145.25,184.6406 145.3906,184.7656 C145.5313,184.9063 145.7656,185.0156 145.9844,185.0156 C146.25,185.0156 146.5156,184.875 146.6875,184.6563 C146.7969,184.5 146.8281,184.3125 146.8281,183.8906 L146.8281,182.4688 C146.8281,182.0313 146.8125,181.9063 146.7188,181.75 C146.5625,181.4844 146.2813,181.3438 145.9844,181.3438 C145.6875,181.3438 145.4844,181.4375 145.2656,181.75 L145.0938,181.6719 Z " fill="#000000"/><text fill="#000000" font-family="sans-serif" font-size="14" lengthAdjust="spacing" textLength="44" x="163.25" y="190.8467">Org01</text><line style="stroke:#181818;stroke-width:0.5;" x1="95.5" x2="242.5" y1="202" y2="202"/><rect fill="none" height="6" style="stroke:#C82930;stroke-width:1.0;" width="6" x="102.5" y="212.6484"/><text fill="#000000" font-family="sans-serif" font-size="14" lengthAdjust="spacing" textLength="53" x="114.5" y="218.9951">bitmap</text><rect fill="none" height="6" style="stroke:#C82930;stroke-width:1.0;" width="6" x="102.5" y="228.9453"/><text fill="#000000" font-family="sans-serif" font-size="14" lengthAdjust="spacing" textLength="39" x="114.5" y="235.292">index</text><rect fill="none" height="6" style="stroke:#C82930;stroke-width:1.0;" width="6" x="102.5" y="245.2422"/><text fill="#000000" font-family="sans-serif" font-size="14" lengthAdjust="spacing" textLength="40" x="114.5" y="251.5889">glyph</text><line style="stroke:#181818;stroke-width:0.5;" x1="95.5" x2="242.5" y1="258.8906" y2="258.8906"/><ellipse cx="105.5" cy="272.5391" fill="#84BE84" rx="3" ry="3" style="stroke:#038048;stroke-width:1.0;"/><text fill="#000000" font-family="sans-serif" font-size="14" lengthAdjust="spacing" textLength="87" x="114.5" y="275.8857">int get_bit()</text><ellipse cx="105.5" cy="288.8359" fill="#84BE84" rx="3" ry="3" style="stroke:#038048;stroke-width:1.0;"/><text fill="#000000" font-family="sans-serif" font-size="14" lengthAdjust="spacing" textLength="99" x="114.5" y="292.1826">int get_next()</text><ellipse cx="105.5" cy="305.1328" fill="#84BE84" rx="3" ry="3" style="stroke:#038048;stroke-width:1.0;"/><text fill="#000000" font-family="sans-serif" font-size="14" lengthAdjust="spacing" textLength="123" x="114.5" y="308.4795">int set_position()</text></g><!--reverse link Font06 to BaseFont--><g id="link_Font06_BaseFont"><path codeLine="49" d="M499.469,330.676 C480.685,350.645 460.904,371.674 442.778,390.945 " fill="none" id="Font06-backto-BaseFont" style="stroke:#181818;stroke-width:1.0;"/><polygon fill="none" points="494.461,325.784,513.263,316.012,504.658,335.376,494.461,325.784" style="stroke:#181818;stroke-width:1.0;"/></g><!--reverse link Font08 to BaseFont--><g id="link_Font08_BaseFont"><path codeLine="50" d="M375,336.253 C375,354.528 375,373.46 375,390.945 " fill="none" id="Font08-backto-BaseFont" style="stroke:#181818;stroke-width:1.0;"/><polygon fill="none" points="368,336.012,375,316.012,382,336.012,368,336.012" style="stroke:#181818;stroke-width:1.0;"/></g><!--reverse link Org01 to BaseFont--><g id="link_Org01_BaseFont"><path codeLine="51" d="M250.531,330.676 C269.315,350.645 289.096,371.674 307.222,390.945 " fill="none" id="Org01-backto-BaseFont" style="stroke:#181818;stroke-width:1.0;"/><polygon fill="none" points="245.342,335.376,236.737,316.012,255.539,325.784,245.342,335.376" style="stroke:#181818;stroke-width:1.0;"/></g><!--SRC=[vPInReCm48PtdkB6L1KMB1K3of0XQwI-03fSrrXoZ8LTAHNbtMimHAM5nf6YB3anOFx_pkYp_2iyCgEHCf3bXnNIG1k1AtN-pXlKbQ2JC1VVQsL_AdErHCEAtW9v_igeHSKbssv_-Vl2qjW6gGKgqHZOkSPzt_VNsLSCfR17r2kYK6_ijA9n-QchHQsT_g63P-6svimMRflDKx1RiLEetJYxhesmebOBBLsqlfh3JrukilL8zzvyHw0154FGtPXNTWslx95nrGqlaZGGrw7XIVfOjFnR5qNk6SEJJ659Xc0a_eQIyUxbNt4CAyvpL98f-_wTcVcPsOrc-gCcmo5UEV8R]--></g></svg>