<?xml version="1.0" encoding="us-ascii" standalone="no"?><svg xmlns="http://www.w3.org/2000/svg" xmlns:xlink="http://www.w3.org/1999/xlink" contentStyleType="text/css" height="327px" preserveAspectRatio="none" style="width:241px;height:327px;background:#FFFFFF;" version="1.1" viewBox="0 0 241 327" width="241px" zoomAndPan="magnify"><defs/><g><!--cluster lbutils--><g id="cluster_lbutils"><path d="M8.5,6 L56.5,6 A3.75,3.75 0 0 1 59,8.5 L66,28.2969 L231.5,28.2969 A2.5,2.5 0 0 1 234,30.7969 L234,317.5 A2.5,2.5 0 0 1 231.5,320 L8.5,320 A2.5,2.5 0 0 1 6,317.5 L6,8.5 A2.5,2.5 0 0 1 8.5,6 " fill="none" style="stroke:#000000;stroke-width:1.5;"/><line style="stroke:#000000;stroke-width:1.5;" x1="6" x2="66" y1="28.2969" y2="28.2969"/><text fill="#000000" font-family="sans-serif" font-size="14" font-weight="bold" lengthAdjust="spacing" textLength="47" x="10" y="20.9951">lbutils</text></g><!--cluster pmods--><g id="cluster_pmods"><path d="M32.5,49 L86.5,49 A3.75,3.75 0 0 1 89,51.5 L96,71.2969 L207.5,71.2969 A2.5,2.5 0 0 1 210,73.7969 L210,293.5 A2.5,2.5 0 0 1 207.5,296 L32.5,296 A2.5,2.5 0 0 1 30,293.5 L30,51.5 A2.5,2.5 0 0 1 32.5,49 " fill="none" style="stroke:#000000;stroke-width:1.5;"/><line style="stroke:#000000;stroke-width:1.5;" x1="30" x2="96" y1="71.2969" y2="71.2969"/><text fill="#000000" font-family="sans-serif" font-size="14" font-weight="bold" lengthAdjust="spacing" textLength="53" x="34" y="63.9951">pmods</text></g><!--cluster gpio--><g id="cluster_gpio"><path d="M56.5,92 L91.5,92 A3.75,3.75 0 0 1 94,94.5 L101,114.2969 L183.5,114.2969 A2.5,2.5 0 0 1 186,116.7969 L186,269.5 A2.5,2.5 0 0 1 183.5,272 L56.5,272 A2.5,2.5 0 0 1 54,269.5 L54,94.5 A2.5,2.5 0 0 1 56.5,92 " fill="none" style="stroke:#000000;stroke-width:1.5;"/><line style="stroke:#000000;stroke-width:1.5;" x1="54" x2="101" y1="114.2969" y2="114.2969"/><text fill="#000000" font-family="sans-serif" font-size="14" font-weight="bold" lengthAdjust="spacing" textLength="34" x="58" y="106.9951">gpio</text></g><!--class LED--><g id="elem_LED"><rect codeLine="4" fill="#F1F1F1" height="129.4844" id="LED" rx="2.5" ry="2.5" style="stroke:#181818;stroke-width:0.5;" width="100" x="70" y="127"/><ellipse cx="103.45" cy="143" fill="#ADD1B2" rx="11" ry="11" style="stroke:#181818;stroke-width:1.0;"/><path d="M106.4188,148.6406 Q105.8406,148.9375 105.2,149.0781 Q104.5594,149.2344 103.8563,149.2344 Q101.3563,149.2344 100.0281,147.5938 Q98.7156,145.9375 98.7156,142.8125 Q98.7156,139.6875 100.0281,138.0313 Q101.3563,136.375 103.8563,136.375 Q104.5594,136.375 105.2,136.5313 Q105.8563,136.6875 106.4188,136.9844 L106.4188,139.7031 Q105.7938,139.125 105.2,138.8594 Q104.6063,138.5781 103.9813,138.5781 Q102.6375,138.5781 101.95,139.6563 Q101.2625,140.7188 101.2625,142.8125 Q101.2625,144.9063 101.95,145.9844 Q102.6375,147.0469 103.9813,147.0469 Q104.6063,147.0469 105.2,146.7813 Q105.7938,146.5 106.4188,145.9219 L106.4188,148.6406 Z " fill="#000000"/><text fill="#000000" font-family="sans-serif" font-size="14" lengthAdjust="spacing" textLength="27" x="121.55" y="147.8467">LED</text><line style="stroke:#181818;stroke-width:0.5;" x1="71" x2="169" y1="159" y2="159"/><ellipse cx="81" cy="172.6484" fill="none" rx="3" ry="3" style="stroke:#038048;stroke-width:1.0;"/><text fill="#000000" font-family="sans-serif" font-size="14" lengthAdjust="spacing" textLength="73" x="90" y="175.9951">led0 : bool</text><ellipse cx="81" cy="188.9453" fill="none" rx="3" ry="3" style="stroke:#038048;stroke-width:1.0;"/><text fill="#000000" font-family="sans-serif" font-size="14" lengthAdjust="spacing" textLength="73" x="90" y="192.292">led1 : bool</text><ellipse cx="81" cy="205.2422" fill="none" rx="3" ry="3" style="stroke:#038048;stroke-width:1.0;"/><text fill="#000000" font-family="sans-serif" font-size="14" lengthAdjust="spacing" textLength="73" x="90" y="208.5889">led2 : bool</text><ellipse cx="81" cy="221.5391" fill="none" rx="3" ry="3" style="stroke:#038048;stroke-width:1.0;"/><text fill="#000000" font-family="sans-serif" font-size="14" lengthAdjust="spacing" textLength="73" x="90" y="224.8857">led3 : bool</text><line style="stroke:#181818;stroke-width:0.5;" x1="71" x2="169" y1="232.1875" y2="232.1875"/><ellipse cx="81" cy="245.8359" fill="#84BE84" rx="3" ry="3" style="stroke:#038048;stroke-width:1.0;"/><text fill="#000000" font-family="sans-serif" font-size="14" lengthAdjust="spacing" textLength="74" x="90" y="249.1826">set_state()</text></g><!--SRC=[oqlCJIqkI4nELSX9AYt9p2bMgEPI088yk7X1RduAJ1HL9hqWCnz90WIISnABYnLyN5tGn450Mo4dDSL0mKeXAJy_1xki8LvP8xoonhXbYrDBuejB4ajIDJGnP6kv4AnQBW00]--></g></svg>