<?xml version="1.0" encoding="windows-1252" standalone="no"?>
<svg xmlns="http://www.w3.org/2000/svg" xmlns:xlink="http://www.w3.org/1999/xlink" contentStyleType="text/css" height="1110px" preserveAspectRatio="none" style="width:1175px;height:1110px;background:#FFFFFF;" version="1.1" viewBox="0 0 1175 1110" width="1175px" zoomAndPan="magnify"><defs/><g><!--cluster lbutils--><g id="cluster_lbutils"><path d="M8.5,6 L61.5,6 A3.75,3.75 0 0 1 64,8.5 L71,28.2969 L1165.5,28.2969 A2.5,2.5 0 0 1 1168,30.7969 L1168,1100.5 A2.5,2.5 0 0 1 1165.5,1103 L8.5,1103 A2.5,2.5 0 0 1 6,1100.5 L6,8.5 A2.5,2.5 0 0 1 8.5,6 " fill="none" style="stroke:#000000;stroke-width:1.5;"/><line style="stroke:#000000;stroke-width:1.5;" x1="6" x2="71" y1="28.2969" y2="28.2969"/><text fill="#000000" font-family="sans-serif" font-size="14" font-weight="bold" lengthAdjust="spacing" textLength="52" x="10" y="20.9951">lbutils</text></g><!--cluster graphics--><g id="cluster_graphics"><path d="M32.5,49 L103.5,49 A3.75,3.75 0 0 1 106,51.5 L113,71.2969 L1141.5,71.2969 A2.5,2.5 0 0 1 1144,73.7969 L1144,1076.5 A2.5,2.5 0 0 1 1141.5,1079 L32.5,1079 A2.5,2.5 0 0 1 30,1076.5 L30,51.5 A2.5,2.5 0 0 1 32.5,49 " fill="none" style="stroke:#000000;stroke-width:1.5;"/><line style="stroke:#000000;stroke-width:1.5;" x1="30" x2="113" y1="71.2969" y2="71.2969"/><text fill="#000000" font-family="sans-serif" font-size="14" font-weight="bold" lengthAdjust="spacing" textLength="70" x="34" y="63.9951">graphics</text></g><!--cluster fonts--><g id="cluster_fonts"><path d="M480.5,191 L525.5,191 A3.75,3.75 0 0 1 528,193.5 L535,213.2969 L1117.5,213.2969 A2.5,2.5 0 0 1 1120,215.7969 L1120,815.5 A2.5,2.5 0 0 1 1117.5,818 L480.5,818 A2.5,2.5 0 0 1 478,815.5 L478,193.5 A2.5,2.5 0 0 1 480.5,191 " fill="none" style="stroke:#000000;stroke-width:1.5;"/><line style="stroke:#000000;stroke-width:1.5;" x1="478" x2="535" y1="213.2969" y2="213.2969"/><text fill="#000000" font-family="sans-serif" font-size="14" font-weight="bold" lengthAdjust="spacing" textLength="44" x="482" y="205.9951">fonts</text></g><!--cluster base_font--><g id="cluster_base_font"><rect fill="none" height="197" rx="2.5" ry="2.5" style="stroke:#181818;stroke-width:1.0;" width="174" x="609" y="597"/><text fill="#000000" font-family="sans-serif" font-size="14" font-weight="bold" lengthAdjust="spacing" textLength="80" x="656" y="611.9951">base_font</text></g><!--cluster font06--><g id="cluster_font06"><rect fill="none" height="197" rx="2.5" ry="2.5" style="stroke:#181818;stroke-width:1.0;" width="182" x="914" y="234"/><text fill="#000000" font-family="sans-serif" font-size="14" font-weight="bold" lengthAdjust="spacing" textLength="55" x="977.5" y="248.9951">font06</text></g><!--cluster font08--><g id="cluster_font08"><rect fill="none" height="197" rx="2.5" ry="2.5" style="stroke:#181818;stroke-width:1.0;" width="182" x="708" y="234"/><text fill="#000000" font-family="sans-serif" font-size="14" font-weight="bold" lengthAdjust="spacing" textLength="55" x="771.5" y="248.9951">font08</text></g><!--cluster org_01--><g id="cluster_org_01"><rect fill="none" height="197" rx="2.5" ry="2.5" style="stroke:#181818;stroke-width:1.0;" width="182" x="502" y="234"/><text fill="#000000" font-family="sans-serif" font-size="14" font-weight="bold" lengthAdjust="spacing" textLength="54" x="566" y="248.9951">org_01</text></g><!--cluster helpers--><g id="cluster_helpers"><rect fill="none" height="433.5" rx="2.5" ry="2.5" style="stroke:#181818;stroke-width:1.0;" width="350" x="54" y="613.5"/><text fill="#000000" font-family="sans-serif" font-size="14" font-weight="bold" lengthAdjust="spacing" textLength="59" x="199.5" y="628.4951">helpers</text></g><!--cluster colours--><g id="cluster_colours"><rect fill="none" height="213" rx="2.5" ry="2.5" style="stroke:#181818;stroke-width:1.0;" width="264" x="428" y="842"/><text fill="#000000" font-family="sans-serif" font-size="14" font-weight="bold" lengthAdjust="spacing" textLength="60" x="530" y="856.9951">colours</text></g><!--cluster canvas--><g id="cluster_canvas"><rect fill="none" height="481" rx="2.5" ry="2.5" style="stroke:#181818;stroke-width:1.0;" width="210" x="220" y="92"/><text fill="#000000" font-family="sans-serif" font-size="14" font-weight="bold" lengthAdjust="spacing" textLength="57" x="296.5" y="106.9951">canvas</text></g><!--class BaseFont--><g id="elem_BaseFont"><rect codeLine="5" fill="#F1F1F1" height="145.7813" id="BaseFont" rx="2.5" ry="2.5" style="stroke:#181818;stroke-width:0.5;" width="142" x="625" y="632"/><ellipse cx="659.8" cy="648" fill="#A9DCDF" rx="11" ry="11" style="stroke:#181818;stroke-width:1.0;"/><path d="M661.8781,649.8125 L662.2688,650.7969 L661.8781,650.7969 C661.425,650.7969 661.3156,650.8125 661.1594,650.9219 C660.9094,651.0781 660.7531,651.3594 660.7531,651.6563 C660.7531,651.9219 660.8938,652.1719 661.1125,652.3281 C661.2531,652.4531 661.4563,652.5 661.8781,652.5 L664.2375,652.5 C664.5969,652.5 664.8156,652.4688 664.9563,652.375 C665.2063,652.2344 665.3625,651.9375 665.3625,651.6563 C665.3625,651.375 665.2219,651.125 665.0031,650.9688 C664.8313,650.8281 664.675,650.7969 664.2063,650.7969 L660.8156,642.5938 L657.1438,642.5938 C656.6906,642.5938 656.5656,642.6094 656.4094,642.7031 C656.1594,642.875 656.0031,643.1563 656.0031,643.4375 C656.0031,643.7188 656.1438,643.9688 656.3625,644.1406 C656.5344,644.25 656.7063,644.2813 657.1438,644.2813 L658.2219,644.2813 L655.5813,650.7969 C655.1594,650.7969 655.0031,650.8125 654.8469,650.9219 C654.5969,651.0781 654.4406,651.3594 654.4406,651.6563 C654.4406,652.2188 654.8156,652.5 655.5656,652.5 L657.8313,652.5 C658.1906,652.5 658.4094,652.4688 658.5344,652.375 C658.8,652.2344 658.9406,651.9375 658.9406,651.6563 C658.9406,651.375 658.8156,651.125 658.5969,650.9531 C658.425,650.8281 658.2844,650.7969 657.8313,650.7969 L657.4406,650.7969 L657.8313,649.8125 L661.8781,649.8125 Z M661.175,648.1094 L658.5031,648.1094 L659.8469,644.8438 L661.175,648.1094 Z " fill="#000000"/><text fill="#000000" font-family="sans-serif" font-size="14" font-style="italic" lengthAdjust="spacing" textLength="66" x="678.2" y="652.8467">BaseFont</text><line style="stroke:#181818;stroke-width:0.5;" x1="626" x2="766" y1="664" y2="664"/><rect fill="none" height="6" style="stroke:#C82930;stroke-width:1.0;" width="6" x="633" y="674.6484"/><text fill="#000000" font-family="sans-serif" font-size="14" lengthAdjust="spacing" textLength="53" x="645" y="680.9951">bitmap</text><rect fill="none" height="6" style="stroke:#C82930;stroke-width:1.0;" width="6" x="633" y="690.9453"/><text fill="#000000" font-family="sans-serif" font-size="14" lengthAdjust="spacing" textLength="39" x="645" y="697.292">index</text><rect fill="none" height="6" style="stroke:#C82930;stroke-width:1.0;" width="6" x="633" y="707.2422"/><text fill="#000000" font-family="sans-serif" font-size="14" lengthAdjust="spacing" textLength="40" x="645" y="713.5889">glyph</text><line style="stroke:#181818;stroke-width:0.5;" x1="626" x2="766" y1="720.8906" y2="720.8906"/><ellipse cx="636" cy="734.5391" fill="#84BE84" rx="3" ry="3" style="stroke:#038048;stroke-width:1.0;"/><text fill="#000000" font-family="sans-serif" font-size="14" font-style="italic" lengthAdjust="spacing" textLength="80" x="645" y="737.8857">int get_bit()</text><ellipse cx="636" cy="750.8359" fill="#84BE84" rx="3" ry="3" style="stroke:#038048;stroke-width:1.0;"/><text fill="#000000" font-family="sans-serif" font-size="14" font-style="italic" lengthAdjust="spacing" textLength="93" x="645" y="754.1826">int get_next()</text><ellipse cx="636" cy="767.1328" fill="#84BE84" rx="3" ry="3" style="stroke:#038048;stroke-width:1.0;"/><text fill="#000000" font-family="sans-serif" font-size="14" font-style="italic" lengthAdjust="spacing" textLength="116" x="645" y="770.4795">int set_position()</text></g><!--class Font06--><g id="elem_Font06"><rect codeLine="15" fill="#F1F1F1" height="145.7813" id="Font06" rx="2.5" ry="2.5" style="stroke:#181818;stroke-width:0.5;" width="149" x="930.5" y="269"/><ellipse cx="975.25" cy="285" fill="#ADD1B2" rx="11" ry="11" style="stroke:#181818;stroke-width:1.0;"/><path d="M977.5938,280.6719 C976.6563,280.2344 976.0625,280.0938 975.1875,280.0938 C972.5625,280.0938 970.5625,282.1719 970.5625,284.8906 L970.5625,286.0156 C970.5625,288.5938 972.6719,290.4844 975.5625,290.4844 C976.7813,290.4844 977.9375,290.1875 978.6875,289.6406 C979.2656,289.2344 979.5938,288.7813 979.5938,288.3906 C979.5938,287.9375 979.2031,287.5469 978.7344,287.5469 C978.5156,287.5469 978.3125,287.625 978.125,287.8125 C977.6719,288.2969 977.6719,288.2969 977.4844,288.3906 C977.0625,288.6563 976.375,288.7813 975.6094,288.7813 C973.5625,288.7813 972.2656,287.6875 972.2656,285.9844 L972.2656,284.8906 C972.2656,283.1094 973.5156,281.7969 975.25,281.7969 C975.8281,281.7969 976.4375,281.9531 976.9063,282.2031 C977.3906,282.4844 977.5625,282.7031 977.6563,283.1094 C977.7188,283.5156 977.75,283.6406 977.8906,283.7656 C978.0313,283.9063 978.2656,284.0156 978.4844,284.0156 C978.75,284.0156 979.0156,283.875 979.1875,283.6563 C979.2969,283.5 979.3281,283.3125 979.3281,282.8906 L979.3281,281.4688 C979.3281,281.0313 979.3125,280.9063 979.2188,280.75 C979.0625,280.4844 978.7813,280.3438 978.4844,280.3438 C978.1875,280.3438 977.9844,280.4375 977.7656,280.75 L977.5938,280.6719 Z " fill="#000000"/><text fill="#000000" font-family="sans-serif" font-size="14" lengthAdjust="spacing" textLength="51" x="995.75" y="289.8467">Font06</text><line style="stroke:#181818;stroke-width:0.5;" x1="931.5" x2="1078.5" y1="301" y2="301"/><rect fill="none" height="6" style="stroke:#C82930;stroke-width:1.0;" width="6" x="938.5" y="311.6484"/><text fill="#000000" font-family="sans-serif" font-size="14" lengthAdjust="spacing" textLength="53" x="950.5" y="317.9951">bitmap</text><rect fill="none" height="6" style="stroke:#C82930;stroke-width:1.0;" width="6" x="938.5" y="327.9453"/><text fill="#000000" font-family="sans-serif" font-size="14" lengthAdjust="spacing" textLength="39" x="950.5" y="334.292">index</text><rect fill="none" height="6" style="stroke:#C82930;stroke-width:1.0;" width="6" x="938.5" y="344.2422"/><text fill="#000000" font-family="sans-serif" font-size="14" lengthAdjust="spacing" textLength="40" x="950.5" y="350.5889">glyph</text><line style="stroke:#181818;stroke-width:0.5;" x1="931.5" x2="1078.5" y1="357.8906" y2="357.8906"/><ellipse cx="941.5" cy="371.5391" fill="#84BE84" rx="3" ry="3" style="stroke:#038048;stroke-width:1.0;"/><text fill="#000000" font-family="sans-serif" font-size="14" lengthAdjust="spacing" textLength="87" x="950.5" y="374.8857">int get_bit()</text><ellipse cx="941.5" cy="387.8359" fill="#84BE84" rx="3" ry="3" style="stroke:#038048;stroke-width:1.0;"/><text fill="#000000" font-family="sans-serif" font-size="14" lengthAdjust="spacing" textLength="99" x="950.5" y="391.1826">int get_next()</text><ellipse cx="941.5" cy="404.1328" fill="#84BE84" rx="3" ry="3" style="stroke:#038048;stroke-width:1.0;"/><text fill="#000000" font-family="sans-serif" font-size="14" lengthAdjust="spacing" textLength="123" x="950.5" y="407.4795">int set_position()</text></g><!--class Font08--><g id="elem_Font08"><rect codeLine="25" fill="#F1F1F1" height="145.7813" id="Font08" rx="2.5" ry="2.5" style="stroke:#181818;stroke-width:0.5;" width="149" x="724.5" y="269"/><ellipse cx="769.75" cy="285" fill="#ADD1B2" rx="11" ry="11" style="stroke:#181818;stroke-width:1.0;"/><path d="M772.0938,280.6719 C771.1563,280.2344 770.5625,280.0938 769.6875,280.0938 C767.0625,280.0938 765.0625,282.1719 765.0625,284.8906 L765.0625,286.0156 C765.0625,288.5938 767.1719,290.4844 770.0625,290.4844 C771.2813,290.4844 772.4375,290.1875 773.1875,289.6406 C773.7656,289.2344 774.0938,288.7813 774.0938,288.3906 C774.0938,287.9375 773.7031,287.5469 773.2344,287.5469 C773.0156,287.5469 772.8125,287.625 772.625,287.8125 C772.1719,288.2969 772.1719,288.2969 771.9844,288.3906 C771.5625,288.6563 770.875,288.7813 770.1094,288.7813 C768.0625,288.7813 766.7656,287.6875 766.7656,285.9844 L766.7656,284.8906 C766.7656,283.1094 768.0156,281.7969 769.75,281.7969 C770.3281,281.7969 770.9375,281.9531 771.4063,282.2031 C771.8906,282.4844 772.0625,282.7031 772.1563,283.1094 C772.2188,283.5156 772.25,283.6406 772.3906,283.7656 C772.5313,283.9063 772.7656,284.0156 772.9844,284.0156 C773.25,284.0156 773.5156,283.875 773.6875,283.6563 C773.7969,283.5 773.8281,283.3125 773.8281,282.8906 L773.8281,281.4688 C773.8281,281.0313 773.8125,280.9063 773.7188,280.75 C773.5625,280.4844 773.2813,280.3438 772.9844,280.3438 C772.6875,280.3438 772.4844,280.4375 772.2656,280.75 L772.0938,280.6719 Z " fill="#000000"/><text fill="#000000" font-family="sans-serif" font-size="14" lengthAdjust="spacing" textLength="50" x="790.25" y="289.8467">Font08</text><line style="stroke:#181818;stroke-width:0.5;" x1="725.5" x2="872.5" y1="301" y2="301"/><rect fill="none" height="6" style="stroke:#C82930;stroke-width:1.0;" width="6" x="732.5" y="311.6484"/><text fill="#000000" font-family="sans-serif" font-size="14" lengthAdjust="spacing" textLength="53" x="744.5" y="317.9951">bitmap</text><rect fill="none" height="6" style="stroke:#C82930;stroke-width:1.0;" width="6" x="732.5" y="327.9453"/><text fill="#000000" font-family="sans-serif" font-size="14" lengthAdjust="spacing" textLength="39" x="744.5" y="334.292">index</text><rect fill="none" height="6" style="stroke:#C82930;stroke-width:1.0;" width="6" x="732.5" y="344.2422"/><text fill="#000000" font-family="sans-serif" font-size="14" lengthAdjust="spacing" textLength="40" x="744.5" y="350.5889">glyph</text><line style="stroke:#181818;stroke-width:0.5;" x1="725.5" x2="872.5" y1="357.8906" y2="357.8906"/><ellipse cx="735.5" cy="371.5391" fill="#84BE84" rx="3" ry="3" style="stroke:#038048;stroke-width:1.0;"/><text fill="#000000" font-family="sans-serif" font-size="14" lengthAdjust="spacing" textLength="87" x="744.5" y="374.8857">int get_bit()</text><ellipse cx="735.5" cy="387.8359" fill="#84BE84" rx="3" ry="3" style="stroke:#038048;stroke-width:1.0;"/><text fill="#000000" font-family="sans-serif" font-size="14" lengthAdjust="spacing" textLength="99" x="744.5" y="391.1826">int get_next()</text><ellipse cx="735.5" cy="404.1328" fill="#84BE84" rx="3" ry="3" style="stroke:#038048;stroke-width:1.0;"/><text fill="#000000" font-family="sans-serif" font-size="14" lengthAdjust="spacing" textLength="123" x="744.5" y="407.4795">int set_position()</text></g><!--class Org01--><g id="elem_Org01"><rect codeLine="35" fill="#F1F1F1" height="145.7813" id="Org01" rx="2.5" ry="2.5" style="stroke:#181818;stroke-width:0.5;" width="149" x="518.5" y="269"/><ellipse cx="566.75" cy="285" fill="#ADD1B2" rx="11" ry="11" style="stroke:#181818;stroke-width:1.0;"/><path d="M569.0938,280.6719 C568.1563,280.2344 567.5625,280.0938 566.6875,280.0938 C564.0625,280.0938 562.0625,282.1719 562.0625,284.8906 L562.0625,286.0156 C562.0625,288.5938 564.1719,290.4844 567.0625,290.4844 C568.2813,290.4844 569.4375,290.1875 570.1875,289.6406 C570.7656,289.2344 571.0938,288.7813 571.0938,288.3906 C571.0938,287.9375 570.7031,287.5469 570.2344,287.5469 C570.0156,287.5469 569.8125,287.625 569.625,287.8125 C569.1719,288.2969 569.1719,288.2969 568.9844,288.3906 C568.5625,288.6563 567.875,288.7813 567.1094,288.7813 C565.0625,288.7813 563.7656,287.6875 563.7656,285.9844 L563.7656,284.8906 C563.7656,283.1094 565.0156,281.7969 566.75,281.7969 C567.3281,281.7969 567.9375,281.9531 568.4063,282.2031 C568.8906,282.4844 569.0625,282.7031 569.1563,283.1094 C569.2188,283.5156 569.25,283.6406 569.3906,283.7656 C569.5313,283.9063 569.7656,284.0156 569.9844,284.0156 C570.25,284.0156 570.5156,283.875 570.6875,283.6563 C570.7969,283.5 570.8281,283.3125 570.8281,282.8906 L570.8281,281.4688 C570.8281,281.0313 570.8125,280.9063 570.7188,280.75 C570.5625,280.4844 570.2813,280.3438 569.9844,280.3438 C569.6875,280.3438 569.4844,280.4375 569.2656,280.75 L569.0938,280.6719 Z " fill="#000000"/><text fill="#000000" font-family="sans-serif" font-size="14" lengthAdjust="spacing" textLength="44" x="587.25" y="289.8467">Org01</text><line style="stroke:#181818;stroke-width:0.5;" x1="519.5" x2="666.5" y1="301" y2="301"/><rect fill="none" height="6" style="stroke:#C82930;stroke-width:1.0;" width="6" x="526.5" y="311.6484"/><text fill="#000000" font-family="sans-serif" font-size="14" lengthAdjust="spacing" textLength="53" x="538.5" y="317.9951">bitmap</text><rect fill="none" height="6" style="stroke:#C82930;stroke-width:1.0;" width="6" x="526.5" y="327.9453"/><text fill="#000000" font-family="sans-serif" font-size="14" lengthAdjust="spacing" textLength="39" x="538.5" y="334.292">index</text><rect fill="none" height="6" style="stroke:#C82930;stroke-width:1.0;" width="6" x="526.5" y="344.2422"/><text fill="#000000" font-family="sans-serif" font-size="14" lengthAdjust="spacing" textLength="40" x="538.5" y="350.5889">glyph</text><line style="stroke:#181818;stroke-width:0.5;" x1="519.5" x2="666.5" y1="357.8906" y2="357.8906"/><ellipse cx="529.5" cy="371.5391" fill="#84BE84" rx="3" ry="3" style="stroke:#038048;stroke-width:1.0;"/><text fill="#000000" font-family="sans-serif" font-size="14" lengthAdjust="spacing" textLength="87" x="538.5" y="374.8857">int get_bit()</text><ellipse cx="529.5" cy="387.8359" fill="#84BE84" rx="3" ry="3" style="stroke:#038048;stroke-width:1.0;"/><text fill="#000000" font-family="sans-serif" font-size="14" lengthAdjust="spacing" textLength="99" x="538.5" y="391.1826">int get_next()</text><ellipse cx="529.5" cy="404.1328" fill="#84BE84" rx="3" ry="3" style="stroke:#038048;stroke-width:1.0;"/><text fill="#000000" font-family="sans-serif" font-size="14" lengthAdjust="spacing" textLength="123" x="538.5" y="407.4795">int set_position()</text></g><!--class Pen--><g id="elem_Pen"><rect codeLine="46" fill="#F1F1F1" height="96.8906" id="Pen" rx="2.5" ry="2.5" style="stroke:#181818;stroke-width:0.5;" width="155" x="224.5" y="657"/><ellipse cx="284.25" cy="673" fill="#ADD1B2" rx="11" ry="11" style="stroke:#181818;stroke-width:1.0;"/><path d="M286.5938,668.6719 C285.6563,668.2344 285.0625,668.0938 284.1875,668.0938 C281.5625,668.0938 279.5625,670.1719 279.5625,672.8906 L279.5625,674.0156 C279.5625,676.5938 281.6719,678.4844 284.5625,678.4844 C285.7813,678.4844 286.9375,678.1875 287.6875,677.6406 C288.2656,677.2344 288.5938,676.7813 288.5938,676.3906 C288.5938,675.9375 288.2031,675.5469 287.7344,675.5469 C287.5156,675.5469 287.3125,675.625 287.125,675.8125 C286.6719,676.2969 286.6719,676.2969 286.4844,676.3906 C286.0625,676.6563 285.375,676.7813 284.6094,676.7813 C282.5625,676.7813 281.2656,675.6875 281.2656,673.9844 L281.2656,672.8906 C281.2656,671.1094 282.5156,669.7969 284.25,669.7969 C284.8281,669.7969 285.4375,669.9531 285.9063,670.2031 C286.3906,670.4844 286.5625,670.7031 286.6563,671.1094 C286.7188,671.5156 286.75,671.6406 286.8906,671.7656 C287.0313,671.9063 287.2656,672.0156 287.4844,672.0156 C287.75,672.0156 288.0156,671.875 288.1875,671.6563 C288.2969,671.5 288.3281,671.3125 288.3281,670.8906 L288.3281,669.4688 C288.3281,669.0313 288.3125,668.9063 288.2188,668.75 C288.0625,668.4844 287.7813,668.3438 287.4844,668.3438 C287.1875,668.3438 286.9844,668.4375 286.7656,668.75 L286.5938,668.6719 Z " fill="#000000"/><text fill="#000000" font-family="sans-serif" font-size="14" lengthAdjust="spacing" textLength="27" x="304.75" y="677.8467">Pen</text><line style="stroke:#181818;stroke-width:0.5;" x1="225.5" x2="378.5" y1="689" y2="689"/><ellipse cx="235.5" cy="702.6484" fill="none" rx="3" ry="3" style="stroke:#038048;stroke-width:1.0;"/><text fill="#000000" font-family="sans-serif" font-size="14" lengthAdjust="spacing" textLength="129" x="244.5" y="705.9951">bg_colour : Colour</text><ellipse cx="235.5" cy="718.9453" fill="none" rx="3" ry="3" style="stroke:#038048;stroke-width:1.0;"/><text fill="#000000" font-family="sans-serif" font-size="14" lengthAdjust="spacing" textLength="125" x="244.5" y="722.292">fg_colour : Colour</text><ellipse cx="235.5" cy="735.2422" fill="none" rx="3" ry="3" style="stroke:#038048;stroke-width:1.0;"/><text fill="#000000" font-family="sans-serif" font-size="14" lengthAdjust="spacing" textLength="102" x="244.5" y="738.5889">thickness : int</text><line style="stroke:#181818;stroke-width:0.5;" x1="225.5" x2="378.5" y1="745.8906" y2="745.8906"/></g><!--class Pixel--><g id="elem_Pixel"><rect codeLine="51" fill="#F1F1F1" height="145.7813" id="Pixel" rx="2.5" ry="2.5" style="stroke:#181818;stroke-width:0.5;" width="124" x="70" y="885"/><ellipse cx="111.1" cy="901" fill="#ADD1B2" rx="11" ry="11" style="stroke:#181818;stroke-width:1.0;"/><path d="M113.4438,896.6719 C112.5063,896.2344 111.9125,896.0938 111.0375,896.0938 C108.4125,896.0938 106.4125,898.1719 106.4125,900.8906 L106.4125,902.0156 C106.4125,904.5938 108.5219,906.4844 111.4125,906.4844 C112.6313,906.4844 113.7875,906.1875 114.5375,905.6406 C115.1156,905.2344 115.4438,904.7813 115.4438,904.3906 C115.4438,903.9375 115.0531,903.5469 114.5844,903.5469 C114.3656,903.5469 114.1625,903.625 113.975,903.8125 C113.5219,904.2969 113.5219,904.2969 113.3344,904.3906 C112.9125,904.6563 112.225,904.7813 111.4594,904.7813 C109.4125,904.7813 108.1156,903.6875 108.1156,901.9844 L108.1156,900.8906 C108.1156,899.1094 109.3656,897.7969 111.1,897.7969 C111.6781,897.7969 112.2875,897.9531 112.7563,898.2031 C113.2406,898.4844 113.4125,898.7031 113.5063,899.1094 C113.5688,899.5156 113.6,899.6406 113.7406,899.7656 C113.8813,899.9063 114.1156,900.0156 114.3344,900.0156 C114.6,900.0156 114.8656,899.875 115.0375,899.6563 C115.1469,899.5 115.1781,899.3125 115.1781,898.8906 L115.1781,897.4688 C115.1781,897.0313 115.1625,896.9063 115.0688,896.75 C114.9125,896.4844 114.6313,896.3438 114.3344,896.3438 C114.0375,896.3438 113.8344,896.4375 113.6156,896.75 L113.4438,896.6719 Z " fill="#000000"/><text fill="#000000" font-family="sans-serif" font-size="14" lengthAdjust="spacing" textLength="34" x="130.9" y="905.8467">Pixel</text><line style="stroke:#181818;stroke-width:0.5;" x1="71" x2="193" y1="917" y2="917"/><ellipse cx="81" cy="930.6484" fill="none" rx="3" ry="3" style="stroke:#038048;stroke-width:1.0;"/><text fill="#000000" font-family="sans-serif" font-size="14" lengthAdjust="spacing" textLength="41" x="90" y="933.9951">x : int</text><ellipse cx="81" cy="946.9453" fill="none" rx="3" ry="3" style="stroke:#038048;stroke-width:1.0;"/><text fill="#000000" font-family="sans-serif" font-size="14" lengthAdjust="spacing" textLength="41" x="90" y="950.292">y : int</text><ellipse cx="81" cy="963.2422" fill="none" rx="3" ry="3" style="stroke:#038048;stroke-width:1.0;"/><text fill="#000000" font-family="sans-serif" font-size="14" lengthAdjust="spacing" textLength="74" x="90" y="966.5889">x_y : tuple</text><line style="stroke:#181818;stroke-width:0.5;" x1="71" x2="193" y1="973.8906" y2="973.8906"/><ellipse cx="81" cy="987.5391" fill="#84BE84" rx="3" ry="3" style="stroke:#038048;stroke-width:1.0;"/><text fill="#000000" font-family="sans-serif" font-size="14" lengthAdjust="spacing" textLength="73" x="90" y="990.8857">move_to()</text><ellipse cx="81" cy="1003.8359" fill="#84BE84" rx="3" ry="3" style="stroke:#038048;stroke-width:1.0;"/><text fill="#000000" font-family="sans-serif" font-size="14" lengthAdjust="spacing" textLength="54" x="90" y="1007.1826">offset()</text><ellipse cx="81" cy="1020.1328" fill="#84BE84" rx="3" ry="3" style="stroke:#038048;stroke-width:1.0;"/><text fill="#000000" font-family="sans-serif" font-size="14" lengthAdjust="spacing" textLength="98" x="90" y="1023.4795">offset_polar()</text></g><!--class BoundPixel--><g id="elem_BoundPixel"><rect codeLine="59" fill="#F1F1F1" height="113.1875" id="BoundPixel" rx="2.5" ry="2.5" style="stroke:#181818;stroke-width:0.5;" width="111" x="70.5" y="648.5"/><ellipse cx="85.5" cy="664.5" fill="#ADD1B2" rx="11" ry="11" style="stroke:#181818;stroke-width:1.0;"/><path d="M87.8438,660.1719 C86.9063,659.7344 86.3125,659.5938 85.4375,659.5938 C82.8125,659.5938 80.8125,661.6719 80.8125,664.3906 L80.8125,665.5156 C80.8125,668.0938 82.9219,669.9844 85.8125,669.9844 C87.0313,669.9844 88.1875,669.6875 88.9375,669.1406 C89.5156,668.7344 89.8438,668.2813 89.8438,667.8906 C89.8438,667.4375 89.4531,667.0469 88.9844,667.0469 C88.7656,667.0469 88.5625,667.125 88.375,667.3125 C87.9219,667.7969 87.9219,667.7969 87.7344,667.8906 C87.3125,668.1563 86.625,668.2813 85.8594,668.2813 C83.8125,668.2813 82.5156,667.1875 82.5156,665.4844 L82.5156,664.3906 C82.5156,662.6094 83.7656,661.2969 85.5,661.2969 C86.0781,661.2969 86.6875,661.4531 87.1563,661.7031 C87.6406,661.9844 87.8125,662.2031 87.9063,662.6094 C87.9688,663.0156 88,663.1406 88.1406,663.2656 C88.2813,663.4063 88.5156,663.5156 88.7344,663.5156 C89,663.5156 89.2656,663.375 89.4375,663.1563 C89.5469,663 89.5781,662.8125 89.5781,662.3906 L89.5781,660.9688 C89.5781,660.5313 89.5625,660.4063 89.4688,660.25 C89.3125,659.9844 89.0313,659.8438 88.7344,659.8438 C88.4375,659.8438 88.2344,659.9375 88.0156,660.25 L87.8438,660.1719 Z " fill="#000000"/><text fill="#000000" font-family="sans-serif" font-size="14" lengthAdjust="spacing" textLength="79" x="99.5" y="669.3467">BoundPixel</text><line style="stroke:#181818;stroke-width:0.5;" x1="71.5" x2="180.5" y1="680.5" y2="680.5"/><ellipse cx="81.5" cy="694.1484" fill="none" rx="3" ry="3" style="stroke:#038048;stroke-width:1.0;"/><text fill="#000000" font-family="sans-serif" font-size="14" lengthAdjust="spacing" textLength="75" x="90.5" y="697.4951">min_x : int</text><ellipse cx="81.5" cy="710.4453" fill="none" rx="3" ry="3" style="stroke:#038048;stroke-width:1.0;"/><text fill="#000000" font-family="sans-serif" font-size="14" lengthAdjust="spacing" textLength="75" x="90.5" y="713.792">min_y : int</text><ellipse cx="81.5" cy="726.7422" fill="none" rx="3" ry="3" style="stroke:#038048;stroke-width:1.0;"/><text fill="#000000" font-family="sans-serif" font-size="14" lengthAdjust="spacing" textLength="78" x="90.5" y="730.0889">max_x : int</text><ellipse cx="81.5" cy="743.0391" fill="none" rx="3" ry="3" style="stroke:#038048;stroke-width:1.0;"/><text fill="#000000" font-family="sans-serif" font-size="14" lengthAdjust="spacing" textLength="78" x="90.5" y="746.3857">max_y : int</text><line style="stroke:#181818;stroke-width:0.5;" x1="71.5" x2="180.5" y1="753.6875" y2="753.6875"/></g><!--class Colour--><g id="elem_Colour"><rect codeLine="67" fill="#F1F1F1" height="162.0781" id="Colour" rx="2.5" ry="2.5" style="stroke:#181818;stroke-width:0.5;" width="231" x="444.5" y="877"/><ellipse cx="532.75" cy="893" fill="#ADD1B2" rx="11" ry="11" style="stroke:#181818;stroke-width:1.0;"/><path d="M535.0938,888.6719 C534.1563,888.2344 533.5625,888.0938 532.6875,888.0938 C530.0625,888.0938 528.0625,890.1719 528.0625,892.8906 L528.0625,894.0156 C528.0625,896.5938 530.1719,898.4844 533.0625,898.4844 C534.2813,898.4844 535.4375,898.1875 536.1875,897.6406 C536.7656,897.2344 537.0938,896.7813 537.0938,896.3906 C537.0938,895.9375 536.7031,895.5469 536.2344,895.5469 C536.0156,895.5469 535.8125,895.625 535.625,895.8125 C535.1719,896.2969 535.1719,896.2969 534.9844,896.3906 C534.5625,896.6563 533.875,896.7813 533.1094,896.7813 C531.0625,896.7813 529.7656,895.6875 529.7656,893.9844 L529.7656,892.8906 C529.7656,891.1094 531.0156,889.7969 532.75,889.7969 C533.3281,889.7969 533.9375,889.9531 534.4063,890.2031 C534.8906,890.4844 535.0625,890.7031 535.1563,891.1094 C535.2188,891.5156 535.25,891.6406 535.3906,891.7656 C535.5313,891.9063 535.7656,892.0156 535.9844,892.0156 C536.25,892.0156 536.5156,891.875 536.6875,891.6563 C536.7969,891.5 536.8281,891.3125 536.8281,890.8906 L536.8281,889.4688 C536.8281,889.0313 536.8125,888.9063 536.7188,888.75 C536.5625,888.4844 536.2813,888.3438 535.9844,888.3438 C535.6875,888.3438 535.4844,888.4375 535.2656,888.75 L535.0938,888.6719 Z " fill="#000000"/><text fill="#000000" font-family="sans-serif" font-size="14" lengthAdjust="spacing" textLength="46" x="553.25" y="897.8467">Colour</text><line style="stroke:#181818;stroke-width:0.5;" x1="445.5" x2="674.5" y1="909" y2="909"/><ellipse cx="455.5" cy="922.6484" fill="none" rx="3" ry="3" style="stroke:#038048;stroke-width:1.0;"/><text fill="#000000" font-family="sans-serif" font-size="14" lengthAdjust="spacing" textLength="57" x="464.5" y="925.9951">red : int</text><ellipse cx="455.5" cy="938.9453" fill="none" rx="3" ry="3" style="stroke:#038048;stroke-width:1.0;"/><text fill="#000000" font-family="sans-serif" font-size="14" lengthAdjust="spacing" textLength="75" x="464.5" y="942.292">green : int</text><ellipse cx="455.5" cy="955.2422" fill="none" rx="3" ry="3" style="stroke:#038048;stroke-width:1.0;"/><text fill="#000000" font-family="sans-serif" font-size="14" lengthAdjust="spacing" textLength="64" x="464.5" y="958.5889">blue : int</text><ellipse cx="455.5" cy="971.5391" fill="none" rx="3" ry="3" style="stroke:#038048;stroke-width:1.0;"/><text fill="#000000" font-family="sans-serif" font-size="14" lengthAdjust="spacing" textLength="107" x="464.5" y="974.8857">as_rgb565 : int</text><ellipse cx="455.5" cy="987.8359" fill="none" rx="3" ry="3" style="stroke:#038048;stroke-width:1.0;"/><text fill="#000000" font-family="sans-serif" font-size="14" lengthAdjust="spacing" textLength="104" x="464.5" y="991.1826">as_rgb888 : int</text><ellipse cx="455.5" cy="1004.1328" fill="none" rx="3" ry="3" style="stroke:#038048;stroke-width:1.0;"/><text fill="#000000" font-family="sans-serif" font-size="14" lengthAdjust="spacing" textLength="205" x="464.5" y="1007.4795">DEVICE_BIT_ORDER bitorder</text><line style="stroke:#181818;stroke-width:0.5;" x1="445.5" x2="674.5" y1="1014.7813" y2="1014.7813"/><ellipse cx="455.5" cy="1028.4297" fill="#84BE84" rx="3" ry="3" style="stroke:#038048;stroke-width:1.0;"/><text fill="#000000" font-family="sans-serif" font-size="14" lengthAdjust="spacing" text-decoration="underline" textLength="104" x="464.5" y="1031.7764">from_rgb565()</text></g><!--class Canvas--><g id="elem_Canvas"><rect codeLine="78" fill="#F1F1F1" height="422.8281" id="Canvas" rx="2.5" ry="2.5" style="stroke:#181818;stroke-width:0.5;" width="162" x="244" y="131"/><ellipse cx="294.75" cy="147" fill="#A9DCDF" rx="11" ry="11" style="stroke:#181818;stroke-width:1.0;"/><path d="M296.8281,148.8125 L297.2188,149.7969 L296.8281,149.7969 C296.375,149.7969 296.2656,149.8125 296.1094,149.9219 C295.8594,150.0781 295.7031,150.3594 295.7031,150.6563 C295.7031,150.9219 295.8438,151.1719 296.0625,151.3281 C296.2031,151.4531 296.4063,151.5 296.8281,151.5 L299.1875,151.5 C299.5469,151.5 299.7656,151.4688 299.9063,151.375 C300.1563,151.2344 300.3125,150.9375 300.3125,150.6563 C300.3125,150.375 300.1719,150.125 299.9531,149.9688 C299.7813,149.8281 299.625,149.7969 299.1563,149.7969 L295.7656,141.5938 L292.0938,141.5938 C291.6406,141.5938 291.5156,141.6094 291.3594,141.7031 C291.1094,141.875 290.9531,142.1563 290.9531,142.4375 C290.9531,142.7188 291.0938,142.9688 291.3125,143.1406 C291.4844,143.25 291.6563,143.2813 292.0938,143.2813 L293.1719,143.2813 L290.5313,149.7969 C290.1094,149.7969 289.9531,149.8125 289.7969,149.9219 C289.5469,150.0781 289.3906,150.3594 289.3906,150.6563 C289.3906,151.2188 289.7656,151.5 290.5156,151.5 L292.7813,151.5 C293.1406,151.5 293.3594,151.4688 293.4844,151.375 C293.75,151.2344 293.8906,150.9375 293.8906,150.6563 C293.8906,150.375 293.7656,150.125 293.5469,149.9531 C293.375,149.8281 293.2344,149.7969 292.7813,149.7969 L292.3906,149.7969 L292.7813,148.8125 L296.8281,148.8125 Z M296.125,147.1094 L293.4531,147.1094 L294.7969,143.8438 L296.125,147.1094 Z " fill="#000000"/><text fill="#000000" font-family="sans-serif" font-size="14" font-style="italic" lengthAdjust="spacing" textLength="52" x="315.25" y="151.8467">Canvas</text><line style="stroke:#181818;stroke-width:0.5;" x1="245" x2="405" y1="163" y2="163"/><ellipse cx="255" cy="176.6484" fill="none" rx="3" ry="3" style="stroke:#038048;stroke-width:1.0;"/><text fill="#000000" font-family="sans-serif" font-size="14" lengthAdjust="spacing" textLength="129" x="264" y="179.9951">bg_colour : Colour</text><ellipse cx="255" cy="192.9453" fill="none" rx="3" ry="3" style="stroke:#038048;stroke-width:1.0;"/><text fill="#000000" font-family="sans-serif" font-size="14" lengthAdjust="spacing" textLength="136" x="264" y="196.292">cursor : BoundPixel</text><ellipse cx="255" cy="209.2422" fill="none" rx="3" ry="3" style="stroke:#038048;stroke-width:1.0;"/><text fill="#000000" font-family="sans-serif" font-size="14" lengthAdjust="spacing" textLength="125" x="264" y="212.5889">fg_colour : Colour</text><ellipse cx="255" cy="225.5391" fill="none" rx="3" ry="3" style="stroke:#038048;stroke-width:1.0;"/><text fill="#000000" font-family="sans-serif" font-size="14" lengthAdjust="spacing" textLength="133" x="264" y="228.8857">origin : BoundPixel</text><ellipse cx="255" cy="241.8359" fill="none" rx="3" ry="3" style="stroke:#038048;stroke-width:1.0;"/><text fill="#000000" font-family="sans-serif" font-size="14" lengthAdjust="spacing" textLength="68" x="264" y="245.1826">pen : Pen</text><ellipse cx="255" cy="258.1328" fill="none" rx="3" ry="3" style="stroke:#038048;stroke-width:1.0;"/><text fill="#000000" font-family="sans-serif" font-size="14" lengthAdjust="spacing" textLength="80" x="264" y="261.4795">height : int</text><ellipse cx="255" cy="274.4297" fill="none" rx="3" ry="3" style="stroke:#038048;stroke-width:1.0;"/><text fill="#000000" font-family="sans-serif" font-size="14" lengthAdjust="spacing" textLength="73" x="264" y="277.7764">width : int</text><ellipse cx="255" cy="290.7266" fill="none" rx="3" ry="3" style="stroke:#038048;stroke-width:1.0;"/><text fill="#000000" font-family="sans-serif" font-size="14" lengthAdjust="spacing" textLength="41" x="264" y="294.0732">x : int</text><ellipse cx="255" cy="307.0234" fill="none" rx="3" ry="3" style="stroke:#038048;stroke-width:1.0;"/><text fill="#000000" font-family="sans-serif" font-size="14" lengthAdjust="spacing" textLength="41" x="264" y="310.3701">y : int</text><ellipse cx="255" cy="323.3203" fill="none" rx="3" ry="3" style="stroke:#038048;stroke-width:1.0;"/><text fill="#000000" font-family="sans-serif" font-size="14" lengthAdjust="spacing" textLength="56" x="264" y="326.667">x_y : int</text><ellipse cx="255" cy="339.6172" fill="none" rx="3" ry="3" style="stroke:#038048;stroke-width:1.0;"/><text fill="#000000" font-family="sans-serif" font-size="14" lengthAdjust="spacing" textLength="111" x="264" y="342.9639">font : BaseFont</text><line style="stroke:#181818;stroke-width:0.5;" x1="245" x2="405" y1="350.2656" y2="350.2656"/><ellipse cx="255" cy="363.9141" fill="#84BE84" rx="3" ry="3" style="stroke:#038048;stroke-width:1.0;"/><text fill="#000000" font-family="sans-serif" font-size="14" font-style="italic" lengthAdjust="spacing" textLength="78" x="264" y="367.2607">draw_line()</text><ellipse cx="255" cy="380.2109" fill="#84BE84" rx="3" ry="3" style="stroke:#038048;stroke-width:1.0;"/><text fill="#000000" font-family="sans-serif" font-size="14" font-style="italic" lengthAdjust="spacing" textLength="120" x="264" y="383.5576">draw_rectangle()</text><ellipse cx="255" cy="396.5078" fill="#84BE84" rx="3" ry="3" style="stroke:#038048;stroke-width:1.0;"/><text fill="#000000" font-family="sans-serif" font-size="14" lengthAdjust="spacing" textLength="67" x="264" y="399.8545">draw_to()</text><ellipse cx="255" cy="412.8047" fill="#84BE84" rx="3" ry="3" style="stroke:#038048;stroke-width:1.0;"/><text fill="#000000" font-family="sans-serif" font-size="14" lengthAdjust="spacing" textLength="83" x="264" y="416.1514">fill_screen()</text><ellipse cx="255" cy="429.1016" fill="#84BE84" rx="3" ry="3" style="stroke:#038048;stroke-width:1.0;"/><text fill="#000000" font-family="sans-serif" font-size="14" lengthAdjust="spacing" textLength="66" x="264" y="432.4482">moveto()</text><ellipse cx="255" cy="445.3984" fill="#84BE84" rx="3" ry="3" style="stroke:#038048;stroke-width:1.0;"/><text fill="#000000" font-family="sans-serif" font-size="14" lengthAdjust="spacing" textLength="121" x="264" y="448.7451">move_origin_to()</text><ellipse cx="255" cy="461.6953" fill="#84BE84" rx="3" ry="3" style="stroke:#038048;stroke-width:1.0;"/><text fill="#000000" font-family="sans-serif" font-size="14" font-style="italic" lengthAdjust="spacing" textLength="84" x="264" y="465.042">read_pixel()</text><ellipse cx="255" cy="477.9922" fill="#84BE84" rx="3" ry="3" style="stroke:#038048;stroke-width:1.0;"/><text fill="#000000" font-family="sans-serif" font-size="14" lengthAdjust="spacing" textLength="131" x="264" y="481.3389">select_bg_colour()</text><ellipse cx="255" cy="494.2891" fill="#84BE84" rx="3" ry="3" style="stroke:#038048;stroke-width:1.0;"/><text fill="#000000" font-family="sans-serif" font-size="14" lengthAdjust="spacing" textLength="127" x="264" y="497.6357">select_fg_colour()</text><ellipse cx="255" cy="510.5859" fill="#84BE84" rx="3" ry="3" style="stroke:#038048;stroke-width:1.0;"/><text fill="#000000" font-family="sans-serif" font-size="14" lengthAdjust="spacing" textLength="85" x="264" y="513.9326">write_char()</text><ellipse cx="255" cy="526.8828" fill="#84BE84" rx="3" ry="3" style="stroke:#038048;stroke-width:1.0;"/><text fill="#000000" font-family="sans-serif" font-size="14" font-style="italic" lengthAdjust="spacing" textLength="86" x="264" y="530.2295">write_pixel()</text><ellipse cx="255" cy="543.1797" fill="#84BE84" rx="3" ry="3" style="stroke:#038048;stroke-width:1.0;"/><text fill="#000000" font-family="sans-serif" font-size="14" lengthAdjust="spacing" textLength="85" x="264" y="546.5264">write_text()</text></g><!--reverse link Font06 to BaseFont--><g id="link_Font06_BaseFont"><path codeLine="107" d="M974.892,433.968 C955.915,481.572 927.786,538.6 890,581 C855.905,619.258 807.159,650.099 767.06,671.33 " fill="none" id="Font06-backto-BaseFont" style="stroke:#181818;stroke-width:1.0;"/><polygon fill="none" points="968.385,431.388,982.092,415.229,981.453,436.409,968.385,431.388" style="stroke:#181818;stroke-width:1.0;"/></g><!--reverse link Font08 to BaseFont--><g id="link_Font08_BaseFont"><path codeLine="108" d="M772.814,434.776 C755.354,495.973 732.726,575.281 716.56,631.939 " fill="none" id="Font08-backto-BaseFont" style="stroke:#181818;stroke-width:1.0;"/><polygon fill="none" points="766.185,432.498,778.404,415.186,779.648,436.339,766.185,432.498" style="stroke:#181818;stroke-width:1.0;"/></g><!--reverse link Org01 to BaseFont--><g id="link_Org01_BaseFont"><path codeLine="109" d="M619.186,434.776 C636.646,495.973 659.274,575.281 675.44,631.939 " fill="none" id="Org01-backto-BaseFont" style="stroke:#181818;stroke-width:1.0;"/><polygon fill="none" points="612.352,436.339,613.596,415.186,625.815,432.498,612.352,436.339" style="stroke:#181818;stroke-width:1.0;"/></g><!--reverse link Pen to Colour--><g id="link_Pen_Colour"><path codeLine="111" d="M386.077,701.219 C435.299,705.72 385.808,778.475 415,826 C426.187,844.212 440.649,861.394 456.097,876.95 " fill="none" id="Pen-backto-Colour" style="stroke:#181818;stroke-width:1.0;"/><polygon fill="#181818" points="381,701,389.819,705.3846,385.9953,701.2158,390.1642,697.3921,381,701" style="stroke:#181818;stroke-width:1.0;"/></g><!--reverse link Pen to Colour--><g id="link_Pen_Colour"><path codeLine="112" d="M386.008,717.242 C428.734,721.63 388.61,784.758 415,826 C426.611,844.146 441.383,861.35 457.034,876.963 " fill="none" id="Pen-backto-Colour-1" style="stroke:#181818;stroke-width:1.0;"/><polygon fill="#181818" points="381,717,389.7964,721.4299,385.9942,717.2414,390.1826,713.4392,381,717" style="stroke:#181818;stroke-width:1.0;"/></g><!--reverse link BoundPixel to Pixel--><g id="link_BoundPixel_Pixel"><path codeLine="114" d="M127.811,781.77 C128.592,814.443 129.502,852.482 130.273,884.753 " fill="none" id="BoundPixel-backto-Pixel" style="stroke:#181818;stroke-width:1.0;"/><polygon fill="none" points="120.812,781.867,127.332,761.705,134.808,781.532,120.812,781.867" style="stroke:#181818;stroke-width:1.0;"/></g><!--reverse link Canvas to Colour--><g id="link_Canvas_Colour"><path codeLine="116" d="M412.38,175.248 C548.143,188.047 398.996,693.002 452,826 C459.093,843.798 469.547,861.003 481.197,876.769 " fill="none" id="Canvas-backto-Colour" style="stroke:#181818;stroke-width:1.0;"/><polygon fill="#181818" points="407,175,415.8065,179.4098,411.9947,175.23,416.1745,171.4183,407,175" style="stroke:#181818;stroke-width:1.0;"/></g><!--reverse link Canvas to Colour--><g id="link_Canvas_Colour"><path codeLine="117" d="M411.6,209.578 C447.42,247.406 519.208,691.571 547.821,876.737 " fill="none" id="Canvas-backto-Colour-1" style="stroke:#181818;stroke-width:1.0;"/><polygon fill="#181818" points="407,207,412.8955,214.8894,411.3617,209.4445,416.8067,207.9106,407,207" style="stroke:#181818;stroke-width:1.0;"/></g><!--reverse link Canvas to BoundPixel--><g id="link_Canvas_BoundPixel"><path codeLine="118" d="M237.883,191.083 C57.7654,196.998 93.03,516.399 115.289,648.123 " fill="none" id="Canvas-backto-BoundPixel" style="stroke:#181818;stroke-width:1.0;"/><polygon fill="#181818" points="243,191,233.936,187.1471,238.0007,191.0814,234.0663,195.1461,243,191" style="stroke:#181818;stroke-width:1.0;"/></g><!--reverse link Canvas to BoundPixel--><g id="link_Canvas_BoundPixel"><path codeLine="119" d="M237.977,223.085 C70.1434,228.818 97.036,522.976 116.176,648.353 " fill="none" id="Canvas-backto-BoundPixel-1" style="stroke:#181818;stroke-width:1.0;"/><polygon fill="#181818" points="243,223,233.9338,219.1523,238.0007,223.0843,234.0687,227.1512,243,223" style="stroke:#181818;stroke-width:1.0;"/></g><!--reverse link Canvas to Pen--><g id="link_Canvas_Pen"><path codeLine="120" d="M237.791,240.1 C81.0195,246.249 212.514,533.061 274.264,652.571 " fill="none" id="Canvas-backto-Pen" style="stroke:#181818;stroke-width:1.0;"/><polygon fill="#181818" points="243,240,233.924,236.1756,238.0009,240.0972,234.0794,244.1741,243,240" style="stroke:#181818;stroke-width:1.0;"/></g><!--reverse link Canvas to BaseFont--><g id="link_Canvas_BaseFont"><path codeLine="121" d="M412.301,337.112 C520.437,341.801 429.213,492.541 502,581 C534.814,620.879 584.073,651.887 624.742,672.793 " fill="none" id="Canvas-backto-BaseFont" style="stroke:#181818;stroke-width:1.0;"/><polygon fill="#181818" points="407,337,415.9134,341.1894,411.9989,337.1057,416.0826,333.1912,407,337" style="stroke:#181818;stroke-width:1.0;"/></g><!--SRC=[vLVBRkCW5DtdArZEAAgLBbfPKTH5qbRgggDgD5k4RMoZ8M01QLrryky3naaJ7awiYMPJhnBEvN1zBlTXXjPODYZ7W6ORHQW47nEW7xPVhmHgQfBlW6Emv4mT8iTeXYI6nWGi5YyuLuXL5D_TEVRcGPbK0kKAv1H92PPwuwFPvrkQvmfaHArH4m49At0RmIhwtjH1x6FdmnPCYJwwmWhgOxvzFzkQuVPSSwdD6ow98fm5jcmdyN_7uizkJsfh9NsqnlzHq3DKF4Uw2-kLZj4h_SfoSL71sVMPSZsBQdRzjTJQEeMonhJ1GaO5iqBzmCmHSGgo2kQSyeq0Sx3gVZW6vIa3fIlqRuOr_rmBgY8UznwG5bFFXpQmSmhUWwijDEjgqr1yZApvAuQAEo9EULbgZSEhMdcAX8EvBY_vXXLXlzU4mR3l1WdxlqPjR0zgWtkiGsx4RKnEHTm6p7DSu2BeGYMmlY8X9ACR70IGXABARcvl1j0qJKFe_SElfzK3N3xzXCylzmyl9bUvAF3n1VkG2YcIw-PL2hxk3pk8MKGUn5vHN1sdvw-izUZSo7K4k44_BydOxE62L8GDKJHTI7JkEkir9bMjWhA_aKBLuVGPdMh-UZTLpVU3qYGsR1G2lK5A67OopBCHknYvQTgXVawNX58eStDPNSXK0Nz3LnkiqZxTeJi2em8s9WWkXSHKUmdtLoA2bp7yJH25OLvxzURmU6iKFDz2ocydMoyJjfD9Fr0dkm4wwORbn4vjIJ-FBVvSNO68vNvyJlPX7k9CBMTw8KxR_fEkiO-bz3dxvfZe59hFFtDw4QBjoshIv-emLpcAAqvsq6B2Bxi_jIiFFf6jTeajO__yZWvRUL6slcGkXbxpe1IUeklBvwNeJAqTv39b-AHWtLVdc4lx5m00]--></g></svg>