<?xml version="1.0" encoding="windows-1252" standalone="no"?>
<svg xmlns="http://www.w3.org/2000/svg" xmlns:xlink="http://www.w3.org/1999/xlink" contentStyleType="text/css" height="1414px" preserveAspectRatio="none" style="width:1597px;height:1414px;background:#FFFFFF;" version="1.1" viewBox="0 0 1597 1414" width="1597px" zoomAndPan="magnify"><defs/><g><!--cluster lbutils--><g id="cluster_lbutils"><path d="M8.5,6 L61.5,6 A3.75,3.75 0 0 1 64,8.5 L71,28.2969 L1587.5,28.2969 A2.5,2.5 0 0 1 1590,30.7969 L1590,1404.5 A2.5,2.5 0 0 1 1587.5,1407 L8.5,1407 A2.5,2.5 0 0 1 6,1404.5 L6,8.5 A2.5,2.5 0 0 1 8.5,6 " fill="none" style="stroke:#000000;stroke-width:1.5;"/><line style="stroke:#000000;stroke-width:1.5;" x1="6" x2="71" y1="28.2969" y2="28.2969"/><text fill="#000000" font-family="sans-serif" font-size="14" font-weight="bold" lengthAdjust="spacing" textLength="52" x="10" y="20.9951">lbutils</text></g><!--cluster drivers--><g id="cluster_drivers"><path d="M1170.5,89.5 L1227.5,89.5 A3.75,3.75 0 0 1 1230,92 L1237,111.7969 L1563.5,111.7969 A2.5,2.5 0 0 1 1566,114.2969 L1566,724 A2.5,2.5 0 0 1 1563.5,726.5 L1170.5,726.5 A2.5,2.5 0 0 1 1168,724 L1168,92 A2.5,2.5 0 0 1 1170.5,89.5 " fill="none" style="stroke:#000000;stroke-width:1.5;"/><line style="stroke:#000000;stroke-width:1.5;" x1="1168" x2="1237" y1="111.7969" y2="111.7969"/><text fill="#000000" font-family="sans-serif" font-size="14" font-weight="bold" lengthAdjust="spacing" textLength="56" x="1172" y="104.4951">drivers</text></g><!--cluster seven_segment--><g id="cluster_seven_segment"><rect fill="none" height="132" rx="2.5" ry="2.5" style="stroke:#181818;stroke-width:1.0;" width="152" x="1390" y="132.5"/><text fill="#000000" font-family="sans-serif" font-size="14" font-weight="bold" lengthAdjust="spacing" textLength="123" x="1404.5" y="147.4951">seven_segment</text></g><!--cluster seven_segment_hex--><g id="cluster_seven_segment_hex"><rect fill="none" height="132" rx="2.5" ry="2.5" style="stroke:#181818;stroke-width:1.0;" width="174" x="1192" y="132.5"/><text fill="#000000" font-family="sans-serif" font-size="14" font-weight="bold" lengthAdjust="spacing" textLength="158" x="1200" y="147.4951">seven_segment_hex</text></g><!--cluster common--><g id="cluster_common"><rect fill="none" height="132" rx="2.5" ry="2.5" style="stroke:#181818;stroke-width:1.0;" width="168" x="1285" y="570.5"/><text fill="#000000" font-family="sans-serif" font-size="14" font-weight="bold" lengthAdjust="spacing" textLength="69" x="1334.5" y="585.4951">common</text></g><!--cluster graphics--><g id="cluster_graphics"><path d="M32.5,353 L103.5,353 A3.75,3.75 0 0 1 106,355.5 L113,375.2969 L1141.5,375.2969 A2.5,2.5 0 0 1 1144,377.7969 L1144,1380.5 A2.5,2.5 0 0 1 1141.5,1383 L32.5,1383 A2.5,2.5 0 0 1 30,1380.5 L30,355.5 A2.5,2.5 0 0 1 32.5,353 " fill="none" style="stroke:#000000;stroke-width:1.5;"/><line style="stroke:#000000;stroke-width:1.5;" x1="30" x2="113" y1="375.2969" y2="375.2969"/><text fill="#000000" font-family="sans-serif" font-size="14" font-weight="bold" lengthAdjust="spacing" textLength="70" x="34" y="367.9951">graphics</text></g><!--cluster fonts--><g id="cluster_fonts"><path d="M480.5,495 L525.5,495 A3.75,3.75 0 0 1 528,497.5 L535,517.2969 L1117.5,517.2969 A2.5,2.5 0 0 1 1120,519.7969 L1120,1119.5 A2.5,2.5 0 0 1 1117.5,1122 L480.5,1122 A2.5,2.5 0 0 1 478,1119.5 L478,497.5 A2.5,2.5 0 0 1 480.5,495 " fill="none" style="stroke:#000000;stroke-width:1.5;"/><line style="stroke:#000000;stroke-width:1.5;" x1="478" x2="535" y1="517.2969" y2="517.2969"/><text fill="#000000" font-family="sans-serif" font-size="14" font-weight="bold" lengthAdjust="spacing" textLength="44" x="482" y="509.9951">fonts</text></g><!--cluster base_font--><g id="cluster_base_font"><rect fill="none" height="197" rx="2.5" ry="2.5" style="stroke:#181818;stroke-width:1.0;" width="174" x="609" y="901"/><text fill="#000000" font-family="sans-serif" font-size="14" font-weight="bold" lengthAdjust="spacing" textLength="80" x="656" y="915.9951">base_font</text></g><!--cluster font06--><g id="cluster_font06"><rect fill="none" height="197" rx="2.5" ry="2.5" style="stroke:#181818;stroke-width:1.0;" width="182" x="914" y="538"/><text fill="#000000" font-family="sans-serif" font-size="14" font-weight="bold" lengthAdjust="spacing" textLength="55" x="977.5" y="552.9951">font06</text></g><!--cluster font08--><g id="cluster_font08"><rect fill="none" height="197" rx="2.5" ry="2.5" style="stroke:#181818;stroke-width:1.0;" width="182" x="708" y="538"/><text fill="#000000" font-family="sans-serif" font-size="14" font-weight="bold" lengthAdjust="spacing" textLength="55" x="771.5" y="552.9951">font08</text></g><!--cluster org_01--><g id="cluster_org_01"><rect fill="none" height="197" rx="2.5" ry="2.5" style="stroke:#181818;stroke-width:1.0;" width="182" x="502" y="538"/><text fill="#000000" font-family="sans-serif" font-size="14" font-weight="bold" lengthAdjust="spacing" textLength="54" x="566" y="552.9951">org_01</text></g><!--cluster helpers--><g id="cluster_helpers"><rect fill="none" height="433.5" rx="2.5" ry="2.5" style="stroke:#181818;stroke-width:1.0;" width="350" x="54" y="917.5"/><text fill="#000000" font-family="sans-serif" font-size="14" font-weight="bold" lengthAdjust="spacing" textLength="59" x="199.5" y="932.4951">helpers</text></g><!--cluster colours--><g id="cluster_colours"><rect fill="none" height="213" rx="2.5" ry="2.5" style="stroke:#181818;stroke-width:1.0;" width="264" x="428" y="1146"/><text fill="#000000" font-family="sans-serif" font-size="14" font-weight="bold" lengthAdjust="spacing" textLength="60" x="530" y="1160.9951">colours</text></g><!--cluster canvas--><g id="cluster_canvas"><rect fill="none" height="481" rx="2.5" ry="2.5" style="stroke:#181818;stroke-width:1.0;" width="210" x="220" y="396"/><text fill="#000000" font-family="sans-serif" font-size="14" font-weight="bold" lengthAdjust="spacing" textLength="57" x="296.5" y="410.9951">canvas</text></g><!--cluster pmods--><g id="cluster_pmods"><path d="M163.5,49 L218.5,49 A3.75,3.75 0 0 1 221,51.5 L228,71.2969 L435.5,71.2969 A2.5,2.5 0 0 1 438,73.7969 L438,326.5 A2.5,2.5 0 0 1 435.5,329 L163.5,329 A2.5,2.5 0 0 1 161,326.5 L161,51.5 A2.5,2.5 0 0 1 163.5,49 " fill="none" style="stroke:#000000;stroke-width:1.5;"/><line style="stroke:#000000;stroke-width:1.5;" x1="161" x2="228" y1="71.2969" y2="71.2969"/><text fill="#000000" font-family="sans-serif" font-size="14" font-weight="bold" lengthAdjust="spacing" textLength="54" x="165" y="63.9951">pmods</text></g><!--cluster spi--><g id="cluster_spi"><path d="M238.5,92 L263.5,92 A3.75,3.75 0 0 1 266,94.5 L273,114.2969 L411.5,114.2969 A2.5,2.5 0 0 1 414,116.7969 L414,302.5 A2.5,2.5 0 0 1 411.5,305 L238.5,305 A2.5,2.5 0 0 1 236,302.5 L236,94.5 A2.5,2.5 0 0 1 238.5,92 " fill="none" style="stroke:#000000;stroke-width:1.5;"/><line style="stroke:#000000;stroke-width:1.5;" x1="236" x2="273" y1="114.2969" y2="114.2969"/><text fill="#000000" font-family="sans-serif" font-size="14" font-weight="bold" lengthAdjust="spacing" textLength="24" x="240" y="106.9951">spi</text></g><!--class SegDisplay--><g id="elem_SegDisplay"><rect codeLine="4" fill="#F1F1F1" height="80.5938" id="SegDisplay" rx="2.5" ry="2.5" style="stroke:#181818;stroke-width:0.5;" width="119" x="1406.5" y="167.5"/><ellipse cx="1425.1" cy="183.5" fill="#ADD1B2" rx="11" ry="11" style="stroke:#181818;stroke-width:1.0;"/><path d="M1427.4438,179.1719 C1426.5063,178.7344 1425.9125,178.5938 1425.0375,178.5938 C1422.4125,178.5938 1420.4125,180.6719 1420.4125,183.3906 L1420.4125,184.5156 C1420.4125,187.0938 1422.5219,188.9844 1425.4125,188.9844 C1426.6313,188.9844 1427.7875,188.6875 1428.5375,188.1406 C1429.1156,187.7344 1429.4438,187.2813 1429.4438,186.8906 C1429.4438,186.4375 1429.0531,186.0469 1428.5844,186.0469 C1428.3656,186.0469 1428.1625,186.125 1427.975,186.3125 C1427.5219,186.7969 1427.5219,186.7969 1427.3344,186.8906 C1426.9125,187.1563 1426.225,187.2813 1425.4594,187.2813 C1423.4125,187.2813 1422.1156,186.1875 1422.1156,184.4844 L1422.1156,183.3906 C1422.1156,181.6094 1423.3656,180.2969 1425.1,180.2969 C1425.6781,180.2969 1426.2875,180.4531 1426.7563,180.7031 C1427.2406,180.9844 1427.4125,181.2031 1427.5063,181.6094 C1427.5688,182.0156 1427.6,182.1406 1427.7406,182.2656 C1427.8813,182.4063 1428.1156,182.5156 1428.3344,182.5156 C1428.6,182.5156 1428.8656,182.375 1429.0375,182.1563 C1429.1469,182 1429.1781,181.8125 1429.1781,181.3906 L1429.1781,179.9688 C1429.1781,179.5313 1429.1625,179.4063 1429.0688,179.25 C1428.9125,178.9844 1428.6313,178.8438 1428.3344,178.8438 C1428.0375,178.8438 1427.8344,178.9375 1427.6156,179.25 L1427.4438,179.1719 Z " fill="#000000"/><text fill="#000000" font-family="sans-serif" font-size="14" lengthAdjust="spacing" textLength="79" x="1439.9" y="188.3467">SegDisplay</text><line style="stroke:#181818;stroke-width:0.5;" x1="1407.5" x2="1524.5" y1="199.5" y2="199.5"/><rect fill="none" height="6" style="stroke:#C82930;stroke-width:1.0;" width="6" x="1414.5" y="210.1484"/><text fill="#000000" font-family="sans-serif" font-size="14" lengthAdjust="spacing" textLength="93" x="1426.5" y="216.4951">list _char_list</text><line style="stroke:#181818;stroke-width:0.5;" x1="1407.5" x2="1524.5" y1="223.7969" y2="223.7969"/><ellipse cx="1417.5" cy="237.4453" fill="#84BE84" rx="3" ry="3" style="stroke:#038048;stroke-width:1.0;"/><text fill="#000000" font-family="sans-serif" font-size="14" lengthAdjust="spacing" textLength="60" x="1426.5" y="240.792">display()</text></g><!--class SegHexDisplay--><g id="elem_SegHexDisplay"><rect codeLine="10" fill="#F1F1F1" height="80.5938" id="SegHexDisplay" rx="2.5" ry="2.5" style="stroke:#181818;stroke-width:0.5;" width="138" x="1212" y="167.5"/><ellipse cx="1227" cy="183.5" fill="#ADD1B2" rx="11" ry="11" style="stroke:#181818;stroke-width:1.0;"/><path d="M1229.3438,179.1719 C1228.4063,178.7344 1227.8125,178.5938 1226.9375,178.5938 C1224.3125,178.5938 1222.3125,180.6719 1222.3125,183.3906 L1222.3125,184.5156 C1222.3125,187.0938 1224.4219,188.9844 1227.3125,188.9844 C1228.5313,188.9844 1229.6875,188.6875 1230.4375,188.1406 C1231.0156,187.7344 1231.3438,187.2813 1231.3438,186.8906 C1231.3438,186.4375 1230.9531,186.0469 1230.4844,186.0469 C1230.2656,186.0469 1230.0625,186.125 1229.875,186.3125 C1229.4219,186.7969 1229.4219,186.7969 1229.2344,186.8906 C1228.8125,187.1563 1228.125,187.2813 1227.3594,187.2813 C1225.3125,187.2813 1224.0156,186.1875 1224.0156,184.4844 L1224.0156,183.3906 C1224.0156,181.6094 1225.2656,180.2969 1227,180.2969 C1227.5781,180.2969 1228.1875,180.4531 1228.6563,180.7031 C1229.1406,180.9844 1229.3125,181.2031 1229.4063,181.6094 C1229.4688,182.0156 1229.5,182.1406 1229.6406,182.2656 C1229.7813,182.4063 1230.0156,182.5156 1230.2344,182.5156 C1230.5,182.5156 1230.7656,182.375 1230.9375,182.1563 C1231.0469,182 1231.0781,181.8125 1231.0781,181.3906 L1231.0781,179.9688 C1231.0781,179.5313 1231.0625,179.4063 1230.9688,179.25 C1230.8125,178.9844 1230.5313,178.8438 1230.2344,178.8438 C1229.9375,178.8438 1229.7344,178.9375 1229.5156,179.25 L1229.3438,179.1719 Z " fill="#000000"/><text fill="#000000" font-family="sans-serif" font-size="14" lengthAdjust="spacing" textLength="106" x="1241" y="188.3467">SegHexDisplay</text><line style="stroke:#181818;stroke-width:0.5;" x1="1213" x2="1349" y1="199.5" y2="199.5"/><rect fill="none" height="6" style="stroke:#C82930;stroke-width:1.0;" width="6" x="1220" y="210.1484"/><text fill="#000000" font-family="sans-serif" font-size="14" lengthAdjust="spacing" textLength="93" x="1232" y="216.4951">list _char_list</text><line style="stroke:#181818;stroke-width:0.5;" x1="1213" x2="1349" y1="223.7969" y2="223.7969"/><ellipse cx="1223" cy="237.4453" fill="#84BE84" rx="3" ry="3" style="stroke:#038048;stroke-width:1.0;"/><text fill="#000000" font-family="sans-serif" font-size="14" lengthAdjust="spacing" textLength="60" x="1232" y="240.792">display()</text></g><!--class PIN_ON_SENSE--><g id="elem_PIN_ON_SENSE"><rect codeLine="16" fill="#F1F1F1" height="80.5938" id="PIN_ON_SENSE" rx="2.5" ry="2.5" style="stroke:#181818;stroke-width:0.5;" width="136" x="1301" y="605.5"/><ellipse cx="1316" cy="621.5" fill="#EB937F" rx="11" ry="11" style="stroke:#181818;stroke-width:1.0;"/><path d="M1314.7969,622.375 L1316.25,622.375 L1316.25,622.4844 C1316.25,622.8906 1316.2813,623.0469 1316.3594,623.2031 C1316.5156,623.4531 1316.7969,623.6094 1317.0938,623.6094 C1317.3438,623.6094 1317.6094,623.4688 1317.7656,623.25 C1317.8906,623.0938 1317.9219,622.9375 1317.9219,622.4844 L1317.9219,620.5625 C1317.9219,620.4063 1317.9219,620.3594 1317.9063,620.2031 C1317.8438,619.7344 1317.5313,619.4219 1317.0781,619.4219 C1316.8281,619.4219 1316.5625,619.5625 1316.3906,619.7813 C1316.2813,619.9531 1316.25,620.1094 1316.25,620.5625 L1316.25,620.6875 L1314.7969,620.6875 L1314.7969,618.2813 L1318.7813,618.2813 L1318.7813,619.1406 C1318.7813,619.5469 1318.8125,619.7188 1318.8906,619.875 C1319.0625,620.125 1319.3438,620.2813 1319.625,620.2813 C1319.8906,620.2813 1320.1563,620.1406 1320.3281,619.9219 C1320.4375,619.75 1320.4688,619.6094 1320.4688,619.1406 L1320.4688,616.5938 L1312.8438,616.5938 C1312.4063,616.5938 1312.2813,616.6094 1312.125,616.7031 C1311.875,616.8594 1311.7188,617.1563 1311.7188,617.4375 C1311.7188,617.7188 1311.8594,617.9688 1312.0781,618.1406 C1312.2344,618.25 1312.4219,618.2813 1312.8438,618.2813 L1313.0938,618.2813 L1313.0938,624.7969 L1312.8438,624.7969 C1312.4375,624.7969 1312.2813,624.8125 1312.125,624.9219 C1311.875,625.0938 1311.7188,625.3594 1311.7188,625.6563 C1311.7188,625.9219 1311.8594,626.1719 1312.0781,626.3281 C1312.2188,626.4531 1312.4531,626.5 1312.8438,626.5 L1320.8438,626.5 L1320.8438,623.9219 C1320.8438,623.4844 1320.8125,623.3438 1320.7344,623.1875 C1320.5625,622.9375 1320.2813,622.7813 1320,622.7813 C1319.7344,622.7813 1319.4688,622.8906 1319.2969,623.1406 C1319.1875,623.2969 1319.1563,623.4375 1319.1563,623.9219 L1319.1563,624.7969 L1314.7969,624.7969 L1314.7969,622.375 Z " fill="#000000"/><text fill="#000000" font-family="sans-serif" font-size="14" lengthAdjust="spacing" textLength="104" x="1330" y="626.3467">PIN_ON_SENSE</text><line style="stroke:#181818;stroke-width:0.5;" x1="1302" x2="1436" y1="637.5" y2="637.5"/><ellipse cx="1312" cy="651.1484" fill="none" rx="3" ry="3" style="stroke:#038048;stroke-width:1.0;"/><text fill="#000000" font-family="sans-serif" font-size="14" lengthAdjust="spacing" textLength="35" x="1321" y="654.4951">HIGH</text><ellipse cx="1312" cy="667.4453" fill="none" rx="3" ry="3" style="stroke:#038048;stroke-width:1.0;"/><text fill="#000000" font-family="sans-serif" font-size="14" lengthAdjust="spacing" textLength="33" x="1321" y="670.792">LOW</text><line style="stroke:#181818;stroke-width:0.5;" x1="1302" x2="1436" y1="678.0938" y2="678.0938"/></g><!--class BaseFont--><g id="elem_BaseFont"><rect codeLine="25" fill="#F1F1F1" height="145.7813" id="BaseFont" rx="2.5" ry="2.5" style="stroke:#181818;stroke-width:0.5;" width="142" x="625" y="936"/><ellipse cx="659.8" cy="952" fill="#A9DCDF" rx="11" ry="11" style="stroke:#181818;stroke-width:1.0;"/><path d="M661.8781,953.8125 L662.2688,954.7969 L661.8781,954.7969 C661.425,954.7969 661.3156,954.8125 661.1594,954.9219 C660.9094,955.0781 660.7531,955.3594 660.7531,955.6563 C660.7531,955.9219 660.8938,956.1719 661.1125,956.3281 C661.2531,956.4531 661.4563,956.5 661.8781,956.5 L664.2375,956.5 C664.5969,956.5 664.8156,956.4688 664.9563,956.375 C665.2063,956.2344 665.3625,955.9375 665.3625,955.6563 C665.3625,955.375 665.2219,955.125 665.0031,954.9688 C664.8313,954.8281 664.675,954.7969 664.2063,954.7969 L660.8156,946.5938 L657.1438,946.5938 C656.6906,946.5938 656.5656,946.6094 656.4094,946.7031 C656.1594,946.875 656.0031,947.1563 656.0031,947.4375 C656.0031,947.7188 656.1438,947.9688 656.3625,948.1406 C656.5344,948.25 656.7063,948.2813 657.1438,948.2813 L658.2219,948.2813 L655.5813,954.7969 C655.1594,954.7969 655.0031,954.8125 654.8469,954.9219 C654.5969,955.0781 654.4406,955.3594 654.4406,955.6563 C654.4406,956.2188 654.8156,956.5 655.5656,956.5 L657.8313,956.5 C658.1906,956.5 658.4094,956.4688 658.5344,956.375 C658.8,956.2344 658.9406,955.9375 658.9406,955.6563 C658.9406,955.375 658.8156,955.125 658.5969,954.9531 C658.425,954.8281 658.2844,954.7969 657.8313,954.7969 L657.4406,954.7969 L657.8313,953.8125 L661.8781,953.8125 Z M661.175,952.1094 L658.5031,952.1094 L659.8469,948.8438 L661.175,952.1094 Z " fill="#000000"/><text fill="#000000" font-family="sans-serif" font-size="14" font-style="italic" lengthAdjust="spacing" textLength="66" x="678.2" y="956.8467">BaseFont</text><line style="stroke:#181818;stroke-width:0.5;" x1="626" x2="766" y1="968" y2="968"/><rect fill="none" height="6" style="stroke:#C82930;stroke-width:1.0;" width="6" x="633" y="978.6484"/><text fill="#000000" font-family="sans-serif" font-size="14" lengthAdjust="spacing" textLength="53" x="645" y="984.9951">bitmap</text><rect fill="none" height="6" style="stroke:#C82930;stroke-width:1.0;" width="6" x="633" y="994.9453"/><text fill="#000000" font-family="sans-serif" font-size="14" lengthAdjust="spacing" textLength="39" x="645" y="1001.292">index</text><rect fill="none" height="6" style="stroke:#C82930;stroke-width:1.0;" width="6" x="633" y="1011.2422"/><text fill="#000000" font-family="sans-serif" font-size="14" lengthAdjust="spacing" textLength="40" x="645" y="1017.5889">glyph</text><line style="stroke:#181818;stroke-width:0.5;" x1="626" x2="766" y1="1024.8906" y2="1024.8906"/><ellipse cx="636" cy="1038.5391" fill="#84BE84" rx="3" ry="3" style="stroke:#038048;stroke-width:1.0;"/><text fill="#000000" font-family="sans-serif" font-size="14" font-style="italic" lengthAdjust="spacing" textLength="80" x="645" y="1041.8857">int get_bit()</text><ellipse cx="636" cy="1054.8359" fill="#84BE84" rx="3" ry="3" style="stroke:#038048;stroke-width:1.0;"/><text fill="#000000" font-family="sans-serif" font-size="14" font-style="italic" lengthAdjust="spacing" textLength="93" x="645" y="1058.1826">int get_next()</text><ellipse cx="636" cy="1071.1328" fill="#84BE84" rx="3" ry="3" style="stroke:#038048;stroke-width:1.0;"/><text fill="#000000" font-family="sans-serif" font-size="14" font-style="italic" lengthAdjust="spacing" textLength="116" x="645" y="1074.4795">int set_position()</text></g><!--class Font06--><g id="elem_Font06"><rect codeLine="35" fill="#F1F1F1" height="145.7813" id="Font06" rx="2.5" ry="2.5" style="stroke:#181818;stroke-width:0.5;" width="149" x="930.5" y="573"/><ellipse cx="975.25" cy="589" fill="#ADD1B2" rx="11" ry="11" style="stroke:#181818;stroke-width:1.0;"/><path d="M977.5938,584.6719 C976.6563,584.2344 976.0625,584.0938 975.1875,584.0938 C972.5625,584.0938 970.5625,586.1719 970.5625,588.8906 L970.5625,590.0156 C970.5625,592.5938 972.6719,594.4844 975.5625,594.4844 C976.7813,594.4844 977.9375,594.1875 978.6875,593.6406 C979.2656,593.2344 979.5938,592.7813 979.5938,592.3906 C979.5938,591.9375 979.2031,591.5469 978.7344,591.5469 C978.5156,591.5469 978.3125,591.625 978.125,591.8125 C977.6719,592.2969 977.6719,592.2969 977.4844,592.3906 C977.0625,592.6563 976.375,592.7813 975.6094,592.7813 C973.5625,592.7813 972.2656,591.6875 972.2656,589.9844 L972.2656,588.8906 C972.2656,587.1094 973.5156,585.7969 975.25,585.7969 C975.8281,585.7969 976.4375,585.9531 976.9063,586.2031 C977.3906,586.4844 977.5625,586.7031 977.6563,587.1094 C977.7188,587.5156 977.75,587.6406 977.8906,587.7656 C978.0313,587.9063 978.2656,588.0156 978.4844,588.0156 C978.75,588.0156 979.0156,587.875 979.1875,587.6563 C979.2969,587.5 979.3281,587.3125 979.3281,586.8906 L979.3281,585.4688 C979.3281,585.0313 979.3125,584.9063 979.2188,584.75 C979.0625,584.4844 978.7813,584.3438 978.4844,584.3438 C978.1875,584.3438 977.9844,584.4375 977.7656,584.75 L977.5938,584.6719 Z " fill="#000000"/><text fill="#000000" font-family="sans-serif" font-size="14" lengthAdjust="spacing" textLength="51" x="995.75" y="593.8467">Font06</text><line style="stroke:#181818;stroke-width:0.5;" x1="931.5" x2="1078.5" y1="605" y2="605"/><rect fill="none" height="6" style="stroke:#C82930;stroke-width:1.0;" width="6" x="938.5" y="615.6484"/><text fill="#000000" font-family="sans-serif" font-size="14" lengthAdjust="spacing" textLength="53" x="950.5" y="621.9951">bitmap</text><rect fill="none" height="6" style="stroke:#C82930;stroke-width:1.0;" width="6" x="938.5" y="631.9453"/><text fill="#000000" font-family="sans-serif" font-size="14" lengthAdjust="spacing" textLength="39" x="950.5" y="638.292">index</text><rect fill="none" height="6" style="stroke:#C82930;stroke-width:1.0;" width="6" x="938.5" y="648.2422"/><text fill="#000000" font-family="sans-serif" font-size="14" lengthAdjust="spacing" textLength="40" x="950.5" y="654.5889">glyph</text><line style="stroke:#181818;stroke-width:0.5;" x1="931.5" x2="1078.5" y1="661.8906" y2="661.8906"/><ellipse cx="941.5" cy="675.5391" fill="#84BE84" rx="3" ry="3" style="stroke:#038048;stroke-width:1.0;"/><text fill="#000000" font-family="sans-serif" font-size="14" lengthAdjust="spacing" textLength="87" x="950.5" y="678.8857">int get_bit()</text><ellipse cx="941.5" cy="691.8359" fill="#84BE84" rx="3" ry="3" style="stroke:#038048;stroke-width:1.0;"/><text fill="#000000" font-family="sans-serif" font-size="14" lengthAdjust="spacing" textLength="99" x="950.5" y="695.1826">int get_next()</text><ellipse cx="941.5" cy="708.1328" fill="#84BE84" rx="3" ry="3" style="stroke:#038048;stroke-width:1.0;"/><text fill="#000000" font-family="sans-serif" font-size="14" lengthAdjust="spacing" textLength="123" x="950.5" y="711.4795">int set_position()</text></g><!--class Font08--><g id="elem_Font08"><rect codeLine="45" fill="#F1F1F1" height="145.7813" id="Font08" rx="2.5" ry="2.5" style="stroke:#181818;stroke-width:0.5;" width="149" x="724.5" y="573"/><ellipse cx="769.75" cy="589" fill="#ADD1B2" rx="11" ry="11" style="stroke:#181818;stroke-width:1.0;"/><path d="M772.0938,584.6719 C771.1563,584.2344 770.5625,584.0938 769.6875,584.0938 C767.0625,584.0938 765.0625,586.1719 765.0625,588.8906 L765.0625,590.0156 C765.0625,592.5938 767.1719,594.4844 770.0625,594.4844 C771.2813,594.4844 772.4375,594.1875 773.1875,593.6406 C773.7656,593.2344 774.0938,592.7813 774.0938,592.3906 C774.0938,591.9375 773.7031,591.5469 773.2344,591.5469 C773.0156,591.5469 772.8125,591.625 772.625,591.8125 C772.1719,592.2969 772.1719,592.2969 771.9844,592.3906 C771.5625,592.6563 770.875,592.7813 770.1094,592.7813 C768.0625,592.7813 766.7656,591.6875 766.7656,589.9844 L766.7656,588.8906 C766.7656,587.1094 768.0156,585.7969 769.75,585.7969 C770.3281,585.7969 770.9375,585.9531 771.4063,586.2031 C771.8906,586.4844 772.0625,586.7031 772.1563,587.1094 C772.2188,587.5156 772.25,587.6406 772.3906,587.7656 C772.5313,587.9063 772.7656,588.0156 772.9844,588.0156 C773.25,588.0156 773.5156,587.875 773.6875,587.6563 C773.7969,587.5 773.8281,587.3125 773.8281,586.8906 L773.8281,585.4688 C773.8281,585.0313 773.8125,584.9063 773.7188,584.75 C773.5625,584.4844 773.2813,584.3438 772.9844,584.3438 C772.6875,584.3438 772.4844,584.4375 772.2656,584.75 L772.0938,584.6719 Z " fill="#000000"/><text fill="#000000" font-family="sans-serif" font-size="14" lengthAdjust="spacing" textLength="50" x="790.25" y="593.8467">Font08</text><line style="stroke:#181818;stroke-width:0.5;" x1="725.5" x2="872.5" y1="605" y2="605"/><rect fill="none" height="6" style="stroke:#C82930;stroke-width:1.0;" width="6" x="732.5" y="615.6484"/><text fill="#000000" font-family="sans-serif" font-size="14" lengthAdjust="spacing" textLength="53" x="744.5" y="621.9951">bitmap</text><rect fill="none" height="6" style="stroke:#C82930;stroke-width:1.0;" width="6" x="732.5" y="631.9453"/><text fill="#000000" font-family="sans-serif" font-size="14" lengthAdjust="spacing" textLength="39" x="744.5" y="638.292">index</text><rect fill="none" height="6" style="stroke:#C82930;stroke-width:1.0;" width="6" x="732.5" y="648.2422"/><text fill="#000000" font-family="sans-serif" font-size="14" lengthAdjust="spacing" textLength="40" x="744.5" y="654.5889">glyph</text><line style="stroke:#181818;stroke-width:0.5;" x1="725.5" x2="872.5" y1="661.8906" y2="661.8906"/><ellipse cx="735.5" cy="675.5391" fill="#84BE84" rx="3" ry="3" style="stroke:#038048;stroke-width:1.0;"/><text fill="#000000" font-family="sans-serif" font-size="14" lengthAdjust="spacing" textLength="87" x="744.5" y="678.8857">int get_bit()</text><ellipse cx="735.5" cy="691.8359" fill="#84BE84" rx="3" ry="3" style="stroke:#038048;stroke-width:1.0;"/><text fill="#000000" font-family="sans-serif" font-size="14" lengthAdjust="spacing" textLength="99" x="744.5" y="695.1826">int get_next()</text><ellipse cx="735.5" cy="708.1328" fill="#84BE84" rx="3" ry="3" style="stroke:#038048;stroke-width:1.0;"/><text fill="#000000" font-family="sans-serif" font-size="14" lengthAdjust="spacing" textLength="123" x="744.5" y="711.4795">int set_position()</text></g><!--class Org01--><g id="elem_Org01"><rect codeLine="55" fill="#F1F1F1" height="145.7813" id="Org01" rx="2.5" ry="2.5" style="stroke:#181818;stroke-width:0.5;" width="149" x="518.5" y="573"/><ellipse cx="566.75" cy="589" fill="#ADD1B2" rx="11" ry="11" style="stroke:#181818;stroke-width:1.0;"/><path d="M569.0938,584.6719 C568.1563,584.2344 567.5625,584.0938 566.6875,584.0938 C564.0625,584.0938 562.0625,586.1719 562.0625,588.8906 L562.0625,590.0156 C562.0625,592.5938 564.1719,594.4844 567.0625,594.4844 C568.2813,594.4844 569.4375,594.1875 570.1875,593.6406 C570.7656,593.2344 571.0938,592.7813 571.0938,592.3906 C571.0938,591.9375 570.7031,591.5469 570.2344,591.5469 C570.0156,591.5469 569.8125,591.625 569.625,591.8125 C569.1719,592.2969 569.1719,592.2969 568.9844,592.3906 C568.5625,592.6563 567.875,592.7813 567.1094,592.7813 C565.0625,592.7813 563.7656,591.6875 563.7656,589.9844 L563.7656,588.8906 C563.7656,587.1094 565.0156,585.7969 566.75,585.7969 C567.3281,585.7969 567.9375,585.9531 568.4063,586.2031 C568.8906,586.4844 569.0625,586.7031 569.1563,587.1094 C569.2188,587.5156 569.25,587.6406 569.3906,587.7656 C569.5313,587.9063 569.7656,588.0156 569.9844,588.0156 C570.25,588.0156 570.5156,587.875 570.6875,587.6563 C570.7969,587.5 570.8281,587.3125 570.8281,586.8906 L570.8281,585.4688 C570.8281,585.0313 570.8125,584.9063 570.7188,584.75 C570.5625,584.4844 570.2813,584.3438 569.9844,584.3438 C569.6875,584.3438 569.4844,584.4375 569.2656,584.75 L569.0938,584.6719 Z " fill="#000000"/><text fill="#000000" font-family="sans-serif" font-size="14" lengthAdjust="spacing" textLength="44" x="587.25" y="593.8467">Org01</text><line style="stroke:#181818;stroke-width:0.5;" x1="519.5" x2="666.5" y1="605" y2="605"/><rect fill="none" height="6" style="stroke:#C82930;stroke-width:1.0;" width="6" x="526.5" y="615.6484"/><text fill="#000000" font-family="sans-serif" font-size="14" lengthAdjust="spacing" textLength="53" x="538.5" y="621.9951">bitmap</text><rect fill="none" height="6" style="stroke:#C82930;stroke-width:1.0;" width="6" x="526.5" y="631.9453"/><text fill="#000000" font-family="sans-serif" font-size="14" lengthAdjust="spacing" textLength="39" x="538.5" y="638.292">index</text><rect fill="none" height="6" style="stroke:#C82930;stroke-width:1.0;" width="6" x="526.5" y="648.2422"/><text fill="#000000" font-family="sans-serif" font-size="14" lengthAdjust="spacing" textLength="40" x="538.5" y="654.5889">glyph</text><line style="stroke:#181818;stroke-width:0.5;" x1="519.5" x2="666.5" y1="661.8906" y2="661.8906"/><ellipse cx="529.5" cy="675.5391" fill="#84BE84" rx="3" ry="3" style="stroke:#038048;stroke-width:1.0;"/><text fill="#000000" font-family="sans-serif" font-size="14" lengthAdjust="spacing" textLength="87" x="538.5" y="678.8857">int get_bit()</text><ellipse cx="529.5" cy="691.8359" fill="#84BE84" rx="3" ry="3" style="stroke:#038048;stroke-width:1.0;"/><text fill="#000000" font-family="sans-serif" font-size="14" lengthAdjust="spacing" textLength="99" x="538.5" y="695.1826">int get_next()</text><ellipse cx="529.5" cy="708.1328" fill="#84BE84" rx="3" ry="3" style="stroke:#038048;stroke-width:1.0;"/><text fill="#000000" font-family="sans-serif" font-size="14" lengthAdjust="spacing" textLength="123" x="538.5" y="711.4795">int set_position()</text></g><!--class Pen--><g id="elem_Pen"><rect codeLine="66" fill="#F1F1F1" height="96.8906" id="Pen" rx="2.5" ry="2.5" style="stroke:#181818;stroke-width:0.5;" width="155" x="224.5" y="961"/><ellipse cx="284.25" cy="977" fill="#ADD1B2" rx="11" ry="11" style="stroke:#181818;stroke-width:1.0;"/><path d="M286.5938,972.6719 C285.6563,972.2344 285.0625,972.0938 284.1875,972.0938 C281.5625,972.0938 279.5625,974.1719 279.5625,976.8906 L279.5625,978.0156 C279.5625,980.5938 281.6719,982.4844 284.5625,982.4844 C285.7813,982.4844 286.9375,982.1875 287.6875,981.6406 C288.2656,981.2344 288.5938,980.7813 288.5938,980.3906 C288.5938,979.9375 288.2031,979.5469 287.7344,979.5469 C287.5156,979.5469 287.3125,979.625 287.125,979.8125 C286.6719,980.2969 286.6719,980.2969 286.4844,980.3906 C286.0625,980.6563 285.375,980.7813 284.6094,980.7813 C282.5625,980.7813 281.2656,979.6875 281.2656,977.9844 L281.2656,976.8906 C281.2656,975.1094 282.5156,973.7969 284.25,973.7969 C284.8281,973.7969 285.4375,973.9531 285.9063,974.2031 C286.3906,974.4844 286.5625,974.7031 286.6563,975.1094 C286.7188,975.5156 286.75,975.6406 286.8906,975.7656 C287.0313,975.9063 287.2656,976.0156 287.4844,976.0156 C287.75,976.0156 288.0156,975.875 288.1875,975.6563 C288.2969,975.5 288.3281,975.3125 288.3281,974.8906 L288.3281,973.4688 C288.3281,973.0313 288.3125,972.9063 288.2188,972.75 C288.0625,972.4844 287.7813,972.3438 287.4844,972.3438 C287.1875,972.3438 286.9844,972.4375 286.7656,972.75 L286.5938,972.6719 Z " fill="#000000"/><text fill="#000000" font-family="sans-serif" font-size="14" lengthAdjust="spacing" textLength="27" x="304.75" y="981.8467">Pen</text><line style="stroke:#181818;stroke-width:0.5;" x1="225.5" x2="378.5" y1="993" y2="993"/><ellipse cx="235.5" cy="1006.6484" fill="none" rx="3" ry="3" style="stroke:#038048;stroke-width:1.0;"/><text fill="#000000" font-family="sans-serif" font-size="14" lengthAdjust="spacing" textLength="129" x="244.5" y="1009.9951">bg_colour : Colour</text><ellipse cx="235.5" cy="1022.9453" fill="none" rx="3" ry="3" style="stroke:#038048;stroke-width:1.0;"/><text fill="#000000" font-family="sans-serif" font-size="14" lengthAdjust="spacing" textLength="125" x="244.5" y="1026.292">fg_colour : Colour</text><ellipse cx="235.5" cy="1039.2422" fill="none" rx="3" ry="3" style="stroke:#038048;stroke-width:1.0;"/><text fill="#000000" font-family="sans-serif" font-size="14" lengthAdjust="spacing" textLength="102" x="244.5" y="1042.5889">thickness : int</text><line style="stroke:#181818;stroke-width:0.5;" x1="225.5" x2="378.5" y1="1049.8906" y2="1049.8906"/></g><!--class Pixel--><g id="elem_Pixel"><rect codeLine="71" fill="#F1F1F1" height="145.7813" id="Pixel" rx="2.5" ry="2.5" style="stroke:#181818;stroke-width:0.5;" width="124" x="70" y="1189"/><ellipse cx="111.1" cy="1205" fill="#ADD1B2" rx="11" ry="11" style="stroke:#181818;stroke-width:1.0;"/><path d="M113.4438,1200.6719 C112.5063,1200.2344 111.9125,1200.0938 111.0375,1200.0938 C108.4125,1200.0938 106.4125,1202.1719 106.4125,1204.8906 L106.4125,1206.0156 C106.4125,1208.5938 108.5219,1210.4844 111.4125,1210.4844 C112.6313,1210.4844 113.7875,1210.1875 114.5375,1209.6406 C115.1156,1209.2344 115.4438,1208.7813 115.4438,1208.3906 C115.4438,1207.9375 115.0531,1207.5469 114.5844,1207.5469 C114.3656,1207.5469 114.1625,1207.625 113.975,1207.8125 C113.5219,1208.2969 113.5219,1208.2969 113.3344,1208.3906 C112.9125,1208.6563 112.225,1208.7813 111.4594,1208.7813 C109.4125,1208.7813 108.1156,1207.6875 108.1156,1205.9844 L108.1156,1204.8906 C108.1156,1203.1094 109.3656,1201.7969 111.1,1201.7969 C111.6781,1201.7969 112.2875,1201.9531 112.7563,1202.2031 C113.2406,1202.4844 113.4125,1202.7031 113.5063,1203.1094 C113.5688,1203.5156 113.6,1203.6406 113.7406,1203.7656 C113.8813,1203.9063 114.1156,1204.0156 114.3344,1204.0156 C114.6,1204.0156 114.8656,1203.875 115.0375,1203.6563 C115.1469,1203.5 115.1781,1203.3125 115.1781,1202.8906 L115.1781,1201.4688 C115.1781,1201.0313 115.1625,1200.9063 115.0688,1200.75 C114.9125,1200.4844 114.6313,1200.3438 114.3344,1200.3438 C114.0375,1200.3438 113.8344,1200.4375 113.6156,1200.75 L113.4438,1200.6719 Z " fill="#000000"/><text fill="#000000" font-family="sans-serif" font-size="14" lengthAdjust="spacing" textLength="34" x="130.9" y="1209.8467">Pixel</text><line style="stroke:#181818;stroke-width:0.5;" x1="71" x2="193" y1="1221" y2="1221"/><ellipse cx="81" cy="1234.6484" fill="none" rx="3" ry="3" style="stroke:#038048;stroke-width:1.0;"/><text fill="#000000" font-family="sans-serif" font-size="14" lengthAdjust="spacing" textLength="41" x="90" y="1237.9951">x : int</text><ellipse cx="81" cy="1250.9453" fill="none" rx="3" ry="3" style="stroke:#038048;stroke-width:1.0;"/><text fill="#000000" font-family="sans-serif" font-size="14" lengthAdjust="spacing" textLength="41" x="90" y="1254.292">y : int</text><ellipse cx="81" cy="1267.2422" fill="none" rx="3" ry="3" style="stroke:#038048;stroke-width:1.0;"/><text fill="#000000" font-family="sans-serif" font-size="14" lengthAdjust="spacing" textLength="74" x="90" y="1270.5889">x_y : tuple</text><line style="stroke:#181818;stroke-width:0.5;" x1="71" x2="193" y1="1277.8906" y2="1277.8906"/><ellipse cx="81" cy="1291.5391" fill="#84BE84" rx="3" ry="3" style="stroke:#038048;stroke-width:1.0;"/><text fill="#000000" font-family="sans-serif" font-size="14" lengthAdjust="spacing" textLength="73" x="90" y="1294.8857">move_to()</text><ellipse cx="81" cy="1307.8359" fill="#84BE84" rx="3" ry="3" style="stroke:#038048;stroke-width:1.0;"/><text fill="#000000" font-family="sans-serif" font-size="14" lengthAdjust="spacing" textLength="54" x="90" y="1311.1826">offset()</text><ellipse cx="81" cy="1324.1328" fill="#84BE84" rx="3" ry="3" style="stroke:#038048;stroke-width:1.0;"/><text fill="#000000" font-family="sans-serif" font-size="14" lengthAdjust="spacing" textLength="98" x="90" y="1327.4795">offset_polar()</text></g><!--class BoundPixel--><g id="elem_BoundPixel"><rect codeLine="79" fill="#F1F1F1" height="113.1875" id="BoundPixel" rx="2.5" ry="2.5" style="stroke:#181818;stroke-width:0.5;" width="111" x="70.5" y="952.5"/><ellipse cx="85.5" cy="968.5" fill="#ADD1B2" rx="11" ry="11" style="stroke:#181818;stroke-width:1.0;"/><path d="M87.8438,964.1719 C86.9063,963.7344 86.3125,963.5938 85.4375,963.5938 C82.8125,963.5938 80.8125,965.6719 80.8125,968.3906 L80.8125,969.5156 C80.8125,972.0938 82.9219,973.9844 85.8125,973.9844 C87.0313,973.9844 88.1875,973.6875 88.9375,973.1406 C89.5156,972.7344 89.8438,972.2813 89.8438,971.8906 C89.8438,971.4375 89.4531,971.0469 88.9844,971.0469 C88.7656,971.0469 88.5625,971.125 88.375,971.3125 C87.9219,971.7969 87.9219,971.7969 87.7344,971.8906 C87.3125,972.1563 86.625,972.2813 85.8594,972.2813 C83.8125,972.2813 82.5156,971.1875 82.5156,969.4844 L82.5156,968.3906 C82.5156,966.6094 83.7656,965.2969 85.5,965.2969 C86.0781,965.2969 86.6875,965.4531 87.1563,965.7031 C87.6406,965.9844 87.8125,966.2031 87.9063,966.6094 C87.9688,967.0156 88,967.1406 88.1406,967.2656 C88.2813,967.4063 88.5156,967.5156 88.7344,967.5156 C89,967.5156 89.2656,967.375 89.4375,967.1563 C89.5469,967 89.5781,966.8125 89.5781,966.3906 L89.5781,964.9688 C89.5781,964.5313 89.5625,964.4063 89.4688,964.25 C89.3125,963.9844 89.0313,963.8438 88.7344,963.8438 C88.4375,963.8438 88.2344,963.9375 88.0156,964.25 L87.8438,964.1719 Z " fill="#000000"/><text fill="#000000" font-family="sans-serif" font-size="14" lengthAdjust="spacing" textLength="79" x="99.5" y="973.3467">BoundPixel</text><line style="stroke:#181818;stroke-width:0.5;" x1="71.5" x2="180.5" y1="984.5" y2="984.5"/><ellipse cx="81.5" cy="998.1484" fill="none" rx="3" ry="3" style="stroke:#038048;stroke-width:1.0;"/><text fill="#000000" font-family="sans-serif" font-size="14" lengthAdjust="spacing" textLength="75" x="90.5" y="1001.4951">min_x : int</text><ellipse cx="81.5" cy="1014.4453" fill="none" rx="3" ry="3" style="stroke:#038048;stroke-width:1.0;"/><text fill="#000000" font-family="sans-serif" font-size="14" lengthAdjust="spacing" textLength="75" x="90.5" y="1017.792">min_y : int</text><ellipse cx="81.5" cy="1030.7422" fill="none" rx="3" ry="3" style="stroke:#038048;stroke-width:1.0;"/><text fill="#000000" font-family="sans-serif" font-size="14" lengthAdjust="spacing" textLength="78" x="90.5" y="1034.0889">max_x : int</text><ellipse cx="81.5" cy="1047.0391" fill="none" rx="3" ry="3" style="stroke:#038048;stroke-width:1.0;"/><text fill="#000000" font-family="sans-serif" font-size="14" lengthAdjust="spacing" textLength="78" x="90.5" y="1050.3857">max_y : int</text><line style="stroke:#181818;stroke-width:0.5;" x1="71.5" x2="180.5" y1="1057.6875" y2="1057.6875"/></g><!--class Colour--><g id="elem_Colour"><rect codeLine="87" fill="#F1F1F1" height="162.0781" id="Colour" rx="2.5" ry="2.5" style="stroke:#181818;stroke-width:0.5;" width="231" x="444.5" y="1181"/><ellipse cx="532.75" cy="1197" fill="#ADD1B2" rx="11" ry="11" style="stroke:#181818;stroke-width:1.0;"/><path d="M535.0938,1192.6719 C534.1563,1192.2344 533.5625,1192.0938 532.6875,1192.0938 C530.0625,1192.0938 528.0625,1194.1719 528.0625,1196.8906 L528.0625,1198.0156 C528.0625,1200.5938 530.1719,1202.4844 533.0625,1202.4844 C534.2813,1202.4844 535.4375,1202.1875 536.1875,1201.6406 C536.7656,1201.2344 537.0938,1200.7813 537.0938,1200.3906 C537.0938,1199.9375 536.7031,1199.5469 536.2344,1199.5469 C536.0156,1199.5469 535.8125,1199.625 535.625,1199.8125 C535.1719,1200.2969 535.1719,1200.2969 534.9844,1200.3906 C534.5625,1200.6563 533.875,1200.7813 533.1094,1200.7813 C531.0625,1200.7813 529.7656,1199.6875 529.7656,1197.9844 L529.7656,1196.8906 C529.7656,1195.1094 531.0156,1193.7969 532.75,1193.7969 C533.3281,1193.7969 533.9375,1193.9531 534.4063,1194.2031 C534.8906,1194.4844 535.0625,1194.7031 535.1563,1195.1094 C535.2188,1195.5156 535.25,1195.6406 535.3906,1195.7656 C535.5313,1195.9063 535.7656,1196.0156 535.9844,1196.0156 C536.25,1196.0156 536.5156,1195.875 536.6875,1195.6563 C536.7969,1195.5 536.8281,1195.3125 536.8281,1194.8906 L536.8281,1193.4688 C536.8281,1193.0313 536.8125,1192.9063 536.7188,1192.75 C536.5625,1192.4844 536.2813,1192.3438 535.9844,1192.3438 C535.6875,1192.3438 535.4844,1192.4375 535.2656,1192.75 L535.0938,1192.6719 Z " fill="#000000"/><text fill="#000000" font-family="sans-serif" font-size="14" lengthAdjust="spacing" textLength="46" x="553.25" y="1201.8467">Colour</text><line style="stroke:#181818;stroke-width:0.5;" x1="445.5" x2="674.5" y1="1213" y2="1213"/><ellipse cx="455.5" cy="1226.6484" fill="none" rx="3" ry="3" style="stroke:#038048;stroke-width:1.0;"/><text fill="#000000" font-family="sans-serif" font-size="14" lengthAdjust="spacing" textLength="57" x="464.5" y="1229.9951">red : int</text><ellipse cx="455.5" cy="1242.9453" fill="none" rx="3" ry="3" style="stroke:#038048;stroke-width:1.0;"/><text fill="#000000" font-family="sans-serif" font-size="14" lengthAdjust="spacing" textLength="75" x="464.5" y="1246.292">green : int</text><ellipse cx="455.5" cy="1259.2422" fill="none" rx="3" ry="3" style="stroke:#038048;stroke-width:1.0;"/><text fill="#000000" font-family="sans-serif" font-size="14" lengthAdjust="spacing" textLength="64" x="464.5" y="1262.5889">blue : int</text><ellipse cx="455.5" cy="1275.5391" fill="none" rx="3" ry="3" style="stroke:#038048;stroke-width:1.0;"/><text fill="#000000" font-family="sans-serif" font-size="14" lengthAdjust="spacing" textLength="107" x="464.5" y="1278.8857">as_rgb565 : int</text><ellipse cx="455.5" cy="1291.8359" fill="none" rx="3" ry="3" style="stroke:#038048;stroke-width:1.0;"/><text fill="#000000" font-family="sans-serif" font-size="14" lengthAdjust="spacing" textLength="104" x="464.5" y="1295.1826">as_rgb888 : int</text><ellipse cx="455.5" cy="1308.1328" fill="none" rx="3" ry="3" style="stroke:#038048;stroke-width:1.0;"/><text fill="#000000" font-family="sans-serif" font-size="14" lengthAdjust="spacing" textLength="205" x="464.5" y="1311.4795">DEVICE_BIT_ORDER bitorder</text><line style="stroke:#181818;stroke-width:0.5;" x1="445.5" x2="674.5" y1="1318.7813" y2="1318.7813"/><ellipse cx="455.5" cy="1332.4297" fill="#84BE84" rx="3" ry="3" style="stroke:#038048;stroke-width:1.0;"/><text fill="#000000" font-family="sans-serif" font-size="14" lengthAdjust="spacing" text-decoration="underline" textLength="104" x="464.5" y="1335.7764">from_rgb565()</text></g><!--class Canvas--><g id="elem_Canvas"><rect codeLine="98" fill="#F1F1F1" height="422.8281" id="Canvas" rx="2.5" ry="2.5" style="stroke:#181818;stroke-width:0.5;" width="162" x="244" y="435"/><ellipse cx="294.75" cy="451" fill="#A9DCDF" rx="11" ry="11" style="stroke:#181818;stroke-width:1.0;"/><path d="M296.8281,452.8125 L297.2188,453.7969 L296.8281,453.7969 C296.375,453.7969 296.2656,453.8125 296.1094,453.9219 C295.8594,454.0781 295.7031,454.3594 295.7031,454.6563 C295.7031,454.9219 295.8438,455.1719 296.0625,455.3281 C296.2031,455.4531 296.4063,455.5 296.8281,455.5 L299.1875,455.5 C299.5469,455.5 299.7656,455.4688 299.9063,455.375 C300.1563,455.2344 300.3125,454.9375 300.3125,454.6563 C300.3125,454.375 300.1719,454.125 299.9531,453.9688 C299.7813,453.8281 299.625,453.7969 299.1563,453.7969 L295.7656,445.5938 L292.0938,445.5938 C291.6406,445.5938 291.5156,445.6094 291.3594,445.7031 C291.1094,445.875 290.9531,446.1563 290.9531,446.4375 C290.9531,446.7188 291.0938,446.9688 291.3125,447.1406 C291.4844,447.25 291.6563,447.2813 292.0938,447.2813 L293.1719,447.2813 L290.5313,453.7969 C290.1094,453.7969 289.9531,453.8125 289.7969,453.9219 C289.5469,454.0781 289.3906,454.3594 289.3906,454.6563 C289.3906,455.2188 289.7656,455.5 290.5156,455.5 L292.7813,455.5 C293.1406,455.5 293.3594,455.4688 293.4844,455.375 C293.75,455.2344 293.8906,454.9375 293.8906,454.6563 C293.8906,454.375 293.7656,454.125 293.5469,453.9531 C293.375,453.8281 293.2344,453.7969 292.7813,453.7969 L292.3906,453.7969 L292.7813,452.8125 L296.8281,452.8125 Z M296.125,451.1094 L293.4531,451.1094 L294.7969,447.8438 L296.125,451.1094 Z " fill="#000000"/><text fill="#000000" font-family="sans-serif" font-size="14" font-style="italic" lengthAdjust="spacing" textLength="52" x="315.25" y="455.8467">Canvas</text><line style="stroke:#181818;stroke-width:0.5;" x1="245" x2="405" y1="467" y2="467"/><ellipse cx="255" cy="480.6484" fill="none" rx="3" ry="3" style="stroke:#038048;stroke-width:1.0;"/><text fill="#000000" font-family="sans-serif" font-size="14" lengthAdjust="spacing" textLength="129" x="264" y="483.9951">bg_colour : Colour</text><ellipse cx="255" cy="496.9453" fill="none" rx="3" ry="3" style="stroke:#038048;stroke-width:1.0;"/><text fill="#000000" font-family="sans-serif" font-size="14" lengthAdjust="spacing" textLength="136" x="264" y="500.292">cursor : BoundPixel</text><ellipse cx="255" cy="513.2422" fill="none" rx="3" ry="3" style="stroke:#038048;stroke-width:1.0;"/><text fill="#000000" font-family="sans-serif" font-size="14" lengthAdjust="spacing" textLength="125" x="264" y="516.5889">fg_colour : Colour</text><ellipse cx="255" cy="529.5391" fill="none" rx="3" ry="3" style="stroke:#038048;stroke-width:1.0;"/><text fill="#000000" font-family="sans-serif" font-size="14" lengthAdjust="spacing" textLength="133" x="264" y="532.8857">origin : BoundPixel</text><ellipse cx="255" cy="545.8359" fill="none" rx="3" ry="3" style="stroke:#038048;stroke-width:1.0;"/><text fill="#000000" font-family="sans-serif" font-size="14" lengthAdjust="spacing" textLength="68" x="264" y="549.1826">pen : Pen</text><ellipse cx="255" cy="562.1328" fill="none" rx="3" ry="3" style="stroke:#038048;stroke-width:1.0;"/><text fill="#000000" font-family="sans-serif" font-size="14" lengthAdjust="spacing" textLength="80" x="264" y="565.4795">height : int</text><ellipse cx="255" cy="578.4297" fill="none" rx="3" ry="3" style="stroke:#038048;stroke-width:1.0;"/><text fill="#000000" font-family="sans-serif" font-size="14" lengthAdjust="spacing" textLength="73" x="264" y="581.7764">width : int</text><ellipse cx="255" cy="594.7266" fill="none" rx="3" ry="3" style="stroke:#038048;stroke-width:1.0;"/><text fill="#000000" font-family="sans-serif" font-size="14" lengthAdjust="spacing" textLength="41" x="264" y="598.0732">x : int</text><ellipse cx="255" cy="611.0234" fill="none" rx="3" ry="3" style="stroke:#038048;stroke-width:1.0;"/><text fill="#000000" font-family="sans-serif" font-size="14" lengthAdjust="spacing" textLength="41" x="264" y="614.3701">y : int</text><ellipse cx="255" cy="627.3203" fill="none" rx="3" ry="3" style="stroke:#038048;stroke-width:1.0;"/><text fill="#000000" font-family="sans-serif" font-size="14" lengthAdjust="spacing" textLength="56" x="264" y="630.667">x_y : int</text><ellipse cx="255" cy="643.6172" fill="none" rx="3" ry="3" style="stroke:#038048;stroke-width:1.0;"/><text fill="#000000" font-family="sans-serif" font-size="14" lengthAdjust="spacing" textLength="111" x="264" y="646.9639">font : BaseFont</text><line style="stroke:#181818;stroke-width:0.5;" x1="245" x2="405" y1="654.2656" y2="654.2656"/><ellipse cx="255" cy="667.9141" fill="#84BE84" rx="3" ry="3" style="stroke:#038048;stroke-width:1.0;"/><text fill="#000000" font-family="sans-serif" font-size="14" font-style="italic" lengthAdjust="spacing" textLength="78" x="264" y="671.2607">draw_line()</text><ellipse cx="255" cy="684.2109" fill="#84BE84" rx="3" ry="3" style="stroke:#038048;stroke-width:1.0;"/><text fill="#000000" font-family="sans-serif" font-size="14" font-style="italic" lengthAdjust="spacing" textLength="120" x="264" y="687.5576">draw_rectangle()</text><ellipse cx="255" cy="700.5078" fill="#84BE84" rx="3" ry="3" style="stroke:#038048;stroke-width:1.0;"/><text fill="#000000" font-family="sans-serif" font-size="14" lengthAdjust="spacing" textLength="67" x="264" y="703.8545">draw_to()</text><ellipse cx="255" cy="716.8047" fill="#84BE84" rx="3" ry="3" style="stroke:#038048;stroke-width:1.0;"/><text fill="#000000" font-family="sans-serif" font-size="14" lengthAdjust="spacing" textLength="83" x="264" y="720.1514">fill_screen()</text><ellipse cx="255" cy="733.1016" fill="#84BE84" rx="3" ry="3" style="stroke:#038048;stroke-width:1.0;"/><text fill="#000000" font-family="sans-serif" font-size="14" lengthAdjust="spacing" textLength="66" x="264" y="736.4482">moveto()</text><ellipse cx="255" cy="749.3984" fill="#84BE84" rx="3" ry="3" style="stroke:#038048;stroke-width:1.0;"/><text fill="#000000" font-family="sans-serif" font-size="14" lengthAdjust="spacing" textLength="121" x="264" y="752.7451">move_origin_to()</text><ellipse cx="255" cy="765.6953" fill="#84BE84" rx="3" ry="3" style="stroke:#038048;stroke-width:1.0;"/><text fill="#000000" font-family="sans-serif" font-size="14" font-style="italic" lengthAdjust="spacing" textLength="84" x="264" y="769.042">read_pixel()</text><ellipse cx="255" cy="781.9922" fill="#84BE84" rx="3" ry="3" style="stroke:#038048;stroke-width:1.0;"/><text fill="#000000" font-family="sans-serif" font-size="14" lengthAdjust="spacing" textLength="131" x="264" y="785.3389">select_bg_colour()</text><ellipse cx="255" cy="798.2891" fill="#84BE84" rx="3" ry="3" style="stroke:#038048;stroke-width:1.0;"/><text fill="#000000" font-family="sans-serif" font-size="14" lengthAdjust="spacing" textLength="127" x="264" y="801.6357">select_fg_colour()</text><ellipse cx="255" cy="814.5859" fill="#84BE84" rx="3" ry="3" style="stroke:#038048;stroke-width:1.0;"/><text fill="#000000" font-family="sans-serif" font-size="14" lengthAdjust="spacing" textLength="85" x="264" y="817.9326">write_char()</text><ellipse cx="255" cy="830.8828" fill="#84BE84" rx="3" ry="3" style="stroke:#038048;stroke-width:1.0;"/><text fill="#000000" font-family="sans-serif" font-size="14" font-style="italic" lengthAdjust="spacing" textLength="86" x="264" y="834.2295">write_pixel()</text><ellipse cx="255" cy="847.1797" fill="#84BE84" rx="3" ry="3" style="stroke:#038048;stroke-width:1.0;"/><text fill="#000000" font-family="sans-serif" font-size="14" lengthAdjust="spacing" textLength="85" x="264" y="850.5264">write_text()</text></g><path d="M47.5,181.5 L102.5,181.5 A3.75,3.75 0 0 1 105,184 L112,203.7969 L116.5,203.7969 A2.5,2.5 0 0 1 119,206.2969 L119,231.5938 A2.5,2.5 0 0 1 116.5,234.0938 L47.5,234.0938 A2.5,2.5 0 0 1 45,231.5938 L45,184 A2.5,2.5 0 0 1 47.5,181.5 " fill="#F1F1F1" style="stroke:#181818;stroke-width:0.5;"/><line style="stroke:#181818;stroke-width:0.5;" x1="45" x2="112" y1="203.7969" y2="203.7969"/><text fill="#000000" font-family="sans-serif" font-size="14" lengthAdjust="spacing" textLength="54" x="49" y="196.4951">helpers</text><path d="M179.5,181.5 L200.5,181.5 A3.75,3.75 0 0 1 203,184 L210,203.7969 L214.5,203.7969 A2.5,2.5 0 0 1 217,206.2969 L217,231.5938 A2.5,2.5 0 0 1 214.5,234.0938 L179.5,234.0938 A2.5,2.5 0 0 1 177,231.5938 L177,184 A2.5,2.5 0 0 1 179.5,181.5 " fill="#F1F1F1" style="stroke:#181818;stroke-width:0.5;"/><line style="stroke:#181818;stroke-width:0.5;" x1="177" x2="210" y1="203.7969" y2="203.7969"/><text fill="#000000" font-family="sans-serif" font-size="14" lengthAdjust="spacing" textLength="20" x="181" y="196.4951">i2c</text><!--class OLEDrgb--><g id="elem_OLEDrgb"><rect codeLine="131" fill="#F1F1F1" height="162.0781" id="OLEDrgb" rx="2.5" ry="2.5" style="stroke:#181818;stroke-width:0.5;" width="146" x="252" y="127"/><ellipse cx="289.5" cy="143" fill="#ADD1B2" rx="11" ry="11" style="stroke:#181818;stroke-width:1.0;"/><path d="M291.8438,138.6719 C290.9063,138.2344 290.3125,138.0938 289.4375,138.0938 C286.8125,138.0938 284.8125,140.1719 284.8125,142.8906 L284.8125,144.0156 C284.8125,146.5938 286.9219,148.4844 289.8125,148.4844 C291.0313,148.4844 292.1875,148.1875 292.9375,147.6406 C293.5156,147.2344 293.8438,146.7813 293.8438,146.3906 C293.8438,145.9375 293.4531,145.5469 292.9844,145.5469 C292.7656,145.5469 292.5625,145.625 292.375,145.8125 C291.9219,146.2969 291.9219,146.2969 291.7344,146.3906 C291.3125,146.6563 290.625,146.7813 289.8594,146.7813 C287.8125,146.7813 286.5156,145.6875 286.5156,143.9844 L286.5156,142.8906 C286.5156,141.1094 287.7656,139.7969 289.5,139.7969 C290.0781,139.7969 290.6875,139.9531 291.1563,140.2031 C291.6406,140.4844 291.8125,140.7031 291.9063,141.1094 C291.9688,141.5156 292,141.6406 292.1406,141.7656 C292.2813,141.9063 292.5156,142.0156 292.7344,142.0156 C293,142.0156 293.2656,141.875 293.4375,141.6563 C293.5469,141.5 293.5781,141.3125 293.5781,140.8906 L293.5781,139.4688 C293.5781,139.0313 293.5625,138.9063 293.4688,138.75 C293.3125,138.4844 293.0313,138.3438 292.7344,138.3438 C292.4375,138.3438 292.2344,138.4375 292.0156,138.75 L291.8438,138.6719 Z " fill="#000000"/><text fill="#000000" font-family="sans-serif" font-size="14" lengthAdjust="spacing" textLength="64" x="308.5" y="147.8467">OLEDrgb</text><line style="stroke:#181818;stroke-width:0.5;" x1="253" x2="397" y1="159" y2="159"/><line style="stroke:#181818;stroke-width:0.5;" x1="253" x2="397" y1="167" y2="167"/><rect fill="#F24D5C" height="6" style="stroke:#C82930;stroke-width:1.0;" width="6" x="260" y="177.6484"/><text fill="#000000" font-family="sans-serif" font-size="14" lengthAdjust="spacing" textLength="42" x="272" y="183.9951">read()</text><rect fill="#F24D5C" height="6" style="stroke:#C82930;stroke-width:1.0;" width="6" x="260" y="193.9453"/><text fill="#000000" font-family="sans-serif" font-size="14" lengthAdjust="spacing" textLength="47" x="272" y="200.292">write()</text><ellipse cx="263" cy="213.2422" fill="#84BE84" rx="3" ry="3" style="stroke:#038048;stroke-width:1.0;"/><text fill="#000000" font-family="sans-serif" font-size="14" lengthAdjust="spacing" textLength="77" x="272" y="216.5889">draw_line()</text><ellipse cx="263" cy="229.5391" fill="#84BE84" rx="3" ry="3" style="stroke:#038048;stroke-width:1.0;"/><text fill="#000000" font-family="sans-serif" font-size="14" lengthAdjust="spacing" textLength="120" x="272" y="232.8857">draw_rectangle()</text><ellipse cx="263" cy="245.8359" fill="#84BE84" rx="3" ry="3" style="stroke:#038048;stroke-width:1.0;"/><text fill="#000000" font-family="sans-serif" font-size="14" lengthAdjust="spacing" textLength="84" x="272" y="249.1826">read_pixel()</text><ellipse cx="263" cy="262.1328" fill="#84BE84" rx="3" ry="3" style="stroke:#038048;stroke-width:1.0;"/><text fill="#000000" font-family="sans-serif" font-size="14" lengthAdjust="spacing" textLength="48" x="272" y="265.4795">reset()</text><ellipse cx="263" cy="278.4297" fill="#84BE84" rx="3" ry="3" style="stroke:#038048;stroke-width:1.0;"/><text fill="#000000" font-family="sans-serif" font-size="14" lengthAdjust="spacing" textLength="89" x="272" y="281.7764">write_pixel()</text></g><!--reverse link SegDisplay to PIN_ON_SENSE--><g id="link_SegDisplay_PIN_ON_SENSE"><path codeLine="144" d="M1456.03,253.83 C1437.01,339.29 1395.88,524.201 1377.81,605.402 " fill="none" id="SegDisplay-backto-PIN_ON_SENSE" style="stroke:#181818;stroke-width:1.0;"/><polygon fill="#181818" points="1457.13,248.85,1451.2729,256.768,1456.0453,253.7309,1459.0824,258.5034,1457.13,248.85" style="stroke:#181818;stroke-width:1.0;"/></g><!--reverse link SegHexDisplay to PIN_ON_SENSE--><g id="link_SegHexDisplay_PIN_ON_SENSE"><path codeLine="145" d="M1290.05,253.83 C1307.3,339.29 1344.62,524.201 1361.01,605.402 " fill="none" id="SegHexDisplay-backto-PIN_ON_SENSE" style="stroke:#181818;stroke-width:1.0;"/><polygon fill="#181818" points="1289.04,248.85,1286.9204,258.4681,1290.0398,253.749,1294.7589,256.8684,1289.04,248.85" style="stroke:#181818;stroke-width:1.0;"/></g><!--reverse link Font06 to BaseFont--><g id="link_Font06_BaseFont"><path codeLine="147" d="M974.892,737.968 C955.915,785.572 927.786,842.6 890,885 C855.905,923.258 807.159,954.099 767.06,975.33 " fill="none" id="Font06-backto-BaseFont" style="stroke:#181818;stroke-width:1.0;"/><polygon fill="none" points="968.385,735.388,982.092,719.229,981.453,740.409,968.385,735.388" style="stroke:#181818;stroke-width:1.0;"/></g><!--reverse link Font08 to BaseFont--><g id="link_Font08_BaseFont"><path codeLine="148" d="M772.814,738.776 C755.354,799.973 732.726,879.281 716.56,935.939 " fill="none" id="Font08-backto-BaseFont" style="stroke:#181818;stroke-width:1.0;"/><polygon fill="none" points="766.185,736.498,778.404,719.186,779.648,740.339,766.185,736.498" style="stroke:#181818;stroke-width:1.0;"/></g><!--reverse link Org01 to BaseFont--><g id="link_Org01_BaseFont"><path codeLine="149" d="M619.186,738.776 C636.646,799.973 659.274,879.281 675.44,935.939 " fill="none" id="Org01-backto-BaseFont" style="stroke:#181818;stroke-width:1.0;"/><polygon fill="none" points="612.352,740.339,613.596,719.186,625.815,736.498,612.352,740.339" style="stroke:#181818;stroke-width:1.0;"/></g><!--reverse link Pen to Colour--><g id="link_Pen_Colour"><path codeLine="151" d="M386.077,1005.219 C435.299,1009.72 385.808,1082.475 415,1130 C426.187,1148.212 440.649,1165.394 456.097,1180.95 " fill="none" id="Pen-backto-Colour" style="stroke:#181818;stroke-width:1.0;"/><polygon fill="#181818" points="381,1005,389.819,1009.3846,385.9953,1005.2158,390.1642,1001.3921,381,1005" style="stroke:#181818;stroke-width:1.0;"/></g><!--reverse link Pen to Colour--><g id="link_Pen_Colour"><path codeLine="152" d="M386.008,1021.242 C428.734,1025.63 388.61,1088.758 415,1130 C426.611,1148.146 441.383,1165.35 457.034,1180.963 " fill="none" id="Pen-backto-Colour-1" style="stroke:#181818;stroke-width:1.0;"/><polygon fill="#181818" points="381,1021,389.7964,1025.4299,385.9942,1021.2414,390.1826,1017.4392,381,1021" style="stroke:#181818;stroke-width:1.0;"/></g><!--reverse link BoundPixel to Pixel--><g id="link_BoundPixel_Pixel"><path codeLine="154" d="M127.811,1085.77 C128.592,1118.443 129.502,1156.482 130.273,1188.753 " fill="none" id="BoundPixel-backto-Pixel" style="stroke:#181818;stroke-width:1.0;"/><polygon fill="none" points="120.812,1085.867,127.332,1065.705,134.808,1085.532,120.812,1085.867" style="stroke:#181818;stroke-width:1.0;"/></g><!--reverse link Canvas to Colour--><g id="link_Canvas_Colour"><path codeLine="156" d="M412.38,479.248 C548.143,492.047 398.996,997.002 452,1130 C459.093,1147.798 469.547,1165.003 481.197,1180.769 " fill="none" id="Canvas-backto-Colour" style="stroke:#181818;stroke-width:1.0;"/><polygon fill="#181818" points="407,479,415.8065,483.4098,411.9947,479.23,416.1745,475.4183,407,479" style="stroke:#181818;stroke-width:1.0;"/></g><!--reverse link Canvas to Colour--><g id="link_Canvas_Colour"><path codeLine="157" d="M411.6,513.578 C447.42,551.406 519.208,995.571 547.821,1180.737 " fill="none" id="Canvas-backto-Colour-1" style="stroke:#181818;stroke-width:1.0;"/><polygon fill="#181818" points="407,511,412.8955,518.8894,411.3617,513.4445,416.8067,511.9106,407,511" style="stroke:#181818;stroke-width:1.0;"/></g><!--reverse link Canvas to BoundPixel--><g id="link_Canvas_BoundPixel"><path codeLine="158" d="M237.883,495.083 C57.7654,500.998 93.03,820.399 115.289,952.123 " fill="none" id="Canvas-backto-BoundPixel" style="stroke:#181818;stroke-width:1.0;"/><polygon fill="#181818" points="243,495,233.936,491.1471,238.0007,495.0814,234.0663,499.1461,243,495" style="stroke:#181818;stroke-width:1.0;"/></g><!--reverse link Canvas to BoundPixel--><g id="link_Canvas_BoundPixel"><path codeLine="159" d="M237.977,527.085 C70.1434,532.818 97.036,826.976 116.176,952.353 " fill="none" id="Canvas-backto-BoundPixel-1" style="stroke:#181818;stroke-width:1.0;"/><polygon fill="#181818" points="243,527,233.9338,523.1523,238.0007,527.0843,234.0687,531.1512,243,527" style="stroke:#181818;stroke-width:1.0;"/></g><!--reverse link Canvas to Pen--><g id="link_Canvas_Pen"><path codeLine="160" d="M237.791,544.1 C81.0195,550.249 212.514,837.061 274.264,956.571 " fill="none" id="Canvas-backto-Pen" style="stroke:#181818;stroke-width:1.0;"/><polygon fill="#181818" points="243,544,233.924,540.1756,238.0009,544.0972,234.0794,548.1741,243,544" style="stroke:#181818;stroke-width:1.0;"/></g><!--reverse link Canvas to BaseFont--><g id="link_Canvas_BaseFont"><path codeLine="161" d="M412.301,641.112 C520.437,645.801 429.213,796.541 502,885 C534.814,924.879 584.073,955.887 624.742,976.793 " fill="none" id="Canvas-backto-BaseFont" style="stroke:#181818;stroke-width:1.0;"/><polygon fill="#181818" points="407,641,415.9134,645.1894,411.9989,641.1057,416.0826,637.1912,407,641" style="stroke:#181818;stroke-width:1.0;"/></g><!--reverse link OLEDrgb to Canvas--><g id="link_OLEDrgb_Canvas"><path codeLine="163" d="M325,309.31 C325,345.7 325,388.34 325,430.785 " fill="none" id="OLEDrgb-backto-Canvas" style="stroke:#181818;stroke-width:1.0;"/><polygon fill="none" points="318,309.22,325,289.22,332,309.22,318,309.22" style="stroke:#181818;stroke-width:1.0;"/></g><!--SRC=[vLZFRzem5BxpL_Yu2H6rareXX7feeIjILQfssewMIPnWBR4Zsz1KhF_xx3YXmR43R6WxDAVWx_dvvVFx2KKP5ZaACKWNAqbI0JOze1wwNOyuMMDUh-zY0gynXG8d6QOIZCTFE9I89Yc-kch8woTCaH3W6ISJ8l8KlLgmVWOW9K8262uHX_gr9T47aTdzwNCBU-krtpo6mYKk3ZFs3XV_nzwGPHcZdKPYkih0u-m1pX_Wy_JXUUemiG_kPb_l7Cltyn-zBclUB2T8ECgN97HxGSoe5DRfx-W22GorIEVNw0SjXEGeb1N_rshZhTxNbZJqBuZCKEu12OrmuS6Iz3LVEh5DRSCRw1DrT88bLCSuxiydJN5ngBXGuZaJH196Epsa_MkN_BFBlTmQIc-Dy3yaz00M3w7kn7mDZ-5h-97fOZo1P-S7qZNdoTdvnsBBJfHBdEQwMle8CqGzOcgHs0UB18OiPIiEHk2cVB44udq2KcNednGh_ID5gFHON5b02fosR2WSE_lWrRbQGBqkLtcATv6ChJ6Kp2Anp-9OSUnULSodY5kORV8rMz78RNT6A7JRhX6t_HagV7jGuTpZBetcJlRTkBcmbk4SHquJ4ewLYxYGHRh2JW09o9F5nUL51peS3btePFfzTZE5rxDlSFuqcJxfM6KymhiEjX4IIHAguXLpbbM7DUxCGm-YQ-HdnwhvDqRwwDW8rGqmZRuxoR7HmpX92ErIaPTNecBNMbzYaYoba_ON4icbEtoE3hNsUjbLZRQDKi_NR4GSlQWEbM8hmbeolBuZEqnBj1tJCKbJA4Bjh3Qaiq1xGvaR3DDjTKrpE4OHpFKbs2e4JfMLSEiI7ZpsuI-SI5msxHt76o7d-GQIxNAohuUkIyF6YUOPYzpjDVaIDjQTqqrEd1FC_7uwKM7gd5qqmOuwDm3bzpaGDSnutAY1-XoepdQUIwtXTe6emiXx7MxYttgzQfmDgl4rs9a0WyOWEXuCW2ring-WELrrAzGZPR0xC1wgTwkudh62SfuAJ6CVL2tx-5T3dIMvdR22RIReqZaqEeSdqcawnA3i_OvLsTPP1KcWiknez9xsnowrLUKDgdJUhIi-IfTVMQCBSN_izjIoWhGLcO8Oc4htrzzeQOjFggsggkEkpsnKottggWfxAdMw77VgqfLwBs7b7nD_vhHboWvKyWtgHElsY9qZVmC0]--></g></svg>