<?xml version="1.0" encoding="UTF-8" standalone="no"?><svg xmlns="http://www.w3.org/2000/svg" xmlns:xlink="http://www.w3.org/1999/xlink" contentStyleType="text/css" height="353px" preserveAspectRatio="none" style="width:374px;height:353px;background:#FFFFFF;" version="1.1" viewBox="0 0 374 353" width="374px" zoomAndPan="magnify"><defs/><g><!--cluster lbutils--><g id="cluster_lbutils"><path d="M8.5,6 L56.5,6 A3.75,3.75 0 0 1 59,8.5 L66,28.2969 L364.5,28.2969 A2.5,2.5 0 0 1 367,30.7969 L367,343.5 A2.5,2.5 0 0 1 364.5,346 L8.5,346 A2.5,2.5 0 0 1 6,343.5 L6,8.5 A2.5,2.5 0 0 1 8.5,6 " fill="none" style="stroke:#000000;stroke-width:1.5;"/><line style="stroke:#000000;stroke-width:1.5;" x1="6" x2="66" y1="28.2969" y2="28.2969"/><text fill="#000000" font-family="sans-serif" font-size="14" font-weight="bold" lengthAdjust="spacing" textLength="47" x="10" y="20.9951">lbutils</text></g><!--cluster lbutils.drivers--><g id="cluster_lbutils.drivers"><path d="M32.5,49 L89.5,49 A3.75,3.75 0 0 1 92,51.5 L99,71.2969 L340.5,71.2969 A2.5,2.5 0 0 1 343,73.7969 L343,319.5 A2.5,2.5 0 0 1 340.5,322 L32.5,322 A2.5,2.5 0 0 1 30,319.5 L30,51.5 A2.5,2.5 0 0 1 32.5,49 " fill="none" style="stroke:#000000;stroke-width:1.5;"/><line style="stroke:#000000;stroke-width:1.5;" x1="30" x2="99" y1="71.2969" y2="71.2969"/><text fill="#000000" font-family="sans-serif" font-size="14" font-weight="bold" lengthAdjust="spacing" textLength="56" x="34" y="63.9951">drivers</text></g><!--class lbutils.drivers.SegDisplay--><g id="elem_lbutils.drivers.SegDisplay"><rect codeLine="3" fill="#F1F1F1" height="80.5938" id="lbutils.drivers.SegDisplay" rx="2.5" ry="2.5" style="stroke:#181818;stroke-width:0.5;" width="112" x="215" y="84"/><ellipse cx="231.8" cy="100" fill="#ADD1B2" rx="11" ry="11" style="stroke:#181818;stroke-width:1.0;"/><path d="M234.7688,105.6406 Q234.1906,105.9375 233.55,106.0781 Q232.9094,106.2344 232.2063,106.2344 Q229.7063,106.2344 228.3781,104.5938 Q227.0656,102.9375 227.0656,99.8125 Q227.0656,96.6875 228.3781,95.0313 Q229.7063,93.375 232.2063,93.375 Q232.9094,93.375 233.55,93.5313 Q234.2063,93.6875 234.7688,93.9844 L234.7688,96.7031 Q234.1438,96.125 233.55,95.8594 Q232.9563,95.5781 232.3313,95.5781 Q230.9875,95.5781 230.3,96.6563 Q229.6125,97.7188 229.6125,99.8125 Q229.6125,101.9063 230.3,102.9844 Q230.9875,104.0469 232.3313,104.0469 Q232.9563,104.0469 233.55,103.7813 Q234.1438,103.5 234.7688,102.9219 L234.7688,105.6406 Z " fill="#000000"/><text fill="#000000" font-family="sans-serif" font-size="14" lengthAdjust="spacing" textLength="76" x="246.2" y="104.8467">SegDisplay</text><line style="stroke:#181818;stroke-width:0.5;" x1="216" x2="326" y1="116" y2="116"/><rect fill="none" height="6" style="stroke:#C82930;stroke-width:1.0;" width="6" x="223" y="126.6484"/><text fill="#000000" font-family="sans-serif" font-size="14" lengthAdjust="spacing" textLength="86" x="235" y="132.9951">list _char_list</text><line style="stroke:#181818;stroke-width:0.5;" x1="216" x2="326" y1="140.2969" y2="140.2969"/><ellipse cx="226" cy="153.9453" fill="#84BE84" rx="3" ry="3" style="stroke:#038048;stroke-width:1.0;"/><text fill="#000000" font-family="sans-serif" font-size="14" lengthAdjust="spacing" textLength="57" x="235" y="157.292">display()</text></g><!--class lbutils.drivers.SegHexDisplay--><g id="elem_lbutils.drivers.SegHexDisplay"><rect codeLine="7" fill="#F1F1F1" height="80.5938" id="lbutils.drivers.SegHexDisplay" rx="2.5" ry="2.5" style="stroke:#181818;stroke-width:0.5;" width="134" x="46" y="84"/><ellipse cx="61" cy="100" fill="#ADD1B2" rx="11" ry="11" style="stroke:#181818;stroke-width:1.0;"/><path d="M63.9688,105.6406 Q63.3906,105.9375 62.75,106.0781 Q62.1094,106.2344 61.4063,106.2344 Q58.9063,106.2344 57.5781,104.5938 Q56.2656,102.9375 56.2656,99.8125 Q56.2656,96.6875 57.5781,95.0313 Q58.9063,93.375 61.4063,93.375 Q62.1094,93.375 62.75,93.5313 Q63.4063,93.6875 63.9688,93.9844 L63.9688,96.7031 Q63.3438,96.125 62.75,95.8594 Q62.1563,95.5781 61.5313,95.5781 Q60.1875,95.5781 59.5,96.6563 Q58.8125,97.7188 58.8125,99.8125 Q58.8125,101.9063 59.5,102.9844 Q60.1875,104.0469 61.5313,104.0469 Q62.1563,104.0469 62.75,103.7813 Q63.3438,103.5 63.9688,102.9219 L63.9688,105.6406 Z " fill="#000000"/><text fill="#000000" font-family="sans-serif" font-size="14" lengthAdjust="spacing" textLength="102" x="75" y="104.8467">SegHexDisplay</text><line style="stroke:#181818;stroke-width:0.5;" x1="47" x2="179" y1="116" y2="116"/><rect fill="none" height="6" style="stroke:#C82930;stroke-width:1.0;" width="6" x="54" y="126.6484"/><text fill="#000000" font-family="sans-serif" font-size="14" lengthAdjust="spacing" textLength="86" x="66" y="132.9951">list _char_list</text><line style="stroke:#181818;stroke-width:0.5;" x1="47" x2="179" y1="140.2969" y2="140.2969"/><ellipse cx="57" cy="153.9453" fill="#84BE84" rx="3" ry="3" style="stroke:#038048;stroke-width:1.0;"/><text fill="#000000" font-family="sans-serif" font-size="14" lengthAdjust="spacing" textLength="57" x="66" y="157.292">display()</text></g><!--class lbutils.drivers.PIN_ON_SENSE--><g id="elem_lbutils.drivers.PIN_ON_SENSE"><rect codeLine="11" fill="#F1F1F1" height="80.5938" id="lbutils.drivers.PIN_ON_SENSE" rx="2.5" ry="2.5" style="stroke:#181818;stroke-width:0.5;" width="135" x="118.5" y="225"/><ellipse cx="133.5" cy="241" fill="#EB937F" rx="11" ry="11" style="stroke:#181818;stroke-width:1.0;"/><path d="M137.6094,247 L129.8906,247 L129.8906,234.6094 L137.6094,234.6094 L137.6094,236.7656 L132.3438,236.7656 L132.3438,239.4375 L137.1094,239.4375 L137.1094,241.5938 L132.3438,241.5938 L132.3438,244.8438 L137.6094,244.8438 L137.6094,247 Z " fill="#000000"/><text fill="#000000" font-family="sans-serif" font-size="14" lengthAdjust="spacing" textLength="103" x="147.5" y="245.8467">PIN_ON_SENSE</text><line style="stroke:#181818;stroke-width:0.5;" x1="119.5" x2="252.5" y1="257" y2="257"/><ellipse cx="129.5" cy="270.6484" fill="none" rx="3" ry="3" style="stroke:#038048;stroke-width:1.0;"/><text fill="#000000" font-family="sans-serif" font-size="14" lengthAdjust="spacing" textLength="34" x="138.5" y="273.9951">HIGH</text><ellipse cx="129.5" cy="286.9453" fill="none" rx="3" ry="3" style="stroke:#038048;stroke-width:1.0;"/><text fill="#000000" font-family="sans-serif" font-size="14" lengthAdjust="spacing" textLength="31" x="138.5" y="290.292">LOW</text><line style="stroke:#181818;stroke-width:0.5;" x1="119.5" x2="252.5" y1="297.5938" y2="297.5938"/></g><!--reverse link lbutils.drivers.SegDisplay to lbutils.drivers.PIN_ON_SENSE--><g id="link_lbutils.drivers.SegDisplay_lbutils.drivers.PIN_ON_SENSE"><path codeLine="18" d="M243.39,170.65 C232.75,188.06 220.68,207.79 210.36,224.66 " fill="none" id="lbutils.drivers.SegDisplay-backto-lbutils.drivers.PIN_ON_SENSE" style="stroke:#181818;stroke-width:1.0;"/><polygon fill="#181818" points="245.85,166.62,237.7537,172.228,243.2503,170.891,244.5873,176.3876,245.85,166.62" style="stroke:#181818;stroke-width:1.0;"/></g><!--reverse link lbutils.drivers.SegHexDisplay to lbutils.drivers.PIN_ON_SENSE--><g id="link_lbutils.drivers.SegHexDisplay_lbutils.drivers.PIN_ON_SENSE"><path codeLine="19" d="M136.71,170.65 C145.85,188.06 156.22,207.79 165.08,224.66 " fill="none" id="lbutils.drivers.SegHexDisplay-backto-lbutils.drivers.PIN_ON_SENSE" style="stroke:#181818;stroke-width:1.0;"/><polygon fill="#181818" points="134.62,166.67,135.2681,176.4975,136.947,171.0955,142.349,172.7744,134.62,166.67" style="stroke:#181818;stroke-width:1.0;"/></g><!--SRC=[oqlCJIqkI4nELSX9AYt9p2bMgEPI088yk7XAKMPPQX5C70IISnABYnM2KzDTCeiBSX8haQH0G5SX9xEuH24-EIEnA1x4H97LLaY1wDBGX8lNOXhjaLf1VTDJyqfp5G8y_UBz_UA3NVs2NT7CrbRmy7JtG1FoyGz7CwgMgvQB2nfSUj3WqKCA3XjTNGLqQMHRiUb5yYz1xG00]--></g></svg>