<?xml version="1.0" encoding="us-ascii" standalone="no"?><svg xmlns="http://www.w3.org/2000/svg" xmlns:xlink="http://www.w3.org/1999/xlink" contentStyleType="text/css" height="435px" preserveAspectRatio="none" style="width:453px;height:435px;background:#FFFFFF;" version="1.1" viewBox="0 0 453 435" width="453px" zoomAndPan="magnify"><defs/><g><!--cluster lbutils--><g id="cluster_lbutils"><path d="M8.5,6 L56.5,6 A3.75,3.75 0 0 1 59,8.5 L66,28.2969 L443.5,28.2969 A2.5,2.5 0 0 1 446,30.7969 L446,425.5 A2.5,2.5 0 0 1 443.5,428 L8.5,428 A2.5,2.5 0 0 1 6,425.5 L6,8.5 A2.5,2.5 0 0 1 8.5,6 " fill="none" style="stroke:#000000;stroke-width:1.5;"/><line style="stroke:#000000;stroke-width:1.5;" x1="6" x2="66" y1="28.2969" y2="28.2969"/><text fill="#000000" font-family="sans-serif" font-size="14" font-weight="bold" lengthAdjust="spacing" textLength="47" x="10" y="20.9951">lbutils</text></g><!--cluster drivers--><g id="cluster_drivers"><path d="M32.5,49 L89.5,49 A3.75,3.75 0 0 1 92,51.5 L99,71.2969 L419.5,71.2969 A2.5,2.5 0 0 1 422,73.7969 L422,401.5 A2.5,2.5 0 0 1 419.5,404 L32.5,404 A2.5,2.5 0 0 1 30,401.5 L30,51.5 A2.5,2.5 0 0 1 32.5,49 " fill="none" style="stroke:#000000;stroke-width:1.5;"/><line style="stroke:#000000;stroke-width:1.5;" x1="30" x2="99" y1="71.2969" y2="71.2969"/><text fill="#000000" font-family="sans-serif" font-size="14" font-weight="bold" lengthAdjust="spacing" textLength="56" x="34" y="63.9951">drivers</text></g><!--cluster seven_segment--><g id="cluster_seven_segment"><rect fill="none" height="132" rx="2.5" ry="2.5" style="stroke:#181818;stroke-width:1.0;" width="144" x="254" y="92"/><text fill="#000000" font-family="sans-serif" font-size="14" font-weight="bold" lengthAdjust="spacing" textLength="124" x="264" y="106.9951">seven_segment</text></g><!--cluster seven_segment_hex--><g id="cluster_seven_segment_hex"><rect fill="none" height="132" rx="2.5" ry="2.5" style="stroke:#181818;stroke-width:1.0;" width="176" x="54" y="92"/><text fill="#000000" font-family="sans-serif" font-size="14" font-weight="bold" lengthAdjust="spacing" textLength="160" x="62" y="106.9951">seven_segment_hex</text></g><!--cluster common--><g id="cluster_common"><rect fill="none" height="132" rx="2.5" ry="2.5" style="stroke:#181818;stroke-width:1.0;" width="168" x="146" y="248"/><text fill="#000000" font-family="sans-serif" font-size="14" font-weight="bold" lengthAdjust="spacing" textLength="67" x="196.5" y="262.9951">common</text></g><!--class SegDisplay--><g id="elem_SegDisplay"><rect codeLine="4" fill="#F1F1F1" height="80.5938" id="SegDisplay" rx="2.5" ry="2.5" style="stroke:#181818;stroke-width:0.5;" width="112" x="270" y="127"/><ellipse cx="286.8" cy="143" fill="#ADD1B2" rx="11" ry="11" style="stroke:#181818;stroke-width:1.0;"/><path d="M289.7688,148.6406 Q289.1906,148.9375 288.55,149.0781 Q287.9094,149.2344 287.2063,149.2344 Q284.7063,149.2344 283.3781,147.5938 Q282.0656,145.9375 282.0656,142.8125 Q282.0656,139.6875 283.3781,138.0313 Q284.7063,136.375 287.2063,136.375 Q287.9094,136.375 288.55,136.5313 Q289.2063,136.6875 289.7688,136.9844 L289.7688,139.7031 Q289.1438,139.125 288.55,138.8594 Q287.9563,138.5781 287.3313,138.5781 Q285.9875,138.5781 285.3,139.6563 Q284.6125,140.7188 284.6125,142.8125 Q284.6125,144.9063 285.3,145.9844 Q285.9875,147.0469 287.3313,147.0469 Q287.9563,147.0469 288.55,146.7813 Q289.1438,146.5 289.7688,145.9219 L289.7688,148.6406 Z " fill="#000000"/><text fill="#000000" font-family="sans-serif" font-size="14" lengthAdjust="spacing" textLength="76" x="301.2" y="147.8467">SegDisplay</text><line style="stroke:#181818;stroke-width:0.5;" x1="271" x2="381" y1="159" y2="159"/><rect fill="none" height="6" style="stroke:#C82930;stroke-width:1.0;" width="6" x="278" y="169.6484"/><text fill="#000000" font-family="sans-serif" font-size="14" lengthAdjust="spacing" textLength="86" x="290" y="175.9951">list _char_list</text><line style="stroke:#181818;stroke-width:0.5;" x1="271" x2="381" y1="183.2969" y2="183.2969"/><ellipse cx="281" cy="196.9453" fill="#84BE84" rx="3" ry="3" style="stroke:#038048;stroke-width:1.0;"/><text fill="#000000" font-family="sans-serif" font-size="14" lengthAdjust="spacing" textLength="57" x="290" y="200.292">display()</text></g><!--class SegHexDisplay--><g id="elem_SegHexDisplay"><rect codeLine="10" fill="#F1F1F1" height="80.5938" id="SegHexDisplay" rx="2.5" ry="2.5" style="stroke:#181818;stroke-width:0.5;" width="134" x="80" y="127"/><ellipse cx="95" cy="143" fill="#ADD1B2" rx="11" ry="11" style="stroke:#181818;stroke-width:1.0;"/><path d="M97.9688,148.6406 Q97.3906,148.9375 96.75,149.0781 Q96.1094,149.2344 95.4063,149.2344 Q92.9063,149.2344 91.5781,147.5938 Q90.2656,145.9375 90.2656,142.8125 Q90.2656,139.6875 91.5781,138.0313 Q92.9063,136.375 95.4063,136.375 Q96.1094,136.375 96.75,136.5313 Q97.4063,136.6875 97.9688,136.9844 L97.9688,139.7031 Q97.3438,139.125 96.75,138.8594 Q96.1563,138.5781 95.5313,138.5781 Q94.1875,138.5781 93.5,139.6563 Q92.8125,140.7188 92.8125,142.8125 Q92.8125,144.9063 93.5,145.9844 Q94.1875,147.0469 95.5313,147.0469 Q96.1563,147.0469 96.75,146.7813 Q97.3438,146.5 97.9688,145.9219 L97.9688,148.6406 Z " fill="#000000"/><text fill="#000000" font-family="sans-serif" font-size="14" lengthAdjust="spacing" textLength="102" x="109" y="147.8467">SegHexDisplay</text><line style="stroke:#181818;stroke-width:0.5;" x1="81" x2="213" y1="159" y2="159"/><rect fill="none" height="6" style="stroke:#C82930;stroke-width:1.0;" width="6" x="88" y="169.6484"/><text fill="#000000" font-family="sans-serif" font-size="14" lengthAdjust="spacing" textLength="86" x="100" y="175.9951">list _char_list</text><line style="stroke:#181818;stroke-width:0.5;" x1="81" x2="213" y1="183.2969" y2="183.2969"/><ellipse cx="91" cy="196.9453" fill="#84BE84" rx="3" ry="3" style="stroke:#038048;stroke-width:1.0;"/><text fill="#000000" font-family="sans-serif" font-size="14" lengthAdjust="spacing" textLength="57" x="100" y="200.292">display()</text></g><!--class PIN_ON_SENSE--><g id="elem_PIN_ON_SENSE"><rect codeLine="16" fill="#F1F1F1" height="80.5938" id="PIN_ON_SENSE" rx="2.5" ry="2.5" style="stroke:#181818;stroke-width:0.5;" width="135" x="162.5" y="283"/><ellipse cx="177.5" cy="299" fill="#EB937F" rx="11" ry="11" style="stroke:#181818;stroke-width:1.0;"/><path d="M181.6094,305 L173.8906,305 L173.8906,292.6094 L181.6094,292.6094 L181.6094,294.7656 L176.3438,294.7656 L176.3438,297.4375 L181.1094,297.4375 L181.1094,299.5938 L176.3438,299.5938 L176.3438,302.8438 L181.6094,302.8438 L181.6094,305 Z " fill="#000000"/><text fill="#000000" font-family="sans-serif" font-size="14" lengthAdjust="spacing" textLength="103" x="191.5" y="303.8467">PIN_ON_SENSE</text><line style="stroke:#181818;stroke-width:0.5;" x1="163.5" x2="296.5" y1="315" y2="315"/><ellipse cx="173.5" cy="328.6484" fill="none" rx="3" ry="3" style="stroke:#038048;stroke-width:1.0;"/><text fill="#000000" font-family="sans-serif" font-size="14" lengthAdjust="spacing" textLength="34" x="182.5" y="331.9951">HIGH</text><ellipse cx="173.5" cy="344.9453" fill="none" rx="3" ry="3" style="stroke:#038048;stroke-width:1.0;"/><text fill="#000000" font-family="sans-serif" font-size="14" lengthAdjust="spacing" textLength="31" x="182.5" y="348.292">LOW</text><line style="stroke:#181818;stroke-width:0.5;" x1="163.5" x2="296.5" y1="355.5938" y2="355.5938"/></g><!--reverse link SegDisplay to PIN_ON_SENSE--><g id="link_SegDisplay_PIN_ON_SENSE"><path codeLine="24" d="M298.55,212.54 C284.71,234.74 268.06,261.44 254.64,282.98 " fill="none" id="SegDisplay-backto-PIN_ON_SENSE" style="stroke:#181818;stroke-width:1.0;"/><polygon fill="#181818" points="301.28,208.16,293.1264,213.6843,298.6364,212.404,299.9168,217.9141,301.28,208.16" style="stroke:#181818;stroke-width:1.0;"/></g><!--reverse link SegHexDisplay to PIN_ON_SENSE--><g id="link_SegHexDisplay_PIN_ON_SENSE"><path codeLine="25" d="M170.88,212.81 C182.82,234.96 197.14,261.53 208.7,282.98 " fill="none" id="SegHexDisplay-backto-PIN_ON_SENSE" style="stroke:#181818;stroke-width:1.0;"/><polygon fill="#181818" points="168.37,208.16,169.1188,217.9804,170.7422,212.5614,176.1611,214.1848,168.37,208.16" style="stroke:#181818;stroke-width:1.0;"/></g><!--SRC=[nPB12e9048Rl-nHpBCHz0kcKf10QUUYuREjWmkugheOHldk95febtlfFmyo_mxSpexb2atE18CzLcKe3Tm9FwNS-Bj8h5g_yk6RmYfePJ1Jg4XpdYABaEf6usGpyhOJana24oJOrkUItZt8h6sHgIc3YmWlMXXE71N7tUhMUr1eoZNw0iWlMos0zhF_3ApAbCZqBYRfISF035WOiSeF8_O9eWUVll2_fVNWYSpGDQGZfBuBs5q17GwI3NJgs3P_cxWTq23ZViDqA7SzyQTy7]--></g></svg>