<?xml version="1.0" encoding="us-ascii" standalone="no"?><svg xmlns="http://www.w3.org/2000/svg" xmlns:xlink="http://www.w3.org/1999/xlink" contentStyleType="text/css" height="632px" preserveAspectRatio="none" style="width:727px;height:632px;background:#FFFFFF;" version="1.1" viewBox="0 0 727 632" width="727px" zoomAndPan="magnify"><defs/><g><!--cluster lbutils--><g id="cluster_lbutils"><path d="M8.5,6 L56.5,6 A3.75,3.75 0 0 1 59,8.5 L66,28.2969 L717.5,28.2969 A2.5,2.5 0 0 1 720,30.7969 L720,622.5 A2.5,2.5 0 0 1 717.5,625 L8.5,625 A2.5,2.5 0 0 1 6,622.5 L6,8.5 A2.5,2.5 0 0 1 8.5,6 " fill="none" style="stroke:#000000;stroke-width:1.5;"/><line style="stroke:#000000;stroke-width:1.5;" x1="6" x2="66" y1="28.2969" y2="28.2969"/><text fill="#000000" font-family="sans-serif" font-size="14" font-weight="bold" lengthAdjust="spacing" textLength="47" x="10" y="20.9951">lbutils</text></g><!--cluster graphics--><g id="cluster_graphics"><path d="M32.5,49 L101.5,49 A3.75,3.75 0 0 1 104,51.5 L111,71.2969 L693.5,71.2969 A2.5,2.5 0 0 1 696,73.7969 L696,598.5 A2.5,2.5 0 0 1 693.5,601 L32.5,601 A2.5,2.5 0 0 1 30,598.5 L30,51.5 A2.5,2.5 0 0 1 32.5,49 " fill="none" style="stroke:#000000;stroke-width:1.5;"/><line style="stroke:#000000;stroke-width:1.5;" x1="30" x2="111" y1="71.2969" y2="71.2969"/><text fill="#000000" font-family="sans-serif" font-size="14" font-weight="bold" lengthAdjust="spacing" textLength="68" x="34" y="63.9951">graphics</text></g><!--cluster fonts--><g id="cluster_fonts"><path d="M56.5,92 L98.5,92 A3.75,3.75 0 0 1 101,94.5 L108,114.2969 L669.5,114.2969 A2.5,2.5 0 0 1 672,116.7969 L672,574.5 A2.5,2.5 0 0 1 669.5,577 L56.5,577 A2.5,2.5 0 0 1 54,574.5 L54,94.5 A2.5,2.5 0 0 1 56.5,92 " fill="none" style="stroke:#000000;stroke-width:1.5;"/><line style="stroke:#000000;stroke-width:1.5;" x1="54" x2="108" y1="114.2969" y2="114.2969"/><text fill="#000000" font-family="sans-serif" font-size="14" font-weight="bold" lengthAdjust="spacing" textLength="41" x="58" y="106.9951">fonts</text></g><!--cluster base_font--><g id="cluster_base_font"><rect fill="none" height="197" rx="2.5" ry="2.5" style="stroke:#181818;stroke-width:1.0;" width="172" x="277" y="356"/><text fill="#000000" font-family="sans-serif" font-size="14" font-weight="bold" lengthAdjust="spacing" textLength="77" x="324.5" y="370.9951">base_font</text></g><!--cluster font06--><g id="cluster_font06"><rect fill="none" height="197" rx="2.5" ry="2.5" style="stroke:#181818;stroke-width:1.0;" width="174" x="474" y="135"/><text fill="#000000" font-family="sans-serif" font-size="14" font-weight="bold" lengthAdjust="spacing" textLength="52" x="535" y="149.9951">font06</text></g><!--cluster font08--><g id="cluster_font08"><rect fill="none" height="197" rx="2.5" ry="2.5" style="stroke:#181818;stroke-width:1.0;" width="174" x="276" y="135"/><text fill="#000000" font-family="sans-serif" font-size="14" font-weight="bold" lengthAdjust="spacing" textLength="52" x="337" y="149.9951">font08</text></g><!--cluster org_01--><g id="cluster_org_01"><rect fill="none" height="197" rx="2.5" ry="2.5" style="stroke:#181818;stroke-width:1.0;" width="174" x="78" y="135"/><text fill="#000000" font-family="sans-serif" font-size="14" font-weight="bold" lengthAdjust="spacing" textLength="54" x="138" y="149.9951">org_01</text></g><!--class BaseFont--><g id="elem_BaseFont"><rect codeLine="5" fill="#F1F1F1" height="145.7813" id="BaseFont" rx="2.5" ry="2.5" style="stroke:#181818;stroke-width:0.5;" width="139" x="293.5" y="391"/><ellipse cx="327.4" cy="407" fill="#A9DCDF" rx="11" ry="11" style="stroke:#181818;stroke-width:1.0;"/><path d="M327.5094,402.3438 L326.3531,407.4219 L328.6813,407.4219 L327.5094,402.3438 Z M326.025,400.1094 L329.0094,400.1094 L332.3688,412.5 L329.9156,412.5 L329.15,409.4375 L325.8688,409.4375 L325.1188,412.5 L322.6813,412.5 L326.025,400.1094 Z " fill="#000000"/><text fill="#000000" font-family="sans-serif" font-size="14" font-style="italic" lengthAdjust="spacing" textLength="65" x="345.6" y="411.8467">BaseFont</text><line style="stroke:#181818;stroke-width:0.5;" x1="294.5" x2="431.5" y1="423" y2="423"/><rect fill="none" height="6" style="stroke:#C82930;stroke-width:1.0;" width="6" x="301.5" y="433.6484"/><text fill="#000000" font-family="sans-serif" font-size="14" lengthAdjust="spacing" textLength="47" x="313.5" y="439.9951">bitmap</text><rect fill="none" height="6" style="stroke:#C82930;stroke-width:1.0;" width="6" x="301.5" y="449.9453"/><text fill="#000000" font-family="sans-serif" font-size="14" lengthAdjust="spacing" textLength="37" x="313.5" y="456.292">index</text><rect fill="none" height="6" style="stroke:#C82930;stroke-width:1.0;" width="6" x="301.5" y="466.2422"/><text fill="#000000" font-family="sans-serif" font-size="14" lengthAdjust="spacing" textLength="37" x="313.5" y="472.5889">glyph</text><line style="stroke:#181818;stroke-width:0.5;" x1="294.5" x2="431.5" y1="479.8906" y2="479.8906"/><ellipse cx="304.5" cy="493.5391" fill="#84BE84" rx="3" ry="3" style="stroke:#038048;stroke-width:1.0;"/><text fill="#000000" font-family="sans-serif" font-size="14" font-style="italic" lengthAdjust="spacing" textLength="78" x="313.5" y="496.8857">int get_bit()</text><ellipse cx="304.5" cy="509.8359" fill="#84BE84" rx="3" ry="3" style="stroke:#038048;stroke-width:1.0;"/><text fill="#000000" font-family="sans-serif" font-size="14" font-style="italic" lengthAdjust="spacing" textLength="92" x="313.5" y="513.1826">int get_next()</text><ellipse cx="304.5" cy="526.1328" fill="#84BE84" rx="3" ry="3" style="stroke:#038048;stroke-width:1.0;"/><text fill="#000000" font-family="sans-serif" font-size="14" font-style="italic" lengthAdjust="spacing" textLength="113" x="313.5" y="529.4795">int set_position()</text></g><!--class Font06--><g id="elem_Font06"><rect codeLine="15" fill="#F1F1F1" height="145.7813" id="Font06" rx="2.5" ry="2.5" style="stroke:#181818;stroke-width:0.5;" width="141" x="490.5" y="170"/><ellipse cx="532.5" cy="186" fill="#ADD1B2" rx="11" ry="11" style="stroke:#181818;stroke-width:1.0;"/><path d="M535.4688,191.6406 Q534.8906,191.9375 534.25,192.0781 Q533.6094,192.2344 532.9063,192.2344 Q530.4063,192.2344 529.0781,190.5938 Q527.7656,188.9375 527.7656,185.8125 Q527.7656,182.6875 529.0781,181.0313 Q530.4063,179.375 532.9063,179.375 Q533.6094,179.375 534.25,179.5313 Q534.9063,179.6875 535.4688,179.9844 L535.4688,182.7031 Q534.8438,182.125 534.25,181.8594 Q533.6563,181.5781 533.0313,181.5781 Q531.6875,181.5781 531,182.6563 Q530.3125,183.7188 530.3125,185.8125 Q530.3125,187.9063 531,188.9844 Q531.6875,190.0469 533.0313,190.0469 Q533.6563,190.0469 534.25,189.7813 Q534.8438,189.5 535.4688,188.9219 L535.4688,191.6406 Z " fill="#000000"/><text fill="#000000" font-family="sans-serif" font-size="14" lengthAdjust="spacing" textLength="49" x="552.5" y="190.8467">Font06</text><line style="stroke:#181818;stroke-width:0.5;" x1="491.5" x2="630.5" y1="202" y2="202"/><rect fill="none" height="6" style="stroke:#C82930;stroke-width:1.0;" width="6" x="498.5" y="212.6484"/><text fill="#000000" font-family="sans-serif" font-size="14" lengthAdjust="spacing" textLength="47" x="510.5" y="218.9951">bitmap</text><rect fill="none" height="6" style="stroke:#C82930;stroke-width:1.0;" width="6" x="498.5" y="228.9453"/><text fill="#000000" font-family="sans-serif" font-size="14" lengthAdjust="spacing" textLength="37" x="510.5" y="235.292">index</text><rect fill="none" height="6" style="stroke:#C82930;stroke-width:1.0;" width="6" x="498.5" y="245.2422"/><text fill="#000000" font-family="sans-serif" font-size="14" lengthAdjust="spacing" textLength="37" x="510.5" y="251.5889">glyph</text><line style="stroke:#181818;stroke-width:0.5;" x1="491.5" x2="630.5" y1="258.8906" y2="258.8906"/><ellipse cx="501.5" cy="272.5391" fill="#84BE84" rx="3" ry="3" style="stroke:#038048;stroke-width:1.0;"/><text fill="#000000" font-family="sans-serif" font-size="14" lengthAdjust="spacing" textLength="78" x="510.5" y="275.8857">int get_bit()</text><ellipse cx="501.5" cy="288.8359" fill="#84BE84" rx="3" ry="3" style="stroke:#038048;stroke-width:1.0;"/><text fill="#000000" font-family="sans-serif" font-size="14" lengthAdjust="spacing" textLength="91" x="510.5" y="292.1826">int get_next()</text><ellipse cx="501.5" cy="305.1328" fill="#84BE84" rx="3" ry="3" style="stroke:#038048;stroke-width:1.0;"/><text fill="#000000" font-family="sans-serif" font-size="14" lengthAdjust="spacing" textLength="115" x="510.5" y="308.4795">int set_position()</text></g><!--class Font08--><g id="elem_Font08"><rect codeLine="25" fill="#F1F1F1" height="145.7813" id="Font08" rx="2.5" ry="2.5" style="stroke:#181818;stroke-width:0.5;" width="141" x="292.5" y="170"/><ellipse cx="334.5" cy="186" fill="#ADD1B2" rx="11" ry="11" style="stroke:#181818;stroke-width:1.0;"/><path d="M337.4688,191.6406 Q336.8906,191.9375 336.25,192.0781 Q335.6094,192.2344 334.9063,192.2344 Q332.4063,192.2344 331.0781,190.5938 Q329.7656,188.9375 329.7656,185.8125 Q329.7656,182.6875 331.0781,181.0313 Q332.4063,179.375 334.9063,179.375 Q335.6094,179.375 336.25,179.5313 Q336.9063,179.6875 337.4688,179.9844 L337.4688,182.7031 Q336.8438,182.125 336.25,181.8594 Q335.6563,181.5781 335.0313,181.5781 Q333.6875,181.5781 333,182.6563 Q332.3125,183.7188 332.3125,185.8125 Q332.3125,187.9063 333,188.9844 Q333.6875,190.0469 335.0313,190.0469 Q335.6563,190.0469 336.25,189.7813 Q336.8438,189.5 337.4688,188.9219 L337.4688,191.6406 Z " fill="#000000"/><text fill="#000000" font-family="sans-serif" font-size="14" lengthAdjust="spacing" textLength="49" x="354.5" y="190.8467">Font08</text><line style="stroke:#181818;stroke-width:0.5;" x1="293.5" x2="432.5" y1="202" y2="202"/><rect fill="none" height="6" style="stroke:#C82930;stroke-width:1.0;" width="6" x="300.5" y="212.6484"/><text fill="#000000" font-family="sans-serif" font-size="14" lengthAdjust="spacing" textLength="47" x="312.5" y="218.9951">bitmap</text><rect fill="none" height="6" style="stroke:#C82930;stroke-width:1.0;" width="6" x="300.5" y="228.9453"/><text fill="#000000" font-family="sans-serif" font-size="14" lengthAdjust="spacing" textLength="37" x="312.5" y="235.292">index</text><rect fill="none" height="6" style="stroke:#C82930;stroke-width:1.0;" width="6" x="300.5" y="245.2422"/><text fill="#000000" font-family="sans-serif" font-size="14" lengthAdjust="spacing" textLength="37" x="312.5" y="251.5889">glyph</text><line style="stroke:#181818;stroke-width:0.5;" x1="293.5" x2="432.5" y1="258.8906" y2="258.8906"/><ellipse cx="303.5" cy="272.5391" fill="#84BE84" rx="3" ry="3" style="stroke:#038048;stroke-width:1.0;"/><text fill="#000000" font-family="sans-serif" font-size="14" lengthAdjust="spacing" textLength="78" x="312.5" y="275.8857">int get_bit()</text><ellipse cx="303.5" cy="288.8359" fill="#84BE84" rx="3" ry="3" style="stroke:#038048;stroke-width:1.0;"/><text fill="#000000" font-family="sans-serif" font-size="14" lengthAdjust="spacing" textLength="91" x="312.5" y="292.1826">int get_next()</text><ellipse cx="303.5" cy="305.1328" fill="#84BE84" rx="3" ry="3" style="stroke:#038048;stroke-width:1.0;"/><text fill="#000000" font-family="sans-serif" font-size="14" lengthAdjust="spacing" textLength="115" x="312.5" y="308.4795">int set_position()</text></g><!--class Org01--><g id="elem_Org01"><rect codeLine="35" fill="#F1F1F1" height="145.7813" id="Org01" rx="2.5" ry="2.5" style="stroke:#181818;stroke-width:0.5;" width="141" x="94.5" y="170"/><ellipse cx="139.25" cy="186" fill="#ADD1B2" rx="11" ry="11" style="stroke:#181818;stroke-width:1.0;"/><path d="M142.2188,191.6406 Q141.6406,191.9375 141,192.0781 Q140.3594,192.2344 139.6563,192.2344 Q137.1563,192.2344 135.8281,190.5938 Q134.5156,188.9375 134.5156,185.8125 Q134.5156,182.6875 135.8281,181.0313 Q137.1563,179.375 139.6563,179.375 Q140.3594,179.375 141,179.5313 Q141.6563,179.6875 142.2188,179.9844 L142.2188,182.7031 Q141.5938,182.125 141,181.8594 Q140.4063,181.5781 139.7813,181.5781 Q138.4375,181.5781 137.75,182.6563 Q137.0625,183.7188 137.0625,185.8125 Q137.0625,187.9063 137.75,188.9844 Q138.4375,190.0469 139.7813,190.0469 Q140.4063,190.0469 141,189.7813 Q141.5938,189.5 142.2188,188.9219 L142.2188,191.6406 Z " fill="#000000"/><text fill="#000000" font-family="sans-serif" font-size="14" lengthAdjust="spacing" textLength="43" x="159.75" y="190.8467">Org01</text><line style="stroke:#181818;stroke-width:0.5;" x1="95.5" x2="234.5" y1="202" y2="202"/><rect fill="none" height="6" style="stroke:#C82930;stroke-width:1.0;" width="6" x="102.5" y="212.6484"/><text fill="#000000" font-family="sans-serif" font-size="14" lengthAdjust="spacing" textLength="47" x="114.5" y="218.9951">bitmap</text><rect fill="none" height="6" style="stroke:#C82930;stroke-width:1.0;" width="6" x="102.5" y="228.9453"/><text fill="#000000" font-family="sans-serif" font-size="14" lengthAdjust="spacing" textLength="37" x="114.5" y="235.292">index</text><rect fill="none" height="6" style="stroke:#C82930;stroke-width:1.0;" width="6" x="102.5" y="245.2422"/><text fill="#000000" font-family="sans-serif" font-size="14" lengthAdjust="spacing" textLength="37" x="114.5" y="251.5889">glyph</text><line style="stroke:#181818;stroke-width:0.5;" x1="95.5" x2="234.5" y1="258.8906" y2="258.8906"/><ellipse cx="105.5" cy="272.5391" fill="#84BE84" rx="3" ry="3" style="stroke:#038048;stroke-width:1.0;"/><text fill="#000000" font-family="sans-serif" font-size="14" lengthAdjust="spacing" textLength="78" x="114.5" y="275.8857">int get_bit()</text><ellipse cx="105.5" cy="288.8359" fill="#84BE84" rx="3" ry="3" style="stroke:#038048;stroke-width:1.0;"/><text fill="#000000" font-family="sans-serif" font-size="14" lengthAdjust="spacing" textLength="91" x="114.5" y="292.1826">int get_next()</text><ellipse cx="105.5" cy="305.1328" fill="#84BE84" rx="3" ry="3" style="stroke:#038048;stroke-width:1.0;"/><text fill="#000000" font-family="sans-serif" font-size="14" lengthAdjust="spacing" textLength="115" x="114.5" y="308.4795">int set_position()</text></g><!--reverse link Font06 to BaseFont--><g id="link_Font06_BaseFont"><path codeLine="48" d="M482.37,330.97 C464.4,350.85 445.48,371.77 428.15,390.94 " fill="none" id="Font06-backto-BaseFont" style="stroke:#181818;stroke-width:1.0;"/><polygon fill="none" points="477.29,326.15,495.89,316.01,487.67,335.54,477.29,326.15" style="stroke:#181818;stroke-width:1.0;"/></g><!--reverse link Font08 to BaseFont--><g id="link_Font08_BaseFont"><path codeLine="49" d="M363,336.25 C363,354.53 363,373.46 363,390.94 " fill="none" id="Font08-backto-BaseFont" style="stroke:#181818;stroke-width:1.0;"/><polygon fill="none" points="356,336.01,363,316.01,370,336.01,356,336.01" style="stroke:#181818;stroke-width:1.0;"/></g><!--reverse link Org01 to BaseFont--><g id="link_Org01_BaseFont"><path codeLine="50" d="M243.63,330.97 C261.6,350.85 280.52,371.77 297.85,390.94 " fill="none" id="Org01-backto-BaseFont" style="stroke:#181818;stroke-width:1.0;"/><polygon fill="none" points="238.33,335.54,230.11,316.01,248.71,326.15,238.33,335.54" style="stroke:#181818;stroke-width:1.0;"/></g><!--SRC=[vPJ1Yi8m48RlUOevhaX3lKWFnSCUl0g-G9d660Cn3Kq4HVlkfiRAThLk1DcBSqhw_pCfNyYlSSkjGSP1bJidbOKZ0L_wzbtKQ3QITK9VN5VQ_LJwQecM5wq5ydp9cKCj59_DVldRmjAw6fa3fj1Q-FQDyxRltjbM0gLqMpG3ejGhlX_GX3gOpKFjsFr30sFfZnRS5VwOhr6qM_DzhDrwkwciTBBI3reQChphmq-dVx8DIEV1_8z08oZ6e7iph-mLNjaduwfgKQIJI5oBMgIJpw8LLWrf2Bbc9-soabvoaOO7IgzFBpyb2GmuRqb9k-XxEZCBCxCtpGmtJIzt-Eh8Cm00]--></g></svg>